<?xml version="1.0" standalone="no"?>
<!DOCTYPE svg PUBLIC "-//W3C//DTD SVG 1.1//EN" "http://www.w3.org/Graphics/SVG/1.1/DTD/svg11.dtd" >
<svg xmlns="http://www.w3.org/2000/svg">
<metadata></metadata>
<defs>
<font id="db_chuanpim_xbold" horiz-adv-x="0" >
<font-face units-per-em="2048" ascent="1638" descent="-410" />
<missing-glyph horiz-adv-x="788" />
<glyph unicode="&#x2b;&#x2d;" horiz-adv-x="1253" d="M508 1192h237v-333h405v-209h-405v-334h-237v334h-405v209h405v333zM103 209h1047v-194h-1047v194z" />
<glyph unicode="&#x2e;&#x2e;&#x2e;" horiz-adv-x="2072" d="M209 277h315v-277h-315v277zM879 277h313v-277h-313v277zM1548 277h314v-277h-314v277z" />
<glyph unicode="&#x3c;&#x3d;" horiz-adv-x="1162" d="M117 667v125l933 475v-155l-785 -380h9v-5h-9l785 -384v-155zM106 2v118h954v-118h-954z" />
<glyph unicode="&#x3e;&#x3d;" horiz-adv-x="1162" d="M1053 792v-125l-934 -479v155l783 382v7q-194 93 -391 189.5t-392 190.5v155zM108 2v118h945v-118h-945z" />
<glyph unicode="&#xe4f;&#x22;" horiz-adv-x="1610" d="M493 1438l-19 410h231l-18 -410h-194zM912 1438l-19 410h231l-18 -410h-194zM1438 588q0 -74 -18.5 -147t-53.5 -140t-88.5 -125.5t-124 -101t-159 -66t-193.5 -23.5t-194.5 23t-159.5 65.5t-123 100t-88.5 125.5t-54 141.5t-18.5 149.5q0 77 18.5 153t54 144t88.5 126.5 t123 101.5t159.5 66t194.5 23q106 0 194.5 -24.5t159.5 -68.5t124 -103t88.5 -127t53 -143.5t17.5 -149.5zM1237 588q0 80 -27 157t-82 137t-137 98t-190 38q-111 0 -192.5 -38t-136.5 -98t-82 -137t-27 -157t27 -157t82 -137.5t136.5 -98.5t192.5 -38q72 0 133 17t108.5 48 t84.5 72.5t62 89t36.5 100t11.5 104.5zM1096 588.5q0 -52.5 -18 -103.5t-55 -90t-92.5 -63t-129.5 -24q-76 0 -131.5 24t-91.5 63t-53.5 90t-17.5 103.5t17.5 103t53.5 90t91.5 63.5t131.5 24q74 0 129.5 -24t92.5 -63.5t55 -90t18 -103z" />
<glyph unicode="&#xe0e;&#xe3a;" horiz-adv-x="1429" d="M1229 -741q0 -24 -7.5 -46.5t-24 -40t-42 -28.5t-60.5 -11q-34 0 -59.5 11t-41 28.5t-24 40.5t-8.5 46q0 25 7 47.5t24 41t42 30t60 11.5t60.5 -11.5t42 -30t24 -41t7.5 -47.5zM1220 -265q0 -58 -22.5 -104.5t-60 -78t-87.5 -47.5q-49 -16 -104 -16q-31 0 -59 6t-52.5 16 t-44.5 21.5t-34 22.5q-12 -12 -31.5 -26t-44 -26.5t-53.5 -21t-63 -8.5q-47 0 -90 15.5t-77 43.5t-54 65.5t-20 83.5q0 45 17 83.5t46.5 67.5t72.5 44.5t95 15.5q50 0 92 -16q42 -15 69 -39q3 12 4 33q2 19 2 44h171q-3 -50 -7 -83.5t-8.5 -58.5t-10.5 -42q-7 -16 -13 -32 q12 -8 30 -15q19 -8 38 -8q28 0 43 21t15 55v1119q0 36 -12 76t-43 75t-81.5 57.5t-127.5 22.5q-47 0 -90.5 -13t-80 -34.5t-62.5 -49.5t-38 -58l246 -8v-88q-34 -15 -58 -36t-38.5 -47t-22 -59t-7.5 -74v-394q0 -49 -15 -95t-46.5 -81.5t-81.5 -57t-119 -21.5 q-56 0 -100.5 16.5t-75.5 49t-47 76.5q-17 45 -17 98q0 46 16.5 87t47.5 72.5t75.5 49t100.5 17.5h9.5t8.5 -1v181q0 27 6.5 53.5t17 51.5t26 46.5t33.5 35.5l-231 7q13 99 59 179t118.5 135.5t165 85.5t200.5 30q135 0 230.5 -36t156.5 -96t89.5 -138.5t28.5 -162.5v-1087z M305 120q25 0 41.5 8t29 21.5t18.5 30.5t6 35.5t-6 35.5t-18.5 31t-29 22.5t-41.5 8.5t-43.5 -8.5t-30 -22.5t-17.5 -31t-6 -35.5t6 -35.5t17.5 -30.5t30 -21.5t43.5 -8zM662 -328q-4 12 -14 27t-24 28t-31 21.5t-38.5 8.5t-37 -6.5t-24.5 -17t-14 -24.5t-5 -25 q0 -34 21.5 -53t61.5 -19q16 0 33 5.5t30.5 14t25.5 19t16 21.5z" />
<glyph unicode="&#xe0f;&#xe3a;" horiz-adv-x="1429" d="M1229 -741q0 -24 -7.5 -46.5t-24 -40t-42 -28.5t-60.5 -11q-34 0 -59.5 11t-41 28.5t-24 40.5t-8.5 46q0 25 7 47.5t24 41t42 30t60 11.5t60.5 -11.5t42 -30t24 -41t7.5 -47.5zM453 -317q-23 35 -54 59t-76 24q-20 0 -36 -6t-27.5 -18.5t-17.5 -27t-6 -30.5 q0 -14 5 -28.5t16 -26t26.5 -19t36.5 -7.5q25 0 46.5 7t38.5 18.5t29.5 25t18.5 29.5zM979 870q0 36 -12 76t-43 75t-81.5 57.5t-127.5 22.5q-47 0 -90.5 -13t-80 -34.5t-62.5 -49.5t-38 -58l246 -8v-88q-34 -15 -58 -36t-38.5 -47t-22 -59t-7.5 -74v-394q0 -49 -15 -95 t-46.5 -81.5t-81.5 -57t-119 -21.5q-56 0 -100.5 16.5t-75.5 49t-47 76.5q-17 45 -17 98q0 46 16.5 87t47.5 72.5t75.5 49t100.5 17.5h9.5t8.5 -1v181q0 27 6.5 53.5t17 51.5t26 46.5t33.5 35.5l-231 7q13 99 59 179t118.5 135.5t165 85.5t200.5 30q135 0 230.5 -36 t156.5 -96t89.5 -138.5t28.5 -162.5v-1121q0 -49 -13 -89t-38.5 -70t-65.5 -46.5t-92.5 -16.5t-91 23.5t-72.5 72.5l-37 52l-89 -144h-123l-62 89q-34 -49 -88 -74t-118 -25q-48 0 -89 15.5t-71.5 43.5t-48.5 65.5t-18 83.5q0 45 16.5 83.5t45.5 67.5t70.5 44.5t90.5 15.5 q56 0 101.5 -20t68.5 -55q0 4 3 16.5t5.5 26.5t4.5 29.5t4 24.5h158q-9 -86 -25 -145.5t-28 -85.5l35 -46l109 203h73l98 -130q9 -10 15.5 -14t12.5 -4q9 0 13.5 6t4.5 19v1153zM305 120q25 0 41.5 8t29 21.5t18.5 30.5t6 35.5t-6 35.5t-18.5 31t-29 22.5t-41.5 8.5 t-43.5 -8.5t-30 -22.5t-17.5 -31t-6 -35.5t6 -35.5t17.5 -30.5t30 -21.5t43.5 -8z" />
<glyph unicode="&#xe0e;&#xe38;" horiz-adv-x="1429" d="M1220 -265q0 -58 -22.5 -104.5t-60 -78t-87.5 -47.5q-49 -16 -104 -16q-31 0 -59 6t-52.5 16t-44.5 21.5t-34 22.5q-12 -12 -31.5 -26t-44 -26.5t-53.5 -21t-63 -8.5q-47 0 -90 15.5t-77 43.5t-54 65.5t-20 83.5q0 45 17 83.5t46.5 67.5t72.5 44.5t95 15.5q50 0 92 -16 q42 -15 69 -39q3 12 4 33q2 19 2 44h171q-3 -50 -7 -83.5t-8.5 -58.5t-10.5 -42q-7 -16 -13 -32q12 -8 30 -15q19 -8 38 -8q28 0 43 21t15 55v1119q0 36 -12 76t-43 75t-81.5 57.5t-127.5 22.5q-47 0 -90.5 -13t-80 -34.5t-62.5 -49.5t-38 -58l246 -8v-88q-34 -15 -58 -36 t-38.5 -47t-22 -59t-7.5 -74v-394q0 -49 -15 -95t-46.5 -81.5t-81.5 -57t-119 -21.5q-56 0 -100.5 16.5t-75.5 49t-47 76.5q-17 45 -17 98q0 46 16.5 87t47.5 72.5t75.5 49t100.5 17.5h9.5t8.5 -1v181q0 27 6.5 53.5t17 51.5t26 46.5t33.5 35.5l-231 7q13 99 59 179 t118.5 135.5t165 85.5t200.5 30q135 0 230.5 -36t156.5 -96t89.5 -138.5t28.5 -162.5v-1087zM305 120q25 0 41.5 8t29 21.5t18.5 30.5t6 35.5t-6 35.5t-18.5 31t-29 22.5t-41.5 8.5t-43.5 -8.5t-30 -22.5t-17.5 -31t-6 -35.5t6 -35.5t17.5 -30.5t30 -21.5t43.5 -8zM662 -328 q-4 12 -14 27t-24 28t-31 21.5t-38.5 8.5t-37 -6.5t-24.5 -17t-14 -24.5t-5 -25q0 -34 21.5 -53t61.5 -19q16 0 33 5.5t30.5 14t25.5 19t16 21.5zM993 -1150v161q-6 0 -10 -0.5t-10 -0.5q-49 0 -83.5 16t-58.5 42t-35 61q-11 33 -11 70q0 36 12.5 72t39.5 63.5t66 46 t93 18.5q57 0 99.5 -16t70.5 -44.5t41 -67t13 -84.5v-337h-227zM1078 -804q0 14 -4.5 28.5t-14 24.5t-25 17t-35.5 7q-18 0 -32.5 -7t-25.5 -17t-15.5 -23.5t-4.5 -29t4.5 -29.5t15.5 -25t24.5 -17.5t33.5 -6.5t35.5 6.5t25 17.5t14 25t4.5 29z" />
<glyph unicode="&#xe0f;&#xe38;" horiz-adv-x="1429" d="M453 -317q-23 35 -54 59t-76 24q-20 0 -36 -6t-27.5 -18.5t-17.5 -27t-6 -30.5q0 -14 5 -28.5t16 -26t26.5 -19t36.5 -7.5q25 0 46.5 7t38.5 18.5t29.5 25t18.5 29.5zM979 870q0 36 -12 76t-43 75t-81.5 57.5t-127.5 22.5q-47 0 -90.5 -13t-80 -34.5t-62.5 -49.5t-38 -58 l246 -8v-88q-34 -15 -58 -36t-38.5 -47t-22 -59t-7.5 -74v-394q0 -49 -15 -95t-46.5 -81.5t-81.5 -57t-119 -21.5q-56 0 -100.5 16.5t-75.5 49t-47 76.5q-17 45 -17 98q0 46 16.5 87t47.5 72.5t75.5 49t100.5 17.5h9.5t8.5 -1v181q0 27 6.5 53.5t17 51.5t26 46.5t33.5 35.5 l-231 7q13 99 59 179t118.5 135.5t165 85.5t200.5 30q135 0 230.5 -36t156.5 -96t89.5 -138.5t28.5 -162.5v-1121q0 -49 -13 -89t-38.5 -70t-65.5 -46.5t-92.5 -16.5t-91 23.5t-72.5 72.5l-37 52l-89 -144h-123l-62 89q-34 -49 -88 -74t-118 -25q-48 0 -89 15.5t-71.5 43.5 t-48.5 65.5t-18 83.5q0 45 16.5 83.5t45.5 67.5t70.5 44.5t90.5 15.5q56 0 101.5 -20t68.5 -55q0 4 3 16.5t5.5 26.5t4.5 29.5t4 24.5h158q-9 -86 -25 -145.5t-28 -85.5l35 -46l109 203h73l98 -130q9 -10 15.5 -14t12.5 -4q9 0 13.5 6t4.5 19v1153zM305 120q25 0 41.5 8 t29 21.5t18.5 30.5t6 35.5t-6 35.5t-18.5 31t-29 22.5t-41.5 8.5t-43.5 -8.5t-30 -22.5t-17.5 -31t-6 -35.5t6 -35.5t17.5 -30.5t30 -21.5t43.5 -8zM993 -1150v161q-6 0 -10 -0.5t-10 -0.5q-49 0 -83.5 16t-58.5 42t-35 61q-11 33 -11 70q0 36 12.5 72t39.5 63.5t66 46 t93 18.5q57 0 99.5 -16t70.5 -44.5t41 -67t13 -84.5v-337h-227zM1078 -804q0 14 -4.5 28.5t-14 24.5t-25 17t-35.5 7q-18 0 -32.5 -7t-25.5 -17t-15.5 -23.5t-4.5 -29t4.5 -29.5t15.5 -25t24.5 -17.5t33.5 -6.5t35.5 6.5t25 17.5t14 25t4.5 29z" />
<glyph unicode="&#xe0e;&#xe39;" horiz-adv-x="1429" d="M1220 -265q0 -58 -22.5 -104.5t-60 -78t-87.5 -47.5q-49 -16 -104 -16q-31 0 -59 6t-52.5 16t-44.5 21.5t-34 22.5q-12 -12 -31.5 -26t-44 -26.5t-53.5 -21t-63 -8.5q-47 0 -90 15.5t-77 43.5t-54 65.5t-20 83.5q0 45 17 83.5t46.5 67.5t72.5 44.5t95 15.5q50 0 92 -16 q42 -15 69 -39q3 12 4 33q2 19 2 44h171q-3 -50 -7 -83.5t-8.5 -58.5t-10.5 -42q-7 -16 -13 -32q12 -8 30 -15q19 -8 38 -8q28 0 43 21t15 55v1119q0 36 -12 76t-43 75t-81.5 57.5t-127.5 22.5q-47 0 -90.5 -13t-80 -34.5t-62.5 -49.5t-38 -58l246 -8v-88q-34 -15 -58 -36 t-38.5 -47t-22 -59t-7.5 -74v-394q0 -49 -15 -95t-46.5 -81.5t-81.5 -57t-119 -21.5q-56 0 -100.5 16.5t-75.5 49t-47 76.5q-17 45 -17 98q0 46 16.5 87t47.5 72.5t75.5 49t100.5 17.5h9.5t8.5 -1v181q0 27 6.5 53.5t17 51.5t26 46.5t33.5 35.5l-231 7q13 99 59 179 t118.5 135.5t165 85.5t200.5 30q135 0 230.5 -36t156.5 -96t89.5 -138.5t28.5 -162.5v-1087zM305 120q25 0 41.5 8t29 21.5t18.5 30.5t6 35.5t-6 35.5t-18.5 31t-29 22.5t-41.5 8.5t-43.5 -8.5t-30 -22.5t-17.5 -31t-6 -35.5t6 -35.5t17.5 -30.5t30 -21.5t43.5 -8zM662 -328 q-4 12 -14 27t-24 28t-31 21.5t-38.5 8.5t-37 -6.5t-24.5 -17t-14 -24.5t-5 -25q0 -34 21.5 -53t61.5 -19q16 0 33 5.5t30.5 14t25.5 19t16 21.5zM618 -1150v158q-7 0 -10.5 -0.5t-9.5 -0.5q-48 0 -83 16t-58 42t-33 61q-11 33 -11 70q0 36 13 72t38.5 63.5t64.5 46t92 18.5 q54 0 95.5 -16t70.5 -44.5t43 -67t14 -84.5v-191h135v374h241v-517h-602zM702 -807q0 14 -4.5 28.5t-13.5 24.5t-24.5 17t-34 7t-34 -7t-25.5 -17t-15.5 -24t-5.5 -29t5.5 -29t15.5 -25t25 -18q16 -7 34 -7q20 0 35 7t24 18t13.5 25t4.5 29z" />
<glyph unicode="&#xe0f;&#xe39;" horiz-adv-x="1429" d="M453 -317q-23 35 -54 59t-76 24q-20 0 -36 -6t-27.5 -18.5t-17.5 -27t-6 -30.5q0 -14 5 -28.5t16 -26t26.5 -19t36.5 -7.5q25 0 46.5 7t38.5 18.5t29.5 25t18.5 29.5zM979 870q0 36 -12 76t-43 75t-81.5 57.5t-127.5 22.5q-47 0 -90.5 -13t-80 -34.5t-62.5 -49.5t-38 -58 l246 -8v-88q-34 -15 -58 -36t-38.5 -47t-22 -59t-7.5 -74v-394q0 -49 -15 -95t-46.5 -81.5t-81.5 -57t-119 -21.5q-56 0 -100.5 16.5t-75.5 49t-47 76.5q-17 45 -17 98q0 46 16.5 87t47.5 72.5t75.5 49t100.5 17.5h9.5t8.5 -1v181q0 27 6.5 53.5t17 51.5t26 46.5t33.5 35.5 l-231 7q13 99 59 179t118.5 135.5t165 85.5t200.5 30q135 0 230.5 -36t156.5 -96t89.5 -138.5t28.5 -162.5v-1121q0 -49 -13 -89t-38.5 -70t-65.5 -46.5t-92.5 -16.5t-91 23.5t-72.5 72.5l-37 52l-89 -144h-123l-62 89q-34 -49 -88 -74t-118 -25q-48 0 -89 15.5t-71.5 43.5 t-48.5 65.5t-18 83.5q0 45 16.5 83.5t45.5 67.5t70.5 44.5t90.5 15.5q56 0 101.5 -20t68.5 -55q0 4 3 16.5t5.5 26.5t4.5 29.5t4 24.5h158q-9 -86 -25 -145.5t-28 -85.5l35 -46l109 203h73l98 -130q9 -10 15.5 -14t12.5 -4q9 0 13.5 6t4.5 19v1153zM305 120q25 0 41.5 8 t29 21.5t18.5 30.5t6 35.5t-6 35.5t-18.5 31t-29 22.5t-41.5 8.5t-43.5 -8.5t-30 -22.5t-17.5 -31t-6 -35.5t6 -35.5t17.5 -30.5t30 -21.5t43.5 -8zM618 -1150v158q-7 0 -10.5 -0.5t-9.5 -0.5q-48 0 -83 16t-58 42t-33 61q-11 33 -11 70q0 36 13 72t38.5 63.5t64.5 46 t92 18.5q54 0 95.5 -16t70.5 -44.5t43 -67t14 -84.5v-191h135v374h241v-517h-602zM702 -807q0 14 -4.5 28.5t-13.5 24.5t-24.5 17t-34 7t-34 -7t-25.5 -17t-15.5 -24t-5.5 -29t5.5 -29t15.5 -25t25 -18q16 -7 34 -7q20 0 35 7t24 18t13.5 25t4.5 29z" />
<glyph unicode="&#xd;" horiz-adv-x="891" />
<glyph unicode=" "  horiz-adv-x="788" />
<glyph unicode="&#x09;" horiz-adv-x="788" />
<glyph unicode="&#xa0;" horiz-adv-x="788" />
<glyph unicode="!" horiz-adv-x="623" d="M169 1463h287v-422l-68 -633h-151l-68 633v422zM160 256h304v-256h-304v256z" />
<glyph unicode="&#x22;" horiz-adv-x="964" d="M148 1463h239v-577h-239v577zM579 1463h237v-577h-237v577z" />
<glyph unicode="#" horiz-adv-x="1193" d="M1070 431h-189l-62 -431h-194l59 431h-240l-61 -431h-192l57 431h-189v154h211l35 265h-188v154h209l59 431h197l-61 -431h240l58 431h197l-60 -431h173v-154h-193l-37 -265h171v-154zM500 850l-35 -265h240l36 265h-241z" />
<glyph unicode="$" horiz-adv-x="1381" d="M376 488q0 -71 18.5 -123t52 -90t79.5 -61q44 -23 99 -32v469l-151 45q-92 28 -156 69.5t-102.5 89t-54.5 103t-16 111.5q0 68 18.5 124.5t50.5 102t77.5 81t99 61t113.5 39.5t121 20v163h153v-166q98 -11 185 -46.5t152 -93t102 -139.5t37 -183h-287q-3 55 -17.5 96 t-39 71t-58.5 49q-33 21 -74 30v-419q34 -9 68.5 -19.5t63.5 -20t53 -17t38 -12.5q77 -22 131.5 -61t91 -88.5t53.5 -105t17 -110.5q0 -114 -43.5 -196.5t-115 -138t-164.5 -85.5t-193 -37v-165h-153v165q-112 9 -208.5 43.5t-168.5 99.5t-114 158.5t-45 218.5h287zM899 568 q-27 11 -58 22t-63 21v-435q61 6 105 27.5t72 52t40 66t12 74.5q0 43 -9 73t-24.5 49t-34 31t-40.5 19zM625 899v385q-37 -6 -71.5 -19t-62 -35.5t-45.5 -55.5q-18 -31 -18 -74q0 -40 12.5 -71t32.5 -54t49 -39.5t66 -25.5z" />
<glyph unicode="%" horiz-adv-x="2103" d="M1555.5 -28q-95.5 0 -162 32.5t-109.5 88t-61.5 129.5t-18.5 157t20 157t63.5 129.5t109.5 88.5t158 33q93 0 160 -33t110 -88.5t64 -129.5t21 -157t-20 -157t-62 -129.5t-109.5 -88t-163 -32.5zM1420 379q0 -59 6 -108t23 -86t42 -59q27 -21 64 -21t63.5 21.5t43.5 58.5 t24 87q8 48 8 107q0 52 -6 101.5t-21.5 88t-43.5 62t-68 23.5q-41 0 -68 -23.5t-42.5 -62t-20 -88t-4.5 -101.5zM548 647q-95 0 -163 32t-109.5 87.5t-61.5 130.5q-20 76 -20 159.5t21 157t64 129t110 88t159 32.5q93 0 159 -32.5t109 -88t63 -129t20 -157t-18.5 -159 t-60.5 -131t-109 -87.5t-163 -32zM410 1056q0 -58 7 -108t23 -87t42 -58t63 -21t64 21t44 58t24.5 87t7.5 108q0 53 -6 101.5t-22 87.5t-43 62.5t-69 23.5q-41 0 -67.5 -23.5t-41 -62.5t-20.5 -87.5t-6 -101.5zM1337 1485h181l-776 -1534h-188z" />
<glyph unicode="&#x26;" horiz-adv-x="1381" d="M647 1324q-28 0 -52.5 -11.5t-43 -32t-29.5 -51.5t-11 -68q0 -31 8 -57t21 -50.5t29 -46t32 -43.5l13.5 -16.5t10.5 -15.5q31 18 58.5 40.5t49.5 48.5t33 59q12 32 12 75q0 37 -9.5 68t-26.5 54t-41.5 35t-53.5 12zM550 668q-42 -24 -77.5 -50.5t-63 -57t-43 -70 t-15.5 -88.5q0 -59 17 -105t44.5 -77.5t68 -47.5t86.5 -16q52 0 94.5 15t75.5 38.5t56 50t42 48.5zM958 148q-79 -93 -176.5 -134.5t-224.5 -41.5q-101 0 -187.5 29.5t-149.5 85t-97 135.5t-34 185q0 77 29.5 140t76.5 115.5t107.5 94t125.5 73.5h-6q-29 37 -56 74.5t-47 77 t-32.5 82t-12.5 86.5q0 80 28.5 144t78.5 109.5t118 70t143 24.5q73 0 140.5 -22t120 -65t83 -109.5t30.5 -152.5q0 -63 -22 -118t-60 -100t-86.5 -83t-102.5 -66h5q28 -34 53.5 -66t50 -61.5t48.5 -60.5q25 -33 53 -67q9 29 19 71.5t16 100.5h236q-11 -92 -39.5 -183 t-80.5 -171l278 -345h-306z" />
<glyph unicode="'" horiz-adv-x="592" d="M177 1463h239v-577h-239v577z" />
<glyph unicode="(" horiz-adv-x="623" d="M407 -330q-62 99 -114.5 204.5t-92.5 222t-62 244.5q-22 130 -22 275q0 123 19 245t56.5 241t92.5 234t123 224h215q-120 -219 -181.5 -452t-61.5 -492t59 -494q58 -236 184 -452h-215z" />
<glyph unicode=")" horiz-adv-x="623" d="M216 1560q61 -99 115 -205t93.5 -222.5t61.5 -245.5t22 -274q0 -123 -19 -245t-57 -241t-92.5 -234t-123.5 -223h-216q120 216 183 450t63 493t-60 493.5t-186 453.5h216z" />
<glyph unicode="*" horiz-adv-x="811" d="M59 1177l44 137l217 -88v237h171v-237l214 88l51 -137l-239 -82h10l138 -193l-123 -92l-139 194l-129 -194l-131 92l139 193h8z" />
<glyph unicode="+" horiz-adv-x="1284" d="M524 1038h237v-416h405v-208h-405v-414h-237v414h-405v208h405v416z" />
<glyph unicode="," horiz-adv-x="592" d="M139 277h314v-277q0 -62 -23 -115.5t-63.5 -97t-97 -72.5t-123.5 -43v126q33 8 57.5 28t40 47.5t24.5 61t9 65.5h-138v277z" />
<glyph unicode="-" horiz-adv-x="819" d="M102 668h617v-221h-617v221z" />
<glyph unicode="." horiz-adv-x="592" d="M139 277h314v-277h-314v277z" />
<glyph unicode="/" horiz-adv-x="743" d="M534 1498h251l-576 -1533h-251z" />
<glyph unicode="0" horiz-adv-x="1162" d="M582 166q71 0 117 44t73 119.5t38.5 175.5t11.5 213q0 112 -11.5 212t-38.5 175.5t-74 119.5q-45 44 -116 44t-117 -44t-74 -119.5t-38.5 -175.5t-10.5 -212q0 -113 10.5 -213t38.5 -175.5t74 -119.5t117 -44zM582 1463q105 0 182 -32.5t133 -88t92.5 -129t58 -157 t29 -170.5t7.5 -168q0 -82 -7.5 -169t-29 -170t-58 -157t-92.5 -129.5t-134 -87.5q-76 -33 -181 -33t-183.5 32.5t-134 88t-91.5 129.5t-57 157t-29 170t-8 169q0 81 8 168t29 170.5t57 157t91.5 129t134 88t183.5 32.5z" />
<glyph unicode="1" horiz-adv-x="1162" d="M109 1198q73 0 140.5 12.5t123 41t94 74t52.5 109.5h220v-1435h-283v1013h-347v185z" />
<glyph unicode="2" horiz-adv-x="1162" d="M1078 0h-1001q0 86 24 164t66 146.5t100.5 127t131.5 109.5q21 15 45 31t49 32q58 40 118 83t108 92.5t77 106.5t29 123q0 38 -10 83t-35 82.5t-70 63t-112 25.5q-64 0 -109 -26t-76 -72.5t-46 -109.5q-13 -63 -16 -140h-265q0 120 35.5 220t104 171t165.5 111t219 40 q89 0 158.5 -20t121.5 -53t88.5 -77t59 -93.5t33 -100t10.5 -96.5q0 -84 -27.5 -153t-72.5 -129t-102 -109.5t-118 -92.5q-28 -18 -57 -38q-29 -17 -57 -36q-45 -29 -86.5 -59t-76 -61t-61 -65t-38.5 -71h693v-209z" />
<glyph unicode="3" horiz-adv-x="1162" d="M465 832q60 0 115.5 12t99.5 39t70 71.5t26 111.5q0 46 -15.5 83t-43 64t-64.5 41.5t-80 14.5q-56 0 -97.5 -23t-69 -63t-41.5 -94t-15 -113h-264q0 108 35.5 197.5t100 154t155.5 100.5q88 35 199 35q99 0 184 -25.5t147 -74.5t96.5 -121t34.5 -161q0 -52 -12.5 -101.5 t-38.5 -91t-66 -72.5t-92 -51l-4 -4q62 -13 113 -43.5t84.5 -77t52 -105t18.5 -125.5q0 -102 -38.5 -183t-106 -138t-161.5 -87t-205 -30q-126 0 -222.5 33t-162 96.5t-99.5 152.5q-33 89 -36 202h271q0 -66 15 -119.5t45.5 -92t77 -58.5t108.5 -20q54 0 100 17t80 49.5 t53.5 80t19.5 109.5q0 80 -31 127t-82.5 71t-117.5 31q-65 8 -136 8v173z" />
<glyph unicode="4" horiz-adv-x="1162" d="M1096 325h-181v-325h-250v325h-611v226l621 884h240v-925h181v-185zM665 510v599l-411 -599h411z" />
<glyph unicode="5" horiz-adv-x="1162" d="M223 1435h792v-206h-587l-43 -331q25 18 54 31t61.5 21t65.5 12q32 4 65 4q108 0 194.5 -36.5t145 -101t89 -152.5t30.5 -189q0 -99 -28.5 -191.5t-89 -164.5t-156 -115.5t-231.5 -43.5q-105 0 -197 30t-161.5 88t-111.5 142q-44 84 -47 192h271q6 -59 24.5 -106t50 -81 t74 -52.5t94.5 -18.5q65 0 111 25t76 68t44 100t14 123q0 59 -14.5 113.5t-45.5 96t-78.5 66t-112.5 24.5q-32 0 -64.5 -10.5t-61 -27.5t-53 -41.5t-41.5 -52.5h-254z" />
<glyph unicode="6" horiz-adv-x="1162" d="M596 166q57 0 100 25t72.5 66.5t43 95.5t13.5 112q0 59 -13.5 111t-43 93t-72.5 65t-100 24q-59 0 -102.5 -23.5t-74.5 -63.5t-45.5 -93.5t-14.5 -112t17.5 -112.5t50 -95.5t75.5 -66.5t94 -25zM801 1072q-3 43 -18.5 80t-40 63t-58 40t-73.5 14q-50 0 -89.5 -20 t-68.5 -52.5t-50 -77t-33.5 -94t-20 -101.5t-10.5 -102q51 62 127 91t162 29q108 0 193.5 -33.5t145 -97t90.5 -151.5q32 -87 32 -198q0 -114 -35 -205t-98 -154t-152 -97t-199 -34q-145 0 -245.5 53.5t-164 151t-92.5 236t-29 308.5q0 98 12.5 192t38.5 177t69 151t103 118 t141 77t184 27q89 0 168 -27.5t137.5 -79.5t94.5 -124t41 -160h-262z" />
<glyph unicode="7" horiz-adv-x="1162" d="M77 1435h995v-191q-111 -126 -201 -263t-157 -289.5t-110 -324t-56 -367.5h-285q7 109 30.5 219.5t61.5 219t87 214t107 205.5t124 192.5t135 175.5h-731v209z" />
<glyph unicode="8" horiz-adv-x="1162" d="M582 156q52 0 98.5 16t79.5 48.5t52.5 80t19.5 112.5q0 58 -19.5 106t-52.5 83.5t-79.5 54t-98.5 18.5t-98.5 -18.5t-80 -54t-53 -83.5t-19.5 -106q0 -62 19.5 -109.5t53 -81t80 -50t98.5 -16.5zM582 -28q-111 0 -205 29.5t-163 85t-108 137.5q-38 84 -38 189 q0 58 21.5 115t57 105t84.5 85t105 55v3q-50 19 -89 51t-66 70.5t-41 83.5t-14 91q0 83 31 154.5t88.5 124.5t142.5 83q86 29 194 29t192.5 -28.5t143 -80t88.5 -124t30 -158.5q0 -46 -13.5 -91t-40.5 -83.5t-66 -69.5q-38 -33 -89 -52l-2 -3q59 -18 108.5 -55t84.5 -85 t55 -105t20 -115q0 -105 -38.5 -188t-106 -138.5t-161.5 -85t-205 -29.5zM582 1278q-43 0 -80 -13t-64.5 -40t-44.5 -66q-16 -41 -16 -93q0 -51 15.5 -91t42.5 -68.5t65 -43.5q39 -14 82 -14t80 14.5t65 43t43 69t15 90.5q0 52 -15 92t-43 67t-65 40t-80 13z" />
<glyph unicode="9" horiz-adv-x="1162" d="M564 1269q-59 0 -101.5 -24.5t-71 -64.5t-41.5 -92.5t-13 -111.5q0 -58 14 -113t42.5 -97t71.5 -66.5t100 -24.5q60 0 105 24.5t74 66t44 96.5q16 56 16 114q0 34 -6 68t-20 66.5t-34 61.5t-47 50.5t-60 34t-73 12.5zM363 363q4 -43 19 -80t39 -63t57 -40t73 -14 q54 0 93.5 20t68.5 54t47.5 79.5t31 95.5t19.5 102q8 53 11 99q-49 -62 -124 -94q-73 -32 -162 -32q-103 0 -188.5 33.5t-145.5 97.5t-94 154q-34 87 -34 198q0 105 32.5 194.5t95.5 155.5t155 103q90 37 210 37q97 0 174 -26t134.5 -74.5t98.5 -117t66.5 -152t37 -179.5 t11.5 -201q0 -99 -11.5 -192t-38.5 -176t-69.5 -151t-103.5 -118t-141.5 -77t-182.5 -27q-86 0 -164.5 28t-138.5 79.5t-97 123t-42 160.5h263z" />
<glyph unicode=":" horiz-adv-x="592" d="M139 1038h314v-277h-314v277zM139 277h314v-277h-314v277z" />
<glyph unicode=";" horiz-adv-x="592" d="M139 277h314v-277q0 -68 -23 -122t-63.5 -95.5t-96.5 -69t-124 -41.5v126q33 8 57.5 28t40 47.5t24.5 61t9 65.5h-138v277zM139 1038h314v-277h-314v277z" />
<glyph unicode="&#x3c;" horiz-adv-x="1253" d="M1153 -28l-1054 478v138l1054 476v-214l-762 -333l762 -329v-216z" />
<glyph unicode="=" horiz-adv-x="1253" d="M1150 622h-1047v208h1047v-208zM1150 206h-1047v210h1047v-210z" />
<glyph unicode="&#x3e;" horiz-adv-x="1253" d="M861 517q-93 40 -189 82.5t-193 85t-192.5 84t-187.5 81.5v214l1054 -476v-138l-1054 -478v216z" />
<glyph unicode="?" horiz-adv-x="1162" d="M105 998q0 114 33.5 206.5t97 157t154 100.5t206.5 36q95 0 176 -26.5t139.5 -80t91.5 -130.5q32 -78 32 -177q0 -71 -20 -128t-50 -104.5t-66.5 -86t-66.5 -69.5q-33 -32 -56.5 -59t-39 -59.5t-23.5 -74t-8 -106.5h-252q0 68 13.5 122.5t35.5 101t54 86.5q32 38 69 78 l60.5 60.5t52.5 63t36.5 74t13.5 92.5q0 62 -18 105.5t-46.5 70.5t-63.5 39.5t-67 12.5q-57 0 -99.5 -21.5t-71 -61.5t-42 -95.5t-13.5 -126.5h-262zM424 256h303v-256h-303v256z" />
<glyph unicode="@" horiz-adv-x="1663" d="M753 444q37 0 71 16t62.5 44.5t51.5 65.5t40 77t25.5 81.5t8.5 78.5q0 46 -11.5 80t-31 56.5t-45 34t-55.5 11.5q-40 0 -74 -16.5t-63.5 -43.5t-51.5 -63t-38.5 -75t-24 -81t-7.5 -82q0 -49 9 -84.5t28.5 -57.5t45.5 -32t60 -10zM1115 493q-3 -6 -3 -16q0 -21 10 -33.5 t27 -12.5q43 0 85.5 34t75.5 93.5t53 140t20 174.5q0 114 -38.5 205.5t-108 155t-165 97t-207.5 33.5q-83 0 -158.5 -23t-140.5 -64.5t-117 -100t-90 -131t-58 -155t-20 -171.5q0 -154 43.5 -270t122.5 -194.5t190 -117t246 -38.5q62 0 126 12t122.5 36.5t111 61.5t93.5 84 h168q-48 -80 -113.5 -140.5t-147 -102.5t-176.5 -64q-96 -21 -201 -21q-169 0 -309 50.5t-243.5 147t-160.5 235t-57 313.5q0 124 28 230t80.5 194t123 155.5t156 114t182 70t199.5 23.5q163 0 291.5 -47.5t216.5 -131.5t134 -198t46 -246q0 -103 -19 -187t-52 -149 t-78.5 -112.5t-97 -78.5t-105.5 -46.5t-108 -15.5q-23 0 -46 5.5t-43 17t-35.5 28.5t-21.5 39q-40 -43 -99 -64.5t-132 -21.5q-67 0 -123 22t-97.5 63.5t-65.5 101t-24 134.5q0 65 14.5 129.5t42.5 124t68.5 110.5t90.5 88t111 58q63 22 130 22q34 0 65.5 -6.5t60 -18.5 t53.5 -32t43 -48q6 18 12 37q4 18 10 37h172z" />
<glyph unicode="A" horiz-adv-x="1421" d="M708 1173l-203 -591h405zM561 1463h298l555 -1463h-302l-136 388h-539l-135 -388h-293z" />
<glyph unicode="B" horiz-adv-x="1496" d="M462 209h428q108 0 166.5 60.5t58.5 170.5q0 108 -58.5 166.5t-166.5 58.5h-428v-456zM179 1463h713q100 0 181.5 -21.5t140 -67t90 -114t31.5 -159.5q0 -109 -56 -187.5t-159 -125.5l-4 -3q70 -15 122.5 -48t88.5 -81.5t53.5 -111t17.5 -136.5q0 -86 -30.5 -161 t-97 -129.5t-169.5 -86t-248 -31.5h-674v1463zM462 850h394q42 0 77.5 14t60.5 39.5t40.5 63t15.5 86.5q0 56 -12 94.5t-37 62.5t-62 34.5t-83 10.5h-394v-405z" />
<glyph unicode="C" horiz-adv-x="1533" d="M1146 998q-16 63 -43.5 116t-69 91.5t-98.5 61t-131 22.5t-133.5 -22.5t-105.5 -61t-80 -90.5t-56 -114t-32 -131t-10 -138q0 -71 10 -139.5t32 -130.5t56 -114t80 -90.5t105.5 -61t133.5 -22.5q80 0 141.5 30t105.5 82.5t69.5 121.5t32.5 149h279q-8 -132 -56.5 -240.5 t-130 -186.5t-194 -121.5t-247.5 -43.5q-111 0 -205 27.5t-172.5 77.5t-138.5 121t-101.5 156.5t-63 182.5t-21.5 202q0 104 21.5 202t63 182.5t101.5 155.5t138.5 121t173.5 78q93 27 204 27q125 0 234 -36t192.5 -102t135.5 -159q54 -92 66 -203h-286z" />
<glyph unicode="D" horiz-adv-x="1533" d="M464 209h229q95 0 166 18.5t122.5 52.5t85 81t53.5 105t27.5 125.5t7.5 140.5t-7.5 140t-27.5 125.5t-53.5 106.5t-85 81t-122.5 51.5t-166 18.5h-229v-1046zM179 1463h611q114 0 205.5 -26t164 -74t125 -114t88 -148t51.5 -175.5t16 -193.5q0 -102 -16 -195t-51.5 -175 t-88 -148t-125 -114t-165 -74t-204.5 -26h-611v1463z" />
<glyph unicode="E" horiz-adv-x="1344" d="M176 1463h1067v-222h-781v-382h724v-209h-724v-428h795v-222h-1081v1463z" />
<glyph unicode="F" horiz-adv-x="1268" d="M176 1463h1025v-222h-741v-382h649v-209h-649v-650h-284v1463z" />
<glyph unicode="G" horiz-adv-x="1609" d="M1463 0h-194l-31 142q-40 -50 -86 -83.5t-100 -53.5t-113 -30q-58 -10 -123 -10q-111 0 -206.5 27.5t-173 77.5t-138.5 121t-102.5 156.5t-63 182.5t-21.5 202q0 104 21.5 202t63 182.5t102.5 155.5t138.5 121t173 77.5t206.5 27.5q120 0 228.5 -31.5t193.5 -94.5 t139.5 -157t70.5 -217h-281q-9 72 -40.5 127t-79.5 91t-107 54.5t-124 18.5q-74 0 -134 -22.5t-106 -61t-80 -90.5t-56.5 -114t-32.5 -131t-10 -138q0 -71 10 -139.5t32.5 -130.5t56.5 -114t80 -90.5t106 -61t134 -22.5q91 0 161 28.5t119.5 81t75.5 127t29 165.5h-382v194 h644v-770z" />
<glyph unicode="H" horiz-adv-x="1533" d="M171 1463h285v-582h619v582h286v-1463h-286v659h-619v-659h-285v1463z" />
<glyph unicode="I" horiz-adv-x="651" d="M183 1463h285v-1463h-285v1463z" />
<glyph unicode="J" horiz-adv-x="1155" d="M979 471q0 -64 -6 -126t-25 -118t-52.5 -104.5t-88 -83t-132 -54.5t-184.5 -20q-118 0 -203 36t-139 99t-78.5 148.5t-24.5 185.5v79h284v-76q0 -61 9 -110.5t29 -83.5t55.5 -51.5t88 -17.5t87 18.5t56 54.5t31 88.5t9.5 120.5v1007h284v-992z" />
<glyph unicode="K" horiz-adv-x="1458" d="M179 1463h285v-634l609 634h335l-573 -584l614 -879h-340l-461 684l-189 -191h5v-493h-285v1463z" />
<glyph unicode="L" horiz-adv-x="1230" d="M176 1463h284v-1241h729v-222h-1013v1463z" />
<glyph unicode="M" horiz-adv-x="1875" d="M177 1463h387l382 -1103l372 1103h382v-1463h-274v1047l-368 -1047h-239l-369 1047v-1047h-273v1463z" />
<glyph unicode="N" horiz-adv-x="1533" d="M166 1463h298l628 -1032v1032h272v-1463h-295l-629 1033v-1033h-274v1463z" />
<glyph unicode="O" horiz-adv-x="1610" d="M805 1498q111 0 206 -27.5t173.5 -77.5t138.5 -121t101.5 -155.5t63 -182.5t21.5 -202q0 -105 -21.5 -202t-63 -182.5t-101.5 -156.5t-138.5 -121t-174 -77.5t-205.5 -27.5t-205 27.5t-173.5 77.5t-138.5 121t-101.5 156.5t-63 182.5t-21.5 202q0 104 21.5 202t63 182.5 t101.5 155.5t138.5 121t173.5 77.5t205 27.5zM805 1289q-73 0 -132.5 -22.5t-105.5 -61t-80 -90.5t-56.5 -114t-32.5 -131t-10 -138q0 -71 10 -139.5t32.5 -130.5t56.5 -114t80 -90.5t105.5 -61t132.5 -22.5q74 0 133.5 22.5t106.5 61t81 90.5t56 114t32 131t10 139 t-10 138.5t-32 130.5t-56 114t-81 90.5t-106.5 61t-133.5 22.5z" />
<glyph unicode="P" horiz-adv-x="1421" d="M462 770h351q40 0 81 12.5t75.5 40t56 73.5t21.5 117q0 73 -18.5 120t-50.5 74t-74 37.5t-88 10.5h-354v-485zM177 1463h650q105 0 184 -20t134.5 -55.5t92.5 -81.5t57 -97t28.5 -102t8.5 -97t-8.5 -96t-28.5 -100t-57 -96.5t-92.5 -80t-134 -55t-184.5 -21.5h-365v-561 h-285v1463z" />
<glyph unicode="Q" horiz-adv-x="1610" d="M810 339l129 154l176 -156q29 40 50 86.5t34 97t19 104t6 107.5q0 70 -10 138.5t-32 130.5t-56 114t-81 90.5t-106.5 61t-133.5 22.5q-73 0 -132.5 -22.5t-105.5 -61t-80 -90.5t-56.5 -114t-32.5 -131t-10 -138q0 -71 10 -139.5t32.5 -130.5t56.5 -114t80 -90.5 t105.5 -61t132.5 -22.5q37 0 76.5 8.5t77.5 26.5h-4zM1488 6l-133 -151l-215 191q-77 -41 -163.5 -61t-171.5 -20q-110 0 -205 27.5t-173.5 77.5t-138.5 121t-101.5 156.5t-63 182.5t-21.5 202q0 104 21.5 202t63 182.5t101.5 155.5t138.5 121t174 77.5t204.5 27.5 q111 0 206 -27.5t173.5 -77.5t138.5 -121t101.5 -155.5t63 -182.5t21.5 -202q0 -74 -12 -150.5t-37.5 -150.5t-65 -140t-91.5 -122z" />
<glyph unicode="R" horiz-adv-x="1496" d="M462 798h396q112 0 170.5 58.5t58.5 175.5q0 71 -20 114t-51.5 67.5t-74 33t-86.5 8.5h-393v-457zM179 1463h702q123 0 214 -26t152.5 -77t92.5 -125t31 -166q0 -70 -15 -123t-38.5 -93t-52 -67.5t-56.5 -44.5t-51 -28t-35 -14h10v-3h-12q45 -9 85.5 -34.5t71.5 -66.5 t50.5 -98t19.5 -127q0 -65 3.5 -123.5t13 -106.5t23 -83t32.5 -57h-296q-8 18 -15.5 45t-13 55.5t-8.5 58.5q-3 32 -3 57q0 101 -11.5 173.5t-41.5 120t-82.5 71t-132.5 23.5h-354v-604h-283v1463z" />
<glyph unicode="S" horiz-adv-x="1381" d="M376 488q0 -85 27 -145t74 -97t110 -54.5t134 -17.5q77 0 132.5 19.5t89 50t49 70.5t15.5 82q0 43 -14 76t-35.5 57.5t-48.5 39.5q-28 16 -54 22q-53 16 -98.5 28t-90 24.5t-90.5 25.5q-46 15 -102 30q-92 26 -156 66t-102.5 88.5t-54.5 104t-16 111.5q0 74 21.5 134 t58.5 107.5t89.5 83t112.5 58.5t126 34.5t132 11.5q116 0 219 -30t180 -88.5t123.5 -146t46.5 -201.5h-287q-3 71 -26 120t-61.5 79t-91 44t-113.5 14q-41 0 -84 -11.5t-80 -34.5t-60 -58.5t-23 -84.5q0 -40 11.5 -70.5t32.5 -52.5t50 -37.5t66 -27.5q28 -10 64 -20.5 t75.5 -21.5t80.5 -21.5t77 -20t67 -18.5t49 -14q72 -23 127 -63t92 -90t55.5 -106.5t18.5 -111.5q0 -82 -23.5 -149t-65 -117.5t-97 -87.5t-121 -60t-137 -34.5t-145.5 -11.5q-126 0 -237 30.5t-194 94.5t-132.5 162.5t-52.5 235.5h287z" />
<glyph unicode="T" horiz-adv-x="1268" d="M37 1463h1197v-222h-458v-1241h-283v1241h-456v222z" />
<glyph unicode="U" horiz-adv-x="1533" d="M162 1463h285v-852q0 -49 2 -100t12 -97.5t30 -88.5t55.5 -72.5t89.5 -48.5t131 -18t131 18t89.5 48.5t55.5 72.5t30.5 88.5t12 97.5t1.5 100v852h285v-936q0 -142 -44 -246.5t-122.5 -175.5t-191 -105.5t-247.5 -34.5q-136 0 -248 34.5t-191 105.5t-122.5 175.5 t-43.5 246.5v936z" />
<glyph unicode="V" horiz-adv-x="1305" d="M14 1463h294l343 -1112l355 1112h288l-490 -1463h-313z" />
<glyph unicode="W" horiz-adv-x="1989" d="M43 1463h287l246 -1063l274 1063h290l266 -1061l254 1061h287l-395 -1463h-289l-273 1063l-279 -1063h-291z" />
<glyph unicode="X" horiz-adv-x="1381" d="M55 1463h327l311 -494l326 494h308l-474 -705q59 -88 123.5 -184.5t130.5 -195t131 -194.5t123 -184h-332l-344 539l-349 -539h-316l510 758z" />
<glyph unicode="Y" horiz-adv-x="1381" d="M551 574l-537 889h320l365 -628l359 628h310l-533 -889v-574h-287z" />
<glyph unicode="Z" horiz-adv-x="1344" d="M132 1463h1126v-189l-839 -1052h859v-222h-1209v205l840 1036h-777v222z" />
<glyph unicode="[" horiz-adv-x="629" d="M148 1498h480v-183h-231v-1521h231v-185h-480v1889z" />
<glyph unicode="\" horiz-adv-x="743" d="M785 -35h-251l-576 1533h251z" />
<glyph unicode="]" horiz-adv-x="629" d="M484 -391h-482v185h231v1521h-231v183h482v-1889z" />
<glyph unicode="^" horiz-adv-x="1253" d="M177 687l362 748h176l360 -748h-234l-214 473l-214 -473h-236z" />
<glyph unicode="_" horiz-adv-x="1047" d="M5 -256v102h1039v-102h-1039z" />
<glyph unicode="`" horiz-adv-x="517" d="M240 1498l184 -294h-195l-284 294h295z" />
<glyph unicode="a" horiz-adv-x="1193" d="M782 524q-15 -7 -38 -14.5t-48 -13t-49.5 -11t-42.5 -6.5q-22 -3 -42 -5.5t-40 -6.5q-34 -7 -64 -17.5t-54.5 -30.5t-39 -51t-14.5 -77q0 -40 19 -65.5t49 -41t63 -22t61 -6.5q34 0 77 10.5t79.5 34.5t60 62.5t23.5 93.5v167zM1046 236q0 -44 8.5 -62t29.5 -18 q9 0 24.5 0.5t48.5 6.5v-161q-16 -7 -36.5 -12t-44 -9t-45 -6.5t-36.5 -2.5q-68 0 -119 26.5t-69 81.5q-34 -28 -77 -49.5t-87.5 -33.5t-92.5 -18.5t-91 -6.5q-74 0 -142 18.5t-118.5 57t-81.5 97t-31 135.5q0 65 17 114.5t46.5 84t69.5 57.5t85.5 37.5t95.5 23t99 14.5 q25 3 53.5 7t48.5 7q41 9 77.5 16t62.5 20.5t41.5 35.5t15.5 64q0 46 -18.5 73.5t-48 43t-65 21t-65.5 5.5q-45 0 -83 -10t-65.5 -31t-44.5 -52.5t-20 -74.5h-263q3 68 24.5 120.5t56 92.5t80 66t98.5 43t111.5 24t117.5 7q52 0 104.5 -7t101 -22.5t90 -40t71.5 -58.5 t48 -78.5t18 -100.5v-546z" />
<glyph unicode="b" horiz-adv-x="1305" d="M949 530q0 72 -16.5 139t-48.5 119.5t-81.5 84t-115.5 31.5q-68 0 -120.5 -27t-88.5 -76t-54.5 -118.5t-18.5 -152.5q0 -80 19.5 -148.5t56 -118.5t89 -78.5t117.5 -28.5q74 0 124 32t80 85t44 120t14 137zM151 1463h262v-488q26 28 60.5 50t73 36t80 21t81.5 7 q127 0 222.5 -45t157.5 -121t93 -179t31 -219q0 -71 -12.5 -139.5t-37.5 -130t-63 -114t-89.5 -90t-118 -58.5t-144.5 -21q-49 0 -98.5 5t-95 18.5t-84 36.5t-69.5 60v-92h-249v1463z" />
<glyph unicode="c" horiz-adv-x="1193" d="M835 705q-6 50 -26.5 87t-49.5 61.5t-67 37.5t-81 13q-27 0 -57 -8.5t-58.5 -27t-54 -48.5t-45.5 -74t-31 -102.5t-11 -132.5q0 -66 14 -130t45.5 -114t80 -80.5t119.5 -30.5q46 0 84.5 16t68 47.5t49.5 77t29 100.5h262q-16 -103 -56 -182t-102 -133t-146 -82t-189 -28 q-126 0 -223 40t-163.5 112.5t-100.5 171t-34 215.5q0 120 31 225t95 183.5t161.5 124t230.5 45.5q92 0 177 -24t152 -71t109 -118.5t50 -170.5h-263z" />
<glyph unicode="d" horiz-adv-x="1305" d="M356 530q0 -70 13 -137t44 -120t81 -85t124 -32q64 0 116.5 28.5t88.5 78.5t56 118.5t20 148.5q0 84 -18.5 153t-53.5 118t-87.5 76t-121.5 27q-67 0 -116 -31.5t-81.5 -84t-48.5 -119.5t-16 -139zM1155 0h-251v92q-31 -35 -70 -59t-84 -37.5t-94 -18.5t-99 -5 q-80 0 -144.5 21t-117 58.5t-91 90t-63 114t-37 129.5t-12.5 140q0 117 31 219.5t93.5 178.5t157 121t220.5 45q40 0 82.5 -7t81 -21t73 -35.5t61.5 -50.5v488h263v-1463z" />
<glyph unicode="e" horiz-adv-x="1193" d="M354 470q0 -62 17 -118t49.5 -100t81.5 -70t116 -26q90 0 148 43q56 44 87 134h251q-18 -87 -63.5 -154.5t-110.5 -114t-145 -69.5t-167 -23q-127 0 -224.5 41t-165.5 115t-102 176.5t-34 225.5q0 114 35.5 214t103.5 177t164 122.5t216 45.5q77 0 145.5 -20t125.5 -56.5 t102 -87t75.5 -110.5t47.5 -129q17 -70 17 -141q0 -38 -6 -75h-764zM856 622q-4 54 -23.5 105t-51 90t-74.5 63t-96 24q-55 0 -99.5 -22.5t-78 -61t-54 -89t-25.5 -109.5h502z" />
<glyph unicode="f" horiz-adv-x="699" d="M34 1060h172v89q0 89 25 149t68 97t97 52.5t114 15.5q14 0 35.5 -1t47 -3t50.5 -5t44 -8v-182q-42 10 -79.5 12t-59.5 2q-40 0 -60 -26t-20 -83v-109h194v-174h-194v-886h-262v886h-172v174z" />
<glyph unicode="g" horiz-adv-x="1268" d="M611 185q71 0 121 32t81.5 84.5t46.5 119t15 133.5q0 68 -15.5 131t-47 111.5t-81.5 78t-120 29.5t-120.5 -33t-79.5 -85.5t-43 -118.5t-14 -131t15.5 -128t46.5 -112.5t79.5 -80t115.5 -30.5zM1137 55q0 -120 -35 -209t-102 -147.5t-165.5 -88.5t-224.5 -30 q-54 0 -110 6.5t-108 23.5t-97.5 42t-80.5 62t-58 85q-24 50 -28 112h263q11 -50 33.5 -81.5t53 -47.5t67.5 -22t79 -6q129 0 190 70t61 201v111q-53 -68 -131.5 -102t-167.5 -34q-129 0 -220 44.5t-150.5 120t-86.5 177.5t-27 215q0 71 15 139t43.5 126.5t70 107.5t96 84.5 t120 55t142.5 19.5q45 0 88.5 -8.5t83 -24t73.5 -40.5q35 -24 60 -58l5 102h248v-1005z" />
<glyph unicode="h" horiz-adv-x="1230" d="M142 1463h263v-499q25 26 59.5 48.5t75.5 39.5t86 27t92 10q89 0 158.5 -23t115.5 -68.5t70.5 -113.5t24.5 -157v-727h-262v690q0 114 -40 164t-123 50q-51 0 -98 -22.5t-82 -62.5t-56 -91.5t-21 -109.5v-618h-263v1463z" />
<glyph unicode="i" horiz-adv-x="548" d="M142 1060h261v-1060h-261v1060zM142 1463h261v-222h-261v222z" />
<glyph unicode="j" horiz-adv-x="548" d="M140 1060h263v-1149q0 -80 -17.5 -142t-55 -103.5t-97.5 -63.5q-57 -22 -144 -22q-40 0 -68 2q-27 2 -52 5v185q14 -3 28 -3q12 -2 27.5 -2h30.5q40 0 62.5 25.5t22.5 81.5v1186zM140 1463h263v-222h-263v222z" />
<glyph unicode="k" horiz-adv-x="1155" d="M149 1463h264v-801l385 398h303l-396 -390q110 -170 218.5 -335.5t219.5 -334.5h-308l-308 499l-120 -120h6v-379h-264v1463z" />
<glyph unicode="l" horiz-adv-x="612" d="M176 1463h261v-1463h-261v1463z" />
<glyph unicode="m" horiz-adv-x="1837" d="M148 1060h243l6 -114q27 33 61.5 60t76 45t88.5 27q45 9 95 9q47 0 92.5 -9t84 -30.5t69.5 -54t52 -75.5q28 37 60.5 67.5t74 54t92.5 35.5t115.5 12t124.5 -19t106 -61.5t73 -107t27 -157.5v-742h-263v705q0 59 -11 96.5t-31 61t-44.5 33.5t-53.5 10q-40 0 -82.5 -21 t-76.5 -59t-55.5 -88.5t-21.5 -112.5v-625h-263v705q0 59 -11.5 96.5t-31 61t-44.5 33.5t-53 10q-40 0 -82.5 -21t-76.5 -59t-55.5 -88.5t-21.5 -112.5v-625h-263v1060z" />
<glyph unicode="n" horiz-adv-x="1230" d="M142 1060h243l6 -124q25 28 62 55.5t80 49.5t90.5 35t94.5 13q89 0 158.5 -23t115.5 -68.5t70.5 -113.5t24.5 -157v-727h-262v690q0 114 -40 164t-123 50q-51 0 -98 -22.5t-82 -62.5t-56 -91.5t-21 -109.5v-618h-263v1060z" />
<glyph unicode="o" horiz-adv-x="1268" d="M636 156q72 0 124.5 33t86.5 85t51 120t17 137q0 68 -17 135t-51 119.5t-86.5 85.5t-124.5 33q-74 0 -125.5 -33t-86 -85.5t-51 -119.5t-16.5 -135q0 -69 16.5 -137t51 -120t86 -85t125.5 -33zM636 -28q-129 0 -230 41.5t-170.5 115.5t-105 177.5t-35.5 224.5 q0 120 35.5 222.5t105 177.5t170.5 116.5t230 41.5t230 -41.5t170.5 -116.5t105 -176.5t35.5 -223.5q0 -123 -35.5 -225.5t-105 -176.5t-170.5 -115.5t-230 -41.5z" />
<glyph unicode="p" horiz-adv-x="1305" d="M949 530q0 72 -17 139t-51 119.5t-85 84t-117 31.5q-61 0 -111.5 -27t-87 -76t-56 -118.5t-19.5 -152.5q0 -80 18.5 -148.5t53 -118.5t85.5 -78.5t117 -28.5q74 0 125.5 32t84 85t46.5 120t14 137zM151 1060h240l6 -118q22 30 52.5 57t69 47t86.5 31.5t103 11.5 q127 0 222.5 -45t157.5 -121t93 -179t31 -219q0 -71 -13 -139.5t-39.5 -130t-65 -114t-90.5 -90t-118.5 -58.5t-146.5 -21q-46 0 -92 7t-88.5 23t-79.5 39.5t-66 57.5v-490h-262v1451z" />
<glyph unicode="q" horiz-adv-x="1305" d="M357 530q0 -70 14 -137t46.5 -120t83 -85t124.5 -32q65 0 116.5 28.5t86 78.5t53 118.5t18.5 148.5q0 84 -19 153t-55.5 118t-87 76t-112.5 27q-68 0 -117 -31.5t-83 -84t-51 -119.5t-17 -139zM1155 -391h-262v490q-29 -34 -67 -57.5t-80 -39.5t-87.5 -23t-91.5 -7 q-80 0 -146.5 21t-119 58.5t-91.5 90t-65 114t-39.5 129.5t-13.5 140q0 117 31 219.5t94 178.5t157 121t222 45q55 0 103 -11.5t87 -31.5t69.5 -47t51.5 -57l6 118h242v-1451z" />
<glyph unicode="r" horiz-adv-x="774" d="M139 1060h243l3 -142q20 34 51.5 64.5t70 54.5t82.5 38q42 14 89 14q30 0 47 -1.5t30 -3.5q4 0 14 -0.5t13 -0.5v-227q-12 2 -26 2.5t-20 0.5q-18 3 -36 5.5t-33 2.5q-56 0 -104.5 -24t-83.5 -70t-56 -114t-21 -154v-505h-263v1060z" />
<glyph unicode="s" horiz-adv-x="1118" d="M348 340q5 -50 24 -87t47.5 -60.5t66.5 -34t81 -10.5q31 0 67.5 6t69 22t54 44.5t21.5 75.5q0 37 -17 61.5t-46 42t-69 29t-85 24.5l-100 24q-62 16 -125 37.5t-114 56t-83 86t-32 125.5q0 54 17 98t49 78t75.5 58.5t92.5 40.5t104.5 24t110.5 8q84 0 161 -18 t138.5 -56.5t101.5 -100.5q40 -61 52 -150h-274q-8 41 -26.5 69t-43.5 45.5t-57.5 25.5t-66.5 8q-23 0 -53 -5t-56 -18.5t-45 -36.5q-18 -23 -18 -57q0 -40 21.5 -65.5t58.5 -44t84.5 -31.5t99.5 -24q13 -3 27 -5.5t26 -6.5q43 -11 86 -23.5t83 -29.5t74 -38.5t59.5 -52 t40 -71t14.5 -92.5q0 -63 -20 -112.5t-55.5 -87t-82.5 -63.5t-100 -43t-110.5 -25t-113.5 -8q-102 0 -189 21.5t-150 68t-100 115.5t-38 163h263z" />
<glyph unicode="t" horiz-adv-x="736" d="M32 1060h173v317h263v-317h207v-174h-207v-596q0 -61 21 -88q19 -28 72 -28q12 0 27.5 1t30.5 2.5t29 3.5q14 1 27 4v-180q-19 -3 -40 -5.5t-43 -4t-43 -3t-39 -1.5q-96 0 -155 23t-93 64.5t-45.5 95.5t-11.5 117v595h-173v174z" />
<glyph unicode="u" horiz-adv-x="1230" d="M1089 2h-244l-4 123q-25 -28 -62 -55.5t-81 -49.5t-90.5 -35t-94.5 -13q-89 0 -158 23t-116 68.5t-71.5 112.5t-24.5 157v728h264v-688q0 -113 39 -164q41 -52 124 -52q51 0 97 23t81.5 61.5t56 91t20.5 111.5v617h264v-1059z" />
<glyph unicode="v" horiz-adv-x="1118" d="M40 1060h280l247 -777l243 777h268l-371 -1060h-290z" />
<glyph unicode="w" horiz-adv-x="1649" d="M52 1060h278l187 -735l181 735h263l172 -735l198 735h264l-325 -1060h-266l-180 728l-177 -728h-273z" />
<glyph unicode="x" horiz-adv-x="1155" d="M425 557q-89 124 -180 251.5t-180 251.5h305l203 -305l212 305h293l-354 -490l399 -570h-304l-249 370l-240 -370h-299z" />
<glyph unicode="y" horiz-adv-x="1118" d="M28 1060h283l256 -764l249 764h271l-437 -1208q-22 -58 -49 -107.5t-67 -86.5t-96 -57.5t-136 -20.5q-42 0 -86.5 3.5t-90.5 9.5v201l44 -10q22 -3 42 -6t38 -3q28 0 51 11t40 30t31 46t23 61l28 80z" />
<glyph unicode="z" horiz-adv-x="1078" d="M105 1060h878v-161l-600 -714h630v-185h-948v160l579 715h-539v185z" />
<glyph unicode="{" horiz-adv-x="660" d="M9 645q22 0 53.5 7t61.5 24t51.5 46.5t21.5 72.5v422q0 49 14 89t37 71t52.5 54t59.5 38.5t59 22t52 6.5h200v-152h-127q-34 0 -52.5 -18.5t-28.5 -46t-12.5 -57.5t-2.5 -54v-308q0 -80 -17.5 -135.5t-48.5 -90.5t-71.5 -53.5t-85.5 -28.5h14v-3h-14q45 -6 85.5 -24.5 t71.5 -55.5t48.5 -95.5t17.5 -144.5v-296q0 -23 2.5 -53t12.5 -56t29 -44.5t52 -18.5h127v-154h-200q-23 0 -52 7.5t-59 22.5t-59.5 38t-52.5 54.5t-37 70t-14 87.5v407q0 49 -21.5 81.5t-51.5 51t-62 25.5q-31 8 -53 8v183z" />
<glyph unicode="|" horiz-adv-x="508" d="M136 1611h238v-2050h-238v2050z" />
<glyph unicode="}" horiz-adv-x="660" d="M653 462q-22 0 -54 -7.5t-61.5 -26t-51 -51t-21.5 -81.5v-407q0 -49 -14 -87.5t-37 -70t-52 -54.5t-60 -38t-60 -22.5t-51 -7.5h-200v154h126q34 0 52.5 18.5t28.5 44.5t12.5 57t2.5 52v296q0 86 18 144.5t49 95.5t72 55.5t85 24.5h-15v3h15q-44 8 -85 27.5t-72 54.5 t-49 90.5t-18 135.5v308q0 24 -2.5 54t-12.5 57.5t-28.5 46t-52.5 18.5h-126v152h200q23 0 51.5 -6.5t59.5 -22t60 -38.5t52 -54t37 -71t14 -89v-422q0 -45 21.5 -73.5t51 -45.5t61.5 -24t54 -7v-183z" />
<glyph unicode="~" horiz-adv-x="1253" d="M1121 522q-23 -32 -50.5 -64.5t-62.5 -57t-76.5 -40t-92.5 -15.5q-31 0 -58.5 4.5t-53.5 14t-51.5 21.5t-50.5 28q-24 12 -49.5 24.5t-54 23t-58 17t-60.5 6.5q-27 0 -55 -15.5t-51 -40.5t-44 -55q-19 -31 -34 -62l-87 206q16 33 42 64.5t61 56t79.5 40t99.5 15.5 q42 0 82.5 -11t80 -26t76.5 -33t70 -33.5t63 -25.5t55 -10q24 0 51 15t52.5 38.5t49.5 53t44 58.5z" />
<glyph unicode="&#xa2;" horiz-adv-x="1193" d="M536 -25q-99 7 -182 51.5t-140.5 116t-89.5 166t-32 202.5q0 111 28 209.5t83.5 176.5t138.5 127q83 48 194 60v185h168v-188q77 -11 145.5 -39.5t121.5 -74.5t86 -112.5t41 -149.5h-263q-10 73 -42 120q-32 50 -89 65v-718q29 7 53.5 27t43 50t29.5 67.5t14 80.5h262 q-28 -183 -130.5 -289t-271.5 -130v-181h-168v178zM354 511q0 -55 10 -110.5t32.5 -101.5t56.5 -81.5t83 -51.5v724q-34 -14 -67 -42.5t-58.5 -74.5t-41 -110.5t-15.5 -151.5z" />
<glyph unicode="&#xa3;" horiz-adv-x="1193" d="M77 787h129q-43 68 -66 139.5t-23 142.5q0 95 37 174.5t103 135.5t155.5 87.5t192.5 31.5q120 0 215.5 -29t162.5 -89t104 -153.5t37 -219.5h-262q-3 66 -18 121t-44.5 93.5t-77 60t-115.5 21.5q-43 0 -80 -15.5t-65 -46.5t-45 -75.5t-17 -101.5q0 -35 9.5 -72 t22.5 -72.5t29 -69.5t32 -63h295v-133h-243q14 -36 21.5 -72.5t7.5 -64.5q0 -52 -13.5 -99t-37.5 -87.5t-58 -75.5q-34 -36 -74 -67q40 18 80 27.5t86 9.5q34 0 60.5 -4.5t49.5 -12.5t43 -16.5t41.5 -15.5t46 -11.5t57.5 -4.5q49 0 99 24q50 25 99 69l111 -171 q-38 -34 -75 -56.5t-78 -36.5t-85.5 -19t-95.5 -5q-52 0 -103.5 11.5t-102.5 25t-102 24.5t-102 11q-23 0 -50 -6t-54.5 -17t-54.5 -26.5t-48 -33.5l-114 177q37 25 73.5 61.5t67.5 80.5t51 93.5t20 98.5q0 56 -10.5 102t-29.5 87h-194v133z" />
<glyph unicode="&#xa5;" horiz-adv-x="1193" d="M465 308h-297v140h297v156h-297v141h220l-376 718h287l299 -638l303 638h279l-378 -718h224v-141h-298v-156h298v-140h-298v-308h-263v308z" />
<glyph unicode="&#xa9;" horiz-adv-x="1694" d="M1599 732q0 -114 -28 -216.5t-78 -188t-118.5 -153.5t-151.5 -115t-178.5 -71.5t-195.5 -24.5q-111 0 -209.5 26t-182.5 75.5t-152 119t-114 155t-72.5 184.5t-26.5 209q0 115 28 216.5t78.5 188t120 153.5t153.5 114t179.5 71.5t197 24.5t196.5 -24.5t178 -71.5 t151.5 -114t118.5 -153.5t78 -188t28 -216.5zM1408 732q0 140 -43.5 257t-119 200t-177.5 129t-219 46q-119 0 -221.5 -46t-178.5 -129t-119.5 -200t-43.5 -257q0 -87 18 -167.5t51 -151.5t82.5 -129t111.5 -98.5t137 -63.5t163 -23q117 0 219 46t177.5 129t119 199.5 t43.5 258.5zM1238 591q-12 -74 -43 -134t-78.5 -103.5t-112.5 -67.5t-145 -24q-101 0 -180.5 35.5t-134 99t-84 149t-29.5 186.5q0 92 28.5 174.5t84 143t135.5 95.5q82 35 183 35q73 0 136 -21t113 -62t82.5 -99.5t41.5 -135.5h-169q-8 40 -26.5 74t-45.5 58.5t-60 38.5 q-32 14 -72 14q-58 0 -102.5 -25.5t-75 -68.5t-45 -100.5t-14.5 -120.5q0 -68 14.5 -129t45 -107t73.5 -74t101 -28q40 0 75.5 15.5t62.5 43t45 63t24 75.5h172z" />
<glyph unicode="&#xab;" horiz-adv-x="971" d="M105 447v221l345 279v-229l-197 -161q46 -38 98 -80.5t99 -79.5v-228zM502 447v221l345 279v-229l-197 -161q46 -38 98.5 -80.5t98.5 -79.5v-228z" />
<glyph unicode="&#xad;" horiz-adv-x="819" d="M102 668h617v-221h-617v221z" />
<glyph unicode="&#xae;" horiz-adv-x="1663" d="M702 293h-163v850h325q160 0 239.5 -58t79.5 -187q0 -56 -17 -96.5t-48 -68.5t-73 -45q-44 -17 -93 -23h12l234 -372h-185l-215 363h-96v-363zM838 775q34 0 66 3.5t57 17.5t38.5 40t13.5 73q0 37 -15 60t-38.5 35t-52.5 15.5t-57 3.5h-148v-248h136zM1586 732 q0 -116 -27.5 -217.5t-78.5 -186.5t-120 -152.5t-152.5 -114.5t-179 -71.5t-195.5 -24.5q-111 0 -209.5 26.5t-182.5 75.5t-151.5 117.5t-114 154t-72.5 184.5t-26 209q0 115 27.5 216.5t78.5 187t120.5 152.5t153.5 114t179.5 71.5t197 24.5t196 -24.5t178 -71.5 t152.5 -114t120 -152.5t78.5 -187t27.5 -216.5zM1417 733.5q0 95.5 -21 180t-58.5 155.5t-91.5 128.5t-118.5 97t-139.5 60.5q-73 22 -153 22t-155.5 -21.5t-141 -61t-118.5 -97t-91.5 -128.5t-60.5 -157q-22 -83 -22 -179q0 -132 42 -251t119 -206.5t185 -138.5 q110 -51 243 -51q80 0 154 21.5t138.5 61.5t118.5 97t91.5 129t58.5 157.5t21 181z" />
<glyph unicode="&#xbb;" horiz-adv-x="971" d="M502 169v228l197 160q-46 39 -98.5 81.5t-98.5 79.5v229l345 -279v-221zM105 169v228l197 160q-46 39 -98.5 81.5t-98.5 79.5v229l345 -279v-221z" />
<glyph unicode="&#xbc;" horiz-adv-x="1732" d="M1489 0h-208v168h-392v162l374 548h226v-556h96v-154h-96v-168zM1281 638l-209 -316h209v316zM86 1303q50 0 96 7.5t83 24.5t63 45t35 65h174v-884h-207v622h-244v120zM1140 1485h184l-839 -1534h-188z" />
<glyph unicode="&#xbd;" horiz-adv-x="1732" d="M1130 1485h187l-840 -1534h-187zM83 1303q49 0 97 7.5t85 24.5t62.5 45t34.5 65h174v-884h-210v622h-243v120zM1629 0h-668q0 74 21.5 132.5t56 103t79.5 78.5t91 63l58 36q34 20 65 40.5t55 47t38.5 58.5t14.5 75q0 34 -10 59t-27 42t-41.5 26t-52.5 9q-37 0 -63 -17 t-42.5 -43t-23.5 -59t-7 -66h-209q0 71 23 131t68 104.5t108.5 69.5t147.5 25q67 0 128 -17t105.5 -51t71 -86.5t26.5 -122.5q0 -50 -17 -91.5t-45 -77t-65 -65.5t-80 -56q-12 -9 -26 -17t-28 -17q-29 -18 -57.5 -36.5t-53 -40t-43 -45t-27.5 -47.5h429v-145z" />
<glyph unicode="&#xbe;" horiz-adv-x="1732" d="M1565 0h-210v199h-391v161l370 518h231v-525h94v-154h-94v-199zM1355 639l-208 -286h208v286zM1249 1485h186l-841 -1534h-187zM305 1090q37 0 74 6.5t65.5 20t46 38.5t17.5 62q0 27 -11.5 47t-29 32.5t-39 18.5t-43.5 6q-29 0 -53 -12t-41 -32t-26 -49.5t-9 -63.5h-194 q3 71 26 126.5t66 94t101.5 58.5t132.5 20q59 0 115 -12.5t100 -40t71.5 -73.5t27.5 -111q0 -63 -34.5 -111.5t-105.5 -73.5l-1 -3q41 -8 74 -27t55.5 -47t35 -65t12.5 -77q0 -67 -27 -119.5t-75 -88t-111 -54t-135 -18.5q-87 0 -150.5 21.5t-107 61.5t-64.5 100 q-22 60 -25 134h194q0 -37 10 -68.5t29.5 -55.5t47 -37.5t66.5 -13.5q32 0 59.5 10.5t49.5 29t33.5 45.5t11.5 61q0 49 -21 77t-55 42.5t-76 18.5t-87 4v118z" />
<glyph unicode="&#xd7;" horiz-adv-x="1253" d="M151 841l157 163l317 -326q79 80 161.5 163t160.5 163l153 -163l-321 -324l327 -323l-160 -160l-322 328q-77 -80 -158 -164t-158 -164l-152 160l315 323z" />
<glyph unicode="&#xf7;" horiz-adv-x="1253" d="M103 414v208h1047v-208h-1047zM628 755q-34 0 -63 12t-51.5 32t-35.5 46.5t-13 57t13 57.5t35.5 47t51.5 31.5t62 11.5q34 0 62.5 -12t50.5 -32t35 -46.5t13 -57.5q0 -27 -13 -53.5t-35 -48t-50.5 -33.5t-61.5 -12zM628 3q-34 0 -63 11.5t-51.5 32.5t-35.5 47t-13 57 t13 57t35.5 46t51.5 32.5t62 12.5q34 0 62.5 -12.5t50.5 -32.5t35 -47q13 -25 13 -56q0 -28 -13 -55t-35 -47.5t-50.5 -33t-61.5 -12.5z" />
<glyph unicode="&#xe01;" horiz-adv-x="1398" d="M953 0v861q0 35 -16 76.5t-50 78.5t-88 61t-131 24q-49 0 -93 -12.5t-80 -34t-61 -49.5q-27 -29 -40 -59l250 -8v-86q-62 -19 -100.5 -43.5t-60 -54t-28.5 -64t-7 -74.5v-616h-242v590q0 34 6.5 65.5t17 60.5t26.5 53q15 23 30 41l-160 6q6 102 51 184.5t115.5 138.5 t167.5 86t208 30q134 0 233.5 -36t164 -95.5t95.5 -137t31 -161.5v-825h-239z" />
<glyph unicode="&#xe02;" horiz-adv-x="1232" d="M271 0v422q0 58 23 103t57 81t74 69t74 71.5t57 84t23 107.5q0 55 -31 94.5t-77 56.5q13 -17 22 -47q9 -29 9 -66q0 -43 -17 -81.5t-46 -66t-69 -44.5t-90 -17q-55 0 -99.5 17t-75.5 46t-47 69t-16 88q0 71 31.5 122.5t80.5 84t110.5 48.5t123.5 16q76 0 142 -20 t114.5 -60.5t76 -104t27.5 -149.5q0 -54 -12 -101t-33.5 -90t-51 -83t-66.5 -80q-14 -16 -28.5 -29.5t-24.5 -29t-17 -33.5q-7 -19 -7 -41v-280h277v1083h238v-1240h-752zM277 896q22 0 39 8t27.5 20t15 29t4.5 33q0 17 -4.5 33t-15 29t-27.5 20.5t-39 7.5q-23 0 -39 -7.5 t-27.5 -20.5t-17 -28.5t-5.5 -33.5q0 -17 5.5 -33.5t17 -28.5t27.5 -20t39 -8z" />
<glyph unicode="&#xe03;" horiz-adv-x="1339" d="M45 1029q0 49 16 90t47 70t75.5 45t98.5 16q43 0 84 -13.5t77 -37.5t64.5 -54t45.5 -64l129 162h116q26 -49 44 -105q17 -54 17 -112q0 -85 -14.5 -149.5t-40 -117t-62.5 -98t-80 -91.5q-15 -16 -27.5 -29.5t-23 -29t-17.5 -33.5q-6 -19 -6 -41l-1 -280h306v1084h237 v-1241h-779v416q0 43 15.5 79t40 69.5t57 63.5t65.5 61.5t64 67t54 78.5t34.5 95.5t8.5 116.5l-122 -148h-35l-60 105q0 -34 -14.5 -66t-41 -57t-64 -40.5t-83.5 -15.5q-50 0 -92 17t-71.5 45t-45.5 65t-16 77zM271 942q22 0 38 8t26.5 20.5t16 29t5.5 32.5q0 17 -5.5 33 t-16 29t-26.5 21t-38 8q-23 0 -40 -8t-28.5 -21t-17 -28.5t-5.5 -33.5q0 -17 5.5 -33t17 -28.5t28.5 -20.5t40 -8z" />
<glyph unicode="&#xe04;" horiz-adv-x="1452" d="M727 1101q-68 0 -120.5 -20t-90 -54.5t-57.5 -81t-20 -96.5v-39q0 -28 -2 -55q-3 -28 -4 -50q-3 -24 -6 -49l3 -3q15 45 44.5 87t67 73t82.5 51q47 20 97 20q52 0 93.5 -16t71.5 -44.5t45.5 -67t15.5 -85.5q0 -44 -14.5 -82t-42.5 -66.5t-69.5 -44.5t-93.5 -16 q-29 0 -58.5 8.5t-54 23t-44 36t-31.5 48.5q-46 -65 -70 -155t-24 -192v-231h-239v835q0 98 42 176.5t112.5 132.5t166 82.5t200.5 28.5q114 0 209.5 -27t164.5 -79.5t107.5 -131t38.5 -182.5v-835h-241v852q0 61 -24 108t-62.5 78t-89.5 47t-103 16zM730 578q25 0 41.5 8 t29 20.5t18 29.5t5.5 35q0 19 -5.5 36t-18 30t-29.5 21q-16 9 -41 9t-42.5 -8.5t-29 -21.5t-18 -30t-6.5 -36q0 -18 6.5 -35t18 -29.5t29 -20.5t42.5 -8z" />
<glyph unicode="&#xe05;" horiz-adv-x="1484" d="M1035 0v1004q0 22 -6 39t-15.5 27.5t-23.5 15t-28 4.5q-21 0 -43.5 -10.5t-43 -32t-40 -51t-34.5 -66.5h-120q-16 36 -36 66t-40 50.5t-41 32.5q-22 11 -40 11q-17 0 -32 -6t-25.5 -17t-17.5 -27.5t-7 -35.5v-225l-6 -98l-12 -63q15 44 46.5 86.5t71.5 75.5t87 52 q49 20 98 20q52 0 93.5 -16.5t71.5 -44t45.5 -66t15.5 -85t-14.5 -84t-42 -66t-69.5 -44t-94 -15.5q-31 0 -60 8.5t-54 24t-43.5 36.5t-30.5 45q-45 -65 -72.5 -152.5t-27.5 -189.5v-203h-239v972q0 71 27 124.5t71 88.5t98 52.5t106 17.5q40 0 77 -14.5t66.5 -36t52.5 -48 t37 -50.5q12 24 33.5 50.5t51.5 48t70 35.5q40 15 90 15q55 0 108 -17.5t94 -52.5t65.5 -88t24.5 -125v-972h-243zM736 545q25 0 42 8t29 21t17.5 30.5t5.5 34.5q0 19 -5.5 35t-17.5 30t-30 21q-16 8 -41 8t-42.5 -7.5t-29 -21.5t-17.5 -31t-6 -34q0 -18 6 -35t17.5 -30 t29 -21t42.5 -8z" />
<glyph unicode="&#xe06;" horiz-adv-x="1435" d="M1001 0q-22 37 -60.5 74t-86 71t-104.5 64.5t-114 52.5v-22q0 -55 -16 -102t-47 -81.5t-75.5 -53t-103.5 -18.5q-61 0 -107.5 20t-77 53.5t-46 78.5t-15.5 94q0 46 17 87.5t47.5 74t72 50t92.5 17.5h20v94q0 56 21.5 99t54 78.5t71 66.5t71 63t55.5 70.5t23 87.5l-2 8 q0 3 -0.5 7t-0.5 7l-117 -142h-34l-48 68q-3 -31 -19 -61.5t-44 -54.5t-65 -38.5t-80 -14.5q-52 0 -95 19t-74 50.5t-48 71.5t-17 84q0 49 15.5 90.5t45.5 74t74 50t102 17.5q56 0 98.5 -14.5t75.5 -39t56 -55.5t41 -65l130 162h117q32 -46 46.5 -94.5t14.5 -107.5 q0 -58 -12 -103t-33.5 -83.5t-51 -75.5t-63.5 -77q-15 -18 -27.5 -33.5t-21 -32.5t-12.5 -36q-5 -21 -5 -43v-129q52 -12 102.5 -29t95 -37t81.5 -40t65 -39v957h243v-1240h-225zM280 930q25 0 42 8t29 21.5t17.5 30.5t5.5 35.5t-5.5 35.5t-17.5 31t-30 22q-16 9 -41 9 q-24 0 -42 -8.5t-29.5 -22.5t-17.5 -31t-6 -35.5t6 -35.5t17.5 -30.5t29.5 -21.5t42 -8zM391 126q25 0 42 8t29 21.5t17.5 30.5t5.5 36q0 18 -5.5 34.5t-17.5 29.5t-30 21q-16 9 -41 9q-24 0 -42 -8.5t-29.5 -21.5t-17.5 -30q-6 -16 -6 -34q0 -19 6 -36t17.5 -30.5 t29.5 -21.5t42 -8z" />
<glyph unicode="&#xe07;" horiz-adv-x="1188" d="M336 0q-19 80 -40.5 166.5t-47 174t-54 174t-56 168t-56 154.5t-54.5 135h235q34 -83 69.5 -182t69.5 -205t65 -215q32 -108 57 -213h218v638q-6 -3 -10.5 -3h-9.5q-57 0 -101.5 19t-76 50.5t-48 74.5t-16.5 90q0 52 16.5 95t48 74t76 48.5t101.5 17.5q68 0 118 -20 t81 -53t45.5 -78.5t14.5 -94.5v-1015h-645zM719 930q25 0 42.5 8.5t30 22.5t18.5 31.5t6 36t-5.5 35t-17 29.5t-30 21.5t-41.5 8.5q-24 0 -42 -8.5t-30 -21.5t-19 -30q-6 -16 -6 -34q0 -19 6.5 -36t18 -30.5t29 -23t40.5 -9.5z" />
<glyph unicode="&#xe08;" horiz-adv-x="1258" d="M993 0h-511q-6 40 -10 78.5t-8 75.5q-8 63 -15 121.5t-10 100.5q-9 -3 -20.5 -3h-24.5q-61 0 -106 20t-72.5 51.5t-41.5 72.5q-14 44 -14 87q0 41 14.5 80.5t44 71.5t73.5 51.5t102 19.5q46 0 88.5 -12.5t75.5 -37.5t54.5 -63.5t28.5 -88.5l49 -474h86q3 43 7.5 111 t10 145l11 154t9.5 142t6 110.5t2 56.5q0 46 -17 89.5t-49 75t-79 50.5q-46 19 -107 19q-66 0 -116.5 -18.5t-84 -47t-52 -65.5t-21.5 -71h-234q12 99 61 167t120 109.5t157.5 60.5t175.5 19q71 0 137 -12t122.5 -37t102 -61t76 -85.5t44.5 -109.5t8 -134zM394 505 q25 0 42 8t29 21.5t18.5 30.5t6.5 36q0 18 -6.5 34t-18.5 29.5t-29 22t-42 8.5q-24 0 -41 -8.5t-29.5 -22t-17.5 -30.5q-6 -15 -6 -33q0 -19 5.5 -36t18 -30.5t29.5 -21.5t41 -8z" />
<glyph unicode="&#xe09;" horiz-adv-x="1406" d="M1238 216q0 -47 -15.5 -88.5t-46 -73.5t-75.5 -50.5t-103 -18.5q-57 0 -99.5 19t-71 50.5t-43 71.5t-14.5 82q-28 -12 -61.5 -33t-66 -48.5t-63.5 -60t-51 -66.5h-174v367q-4 -4 -9 -4h-9q-53 0 -97.5 16.5t-77 46.5t-51 71.5t-18.5 92.5q0 54 17 99.5t48 77.5t76.5 50 t102.5 18q69 0 118.5 -22.5t81 -59.5t45 -84t13.5 -96v-257v-18t-3 -27q28 25 62 45t71.5 35.5t75.5 29t72 22.5q24 7 41 17.5t26.5 27.5t14 41.5t4.5 61.5v327q0 35 -18.5 74.5t-55.5 72.5t-92.5 54.5t-130.5 21.5q-67 0 -120.5 -18.5t-92 -47t-60 -65.5t-28.5 -71h-234 q6 77 41.5 142t102 112.5t163.5 74.5t228 27q126 0 225.5 -30t168.5 -83t107 -126.5t38 -157.5v-271q0 -25 -5.5 -52t-16.5 -53t-26 -47.5t-37 -34.5q31 -9 52.5 -27.5t37.5 -43t24.5 -54t8.5 -59.5zM1090 207.5q0 18.5 -7.5 35.5t-20 29.5t-29.5 19.5t-35.5 7t-33.5 -7 t-27.5 -19.5t-20 -28.5t-7.5 -36q0 -19 7.5 -35t20 -28.5t27.5 -18.5t33.5 -6t35.5 6t29.5 18.5t20 28.5t7.5 34.5zM339 499q23 0 40.5 7.5t28.5 21.5t17 31t6 35.5t-6 35.5t-17 31t-28.5 21.5t-40.5 7.5q-25 0 -43.5 -7.5t-30 -21.5t-17.5 -31t-6 -35.5t6 -35.5t17.5 -31 t30 -21.5t43.5 -7.5z" />
<glyph unicode="&#xe0a;" horiz-adv-x="1248" d="M1170 1394q-6 -77 -30 -136.5t-57.5 -104t-74.5 -74.5q-41 -29 -81 -47q25 -13 45 -33.5t35.5 -49t23 -64.5t7.5 -81v-804h-764v422q0 58 23 103t57 81t74 69t74 71.5t57 84t23 107.5q0 55 -30.5 94.5t-77.5 56.5q13 -17 22 -47q9 -29 9 -66q0 -43 -17 -81.5t-46 -66 t-69 -44.5t-90 -17q-55 0 -99.5 17t-75.5 46t-47 69t-16 88q0 71 31.5 122.5t80.5 84t111 48.5t123 16q51 0 98 -8.5t87 -27t72.5 -47.5t55.5 -68q37 11 73 35.5t65.5 61.5t49.5 85t23 105h255zM280 896q22 0 39 8t27.5 20t15.5 29t5 33q0 17 -5 33t-15.5 29t-27.5 20.5 t-39 7.5q-23 0 -39 -7.5t-27.5 -20.5t-17 -28.5t-5.5 -33.5q0 -17 5.5 -33.5t17 -28.5t27.5 -20t39 -8zM801 839q0 14 -2.5 30.5t-8.5 32.5t-16 28t-26 19q4 -7 4 -13.5v-11.5q0 -54 -12.5 -101t-34 -90t-51 -83t-66.5 -80q-14 -16 -28.5 -29.5t-24.5 -29t-17 -33.5 q-7 -19 -7 -41v-280h290v682z" />
<glyph unicode="&#xe0b;" horiz-adv-x="1339" d="M798 1243q15 -28 27 -56q10 -29 19 -60q63 37 107 105t53 162h256q-6 -77 -31.5 -136.5t-60.5 -102.5t-75 -74t-77 -49q22 -9 43 -29t37 -49.5t25 -67t9 -82.5v-804h-779v416q0 43 15.5 79t40 69.5t57 63.5t65.5 61.5t64 67t54 78.5t34.5 95.5t8.5 116.5l-122 -148h-35 l-60 105q0 -34 -14.5 -66t-41 -57t-64 -40.5t-83.5 -15.5q-50 0 -92 17t-71.5 45t-45.5 65t-16 77q0 49 16 90t47 70t75.5 45t98.5 16q43 0 84 -13.5t77 -37.5t64.5 -54t45.5 -64l129 162h116zM890 862q0 24 -9 44.5t-28 32.5q-6 -64 -23 -114t-41.5 -93.5t-56.5 -82.5 q-33 -39 -70 -79q-15 -16 -27.5 -29.5t-23 -29t-17.5 -33.5q-6 -19 -6 -41v-280h302v705zM271 942q22 0 38 8t26.5 20.5t16 29t5.5 32.5q0 17 -5.5 33t-16 29t-26.5 21t-38 8q-23 0 -40 -8t-28.5 -21t-17 -28.5t-5.5 -33.5q0 -17 5.5 -33t17 -28.5t28.5 -20.5t40 -8z" />
<glyph unicode="&#xe0c;" horiz-adv-x="1900" d="M202 590q0 34 7 65.5t17.5 60.5t26.5 53q15 23 30 41l-160 6q6 102 52.5 184.5t122 138.5t174 86t209.5 30q135 0 232 -34t160.5 -91t92.5 -131.5t29 -156.5v-321v-39t1 -39t2 -36q0 -17 3 -30q51 -18 115 -54.5t129 -82.5v1000h243v-1240h-222q-37 37 -71.5 64.5 t-64.5 50t-58 38.5t-52 30q-3 -43 -20 -80t-46.5 -63t-71 -40.5t-95.5 -14.5q-55 0 -96.5 16.5t-70 47t-42.5 70.5t-14 86t15.5 85.5t43 67t64.5 44.5t79 23q0 12 -2.5 34.5t-4 48l-3 51t-1.5 43.5v285q0 35 -13 73t-45 69t-85 51q-54 21 -131 21q-50 0 -96 -12.5t-84.5 -34 t-68 -50t-41.5 -58.5l250 -8v-86q-62 -19 -100.5 -43.5t-60 -54t-29 -64t-7.5 -74.5v-95v-17v-20t-1 -19q-3 -9 -3 -17q7 2 13 2.5t11 0.5q55 0 99.5 -16t75.5 -47t47 -73t16 -95q0 -51 -16 -94t-47.5 -74.5t-75.5 -49t-99 -17.5q-71 0 -120.5 21.5t-81 58.5t-46 83 t-14.5 94v348zM993.5 117q21.5 0 37.5 7.5t27 19.5t15.5 26.5t4.5 31.5q0 15 -4.5 30.5t-15.5 28t-27 19t-37.5 6.5t-38 -6.5t-27 -19t-16.5 -27t-6 -31.5q0 -16 6 -31t16.5 -27t27 -19.5t38 -7.5zM460 120q25 0 43 8t30 20t18 29t6 35.5t-6 35.5t-18 31t-30.5 21.5t-42 7.5 t-40.5 -7.5t-29 -21.5t-18 -32q-5 -16 -5 -34.5t5.5 -35.5t17.5 -29t29 -20t40 -8z" />
<glyph unicode="&#xe0d;" horiz-adv-x="1840" d="M659 1255q89 0 160 -16t125 -46t92.5 -70t63 -88t37 -101t12.5 -109v-677h242v1092h235v-1240h-720v870q0 37 -11 78t-38 74.5t-74.5 56t-123.5 22.5q-48 0 -91 -12.5t-77.5 -34t-61 -50t-38.5 -58.5l250 -8v-86q-62 -19 -100.5 -43.5t-60 -54t-29 -64t-7.5 -74.5v-95 v-17v-20t-1 -19q-3 -9 -3 -17q7 2 13 2.5t11 0.5q55 0 99.5 -16t75.5 -47t47 -73t16 -95q0 -51 -16 -94t-47.5 -74.5t-75.5 -49t-99 -17.5q-71 0 -120.5 21.5t-81 58.5t-46 83t-14.5 94v348q0 34 7 65.5t17.5 60.5t26.5 53q15 23 30 41l-160 6q6 102 52.5 184.5t120.5 138.5 t167.5 86t195.5 30zM1623 -86v-6q0 -50 -10.5 -96t-34.5 -86t-59.5 -74t-83.5 -59q-46 -21 -105 -33q-58 -13 -120 -13q-46 0 -87 7q-42 9 -76 21q-28 12 -52.5 29t-41.5 40t-26 51t-9 59q0 43 15.5 75t40 55.5t57.5 34.5q32 12 69 12q33 0 65.5 -10t56.5 -31t38.5 -52.5 t14.5 -74.5q0 -16 -3 -36t-11 -40q34 7 62.5 23.5t50 42t34 59.5t12.5 74v28h203zM1100 -308q15 0 27.5 4.5t21 14t12 21.5t3.5 25q0 12 -3.5 23t-12 20t-20.5 15q-13 6 -28 6q-16 0 -28 -6t-20.5 -15t-12.5 -20t-4 -23q0 -13 4 -25t12.5 -21.5t20.5 -14t28 -4.5zM460 120 q25 0 43 8t30 20t18 29t6 35.5t-6 35.5t-18 31t-30.5 21.5t-42 7.5t-40.5 -7.5t-29 -21.5t-18 -32q-5 -16 -5 -34.5t5.5 -35.5t17.5 -29t29 -20t40 -8z" />
<glyph unicode="&#xe0e;" horiz-adv-x="1429" d="M1220 -265q0 -58 -22.5 -104.5t-60 -78t-87.5 -47.5q-49 -16 -104 -16q-31 0 -59 6t-52.5 16t-44.5 21.5t-34 22.5q-12 -12 -31.5 -26t-44 -26.5t-53.5 -21t-63 -8.5q-47 0 -90 15.5t-77 43.5t-54 65.5t-20 83.5q0 45 17 83.5t46.5 67.5t72.5 44.5t95 15.5q50 0 92 -16 q42 -15 69 -39q3 12 4 33q2 19 2 44h171q-3 -50 -7 -83.5t-8.5 -58.5t-10.5 -42q-7 -16 -13 -32q12 -8 30 -15q19 -8 38 -8q28 0 43 21t15 55v1119q0 36 -12 76t-43 75t-81.5 57.5t-127.5 22.5q-47 0 -90.5 -13t-80 -34.5t-62.5 -49.5t-38 -58l246 -8v-88q-34 -15 -58 -36 t-38.5 -47t-22 -59t-7.5 -74v-394q0 -49 -15 -95t-46.5 -81.5t-81.5 -57t-119 -21.5q-56 0 -100.5 16.5t-75.5 49t-47 76.5q-17 45 -17 98q0 46 16.5 87t47.5 72.5t75.5 49t100.5 17.5h9.5t8.5 -1v181q0 27 6.5 53.5t17 51.5t26 46.5t33.5 35.5l-231 7q13 99 59 179 t118.5 135.5t165 85.5t200.5 30q135 0 230.5 -36t156.5 -96t89.5 -138.5t28.5 -162.5v-1087zM305 120q25 0 41.5 8t29 21.5t18.5 30.5t6 35.5t-6 35.5t-18.5 31t-29 22.5t-41.5 8.5t-43.5 -8.5t-30 -22.5t-17.5 -31t-6 -35.5t6 -35.5t17.5 -30.5t30 -21.5t43.5 -8zM662 -328 q-4 12 -14 27t-24 28t-31 21.5t-38.5 8.5t-37 -6.5t-24.5 -17t-14 -24.5t-5 -25q0 -34 21.5 -53t61.5 -19q16 0 33 5.5t30.5 14t25.5 19t16 21.5z" />
<glyph unicode="&#xe0f;" horiz-adv-x="1429" d="M453 -317q-23 35 -54 59t-76 24q-20 0 -36 -6t-27.5 -18.5t-17.5 -27t-6 -30.5q0 -14 5 -28.5t16 -26t26.5 -19t36.5 -7.5q25 0 46.5 7t38.5 18.5t29.5 25t18.5 29.5zM979 870q0 36 -12 76t-43 75t-81.5 57.5t-127.5 22.5q-47 0 -90.5 -13t-80 -34.5t-62.5 -49.5t-38 -58 l246 -8v-88q-34 -15 -58 -36t-38.5 -47t-22 -59t-7.5 -74v-394q0 -49 -15 -95t-46.5 -81.5t-81.5 -57t-119 -21.5q-56 0 -100.5 16.5t-75.5 49t-47 76.5q-17 45 -17 98q0 46 16.5 87t47.5 72.5t75.5 49t100.5 17.5h9.5t8.5 -1v181q0 27 6.5 53.5t17 51.5t26 46.5t33.5 35.5 l-231 7q13 99 59 179t118.5 135.5t165 85.5t200.5 30q135 0 230.5 -36t156.5 -96t89.5 -138.5t28.5 -162.5v-1121q0 -49 -13 -89t-38.5 -70t-65.5 -46.5t-92.5 -16.5t-91 23.5t-72.5 72.5l-37 52l-89 -144h-123l-62 89q-34 -49 -88 -74t-118 -25q-48 0 -89 15.5t-71.5 43.5 t-48.5 65.5t-18 83.5q0 45 16.5 83.5t45.5 67.5t70.5 44.5t90.5 15.5q56 0 101.5 -20t68.5 -55q0 4 3 16.5t5.5 26.5t4.5 29.5t4 24.5h158q-9 -86 -25 -145.5t-28 -85.5l35 -46l109 203h73l98 -130q9 -10 15.5 -14t12.5 -4q9 0 13.5 6t4.5 19v1153zM305 120q25 0 41.5 8 t29 21.5t18.5 30.5t6 35.5t-6 35.5t-18.5 31t-29 22.5t-41.5 8.5t-43.5 -8.5t-30 -22.5t-17.5 -31t-6 -35.5t6 -35.5t17.5 -30.5t30 -21.5t43.5 -8z" />
<glyph unicode="&#xe10;" horiz-adv-x="1236" d="M1090 1093q-21 -15 -46 -26t-51 -17t-52 -9t-52 -3q-47 0 -87 9t-80 18.5t-84 18.5t-97 9q-30 0 -57 -4.5t-49 -16t-37.5 -30t-24.5 -46.5q24 -3 56.5 -6t66.5 -7t66 -7q32 -6 54 -9q109 -12 196 -38.5t145.5 -69.5t85.5 -106t18 -148l-69 -605h-533q-8 52 -14 105 q-6 44 -11 94q-3 47 -6 87q-12 -3 -20 -3h-23q-62 0 -106.5 18.5t-75.5 50t-45 72.5q-15 41 -15 84t14.5 83t44 71t74 50.5t103.5 19.5q45 0 87 -14t76 -39.5t57 -64t26 -84.5l39 -385h115l40 468q3 38 -5.5 66.5t-28.5 50.5t-51.5 37t-75.5 28q-37 9 -81 16.5t-88.5 13 t-91 9.5t-86.5 7q-49 3 -98.5 4.5t-101.5 3.5v12v12q0 93 34 164.5t91.5 119t134.5 73t163 25.5q42 0 83.5 -8.5t84.5 -17.5t85 -17t85 -8q46 0 90 14q42 14 70 43zM1073 -313q0 -55 -13.5 -106.5t-45 -91.5t-84 -64t-128.5 -24q-55 0 -99 17.5t-81 57.5l-37 40l-57 -80 h-100l-52 71q-14 -12 -32 -26.5t-40 -26t-47.5 -19.5t-53.5 -8q-49 0 -85 17t-59.5 44.5t-34 61.5t-10.5 65q0 34 10.5 68.5t34 61.5t58 45t83.5 18q57 0 96.5 -21t60.5 -57q3 16 4.5 33t1.5 32v36h124q0 -34 -3.5 -65t-9.5 -57t-12 -47q-6 -22 -12 -35l30 -40l90 120h21 l60 -63q13 -12 24.5 -23.5t20.5 -21.5t17 -17t11 -10q18 -17 41 -28t40 -11q16 0 25 3.5t14.5 8.5t7.5 12q1 9 1 15q-4 0 -9 -1t-9 -1q-34 0 -65 12.5t-54 35t-36 53t-13 67.5q0 45 14.5 81t40.5 61.5t61.5 39.5t75.5 14q60 0 101 -21t66.5 -55t36 -79t10.5 -92zM378.5 410 q24.5 0 42.5 7.5t29.5 21.5t17.5 31t6 35.5t-6 35t-17.5 30.5t-29.5 22.5t-42.5 8.5t-42 -8.5t-29 -22.5t-18 -30.5t-6.5 -35t6.5 -35.5t18 -31t29 -21.5t42 -7.5zM862 -319q16 0 29 5.5t21.5 16.5t12.5 23t4 25q0 12 -4 25t-12.5 23t-21.5 16t-29 6q-18 0 -31 -6t-21.5 -16 t-13 -23t-4.5 -25q0 -13 4.5 -25t13 -23t21.5 -16.5t31 -5.5zM305 -394q-22 34 -45 54.5t-57 20.5q-18 0 -31 -5.5t-22.5 -16t-14 -23t-4.5 -24.5q0 -28 17 -50t55 -22q16 0 31 6t29 16t25 21.5t17 22.5z" />
<glyph unicode="&#xe11;" horiz-adv-x="1550" d="M1104 0v899l-506 -899h-228v533q0 48 23 88.5t58.5 79t77 74t77 74t58.5 80t24 90.5l-1 8q0 3 -1 7t-1 7l-117 -142h-35l-46 68q-3 -31 -19.5 -61.5t-43.5 -54.5t-64 -38.5t-81 -14.5q-53 0 -96 19t-73.5 50.5t-47.5 71.5t-17 84q0 49 15 90.5t45.5 74t75 50t101.5 17.5 q43 0 84 -14.5t77 -39t64.5 -55.5t45.5 -65l129 162h116q15 -23 27.5 -44.5t19.5 -43.5t10.5 -46.5t3.5 -52.5q0 -58 -15 -105t-40.5 -89.5t-59 -81t-68.5 -78.5q-32 -35 -50.5 -77.5t-18.5 -88.5v-82q0 -18 -1.5 -37.5t-1.5 -34.5q0 -19 -3 -37q6 18 15 43q9 20 21 46 q10 25 28 56l351 623q16 27 31.5 51.5t35.5 44.5t46 31.5t60 11.5q43 0 72.5 -15.5t47 -40t24.5 -54.5t7 -61v-1081h-236zM274 930q25 0 42.5 8t29 21.5t18 30.5t6.5 35.5t-6.5 35.5t-18 31t-29 22.5t-42.5 8.5t-41.5 -8.5t-28.5 -22.5t-17 -31t-5 -35.5t5 -35.5t17 -30.5 t28.5 -21.5t41.5 -8z" />
<glyph unicode="&#xe12;" horiz-adv-x="1926" d="M1025.5 111q21.5 0 38 7t26.5 18.5t16 27t6 32.5q0 15 -6 30.5t-16 27.5t-26.5 19t-38 7t-37.5 -7t-27.5 -19t-16.5 -26.5t-5 -31.5q0 -16 5 -32t16.5 -27.5t27.5 -18.5t37.5 -7zM440 231l216 209q-34 7 -61 25.5t-46 44.5t-30 59t-11 69q0 47 17 87t46.5 68.5t70 45.5 t88.5 17q46 0 86 -17t69.5 -44.5t45 -66t15.5 -84.5q0 -43 -17 -89.5t-56 -86.5l-448 -468h-231v964q0 74 24.5 128.5t66 91t96.5 53.5q53 18 112 18q44 0 82 -14.5t67 -36t51.5 -49.5t36.5 -54q15 26 38.5 54t54 49.5t66.5 35.5q38 15 81 15q59 0 112 -18.5t94 -54.5 t65.5 -90t24.5 -128v-607q48 -17 96.5 -45.5t109.5 -71.5v1000h242v-1240h-220q-37 37 -69.5 64.5t-60 50t-52.5 38.5t-49 30q-5 -43 -22.5 -80t-48.5 -63t-74 -40.5t-98.5 -14.5t-95.5 18.5t-67.5 47.5t-41 67.5t-13.5 77.5q0 46 16.5 85t45 67t68.5 43q38 16 87 16h13 q-6 43 -7.5 95t-1.5 108v406q0 16 -5 30.5t-14 24.5t-21.5 16t-24.5 6q-22 0 -42.5 -7.5t-41.5 -27.5t-42.5 -52.5t-44.5 -81.5h-105q-28 49 -51 81.5t-43 52.5t-39 27.5t-44 7.5q-14 0 -25.5 -6t-20.5 -16.5t-14 -24.5t-5 -30v-785zM727 542q25 0 41.5 8.5t29 21.5t18.5 31 q6 16 6 35q0 18 -6 35t-18.5 31t-29 22.5t-41.5 8.5t-42 -8.5t-29 -22.5t-18.5 -31t-6.5 -35q0 -19 6.5 -36t18.5 -30t29 -21.5t42 -8.5z" />
<glyph unicode="&#xe13;" horiz-adv-x="1877" d="M650 1255q86 0 155.5 -16t122.5 -45.5t90.5 -68t61.5 -83t35.5 -92.5t11.5 -95v-482q0 -16 -1.5 -37.5t-4.5 -49.5q26 25 56 45t61 36t60 28t53 18q18 6 34 15t27 24.5t17 40t6 58.5v692h241v-656q0 -25 -5 -49.5t-15 -48.5t-24.5 -44t-36.5 -35q56 -28 83.5 -80.5 t27.5 -113.5q0 -47 -13.5 -88.5t-42 -73.5t-72.5 -50.5t-104 -18.5q-56 0 -98 16t-71.5 44.5t-43.5 68.5t-14 88q-21 -16 -49 -39.5t-52.5 -50.5t-46 -55.5t-33.5 -56.5h-179v870q0 37 -11 78t-37.5 74.5t-72 56t-116.5 22.5q-48 0 -88.5 -12.5t-73 -34t-56.5 -49.5 q-25 -29 -38 -59l250 -8v-86q-62 -19 -100.5 -43.5t-60 -54t-28.5 -64t-7 -74.5v-95v-17t-0.5 -20t-0.5 -19t-2 -17q6 2 11.5 2.5t11.5 0.5q56 0 100.5 -16t75.5 -47t47 -73t16 -95q0 -51 -16 -94t-48 -74.5t-75.5 -49t-99.5 -17.5q-71 0 -120 21.5t-81.5 58.5t-46.5 83 t-14 94v348q0 34 6.5 65.5t17 60.5t26.5 53q15 23 30 41l-160 6q6 102 51 184.5t115.5 138.5t163 86t194.5 30zM1565 201.5q0 18.5 -7 35.5t-19.5 29.5t-28.5 19.5t-33 7q-19 0 -36 -7t-29 -19.5t-19 -28.5t-7 -36q0 -19 7 -35t19 -28.5t28.5 -18.5t36.5 -6q18 0 33.5 6 t28 18.5t19.5 28.5t7 34.5zM465 120q25 0 42.5 8t29 20t18 29t6.5 35.5t-6.5 35.5t-18 31t-29.5 21q-17 8 -42 8q-23 0 -40.5 -7.5t-29.5 -21.5t-17 -32q-5 -16 -5 -34.5t5 -35.5t17 -29t29.5 -20t40.5 -8z" />
<glyph unicode="&#xe14;" horiz-adv-x="1452" d="M730 542q25 0 41.5 8.5t29 21.5t18.5 31q5 16 5 35q0 18 -5.5 35t-18 31t-29.5 22q-16 9 -41 9t-42.5 -8.5t-29 -22.5t-18 -31t-6.5 -35q0 -19 6.5 -36t18 -30t29 -21.5t42.5 -8.5zM1247 0h-241v852q0 61 -24 108t-62 78t-86.5 47t-100.5 16t-103 -15.5t-92.5 -47 t-66 -77.5t-24.5 -109v-615l212 203q-34 7 -61.5 25.5t-47 44.5t-30 59t-10.5 69q0 47 17 87t47 68.5t70 45.5t89 17q46 0 86 -17t68.5 -44.5t45 -66t16.5 -84.5q0 -43 -17 -89.5t-57 -86.5l-450 -468h-222v835q0 98 41.5 176.5t114 132.5t168 82.5t200.5 28.5 q114 0 209.5 -27t164.5 -79.5t107.5 -131t38.5 -182.5v-835z" />
<glyph unicode="&#xe15;" horiz-adv-x="1478" d="M434 0h-231v964q0 74 25 128.5t66.5 91t95.5 53.5q54 18 112 18q45 0 82.5 -14.5t67 -36t51.5 -49.5t36 -54q16 26 39 54t53.5 49.5t67.5 35.5q37 15 80 15q59 0 112 -17.5t94 -53t65.5 -89.5t24.5 -128v-967h-243v1023q0 37 -20 53.5t-45 16.5q-21 0 -42 -7.5t-42 -27.5 t-42.5 -52.5t-44.5 -81.5h-105q-27 49 -50 81.5t-43 52.5t-39.5 27.5t-44.5 7.5q-14 0 -25.5 -6t-20.5 -16.5t-13.5 -24.5t-4.5 -30v-785l215 209q-34 7 -60.5 25.5t-46 44.5t-30.5 59t-11 69q0 47 17 87t46.5 68.5t70 45.5t88.5 17q46 0 86 -17t69.5 -44.5t45 -66 t15.5 -84.5q0 -43 -17 -89.5t-56 -86.5zM736 542q25 0 42 8.5t29 21.5t18 31q7 16 7 35q0 18 -6.5 35t-18.5 31t-29 22.5t-42 8.5t-41.5 -8.5t-29 -22.5t-18.5 -31t-6 -35q0 -19 6 -36t18.5 -30t29 -21.5t41.5 -8.5z" />
<glyph unicode="&#xe16;" horiz-adv-x="1402" d="M679 1255q136 0 232 -36t159 -93t93.5 -128.5t30.5 -142.5v-855h-239v870q0 37 -15.5 78t-49.5 74.5t-86 56t-125 22.5q-58 0 -105 -12.5t-82.5 -34t-58.5 -50t-37 -58.5l248 -8v-86q-62 -19 -99.5 -43.5t-59 -54t-28.5 -64t-7 -74.5v-95v-17t-1 -20t-1.5 -19t-0.5 -17 q6 2 11.5 2.5t9.5 0.5q56 0 100.5 -16t75.5 -47t47.5 -73t16.5 -95q0 -51 -16.5 -94t-47.5 -74.5t-75.5 -49t-100.5 -17.5q-71 0 -120 21.5t-80.5 58.5t-46.5 83t-15 94v348q0 34 6.5 65.5t18 60.5t25.5 53q15 23 32 41l-160 6q6 102 52 184.5t121 138.5t172 86t206 30z M465 120q25 0 43.5 8t30 20t17.5 29t6 35.5t-6 35.5t-17.5 31t-30 21.5t-43.5 7.5q-23 0 -40.5 -7.5t-28.5 -21.5t-17 -32q-6 -16 -6 -34.5t6 -35.5t17 -29t28.5 -20t40.5 -8z" />
<glyph unicode="&#xe17;" horiz-adv-x="1447" d="M998 0v978q0 37 -12.5 50t-28 13t-33.5 -9t-40 -34t-47 -65.5t-55 -103t-65 -147t-75 -198.5q-6 -16 -13.5 -43t-16 -58.5t-18 -67t-16.5 -67.5t-10.5 -60t-3.5 -43v-145h-241v790q-4 0 -9 -1q-3 -1 -9 -1q-52 0 -97.5 17t-77 46.5t-50 71t-18.5 93.5q0 56 16.5 100.5 t47.5 77t75.5 50t103.5 17.5q71 0 118.5 -22t79 -59t46.5 -85t15 -96v-118q0 -32 -2 -62q-1 -31 -5 -52q-3 -26 -3 -48q40 117 86.5 216.5t101 170.5t118.5 111.5t138 40.5q63 0 108.5 -18.5t74.5 -52.5t43 -80.5t14 -102.5v-1004h-240zM308 924q23 0 40 7.5t28.5 21.5 t17.5 31t6 35.5t-6 35.5t-17.5 31t-29 22t-39.5 8q-25 0 -43.5 -8t-30.5 -22t-18.5 -31t-6.5 -35.5t6.5 -35.5t18.5 -31t30.5 -21.5t43.5 -7.5z" />
<glyph unicode="&#xe18;" horiz-adv-x="1236" d="M782 625q0 36 -3.5 63t-17.5 47t-40 34q-28 15 -71 26q-62 15 -126.5 26t-131.5 18.5t-134 13.5t-130 12q-2 4 -2 7v9q0 92 31 162t84 117t126 71t160 24q41 0 83.5 -8.5t85 -17.5t84.5 -17t85 -8q47 0 90 14t71 43l57 -168q-22 -15 -46 -26t-50 -17t-53 -9 q-28 -3 -53 -3q-46 0 -86 9t-80 18.5t-83.5 18.5t-98.5 9q-59 0 -97.5 -20.5t-53.5 -76.5q25 -3 55 -6t61.5 -7t59.5 -8q30 -5 52 -8q111 -15 189.5 -40.5t129 -63.5t74 -91.5t23.5 -124.5v-647h-832v732h239v-578h349v471z" />
<glyph unicode="&#xe19;" horiz-adv-x="1447" d="M1278 222q0 -50 -14 -94.5t-44.5 -77t-78.5 -50.5t-115 -18q-59 0 -103.5 16.5t-74.5 45t-46.5 68t-16.5 85.5q0 34 8 65q-41 -25 -83 -57.5t-78 -67.5t-66 -70.5t-47 -66.5h-196v792q-4 0 -9 -2q-3 -2 -9 -2q-52 0 -97.5 17t-77 46.5t-50 71t-18.5 93.5q0 56 16.5 100.5 t47.5 77t75.5 50t103.5 17.5q71 0 118.5 -21.5t79 -57t46.5 -81t15 -94.5v-631q0 -9 -1.5 -23t-2.5 -30.5t-3.5 -31t-2.5 -23.5q37 37 83.5 68t93.5 55.5t89 40.5t70 22q56 16 82 45t26 85v659h240v-650q0 -25 -4.5 -49.5t-14 -47.5t-25.5 -44q-17 -21 -39 -36 q32 -11 56 -32t38.5 -47t21.5 -55t7 -60zM1130 216q0 43 -26 71.5t-75 28.5q-20 0 -38 -7t-31 -21t-20.5 -32.5t-7.5 -39.5q0 -25 7.5 -45t20.5 -32.5t31.5 -18.5t37.5 -6q47 0 74 29t27 73zM308 927q23 0 41 7.5t31.5 21.5t20 31t6.5 35.5t-6.5 35.5t-20 31t-32 22.5 t-40.5 8.5q-25 0 -43.5 -8.5t-30.5 -22.5t-18.5 -31t-6.5 -35.5t6.5 -35.5t18.5 -31t30.5 -21.5t43.5 -7.5z" />
<glyph unicode="&#xe1a;" horiz-adv-x="1450" d="M323 0v788h-9h-9q-52 0 -97.5 17t-77 46.5t-50 71t-18.5 93.5q0 56 16.5 100.5t47.5 77t75.5 50t103.5 17.5q71 0 118.5 -21.5t79 -57t46.5 -81t15 -91.5v-859h431v1089h243v-1240h-915zM308 927q23 0 41 7.5t31.5 21.5t20 31t6.5 35.5t-6.5 35.5t-20 31t-32 22.5 t-40.5 8.5q-25 0 -43.5 -8.5t-30.5 -22.5t-18.5 -31t-6.5 -35.5t6.5 -35.5t18.5 -31t30.5 -21.5t43.5 -7.5z" />
<glyph unicode="&#xe1b;" horiz-adv-x="1456" d="M323 0v792q-4 0 -9 -2q-3 -2 -9 -2q-52 0 -97.5 17t-77 46.5t-50 71t-18.5 93.5q0 56 16.5 100.5t47.5 77t75.5 50t103.5 17.5q71 0 118.5 -21.5t79 -57t46.5 -81t15 -91.5v-859h437v1586h243v-1737h-921zM308 927q23 0 41 7.5t31.5 21.5t20 31t6.5 35.5t-6.5 35.5 t-20 31t-32 22.5t-40.5 8.5q-25 0 -43.5 -8.5t-30.5 -22.5t-18.5 -31t-6.5 -35.5t6.5 -35.5t18.5 -31t30.5 -21.5t43.5 -7.5z" />
<glyph unicode="&#xe1c;" horiz-adv-x="1447" d="M989 0l-259 434l-271 -434h-250v999q0 50 14 95.5t45 80.5t80 57.5t120 22.5q57 0 101.5 -17.5t76.5 -50t48.5 -78.5t16.5 -99q0 -51 -18 -93t-50.5 -71.5t-77 -46.5t-97.5 -17h-9.5t-8.5 3v-394q0 -11 -1 -24q-2 -16 -2 -28v-31l215 336h140l196 -313q-3 11 -3 26 q-2 13 -2 27q-1 13 -1 29v827h243v-1240h-246zM467 921q23 0 41.5 7.5t30.5 21.5t19 31t7 35.5t-7 35.5t-19 30.5t-30.5 22t-41.5 8.5q-25 0 -42.5 -8.5t-30 -22t-18.5 -30.5t-6 -35.5t6 -35.5t18.5 -31t30 -21.5t42.5 -7.5z" />
<glyph unicode="&#xe1d;" horiz-adv-x="1447" d="M989 0l-259 434l-271 -434h-250v999q0 50 14 95.5t45 80.5t80 57.5t120 22.5q57 0 101.5 -17.5t76.5 -50t48.5 -78.5t16.5 -99q0 -51 -18 -93t-50.5 -71.5t-77 -46.5t-97.5 -17h-9.5t-8.5 3v-394q0 -15 -1 -31q-2 -15 -2 -26v-26l215 336h140l196 -313q-3 14 -3 26 q-2 11 -2.5 24t-0.5 27v1329h243v-1737h-246zM467 921q23 0 41.5 7.5t30.5 21.5t19 31t7 35.5t-7 35.5t-19 30.5t-30.5 22t-41.5 8.5q-25 0 -42.5 -8.5t-30 -22t-18.5 -30.5t-6 -35.5t6 -35.5t18.5 -31t30 -21.5t42.5 -7.5z" />
<glyph unicode="&#xe1e;" horiz-adv-x="1546" d="M1096 0l-271 782l-261 -782h-238v787q-4 0 -8.5 -1t-9.5 -1q-55 0 -100 17t-77 46.5t-50.5 71t-18.5 93.5q0 54 16.5 99.5t49 78t78 50t102.5 17.5q68 0 117 -21.5t80.5 -57.5t46.5 -82q15 -44 15 -93v-336q0 -21 -1.5 -44t-3 -43t-3.5 -33l-2 -12l224 647h91l231 -659 q-3 24 -5 49q-2 21 -3.5 46t-1.5 49v572h241v-1240h-238zM310 924q23 0 41.5 8.5t30 21.5t18.5 31t7 36.5t-7 35t-18.5 30t-30 22.5t-41.5 9q-25 0 -43 -9t-30 -22.5t-18 -31t-6 -34.5q0 -18 6 -36t18 -31t30 -21.5t43 -8.5z" />
<glyph unicode="&#xe1f;" horiz-adv-x="1546" d="M1096 0l-271 782l-261 -782h-238v787q-4 0 -8.5 -1t-9.5 -1q-55 0 -100 17t-77 46.5t-50.5 71t-18.5 93.5q0 54 16.5 99.5t49 78t78 50t102.5 17.5q68 0 117 -21.5t80.5 -57.5t46.5 -82q15 -44 15 -93v-336q0 -21 -1.5 -44t-3 -43t-3.5 -33l-2 -12l224 647h91l231 -659 q-3 24 -5 49q-2 21 -3.5 46t-1.5 49v1071h241v-1739h-238zM310 924q23 0 41.5 8.5t30 21.5t18.5 31t7 36.5t-7 35t-18.5 30t-30 22.5t-41.5 9q-25 0 -43 -9t-30 -22.5t-18 -31t-6 -34.5q0 -18 6 -36t18 -31t30 -21.5t43 -8.5z" />
<glyph unicode="&#xe20;" horiz-adv-x="1429" d="M1220 0h-241v870q0 36 -12 76t-43 75t-81.5 57.5t-127.5 22.5q-47 0 -90.5 -13t-80 -34.5t-62.5 -49.5t-38 -58l246 -8v-88q-34 -15 -58 -36t-38.5 -47t-22 -59t-7.5 -74v-394q0 -49 -15 -95t-46.5 -81.5t-81.5 -57t-119 -21.5q-56 0 -100.5 16.5t-75.5 49t-47 76.5 q-17 45 -17 98q0 46 16.5 87t47.5 72.5t75.5 49t100.5 17.5h9.5t8.5 -1v181q0 27 6.5 53.5t17 51.5t26 46.5t33.5 35.5l-231 7q13 99 59 179t118.5 135.5t165 85.5t200.5 30q135 0 230.5 -36t156.5 -96t89.5 -138.5t28.5 -162.5v-822zM305 120q25 0 41.5 8t29 21.5 t18.5 30.5t6 35.5t-6 35.5t-18.5 31t-29 22.5t-41.5 8.5t-43.5 -8.5t-30 -22.5t-17.5 -31t-6 -35.5t6 -35.5t17.5 -30.5t30 -21.5t43.5 -8z" />
<glyph unicode="&#xe21;" horiz-adv-x="1444" d="M1015 0q-40 43 -83 81.5t-92.5 71t-107 60t-128.5 52.5v-25q0 -55 -15.5 -102t-46.5 -81.5t-75.5 -53t-104.5 -18.5q-62 0 -108 20t-77 53.5t-46 76.5q-15 44 -15 87q0 49 16 90.5t45 72.5t72.5 48.5t95.5 17.5h20v334h-20q-55 0 -100 17t-77 48t-50 72.5t-18 93.5 q0 56 18 100.5t48.5 76t77 48.5t101.5 17q68 0 118 -21.5t81.5 -57.5t45.5 -82q14 -44 14 -93v-576q55 -12 110.5 -30.5t106.5 -40t95.5 -44.5t75.5 -45v972h240v-1240h-217zM348 924q23 0 41 8.5t30 21.5t18.5 31t6.5 36.5t-6.5 35t-18.5 30t-30 22.5t-41 9q-25 0 -43.5 -9 t-30 -22.5t-17.5 -31t-6 -34.5q0 -18 6 -36t17.5 -31t30 -21.5t43.5 -8.5zM360 123q23 0 41.5 8.5t30.5 21.5t18.5 31t6.5 36.5t-6.5 35.5t-18.5 30t-29.5 22t-42 9t-42.5 -9t-29.5 -22t-17.5 -31t-6 -35q0 -18 6 -36t17.5 -31t29.5 -21.5t42 -8.5z" />
<glyph unicode="&#xe22;" horiz-adv-x="1338" d="M205 0v379q0 29 8.5 60t24 59.5t40 51.5t55.5 37q-54 14 -93.5 46t-65.5 76t-38.5 94t-12.5 99q0 77 21.5 140.5t62.5 109.5t99 72q57 25 131 25q62 0 108 -19.5t75.5 -51.5t43.5 -73.5t14 -85.5q0 -41 -15 -81t-45 -71.5t-74.5 -50t-103.5 -18.5q-13 0 -35 3 q-20 3 -35 15q15 -51 53 -78q39 -28 85 -34q22 -3 52 -6q28 -2 56 -2h65v-145l-94 -9q-34 -3 -59.5 -17t-43 -34.5t-27 -44.5t-9.5 -49v-243h439v1086h239v-1240h-921zM437 927q23 0 41 8.5t30.5 21.5t18.5 31t6 36.5t-6 35t-18.5 30t-31 22.5t-40.5 9q-24 0 -42.5 -9 t-31 -22.5t-18.5 -31t-6 -34.5q0 -18 6 -36t18.5 -31t31 -21.5t42.5 -8.5z" />
<glyph unicode="&#xe23;" horiz-adv-x="1067" d="M973 1087q-40 -27 -82 -38t-83 -11q-43 0 -80.5 8.5t-76 17.5t-78.5 17.5t-93 8.5q-30 0 -58 -5t-51 -17.5t-40 -32.5t-23 -51q42 -5 84 -11t88 -12q111 -14 188 -36.5t123.5 -59t66.5 -90t20 -125.5v-404q0 -58 -18.5 -106t-54 -81.5t-86.5 -52t-112 -18.5 q-68 0 -117.5 20t-82.5 53.5t-49 78.5t-16 94q0 57 20 102.5t54 78t80 51t98 18.5h40v184q0 65 -43 103.5t-144 47.5q-104 13 -204 23q-98 11 -200 17q0 6 -1 9v7q0 91 31.5 162.5t87 119t131.5 73t164 25.5q44 0 88 -8.5t87.5 -19t85.5 -19.5q44 -8 87 -8q34 0 64.5 11.5 t60.5 37.5zM607 132q24 0 44 9.5t33.5 23.5t20 32.5t6.5 39.5q0 19 -6.5 37.5t-20 33.5t-32.5 24q-21 8 -45 8q-28 0 -47 -8.5t-32.5 -23.5t-20.5 -33.5t-7 -37.5q0 -20 7 -39t20.5 -33t32.5 -23.5t47 -9.5z" />
<glyph unicode="&#xe24;" horiz-adv-x="1402" d="M678 1255q135 0 232 -36t160 -93t92.5 -128.5t29.5 -142.5v-1317h-239v1332q0 37 -15.5 78t-48.5 74.5t-85 56t-126 22.5q-59 0 -105 -12.5t-81.5 -34t-59.5 -49.5q-25 -29 -38 -59l250 -8v-86q-62 -19 -100.5 -43.5t-60 -54t-28.5 -64t-7 -74.5v-95v-17t-0.5 -20 t-0.5 -19t-2 -17q6 2 11.5 2.5t11.5 0.5q56 0 100.5 -16t75.5 -47t47 -73t16 -95q0 -51 -16 -94t-48 -74.5t-75.5 -49t-99.5 -17.5q-71 0 -120 21.5t-81.5 58.5t-46.5 83t-14 94v348q0 34 6.5 65.5t17 60.5t26.5 53q15 23 30 41l-160 6q6 102 52.5 184.5t121 138.5t171.5 86 t207 30zM465 120q25 0 42.5 8t29 20t18 29t6.5 35.5t-6.5 35.5t-18 31t-29.5 21q-17 8 -42 8q-23 0 -40.5 -7.5t-29.5 -21.5t-17 -32q-5 -16 -5 -34.5t5 -35.5t17 -29t29.5 -20t40.5 -8z" />
<glyph unicode="&#xe25;" horiz-adv-x="1381" d="M933 0v322q0 68 -20 131.5t-57.5 113t-91 79t-119.5 29.5q-41 0 -76.5 -11t-62 -31t-41.5 -49.5t-15 -66.5v-73h11h10q51 0 95 -17t76.5 -46.5t50.5 -72.5t18 -92q0 -56 -16.5 -99t-48.5 -72.5t-75.5 -44.5t-99.5 -15q-71 0 -120 23t-80.5 60t-46.5 83t-15 95v227 q0 80 28 145.5t82 112.5t134 72.5t183 25.5q43 0 84 -8t78.5 -22.5t71.5 -33.5q36 -20 63 -43v180q0 25 -12 59t-42 64t-80 51q-47 20 -121 20q-107 0 -172.5 -56.5t-83.5 -155.5h-250q20 111 69 182t116.5 113t151.5 59q85 17 175 17q106 0 195.5 -25.5t155 -74.5 t101.5 -124.5t36 -175.5v-855h-239zM468 120q25 0 43.5 8t30.5 20t18.5 29t6.5 35.5t-6.5 35.5t-18.5 31t-30.5 21.5t-43.5 7.5q-23 0 -40 -7.5t-28.5 -21.5t-17.5 -32q-6 -16 -6 -34.5t6 -35.5t17.5 -29t28.5 -20t40 -8z" />
<glyph unicode="&#xe26;" horiz-adv-x="1429" d="M1220 -456h-241v1326q0 36 -12 76t-43 75t-81.5 57.5t-127.5 22.5q-47 0 -90.5 -13t-80 -34.5t-62.5 -49.5t-38 -58l246 -8v-88q-34 -15 -58 -36t-38.5 -47t-22 -59t-7.5 -74v-394q0 -49 -15 -95t-46.5 -81.5t-81.5 -57t-119 -21.5q-56 0 -100.5 16.5t-75.5 49t-47 76.5 q-17 45 -17 98q0 46 16.5 87t47.5 72.5t75.5 49t100.5 17.5h9.5t8.5 -1v181q0 27 6.5 53.5t17 51.5t26 46.5t33.5 35.5l-231 7q13 99 59 179t118.5 135.5t165 85.5t200.5 30q135 0 230.5 -36t156.5 -96t89.5 -138.5t28.5 -162.5v-1278zM305 120q25 0 41.5 8t29 21.5 t18.5 30.5t6 35.5t-6 35.5t-18.5 31t-29 22.5t-41.5 8.5t-43.5 -8.5t-30 -22.5t-17.5 -31t-6 -35.5t6 -35.5t17.5 -30.5t30 -21.5t43.5 -8z" />
<glyph unicode="&#xe27;" horiz-adv-x="1182" d="M973 246q0 -58 -19 -106t-54.5 -81.5t-85.5 -52t-112 -18.5q-68 0 -117 20t-82 53.5t-49.5 78.5t-16.5 94q0 57 20 102.5t54 78t80.5 51t98.5 18.5h40v409q0 46 -15.5 84.5t-45.5 65t-74 40t-99 13.5q-96 0 -156 -53.5t-80 -161.5h-252q18 105 67.5 176.5t117 115.5 t147.5 63q79 19 159 19q95 0 181.5 -24t151 -71.5t103 -121.5t38.5 -171v-621zM702 132q25 0 44 9.5t32.5 23.5t19.5 32.5t6 39.5q0 19 -6 37.5t-19.5 33.5t-32.5 23.5t-44 8.5q-27 0 -47.5 -8.5t-34 -23.5t-20 -33.5t-6.5 -37.5q0 -20 6.5 -39t20 -33t34 -23.5t47.5 -9.5z " />
<glyph unicode="&#xe28;" horiz-adv-x="1452" d="M727 1101q-68 0 -120.5 -20t-90 -54.5t-57.5 -81t-20 -96.5v-39q0 -28 -2 -55q-3 -28 -4 -50q-3 -24 -6 -49l3 -3q15 45 44.5 87t67 73t82.5 51q47 20 97 20q52 0 93.5 -16t71.5 -44.5t45.5 -67t15.5 -85.5q0 -44 -14.5 -82t-42.5 -66.5t-69.5 -44.5t-93.5 -16 q-29 0 -58.5 8.5t-54 23t-44 36t-31.5 48.5q-46 -65 -70 -155t-24 -192v-231h-239v835q0 98 42 176.5t112.5 132.5t166 82.5t200.5 28.5q154 -1 274 -51q25 10 48 28t41.5 43t29.5 56q13 33 17 67h267q-13 -67 -38.5 -119.5t-58 -91t-67.5 -65.5q-36 -26 -68 -44 q37 -49 56 -109t19 -134v-835h-241v852q0 61 -24 108t-62.5 78t-89.5 47t-103 16zM730 578q25 0 41.5 8t29 20.5t18 29.5t5.5 35q0 19 -5.5 36t-18 30t-29.5 21q-16 9 -41 9t-42.5 -8.5t-29 -21.5t-18 -30t-6.5 -36q0 -18 6.5 -35t18 -29.5t29 -20.5t42.5 -8z" />
<glyph unicode="&#xe29;" horiz-adv-x="1490" d="M1503 845v-16q0 -114 -58.5 -199t-163.5 -134v-496h-958v790q-4 0 -9 -1q-3 -1 -9 -1q-52 0 -97.5 17t-77 46.5t-50 71t-18.5 93.5q0 56 16.5 100.5t47.5 77t75.5 50t103.5 17.5q71 0 118.5 -21.5t79 -57t46.5 -81t15 -91.5v-859h476v280h-20h-19q-65 0 -134 14 t-124.5 45t-92.5 78.5t-37 112.5q0 37 10.5 73t34 63t60.5 44t92 17q43 0 77.5 -15.5t58.5 -41.5t37 -61.5t13 -75.5q0 -11 -2 -25.5t-6.5 -30t-11.5 -29.5q-6 -14 -15 -21q9 0 20 -1t23 -1q19 0 36 5v659h241v-544q19 22 31 59t12 74v4v6v6h179zM807 616q18 0 32 6t23.5 16 t14 23.5t4.5 28.5q0 14 -4.5 27t-14 23t-23.5 17t-32 7q-20 0 -34.5 -7t-24 -17t-14 -24t-4.5 -26q0 -14 4.5 -28t14 -24t24 -16t34.5 -6zM308 927q23 0 41 7.5t30 21.5t19 31t7 35.5t-7 35.5t-19 31t-30.5 22.5t-40.5 8.5q-25 0 -43.5 -8.5t-30.5 -22.5t-18.5 -31 t-6.5 -35.5t6.5 -35.5t18.5 -31t30.5 -21.5t43.5 -7.5z" />
<glyph unicode="&#xe2a;" horiz-adv-x="1381" d="M1340 1398q-13 -66 -38 -117.5t-56.5 -91.5t-67 -68t-69.5 -46q32 -46 47.5 -99.5t15.5 -120.5v-855h-239v322q0 68 -20 131.5t-57.5 113t-91 79t-119.5 29.5q-41 0 -76.5 -11t-62 -31t-41.5 -49.5t-15 -66.5v-72q4 0 11 1.5t10 1.5q53 0 97.5 -17.5t75.5 -48.5t49 -74 t18 -92q0 -56 -16.5 -99t-48.5 -72.5t-75.5 -44.5t-99.5 -15q-71 0 -120 23t-80.5 60t-46.5 83t-15 95v227q0 80 28 145.5t82 112.5t134 72.5t183 25.5q43 0 84 -8t78.5 -22.5t71.5 -33.5q36 -20 63 -43v180q0 25 -12 59t-42 64t-80 51q-47 20 -121 20q-107 0 -172.5 -56.5 t-83.5 -155.5h-250q20 111 69 182t116.5 113t151.5 59q85 17 175 17q148 -1 262 -48q24 10 45 28.5t38.5 43t28.5 55t14 64.5h268zM468 120q25 0 43.5 8t30.5 20t18.5 29t6.5 35.5t-6.5 35.5t-18.5 31t-30.5 21.5t-43.5 7.5q-23 0 -40 -7.5t-28.5 -21.5t-17.5 -32 q-6 -16 -6 -34.5t6 -35.5t17.5 -29t28.5 -20t40 -8z" />
<glyph unicode="&#xe2b;" horiz-adv-x="1456" d="M1260 1035q0 -25 -6.5 -52.5t-18.5 -51.5t-30.5 -45t-46.5 -31q25 -13 42 -30.5t27.5 -39t15 -46t4.5 -49.5v-690h-240v699q0 25 -4.5 42t-14 26t-21.5 13.5t-25 4.5q-30 0 -73.5 -27.5t-87 -73.5t-84.5 -108t-72 -128q-18 -41 -29.5 -77.5t-18.5 -72.5t-10 -74t-3 -82 v-142h-241v790q-4 0 -9.5 -1t-8.5 -1q-52 0 -97.5 17t-77 46.5t-50 71t-18.5 93.5q0 56 16.5 100.5t49 77t77 50t100.5 17.5q71 0 118.5 -21.5t79 -57t46.5 -81t15 -91.5v-262q0 -6 -1 -19.5t-2.5 -29t-4 -32.5t-5.5 -31q27 40 62 82.5t74.5 78.5t78 64.5t70.5 44.5 q-9 7 -18.5 21.5t-16 32.5t-10.5 36q-4 20 -4 36q0 49 16 90.5t45.5 73t74 49.5t100.5 18q64 0 109 -21t73.5 -54t41.5 -73t13 -80zM1019 936q25 0 43 8.5t29.5 21.5t17.5 30t6 36q0 18 -6 34.5t-17.5 29.5t-29.5 21.5t-43 8.5q-24 0 -41 -8.5t-29.5 -21.5t-17.5 -30 q-5 -16 -5 -34q0 -19 5 -36t17.5 -30t29.5 -21.5t41 -8.5zM308 927q23 0 40 7.5t28.5 21.5t17.5 31t6 35.5t-6 35.5t-17.5 31t-29 22.5t-39.5 8.5q-25 0 -43.5 -8.5t-30.5 -22.5t-18.5 -31t-6.5 -35.5t6.5 -35.5t18.5 -31t30.5 -21.5t43.5 -7.5z" />
<glyph unicode="&#xe2c;" horiz-adv-x="1538" d="M1488 1398q0 -50 -21 -95t-54 -79.5t-76 -59t-87 -38.5q37 -19 59 -56.5t22 -94.5v-975h-210l-299 524l-291 -524h-208v790q-4 0 -9 -1q-3 -1 -9 -1q-52 0 -97.5 17t-77 46.5t-50 71t-18.5 93.5q0 56 16.5 100.5t47.5 77t75.5 50t103.5 17.5q71 0 118.5 -21.5t79 -57 t46.5 -81t15 -91.5v-459q0 -12 -1.5 -33t-2.5 -44.5t-3.5 -45t-5.5 -34.5l230 388h88l234 -394q-7 28 -10 71t-3 92v427q0 18 -6 36t-20 32.5t-34 23t-47 8.5h-161v171h182q52 0 92.5 7.5t68 25.5t44.5 46q17 30 23 70h256zM306 927q24 0 40.5 7.5t29 21.5t18 31t5.5 35.5 t-5.5 35.5t-18 31t-29 22.5t-40.5 8.5t-42 -8.5t-30 -22.5t-18.5 -31t-6.5 -35.5t6.5 -35.5t18.5 -31t30 -21.5t42 -7.5z" />
<glyph unicode="&#xe2d;" horiz-adv-x="1339" d="M203 0v545q0 49 14 94.5t45 80.5t80 56.5t120 21.5q57 0 101.5 -18t76 -49.5t48.5 -76t17 -100.5q0 -50 -18.5 -92t-50.5 -72t-77 -46t-97 -16h-8q-4 2 -7 2h-7v-176h450v736q0 51 -18.5 89.5t-51 64.5t-78.5 39t-101 13q-57 0 -99 -16t-70 -44.5t-45 -66.5 q-17 -36 -22 -79h-243q9 91 47.5 159.5t101 114t147 68.5t186.5 23q106 0 196 -24.5t155 -73t100 -122t35 -168.5v-867h-927zM462 467q23 0 41 8.5t28.5 21.5t16.5 30.5t6 36t-6 35.5t-16.5 30t-28.5 21.5t-41 8.5q-25 0 -43.5 -8.5t-30 -21.5t-17.5 -31q-6 -16 -6 -34.5 t6 -36t17.5 -30.5t30 -21.5t43.5 -8.5z" />
<glyph unicode="&#xe2e;" horiz-adv-x="1342" d="M1272 1321q-22 -86 -65 -163t-111 -139q25 -36 31 -79.5t6 -90.5v-849h-927v493q0 49 14 93.5t45 80t80 57t120 21.5q57 0 101.5 -18.5t76.5 -50.5t48.5 -77t16.5 -100q0 -49 -18.5 -91.5t-50.5 -72t-77 -45.5t-97 -16l-21 2v-122h449v733q-37 -18 -80 -31.5t-87.5 -22 t-92.5 -12t-92 -3.5q-84 0 -154 13t-120 39t-77.5 66t-27.5 93q0 46 35.5 89t97 74t144 50t177.5 19q102 0 188 -20.5t155 -67.5q22 34 36.5 69.5t20.5 78.5h256zM824 1050q-37 31 -91.5 45.5t-116.5 14.5q-37 0 -75.5 -7t-69.5 -18.5t-51 -26t-20 -29.5q0 -14 14 -24 t35.5 -16t49.5 -9.5t58 -3.5q71 0 139.5 18.5t127.5 55.5zM465 413q23 0 41 7.5t29.5 21.5t16.5 31t5 35.5t-5 35.5t-16.5 30.5t-28.5 22t-42 8.5t-42.5 -8.5t-29 -22t-17.5 -30.5t-6 -35.5t6 -35.5t17.5 -31t29 -21.5t42.5 -7.5z" />
<glyph unicode="&#xe2f;" horiz-adv-x="1259" d="M812 853q-30 -18 -65.5 -33.5t-75.5 -28.5t-82 -21q-44 -8 -87 -8q-80 0 -143 23t-108 62.5t-68 90.5t-23 109q0 54 17 95t48 68t70 40q38 14 84 14q51 0 91.5 -15t67.5 -43t42 -66q14 -37 14 -84q0 -12 -3 -29t-7.5 -32.5t-13.5 -27.5t-20 -21q51 0 104.5 22t98.5 61.5 t74 92.5q29 51 32 116h196l-3 -881q0 -83 -29.5 -154.5t-82.5 -125.5t-127 -87t-165 -42v200q34 9 63.5 25t51.5 41.5t35 61.5q14 38 14 87v490zM376 979q18 0 32 6.5t23 17t14 24.5t5 26q0 14 -5 28t-14 24t-23 17t-32 7q-19 0 -32.5 -7t-22 -17t-13.5 -23t-5 -29 q0 -13 5 -26.5t13.5 -24t22 -17t32.5 -6.5z" />
<glyph unicode="&#xe30;" horiz-adv-x="1162" d="M1027 1180q-3 -117 -42 -209.5t-108.5 -157.5t-162.5 -98q-92 -34 -203 -34q-74 0 -144 17t-123 52t-85.5 90t-32.5 132q0 60 21 103t55 71.5t76 41.5t87 13q43 0 85.5 -14t74 -40.5t50.5 -67.5t19 -92q0 -28 -5 -59.5t-22 -57.5q55 9 98 34.5t74 65.5t48 92.5t17 117.5 h223zM363 881q22 0 39 7.5t28.5 21.5t17 31t5.5 34t-5.5 34t-17 30t-28.5 21.5t-39 8.5q-23 0 -40.5 -8.5t-30 -21.5t-17.5 -30t-5 -34q0 -19 5 -35t17.5 -30t30 -21.5t40.5 -7.5zM1027 530q-3 -117 -42 -209.5t-108.5 -156.5t-162.5 -98q-92 -34 -203 -34q-74 0 -144 16.5 t-123 52t-85.5 90.5t-32.5 132q0 60 21 103.5t55 72t76 41.5t87 13q43 0 85.5 -14.5t74 -41t50.5 -67.5q19 -39 19 -91q0 -28 -5 -59t-22 -58q55 9 98 33.5t74 64.5t48 93q17 52 17 117h223zM363 231q22 0 39 8.5t28.5 21.5t17 30t5.5 35q0 17 -5.5 33.5t-17 30t-28.5 21.5 t-39 8q-23 0 -40.5 -8t-30 -21.5t-17.5 -30.5t-5 -33q0 -18 5 -35t17.5 -30t30 -21.5t40.5 -8.5z" />
<glyph unicode="&#xe31;" d="M126 1876q-20 -111 -76 -196t-140 -143.5t-192.5 -89t-233.5 -30.5q-98 0 -176 17.5t-132 52.5t-81.5 85.5t-27.5 115.5q0 41 15.5 79t43 66.5t69 45.5t94.5 17q55 0 95 -18.5t66 -48t39.5 -65.5t13.5 -70q0 -42 -8.5 -70.5t-27.5 -49.5h17h17q68 0 135.5 20t123 58.5 t94.5 94.5q40 55 51 129h221zM-714.5 1592q21.5 0 37 8t26 19.5t16.5 26.5q5 17 5 33q0 15 -5.5 30.5t-16 27.5t-26 19t-37 7t-37 -7t-26 -19t-17 -27.5t-6.5 -30.5q0 -16 6.5 -32t17 -27.5t26 -19.5t37 -8z" />
<glyph unicode="&#xe32;" horiz-adv-x="1175" d="M724 0v899q0 43 -11.5 78.5t-36.5 62.5t-62.5 41.5t-86.5 14.5q-43 0 -80 -12t-67 -38.5t-51 -66.5t-30 -92h-253q20 105 68 175.5t113.5 114t144 61t161.5 17.5q114 0 197 -32.5t138.5 -85.5t81.5 -124t26 -146v-867h-252z" />
<glyph unicode="&#xe33;" horiz-adv-x="1175" d="M-83 1640q0 -52 -18.5 -94.5t-51 -73.5t-77.5 -48q-44 -16 -100 -16q-52 0 -98 16.5t-78.5 47.5t-51 73.5t-18.5 94.5q0 51 18.5 94t51 75.5t77 49.5t99.5 17q53 0 98.5 -17t78.5 -49.5t51.5 -75.5t18.5 -94zM724 0v899q0 43 -11.5 78.5t-36.5 62.5t-62.5 41.5 t-86.5 14.5q-43 0 -80 -12t-67 -38.5t-51 -66.5t-30 -92h-253q20 105 67 175.5t111 114t142 61t158 17.5q114 0 198.5 -28.5t141.5 -79.5t84.5 -121.5t27.5 -158.5v-867h-252zM-333 1542q22 0 40.5 8t29 20.5t17 29.5t6.5 35q0 17 -6.5 34t-17 30t-28.5 21q-19 8 -41 8 q-23 0 -40.5 -8t-29 -21t-17 -30t-5.5 -34q0 -18 5.5 -35t17 -29.5t29 -20.5t40.5 -8z" />
<glyph unicode="&#xe34;" d="M-1246 1445q6 92 44.5 166.5t104 128t153.5 82.5t192.5 29t191 -34t152.5 -91t115 -130q47 -73 77 -151h-1030zM-462 1568q-22 26 -49.5 51.5t-63 45.5t-80 32t-100.5 12q-104 0 -174 -38q-72 -39 -100 -103h567z" />
<glyph unicode="&#xe35;" d="M-462 1568q-22 26 -49.5 51.5t-63 45.5t-80 32t-100.5 12q-104 0 -174 -38q-72 -39 -100 -103h567zM-1246 1445q6 92 44.5 166.5t104 128t153.5 82.5t192 29q90 0 165 -25q76 -27 139 -70v209h232v-520h-1030z" />
<glyph unicode="&#xe36;" d="M-382 1691q20 0 34.5 6t25.5 17.5t15.5 26.5t4.5 30t-4.5 29t-15.5 25.5t-25.5 18.5t-34.5 7q-21 0 -36.5 -7t-25.5 -18.5t-16 -26.5q-5 -13 -5 -28t5.5 -30t15.5 -26.5t25.5 -17.5t36.5 -6zM-462 1568q-22 26 -49.5 51.5t-63 45.5t-80 32t-100.5 12q-104 0 -174 -38 q-72 -39 -100 -103h567zM-1246 1445q6 92 44.5 166.5t104 128t153.5 82.5t192 29q47 0 87.5 -6t79.5 -20q3 34 20.5 61t44.5 47.5t61.5 32t73.5 11.5q49 0 87.5 -16t65 -44.5t41 -65.5t14.5 -82q0 -27 -7.5 -55.5t-22.5 -53.5t-35 -44t-44 -30q21 -34 39.5 -69.5t30.5 -71.5 h-1030z" />
<glyph unicode="&#xe37;" d="M-462 1568q-22 26 -49.5 51.5t-63 45.5t-80 32t-100.5 12q-104 0 -174 -38q-72 -39 -100 -103h567zM-1246 1445q6 89 42.5 161.5t98 126t146.5 83.5q84 32 183 35v111h214v-145q37 -14 70 -33t64 -41v222h212v-520h-1030z" />
<glyph unicode="&#xe38;" d="M-439 -650v160h-10h-10q-49 0 -84 16.5t-58.5 43.5t-34.5 60.5t-11 70.5q0 36 12.5 71.5t39.5 63.5t66 45t93 17q57 0 99.5 -15t70 -43t40.5 -67t13 -86v-337h-226zM-354 -302q0 14 -4.5 27t-14 24t-25 17t-35.5 6q-18 0 -32.5 -6t-25.5 -17t-15.5 -25t-4.5 -26 q0 -15 4.5 -29.5t15.5 -26.5t24.5 -18t33.5 -6t35.5 6t25 18t14 26.5t4.5 29.5z" />
<glyph unicode="&#xe39;" d="M-815 -647v157h-10h-10q-47 0 -82 16.5t-58 43.5t-33.5 60.5t-10.5 70.5q0 36 13 71.5t38.5 63.5t64.5 45t91 17q54 0 95.5 -15t71 -43t43.5 -67t14 -86v-192h135v376h240v-518h-602zM-730 -302q0 14 -4.5 27t-14 24t-24.5 17t-33.5 6t-34 -6t-25.5 -17t-15.5 -25 t-5.5 -26q0 -15 5.5 -29.5t15.5 -26.5t24 -18q17 -6 35 -6q20 0 34.5 6t24 18t14 26.5t4.5 29.5z" />
<glyph unicode="&#xe3a;" d="M-209 -253q0 -24 -8 -46.5t-24 -40t-41.5 -28.5t-60.5 -11q-34 0 -59.5 11t-41 28.5t-24 40t-8.5 46.5q0 25 7 48t24 41.5t41.5 29.5t60.5 11q35 0 60.5 -11t41.5 -29.5t24 -41.5t8 -48z" />
<glyph unicode="&#xe3e;" />
<glyph unicode="&#xe3f;" horiz-adv-x="1393" d="M1263 373q0 -87 -31 -154.5t-85 -115.5t-122 -74q-70 -26 -144 -26h-148v-265h-179v265h-369v1288h369v264h179v-264h105q71 0 138.5 -22.5t120 -65t85 -107t32.5 -147.5q0 -34 -9.5 -72.5t-28 -75.5t-44.5 -68t-60 -49q44 -19 79.5 -51t61 -74t38 -89.5t12.5 -96.5z M952 924q0 31 -11 58.5t-32.5 47.5t-54 31t-76.5 11h-45v-302h29q50 0 86 12.5t59 34t34 49t11 58.5zM554 1072h-129v-302h129v302zM1004 391q0 34 -13 65t-41.5 53t-73 35t-108.5 13h-35v-340h60q111 0 161 42.5t50 131.5zM554 557h-129v-340h129v340z" />
<glyph unicode="&#xe40;" horiz-adv-x="763" d="M705 231q0 -55 -17.5 -101.5t-50.5 -79t-80 -48.5q-49 -17 -104 -17q-68 0 -117.5 23t-81.5 60t-47.5 83t-15.5 95v994h243v-778q3 2 9.5 2h9.5q55 0 103 -18t81 -48.5t50.5 -73t17.5 -93.5zM450 120q24 0 42.5 8t31 21.5t18.5 30.5t6 35.5t-6 35.5t-18.5 31t-31 22.5 t-42.5 8.5q-23 0 -40 -8.5t-28.5 -22.5t-18 -31t-6.5 -35.5t6.5 -35.5t18 -30.5t28.5 -21.5t40 -8z" />
<glyph unicode="&#xe41;" horiz-adv-x="1345" d="M705 231q0 -55 -17.5 -101.5t-50.5 -79t-80 -48.5q-49 -17 -104 -17q-68 0 -117.5 23t-81.5 60t-47.5 83t-15.5 95v994h243v-778q3 2 9.5 2h9.5q55 0 103 -18t81 -48.5t50.5 -73t17.5 -93.5zM450 120q24 0 42.5 8t31 21.5t18.5 30.5t6 35.5t-6 35.5t-18.5 31t-31 22.5 t-42.5 8.5q-23 0 -40 -8.5t-28.5 -22.5t-18 -31t-6.5 -35.5t6.5 -35.5t18 -30.5t28.5 -21.5t40 -8zM1286 231q0 -55 -18 -101.5t-51.5 -79t-80 -49t-103.5 -16.5q-67 0 -117.5 23t-82.5 60t-46.5 83t-14.5 95v994h241v-778q3 2 9.5 2h10.5q56 0 103 -18t80.5 -48.5t51.5 -73 t18 -93.5zM1030 120q25 0 42.5 8t30 21.5t18.5 30.5t6 35.5t-6 35.5t-18.5 31t-31 22.5t-41.5 8.5t-40 -8.5t-29 -22.5t-17.5 -31t-5.5 -35.5t5.5 -35.5t17.5 -30.5t29 -21.5t40 -8z" />
<glyph unicode="&#xe42;" horiz-adv-x="919" d="M853 225q0 -56 -17.5 -100.5t-50.5 -75.5t-79.5 -47.5t-101.5 -16.5q-70 0 -119 23t-80.5 60t-46.5 84.5t-15 96.5v1139q0 30 -8.5 53.5t-28.5 39.5t-50.5 26.5t-76.5 18.5q-37 6 -72.5 11.5t-66.5 8.5t-55 6q-23 3 -36 3q3 87 22.5 160t61.5 126t111 84t167 31 q56 0 99.5 -8t78.5 -20t63.5 -26t56 -25.5t57.5 -19t67 -7.5q37 -2 89 10v-172q-44 -12 -87 -12q-40 0 -76.5 8t-70.5 21.5t-66 28.5t-66 29t-68 23.5t-74 9.5q-34 0 -56 -9.5t-37 -23.5t-24 -32.5t-12 -36.5q24 -3 48 -7.5t45.5 -8.5t39.5 -8t32 -7q64 -18 109 -43 t71.5 -58.5t39 -78.5t12.5 -100v-924h22q55 0 101.5 -17t79.5 -49.5t50.5 -74.5t17.5 -93zM604 120q24 0 42.5 8t31 21.5t18.5 30.5t6 35.5t-6 35.5t-18.5 31t-31 22.5t-42.5 8.5q-23 0 -40 -8.5t-28.5 -22.5t-18 -31t-6.5 -35.5t6.5 -35.5t18 -30.5t28.5 -21.5t40 -8z" />
<glyph unicode="&#xe43;" horiz-adv-x="919" d="M582 459h22q55 0 101.5 -17t79.5 -49.5t50.5 -75.5t17.5 -92q0 -56 -17.5 -100.5t-50.5 -75.5t-79.5 -47.5t-101.5 -16.5q-70 0 -119 23t-80.5 60t-46.5 84.5t-15 96.5v1420q0 31 -11.5 55t-30 41.5t-43 27t-52.5 9.5q-43 0 -73.5 -15.5t-46.5 -37.5h6q37 0 67 -13 t51 -36t33.5 -54t12.5 -66q0 -42 -15 -75t-40 -55t-59 -34t-77 -12q-56 0 -93 18.5t-60 51t-33.5 75t-10.5 88.5q0 69 24.5 127.5t71.5 101t112.5 66.5t143.5 24q86 0 153 -21.5t114 -61.5t71 -97t24 -127v-1190zM604 120q24 0 42.5 8t31 21.5t18.5 30.5t6 35.5t-6 35.5 t-18.5 31t-31 22.5t-42.5 8.5q-23 0 -40 -8.5t-28.5 -22.5t-18 -31t-6.5 -35.5t6.5 -35.5t18 -30.5t28.5 -21.5t40 -8zM-3 1580q0 -29 20 -48.5t49 -19.5t49.5 19.5t20.5 48.5t-20.5 49t-49.5 20t-49 -20t-20 -49z" />
<glyph unicode="&#xe44;" horiz-adv-x="919" d="M604 120q24 0 42.5 8t31 21.5t18.5 30.5t6 35.5t-6 35.5t-18.5 31t-31 22.5t-42.5 8.5q-23 0 -40 -8.5t-28.5 -22.5t-18 -31t-6.5 -35.5t6.5 -35.5t18 -30.5t28.5 -21.5t40 -8zM325 1873q92 0 184 26t175 81l114 -147q-48 -40 -87.5 -88.5t-68 -104t-44.5 -116.5 t-16 -126v-939h22q55 0 101.5 -17t79.5 -49.5t50.5 -75.5t17.5 -92q0 -56 -17.5 -100.5t-50.5 -75.5t-79.5 -47.5t-101.5 -16.5q-70 0 -119 23t-80.5 60t-46.5 84.5t-15 96.5v1165q0 94 30 168.5t80 129.5q-33 -6 -66 -9t-61 -3q-43 0 -82 4.5t-78.5 14t-78 23.5t-81.5 32 v188q36 -19 73.5 -34t77.5 -27.5t81.5 -20t86.5 -7.5z" />
<glyph unicode="&#xe45;" horiz-adv-x="1150" d="M687 -460v1359q0 43 -14 78.5t-40 62.5t-64.5 41.5t-88.5 14.5q-84 0 -142.5 -50.5t-77.5 -158.5h-252q20 105 66 175.5t110.5 114t141.5 61t161 17.5q114 0 198.5 -32.5t140.5 -85.5t84.5 -124t28.5 -146v-1327h-252z" />
<glyph unicode="&#xe46;" horiz-adv-x="1692" d="M1250 -460v1456q0 44 -13.5 63t-53.5 19q-33 0 -63 -31t-45 -89h-129q-7 25 -19 47t-28.5 38.5t-37 25.5t-45.5 9q-28 0 -48 -8.5t-33.5 -23t-21.5 -34.5t-11 -40q13 4 29.5 8t30.5 4q50 0 86 -15.5t59 -41.5t34 -60.5t11 -71.5t-14 -69.5t-40 -56.5t-61.5 -37t-77.5 -13 q-57 0 -104.5 23t-83 64.5t-55 98t-19.5 122.5q0 79 24 139.5t65 101.5t95.5 62.5t116.5 21.5q40 0 74 -11t61.5 -27t47.5 -37.5t31 -39.5q12 18 33 38t48 37t60 28.5t70 11.5q52 0 101.5 -17.5t87 -51.5t60 -85.5t22.5 -119.5v-1438h-244zM690 801q0 -28 20 -48t48 -20 q27 0 47 19q20 21 20 49t-20 48t-47 20q-28 0 -48 -20t-20 -48z" />
<glyph unicode="&#xe47;" d="M-176 2097q-4 -69 -31 -114.5t-70 -74.5t-100 -40.5t-122 -11.5q-52 0 -106 2t-108 2q-31 0 -53 -13t-36 -33.5t-20.5 -47t-6.5 -50.5q0 -31 5 -54t12.5 -37t18.5 -20t23 -6q25 0 43.5 29t18.5 88v10.5t-2 10.5h126q0 -6 -0.5 -12t-0.5 -13q0 -16 3 -34t7.5 -33.5t14 -26 t21.5 -16.5q-6 18 -6 40q0 27 10.5 54t31.5 49.5t52.5 36.5t74.5 14t77 -15.5t55.5 -40t33.5 -56.5q11 -33 11 -67q0 -43 -16 -76t-43 -57t-63 -36.5t-76 -12.5q-83 0 -148.5 29.5t-98.5 84.5q-9 -21 -23 -42.5t-32.5 -37t-43 -25t-52.5 -9.5q-58 0 -103.5 23t-77 63.5 t-48.5 91t-17 106.5q0 67 21.5 121t62.5 91t100 57t135 20q55 0 114 -4q60 -5 112 -5q40 0 66.5 6t43 18.5t24.5 31t11 42.5h175zM-376 1555q31 0 48 20q17 17 17 42t-16 45q-18 20 -49 20q-32 0 -47.5 -20t-15.5 -45t15.5 -43.5t47.5 -18.5z" />
<glyph unicode="&#xe48;" d="M-422 2101v337h202v-337h-202z" />
<glyph unicode="&#xe49;" d="M-576 2285h-14q-23 0 -50.5 10t-51.5 31.5t-40 55t-16 79.5q0 43 14.5 78.5t41.5 60t64 37.5t80 13q46 0 84.5 -13t65.5 -37.5t41.5 -60t14.5 -78.5q0 -32 -6 -60.5t-20 -56.5q-15 -28 -33 -51t-33 -35q67 14 120.5 49t90.5 82t57 103q21 55 21 109h216 q-17 -102 -57 -178t-95 -131.5t-122.5 -92.5t-139 -57.5t-145 -29t-137.5 -8.5q-26 0 -51.5 1.5t-50.5 1.5v104q59 7 92.5 26t58.5 48zM-548 2375q20 0 34.5 7t25.5 18.5t15.5 25t4.5 29t-4.5 29.5t-15.5 26.5t-25 18.5t-35 6q-20 0 -35 -6t-24 -18.5t-14.5 -26.5 t-5.5 -29.5t5.5 -29t14.5 -25t24 -18.5t35 -7z" />
<glyph unicode="&#xe4a;" d="M65 2610q0 -6 0.5 -11.5t0.5 -11.5q0 -69 -18.5 -139t-56 -134t-97 -120t-140.5 -100l-108 93q17 24 29 52t19 54t11 47.5t4 31.5q0 46 -17.5 74.5t-54.5 28.5q-19 0 -36 -7t-29 -21.5t-20 -37t-8 -53.5h-97l-1 22q-3 46 -34 71.5t-83 25.5q-16 0 -32 -5.5t-29 -16.5 t-21 -27.5t-8 -41.5q6 6 21.5 9t31.5 3q27 0 54 -9t47 -27.5t32.5 -45.5t12.5 -63q0 -33 -10 -61t-30 -48t-48 -32.5t-65 -12.5q-43 0 -81.5 18t-66 51t-43 82.5t-15.5 113.5q0 56 17 103t48 80t72.5 50.5t92.5 17.5q37 0 67 -8.5t51.5 -23.5t38.5 -36q17 -22 29 -47 q12 25 27.5 46.5t36.5 35t49.5 22t65.5 8.5q38 0 69.5 -17t54.5 -45.5t35.5 -67t12.5 -79.5q0 -43 -12 -85q35 56 49.5 113.5t14.5 122.5v29t-3 29h170zM-718 2187q16 0 27.5 5.5t20 14.5t11.5 20.5t3 23.5q0 25 -15.5 43.5t-46 18.5t-47.5 -20t-17 -43q0 -25 17 -44t47 -19 z" />
<glyph unicode="&#xe4b;" d="M-222 2273v-180h-200v180h-216v185h216v183h200v-183h202v-185h-202z" />
<glyph unicode="&#xe4c;" d="M-6 2655q3 -59 -14 -105t-54 -83t-90 -65q-52 -27 -119 -46q13 -9 25.5 -23t22 -31t14.5 -36q5 -21 5 -39q0 -36 -11.5 -66.5t-34.5 -53.5t-57.5 -36.5t-80.5 -13.5q-44 0 -79 13.5t-60 37t-37 56t-12 69.5q0 34 10.5 63t30.5 53t48 42t59 27q132 38 200 94.5t57 142.5 h177zM-400 2164q33 0 50 20.5t17 45.5q0 12 -3.5 25t-12 23t-22.5 16.5t-29 6.5q-19 0 -32 -6.5t-21.5 -16.5t-13 -23t-4.5 -25q0 -25 18.5 -45.5t52.5 -20.5z" />
<glyph unicode="&#xe4d;" d="M-83 1640q0 -52 -18.5 -94.5t-51 -73.5t-77.5 -48q-44 -16 -100 -16q-52 0 -98 16.5t-78.5 47.5t-51 73.5t-18.5 94.5q0 51 18.5 94t51 75.5t77 49.5t99.5 17q53 0 98.5 -17t78.5 -49.5t51.5 -75.5t18.5 -94zM-333 1542q22 0 40.5 8t29 20.5t17 29.5t6.5 35q0 17 -6.5 34 t-17 30t-28.5 21q-19 8 -41 8q-23 0 -40.5 -8t-29 -21t-17 -30t-5.5 -34q0 -18 5.5 -35t17 -29.5t29 -20.5t40.5 -8z" />
<glyph unicode="&#xe4e;" d="M-111 1571q-28 0 -50 -9.5t-38.5 -28t-25.5 -44.5t-9 -60h-216q0 93 26.5 153t67 94.5t90.5 47.5t100 13q0 46 15 78.5t41.5 52.5t60.5 29.5t71 9.5h120v-195h-62q-21 0 -44.5 -7.5t-42.5 -24.5t-32 -44t-13 -65h-59z" />
<glyph unicode="&#xe4f;" horiz-adv-x="1399" d="M1337 588q0 -74 -18 -147t-53.5 -140t-88.5 -125.5t-123.5 -101t-159.5 -66.5q-90 -23 -195 -23t-193.5 23t-158.5 65.5t-124 100t-89 125.5t-53 141.5t-18 149.5q0 77 18 153t53 144t89 126.5t124 101.5t158.5 66t193.5 23q106 0 195 -24.5t159.5 -68.5t124.5 -103 t89.5 -127t52.5 -143.5t17 -149.5zM1137 588q0 80 -28 157t-82 137t-136 98q-84 38 -192 38q-111 0 -192.5 -38t-135.5 -98t-81.5 -137t-27.5 -157t27.5 -157t81.5 -137.5t136 -98.5q81 -38 192 -38q73 0 133.5 17t109 48t85 72.5t61 89t37 100t12.5 104.5zM995 588.5 q0 -52.5 -18.5 -103.5t-55.5 -90t-92.5 -63t-129.5 -24q-75 0 -130 24t-92 63t-53.5 90t-16.5 103.5t16.5 103t53.5 90t92.5 63.5t129.5 24t129.5 -24t92.5 -63.5t55.5 -90t18.5 -103z" />
<glyph unicode="&#xe50;" horiz-adv-x="1603" d="M798 -34q-105 0 -190.5 21.5t-154 58.5t-119.5 88t-85.5 111t-51.5 124.5t-17 132.5q0 65 17 129.5t51.5 124t85.5 109.5t119.5 87.5t155 58.5t189.5 21q108 0 195.5 -21.5t157 -58.5t119.5 -88t83 -111t48.5 -125.5t15.5 -131.5q0 -65 -15.5 -129.5t-48 -123t-83 -109.5 t-119 -88t-157 -58.5t-196.5 -21.5zM1173 493q0 61 -24.5 120.5t-73 106.5t-118.5 76t-159 29q-90 0 -160.5 -29t-119 -75t-74 -105t-25.5 -117.5t24.5 -117t73 -104.5t118.5 -73.5t162.5 -27.5t162.5 27.5t117 72t71.5 101.5t24.5 116z" />
<glyph unicode="&#xe51;" horiz-adv-x="1603" d="M1404 447q0 -93 -23 -174.5t-63 -151t-96 -125.5t-122.5 -98.5t-141 -70t-151.5 -36.5v160q182 58 269.5 183t87.5 306q0 85 -27.5 155t-77 121t-118.5 78.5t-156 27.5q-92 0 -163 -29t-118.5 -78.5t-72 -112.5t-24.5 -132q0 -48 13.5 -99t43 -92.5t72.5 -68.5t105 -27 h21q-28 13 -51.5 30.5t-41.5 43.5t-28.5 59.5t-10.5 74.5q0 53 20 97.5t55.5 76t81.5 49t98.5 17.5t100 -16.5t85.5 -47.5t60 -78t22 -107q0 -82 -32 -154t-88.5 -126t-133.5 -86q-75 -31 -165 -31q-66 0 -126.5 16.5t-113 49t-95 76.5t-72.5 97t-47 113t-17 123 q0 133 51 235.5t135.5 174t198.5 109t240 37.5q93 0 174.5 -21.5t149.5 -58.5t121.5 -89t92 -115.5t58.5 -135.5t20 -149zM881 385q0 22 -8 38.5t-20 27.5t-29 17t-32 8q-16 0 -33 -5.5t-30 -16t-21.5 -27.5t-8.5 -42q0 -22 8 -39.5t20 -29t29 -17.5t32 -6q16 0 33 6 t30 16.5t21.5 27.5t8.5 42z" />
<glyph unicode="&#xe52;" horiz-adv-x="1603" d="M117 816q0 46 -6 98t-18.5 102t-30 95.5t-40.5 83.5h246q15 -28 31.5 -64t28 -83t19 -104t7.5 -129v-421q0 -43 6.5 -81.5t26.5 -67.5t52 -47.5t85 -18.5h622q77 0 111 41.5t34 124.5v371q0 19 -4 36.5t-12.5 30t-21 20t-30.5 7.5q-59 0 -90 -76q-30 -78 -29 -223h-149 q1 71 -6 128t-28.5 97t-60 60t-96.5 20q-34 0 -60 -12t-44.5 -34t-28 -49.5t-9.5 -55.5q0 -6 1 -11q2 -4 2 -10q17 9 31.5 12t30.5 3q49 0 90.5 -15.5t71 -43t46.5 -65.5t17 -84t-15.5 -85.5t-45 -68.5t-71 -44.5t-93.5 -15.5q-56 0 -98 17t-72 48t-51 71.5t-32.5 86 t-17 92.5t-5.5 92q0 80 22.5 148.5t65.5 118.5t104.5 79t141.5 29q37 0 77 -8t78 -27.5t69.5 -52t53.5 -79.5q18 49 45.5 80.5t58.5 51t61 27.5t52 8q83 0 137.5 -27.5t87.5 -70.5t47 -97t14 -108v-337q0 -53 -5.5 -102t-20.5 -90.5t-43 -76.5t-71 -58.5t-106 -37.5 t-148 -14h-618q-92 0 -156.5 18.5t-108.5 51t-70.5 73t-40 85.5t-17.5 89.5t-4 82.5v416zM770 440q0 16 -4.5 31.5t-15.5 26t-25 18.5t-35.5 8t-36.5 -6.5t-26 -17t-16.5 -25.5t-5.5 -30t5.5 -30t16.5 -27t26 -18.5t37 -6.5q18 0 33.5 6.5t25.5 17t15.5 24.5t5.5 29z" />
<glyph unicode="&#xe53;" horiz-adv-x="1603" d="M1505 511q0 -77 -5.5 -141.5t-18 -124t-31.5 -118.5q-18 -59 -46 -127h-234q51 123 72.5 251t21.5 266q0 90 -13 148.5t-36 94.5t-52.5 50.5t-59.5 14.5q-33 0 -60 -13.5t-49 -38.5t-38.5 -57t-28.5 -67.5t-19 -73.5q-6 -38 -9 -71h-178q-3 33 -10 70t-17 72.5t-25.5 67 t-37 56.5t-48.5 38.5t-62 13.5q-44 0 -81 -18.5t-61.5 -58.5t-38.5 -101q-15 -59 -15 -145q0 -25 2.5 -55.5t6.5 -55.5q14 19 34 32.5t44.5 23t49.5 15t49 5.5q65 0 112 -20t78.5 -53.5t47 -75t15.5 -84.5q0 -46 -15.5 -90t-45.5 -78.5t-77.5 -54.5t-114.5 -20 q-71 0 -129.5 20t-106 55.5t-82 83t-58.5 103.5t-35 118.5t-11 127.5t12.5 128t38.5 120t63 104.5t85.5 83t108 55.5t127.5 20q43 0 86 -14t81.5 -40t68.5 -66q28 -40 47 -95q18 55 50.5 95t72.5 65.5t84 38.5t87 13q76 0 135 -20t104.5 -54t76.5 -80t51 -100.5t28.5 -115.5 t8.5 -123zM602 211q0 18 -5.5 34.5t-16 30.5t-27.5 21.5t-40 7.5q-25 0 -42 -7t-28.5 -19.5t-17.5 -28.5t-6 -31q0 -17 6 -33.5t18.5 -30t29.5 -21.5t41 -8q22 0 38 8t27.5 20t17 27t5.5 30z" />
<glyph unicode="&#xe54;" horiz-adv-x="1603" d="M650 1010q26 0 64 -0.5t83 -1.5t97 -1h104q62 0 115.5 12.5t95 36.5t66.5 58.5t31 80.5h248q-8 -83 -49.5 -152.5t-109.5 -118.5t-159.5 -76t-200.5 -27h-107t-103.5 -1t-87.5 -1h-62q-74 0 -136 -23t-106.5 -67.5t-68.5 -108.5t-24 -146q0 -61 24 -119t72.5 -102.5 t121.5 -72.5t170 -29h26t43.5 -1.5t53.5 -3.5q30 -1 58 -4q-62 21 -111.5 56.5t-82.5 77t-50.5 91t-17.5 100.5q0 57 20 103t54 78.5t79 50t98 17.5q58 0 105 -17.5t79.5 -49t51 -75.5t18.5 -98q0 -31 -10 -67t-29.5 -67.5t-48.5 -54t-68 -28.5q25 -13 55 -25t62.5 -23 t68 -20t67.5 -15q28 -5 49.5 -7.5t41.5 -4t41 -2.5q20 -2 48 -2l-41 -169q-51 9 -106.5 15t-104.5 6q-28 0 -66 -1.5t-80 -3t-87.5 -3l-91 -3t-87 -3t-78.5 -1.5q-126 0 -233.5 31t-186 91t-122 149t-43.5 208q0 129 38.5 228.5t110.5 167t174 103t225 35.5zM990 473 q0 21 -8.5 38t-20.5 28.5t-29 16.5t-32.5 5t-32.5 -5.5t-29.5 -17t-20 -28t-7.5 -37.5q0 -25 8.5 -42.5t21.5 -29t29 -17.5q18 -5 33 -5q17 0 32.5 5.5t28 17t20 29t7.5 42.5z" />
<glyph unicode="&#xe55;" horiz-adv-x="1603" d="M912 1032q0 17 -6.5 31.5t-16.5 27t-26 19t-38 6.5q-21 0 -36.5 -7.5t-26 -20t-15.5 -28.5t-5 -31.5t6.5 -30t17 -25.5t26 -17.5t33.5 -6.5q44 0 65.5 24.5t21.5 58.5zM990 473q0 21 -8.5 38t-20.5 28.5t-29 16.5t-32.5 5t-32.5 -5.5t-29.5 -17t-20 -28t-7.5 -37.5 q0 -25 8.5 -42.5t21.5 -29t29 -17.5q18 -5 33 -5q17 0 32.5 5.5t28 17t20 29t7.5 42.5zM1232 844q-46 -14 -106 -21.5t-128 -11.5t-141 -5.5t-144 -1.5q-185 0 -279 -82.5t-94 -247.5q0 -61 24 -118t72.5 -102.5t121.5 -72.5t170 -30h26t43.5 -1.5t53.5 -3.5q30 -1 58 -4 q-62 21 -111.5 56.5t-82.5 77t-50.5 91t-17.5 101.5q0 57 20 102.5t54 78t79 50t98 17.5q58 0 105 -17.5t79.5 -48.5t51 -75.5t18.5 -97.5q0 -30 -10 -67t-29.5 -68t-48.5 -54t-68 -29q25 -13 55 -25t62.5 -23t68 -20t67.5 -14q28 -5 49.5 -8t41.5 -4.5t40.5 -1.5t48.5 -1 l-41 -171q-51 9 -106.5 15t-104.5 6q-28 0 -66 -0.5t-80 -2t-87.5 -4t-91 -4t-87 -3t-78.5 -1.5q-126 0 -233.5 31t-186 91t-121.5 150q-44 91 -44 208q0 116 37 207.5t101.5 156.5t152 99.5t189.5 34.5h17q-8 31 -8 61q0 47 17 85.5t48 66t74 43t95 15.5q56 0 100.5 -16 t75.5 -44t46.5 -67t15.5 -86q0 -10 -1 -21t-2 -23q44 3 86.5 18.5t75.5 41.5t55.5 63t28.5 83h248q-6 -63 -31.5 -117.5t-67 -99.5t-98.5 -79.5t-125 -54.5z" />
<glyph unicode="&#xe56;" horiz-adv-x="1603" d="M462 893q49 37 103 63.5t109.5 43t110.5 24.5q56 8 105 8q134 0 240.5 -36.5t181 -101t114.5 -155.5t40 -200q0 -95 -25.5 -172t-70 -139t-105.5 -108t-131 -76t-146 -44.5t-153 -14.5q-53 0 -108.5 7.5t-108.5 23t-100 41.5t-82.5 61.5t-55.5 83t-20 106.5t22.5 105 t58.5 78.5t82.5 49t95.5 16.5t95.5 -15t82 -45t58.5 -75.5t23 -105.5q0 -53 -16 -93q-15 -41 -40 -60h30q80 0 148.5 28t118.5 77t78.5 115.5t28.5 143.5q0 71 -21.5 129.5t-63 101.5t-105 67t-143.5 24q-51 0 -100 -8t-96 -26.5t-93.5 -48.5t-90.5 -76h-205 q-12 37 -29 82.5t-38.5 93t-46.5 96t-49.5 92.5t-49 80t-47.5 61h269q22 -31 45 -70t42.5 -80.5t34 -82t23.5 -69.5zM710 305q0 23 -7.5 40t-21 27.5t-29.5 16.5q-14 5 -33 5q-17 0 -33 -5.5t-28.5 -17t-20.5 -27.5q-7 -18 -7 -39q0 -25 7.5 -41t20 -27.5t29.5 -16t35 -4.5 q16 0 32 5t28.5 16.5t20 28.5t7.5 39z" />
<glyph unicode="&#xe57;" horiz-adv-x="1603" d="M548 219q0 15 -4.5 32t-16 29.5t-27.5 20t-40 7.5t-41 -7.5t-28.5 -20t-17.5 -28t-6 -30.5q0 -17 5 -33.5t16.5 -30t30 -21.5t41.5 -8q22 0 38 8t27.5 20t17 28.5t5.5 33.5zM981 829q-32 0 -57 -14t-43.5 -39.5t-31.5 -58.5t-21.5 -68.5t-13 -73.5t-7.5 -71h-177 q-3 33 -9.5 71t-15.5 73.5t-22 67.5t-33 57t-46.5 38.5t-63.5 13.5q-38 0 -69 -27.5t-52.5 -73.5t-32.5 -104q-12 -56 -12 -115q0 -26 1 -58q-1 -33 5 -59q31 36 79 56t98 20q65 0 112 -21t78.5 -55t47 -77t15.5 -86q0 -46 -14.5 -88.5t-45.5 -75.5t-78.5 -53t-114.5 -20 q-98 0 -176 43.5t-132 115.5t-81.5 164t-27.5 191q0 108 24.5 202t75.5 164t126.5 110.5t178.5 40.5q43 0 85.5 -13.5t79.5 -42t65.5 -72.5t43.5 -103q13 59 42 102t66 71t78 41.5t79 13.5q65 0 115 -17.5t87 -47.5t61.5 -70t40 -84t21.5 -91t6 -90q0 -31 -2 -64t-7.5 -67.5 t-13.5 -68.5t-17 -65h12q28 76 45 147.5t27 145.5t14 151t4 161q0 56 -1.5 115t-3.5 124h217q3 -40 5.5 -83t2.5 -88q0 -91 -8.5 -186.5t-29.5 -192.5t-54 -191t-80.5 -180t-110.5 -162q-64 -75 -147 -137l-151 104q34 61 52.5 122.5t29.5 119.5t13 109.5t2 93.5 q0 55 -6 109.5t-20.5 98.5t-40 70.5t-65.5 26.5z" />
<glyph unicode="&#xe58;" horiz-adv-x="1603" d="M1281 385q0 22 -7.5 38.5t-20 29t-28.5 18t-33 5.5q-19 0 -34 -5.5t-28.5 -16t-21 -27.5t-7.5 -42q0 -22 7 -39.5t19.5 -29t27.5 -17.5t34 -6q17 0 33 6t29 16.5t21.5 27.5t8.5 42zM638 822q-74 0 -136 -21.5t-104 -64.5t-66 -104.5t-24 -138.5q0 -76 15.5 -132t40 -91.5 t54.5 -53.5q32 -17 62 -17q42 0 71.5 27t48.5 69t26.5 93t7.5 99v18v19h185q0 -42 8 -84.5t21.5 -82.5t33 -74.5t45 -60t55.5 -41t65 -15.5q25 0 34 6q9 4 12 7q-30 4 -58.5 23.5t-49.5 47t-33.5 64.5t-12.5 80q0 53 18.5 97.5t52.5 77t78.5 51t97 18.5t99 -18.5t82.5 -52 t57 -81t21 -107.5q0 -86 -22 -158.5t-69.5 -125t-123 -81.5t-180.5 -29q-49 0 -94.5 13t-84 37t-70 57.5t-53.5 73.5q-15 -40 -41 -72t-60 -55.5t-75.5 -37t-91.5 -13.5q-101 0 -179.5 40t-131 108.5t-79.5 160t-27 196.5q0 129 44 226t118.5 163.5t174 100t213.5 33.5 q26 0 69 -1.5t95.5 -3t110.5 -3t110 -1.5q62 0 114 12.5t89 36.5t60 58.5t30 80.5h247q-7 -83 -45.5 -153t-104 -120t-155 -78t-198.5 -28q-52 0 -113 1t-117.5 2.5t-101 2t-65.5 0.5z" />
<glyph unicode="&#xe59;" horiz-adv-x="1603" d="M634 228q0 18 -6 35t-16.5 30t-27.5 21t-42 8q-21 0 -38 -8t-29.5 -20t-18 -28.5t-5.5 -31.5q0 -18 5.5 -35t18 -29.5t29.5 -20t38 -7.5q22 0 39.5 7.5t29 19t17.5 28t6 31.5zM1110 813q-24 0 -45.5 -9t-36.5 -26t-24 -40t-9 -51t9 -57t28 -60l349 -570h-244l-476 715 q-43 64 -89.5 90.5t-101.5 26.5q-50 0 -81.5 -20t-50 -54t-26 -75.5t-7.5 -84.5q0 -34 1.5 -62t6 -54t11 -50.5t16.5 -52.5q13 23 35 42t48.5 31.5t55.5 20t60 7.5q55 0 102 -19t82 -52t53.5 -76t18.5 -92.5t-15.5 -95t-48 -80t-80 -56t-112.5 -21.5q-71 0 -129.5 20.5 t-106 57t-86 85.5t-66.5 106t-46 120q-19 63 -30 125q-7 46 -7 94q0 86 24.5 163t75.5 135t126.5 93.5t178.5 35.5q66 0 118.5 -14t95.5 -38.5t77 -58.5t65 -77q4 34 23.5 66t52.5 57t80 40t105 15q47 0 87 9.5t69 31t46 56t19 85.5h243q-2 -75 -30.5 -143.5t-84 -122 t-137.5 -85t-192 -31.5z" />
<glyph unicode="&#xe5a;" horiz-adv-x="1738" d="M1608 0h-234v1235h234v-1235zM927 853q-29 -18 -64.5 -33.5t-75 -28.5t-82.5 -21t-86 -8q-80 0 -144 23t-108 62.5t-67.5 90.5t-23.5 109q0 54 17.5 95t47 68t69.5 40.5t86 13.5q51 0 90 -15t67 -43t42 -66q15 -37 15 -84q0 -12 -2.5 -29t-8.5 -32.5t-13.5 -27.5 t-20.5 -21q51 0 105 22t98.5 61.5t74.5 92.5q30 51 32 116h195l-3 -881q0 -83 -29 -154.5t-82 -125.5t-128 -87t-164 -42v200q34 9 63 25t51.5 41.5t35.5 61.5q13 38 13 87v490zM493 979q18 0 31 6.5t22.5 17t14 24.5t4.5 26q0 14 -4.5 28t-14 24t-22.5 17t-31 7 q-19 0 -32.5 -7t-23 -17t-14 -23t-4.5 -29q0 -13 4.5 -26.5t14 -24t23 -17t32.5 -6.5z" />
<glyph unicode="&#xe5b;" horiz-adv-x="2788" d="M788 57q-126 0 -240 37.5t-198.5 108.5t-135.5 174t-51 236q0 95 37 181.5t100 151t149 103.5q87 38 185 38q105 0 185 -29t134 -81.5t82 -123.5t28 -154q0 -55 -21 -102t-57 -82t-85.5 -55t-104.5 -20q-53 0 -100.5 18t-84.5 49.5t-58.5 76t-21.5 97.5q0 41 10.5 74 t28.5 59.5t41.5 45t51.5 30.5h-21q-40 0 -73.5 -12.5t-59.5 -34t-45 -50.5t-31.5 -60.5t-18.5 -65t-6 -65.5q0 -68 24.5 -131.5t72 -113t118.5 -79t163 -29.5q68 0 131 18.5t120 51t103.5 80.5t81 105.5t54 126t19.5 142.5q0 40 -6.5 80t-18.5 86l139 96q43 -43 92 -105.5 t98.5 -131t94 -138t80.5 -124.5q24 43 50.5 94t50 100t43.5 92t33 68l84 28l153 -205h471v-152h-548l-82 110q-18 -33 -40.5 -75t-46.5 -86.5t-49.5 -89t-48.5 -85.5t-44.5 -76.5t-38.5 -59.5q-26 46 -61.5 106t-72.5 121.5t-75.5 119.5t-72.5 104q-13 -133 -69.5 -242 t-147.5 -187t-211 -121t-262 -43zM881 687q0 24 -8.5 41t-21.5 28.5t-30 17t-33 5.5q-15 0 -32 -6t-29 -17t-20 -28q-8 -20 -8 -41q0 -25 8.5 -42t21.5 -27.5t30 -16t32.5 -5.5t32.5 7t29 17.5t20 27.5t8 39z" />
<glyph unicode="&#x2000;" horiz-adv-x="1328" />
<glyph unicode="&#x2001;" horiz-adv-x="2656" />
<glyph unicode="&#x2002;" horiz-adv-x="1328" />
<glyph unicode="&#x2003;" horiz-adv-x="2656" />
<glyph unicode="&#x2004;" horiz-adv-x="885" />
<glyph unicode="&#x2005;" horiz-adv-x="664" />
<glyph unicode="&#x2006;" horiz-adv-x="442" />
<glyph unicode="&#x2007;" horiz-adv-x="442" />
<glyph unicode="&#x2008;" horiz-adv-x="332" />
<glyph unicode="&#x2009;" horiz-adv-x="531" />
<glyph unicode="&#x200a;" horiz-adv-x="147" />
<glyph unicode="&#x200b;" />
<glyph unicode="&#x2010;" horiz-adv-x="819" d="M102 668h617v-221h-617v221z" />
<glyph unicode="&#x2011;" horiz-adv-x="819" d="M102 668h617v-221h-617v221z" />
<glyph unicode="&#x2012;" horiz-adv-x="819" d="M102 668h617v-221h-617v221z" />
<glyph unicode="&#x2013;" horiz-adv-x="1047" d="M5 668h1039v-221h-1039v221z" />
<glyph unicode="&#x2014;" horiz-adv-x="2072" d="M277 668h1520v-221h-1520v221z" />
<glyph unicode="&#x2018;" horiz-adv-x="592" d="M440 1349q-58 -22 -89 -72q-31 -51 -34 -116h123v-275h-286v275q0 59 23 108t61.5 87.5t91.5 67.5q52 27 110 45v-120z" />
<glyph unicode="&#x2019;" horiz-adv-x="592" d="M154 1004q35 5 59 21t38 41.5t20 57t6 63.5h-123v276h286v-276q0 -58 -20 -109.5t-57 -91.5t-90 -67q-54 -26 -119 -35v120z" />
<glyph unicode="&#x201c;" horiz-adv-x="933" d="M410 1349q-60 -22 -91 -72q-31 -51 -33 -116h124v-275h-285v275q0 59 22 108t60.5 87.5t91.5 67.5q52 27 111 45v-120zM808 1349q-58 -22 -89 -72q-31 -51 -32 -116h121v-275h-284v275q0 59 23 108t61.5 87.5t89.5 67.5q50 27 110 45v-120z" />
<glyph unicode="&#x201d;" horiz-adv-x="933" d="M125 1001q60 22 90 71t31 115h-121v276h285v-276q0 -58 -23.5 -106.5t-62 -87t-90 -68t-109.5 -46.5v122zM524 1001q61 22 91 71t32 115h-123v276h284v-276q0 -58 -22 -106.5t-60.5 -87t-91 -68t-110.5 -46.5v122z" />
<glyph unicode="&#x2022;" horiz-adv-x="1047" d="M149 732q0 76 29.5 142.5t80.5 116t119.5 77.5t145.5 28t146 -28t120 -77.5t80 -116.5t29 -142q0 -78 -29 -144t-80 -116t-119 -79q-70 -28 -147 -28q-79 0 -146.5 28.5t-118.5 78.5t-80.5 116t-29.5 144z" />
<glyph unicode="&#x202f;" horiz-adv-x="531" />
<glyph unicode="&#x205f;" horiz-adv-x="664" />
<glyph unicode="&#x20ac;" horiz-adv-x="1162" d="M1030 1078q-15 31 -40.5 64t-62.5 61.5t-86 47t-114 18.5q-43 0 -95.5 -17t-102 -57t-89.5 -106t-58 -168h582l-62 -134h-535q-2 -19 -3 -37t-1 -37q0 -20 1 -40t3 -39h465l-60 -135h-384q9 -74 37 -134t71 -104.5t101.5 -69.5t129.5 -25q55 0 103 11t91 32.5t81.5 57 t78.5 83.5v-265q-21 -22 -63 -42.5t-92.5 -36t-106 -25t-104.5 -9.5q-42 0 -98 6.5t-116.5 26.5t-120.5 57t-111.5 95.5t-89.5 142.5q-40 82 -56 199h-146l60 135h68q-3 20 -4 37q-1 16 -1 37q0 16 1 39t4 40h-128l60 134h83q28 120 75.5 220t121.5 171t171 111t222 40 q65 0 124 -7.5t111.5 -26t100 -49.5t87.5 -74z" />
<glyph unicode="&#x2122;" horiz-adv-x="2052" d="M835 1331h-254v-712h-194v712h-255v132h703v-132zM1448 909l206 554h265v-844h-185v582l-219 -582h-144l-218 584v-584h-183v844h265z" />
<glyph unicode="&#x25cc;" horiz-adv-x="2112" d="M816 564l-151 -47l54 148q22 -31 45.5 -55.5t51.5 -45.5zM984 1303l72 142l70 -139q-16 3 -33 3h-33q-19 0 -38 -1.5t-38 -4.5zM1120 493l-64 -133l-66 133q17 -3 35.5 -4.5t34.5 -1.5t31 1.5t29 4.5zM1466 967l133 -68l-133 -60q3 14 5 29q1 16 1 31q0 17 -1.5 35 t-4.5 33zM656 832l-142 74l142 69q-3 -19 -4.5 -38t-1.5 -38q0 -15 1.5 -32.5t4.5 -34.5zM728 1146l-41 145l142 -51q-31 -19 -55 -43t-46 -51zM1388 647l38 -130l-129 40q27 19 49.5 41.5t41.5 48.5zM1294 1240l154 51l-54 -148q-22 27 -46 51t-54 46z" />
<glyph unicode="&#x25fc;" horiz-adv-x="1057" d="M0 1060h1060v-1060h-1060v1060z" />
<glyph unicode="&#xf700;" horiz-adv-x="1236" d="M1090 1093q-21 -15 -46 -26t-51 -17t-52 -9t-52 -3q-47 0 -87 9t-80 18.5t-84 18.5t-97 9q-30 0 -57 -4.5t-49 -16t-37.5 -30t-24.5 -46.5q24 -3 56.5 -6t66.5 -7t66 -7q32 -6 54 -9q109 -12 196 -38.5t145.5 -69.5t85.5 -106t18 -148l-69 -605h-533q-8 52 -14 105 q-6 44 -11 94q-3 47 -6 87q-12 -3 -20 -3h-23q-62 0 -106.5 18.5t-75.5 50t-45 72.5q-15 41 -15 84t14.5 83t44 71t74 50.5t103.5 19.5q45 0 87 -14t76 -39.5t57 -64t26 -84.5l39 -385h115l40 468q3 38 -5.5 66.5t-28.5 50.5t-51.5 37t-75.5 28q-37 9 -81 16.5t-88.5 13 t-91 9.5t-86.5 7q-49 3 -98.5 4.5t-101.5 3.5v12v12q0 93 34 164.5t91.5 119t134.5 73t163 25.5q42 0 83.5 -8.5t84.5 -17.5t85 -17t85 -8q46 0 90 14q42 14 70 43zM378.5 410q24.5 0 42.5 7.5t29.5 21.5t17.5 31t6 35.5t-6 35t-17.5 30.5t-29.5 22.5t-42.5 8.5t-42 -8.5 t-29 -22.5t-18 -30.5t-6.5 -35t6.5 -35.5t18 -31t29 -21.5t42 -7.5z" />
<glyph unicode="&#xf701;" d="M-1515 1445q6 83 39 153.5t91 124t139.5 83.5t186 30t184.5 -32.5t139.5 -85.5t102 -124t72.5 -149h-954zM-807 1568q-40 60 -107 93q-69 33 -149 33q-37 0 -73.5 -10t-69 -27t-56.5 -40q-22 -23 -35 -49h490z" />
<glyph unicode="&#xf702;" d="M-807 1568q-40 60 -107 93q-69 33 -149 33q-37 0 -73.5 -10t-69 -27t-56.5 -40q-22 -23 -35 -49h490zM-1515 1445q6 83 39 153.5t91 124t139.5 83.5t185.5 30q82 0 149 -21.5t119 -55.5v203h231v-517h-954z" />
<glyph unicode="&#xf703;" d="M-750 1709q18 0 31.5 6.5t22.5 17t13.5 23t4.5 26.5t-4.5 26t-13.5 23t-22.5 17t-31.5 6t-32 -6t-22.5 -17t-13 -23t-4.5 -26t4.5 -26.5t13 -23t22.5 -17t32 -6.5zM-807 1568q-40 60 -107 93q-69 33 -149 33q-37 0 -73.5 -10t-69 -27t-56.5 -40q-22 -23 -35 -49h490z M-1515 1445q6 83 39 153.5t91 124t139.5 83.5t185.5 30q34 0 69.5 -5t54.5 -11q1 31 15.5 58t38.5 48.5t57 34.5t75 13q46 0 82.5 -15.5t61 -40.5t37 -60.5t12.5 -75.5q0 -23 -6.5 -46.5t-18.5 -45t-30 -40t-39 -30.5q27 -40 49.5 -84.5t40.5 -90.5h-954z" />
<glyph unicode="&#xf704;" d="M-807 1568q-40 60 -107 93q-69 33 -149 33q-37 0 -73.5 -10t-69 -27t-56.5 -40q-22 -23 -35 -49h490zM-1515 1445q6 80 36.5 148.5t84 120t129 84t172.5 38.5v126h204v-156q31 -10 59.5 -27t53.5 -34v217h215v-517h-954z" />
<glyph unicode="&#xf705;" d="M-859 1472v490h232v-490h-232z" />
<glyph unicode="&#xf706;" d="M-1078 1646q-8 -1 -12 -1q-23 0 -51 10.5t-52 32t-40 55.5q-16 31 -16 77q0 43 14.5 78.5t41 60.5t63.5 38.5t83 13.5t83.5 -13.5t64.5 -38.5t42 -59q15 -37 15 -80q0 -58 -22.5 -107.5t-68.5 -93.5q68 13 120 48.5t89 82t57 102t20 110.5h216q-17 -102 -56.5 -179 t-95 -132.5t-122.5 -91.5t-138.5 -57t-144 -30t-139.5 -9q-26 0 -51.5 1.5t-50.5 3.5v103q59 6 92.5 26t58.5 49zM-1047 1734q20 0 34.5 7.5t24 18.5t14 25t4.5 29.5t-4.5 30t-14 26t-25 18.5t-33.5 7q-20 0 -35.5 -7t-25.5 -18.5t-14.5 -26t-4.5 -30t4.5 -29.5t14.5 -25 t25.5 -18.5t35.5 -7.5z" />
<glyph unicode="&#xf707;" d="M-444 1979q0 -6 1 -11.5t1 -11.5q0 -70 -18.5 -140t-56 -133.5t-97 -120t-141.5 -99.5l-107 92q17 25 29 52.5t19 54t11 48t4 30.5q0 46 -18 74.5t-55 28.5q-18 0 -35 -6.5t-29.5 -21.5t-20 -37t-7.5 -53h-97l-2 21q-3 47 -33.5 72t-83.5 25q-15 0 -31 -5t-29.5 -16 t-21 -28t-7.5 -41q6 6 21.5 9t30.5 3q28 0 55 -9.5t47 -28t32.5 -45t12.5 -62.5q0 -34 -10 -61.5t-30 -47.5t-48 -32.5t-65 -12.5q-43 0 -81.5 18t-66 51t-43 82t-15.5 114q0 55 17 102t47.5 80.5t72.5 51t92 17.5q37 0 67 -8.5t51.5 -24t38.5 -36.5q17 -22 30 -47 q12 25 27.5 46.5t36 35.5t49 22.5t65.5 8.5q39 0 70.5 -17t54.5 -45.5t35.5 -67t12.5 -80.5q0 -43 -13 -84q36 55 50.5 113t14.5 122v30t-3 29h169zM-1226 1555q16 0 27.5 5.5t20 15t11.5 21t3 23.5q0 25 -15.5 43.5t-46.5 18.5t-48 -20t-17 -43q0 -25 17 -44.5t48 -19.5z " />
<glyph unicode="&#xf708;" d="M-722 1694v-188h-210v188h-214v186h214v190h210v-190h201v-186h-201z" />
<glyph unicode="&#xf709;" d="M-334 2139q3 -66 -16.5 -118.5t-61 -94t-100.5 -71.5q-58 -30 -135 -53q16 -9 29.5 -24.5t24.5 -35t17 -40.5q6 -20 6 -42q0 -40 -12 -75.5t-38.5 -61.5t-66.5 -41.5t-91 -15.5q-49 0 -87.5 15.5t-66 41.5t-42.5 63t-15 80q0 37 12.5 70t35.5 60t54 47t65 30 q149 43 224.5 106t64.5 160h199zM-778 1586q19 0 33.5 7t24.5 17t15.5 24t5.5 29q0 16 -5.5 29t-15.5 23.5t-24 17.5t-34 7t-33.5 -7t-24.5 -18.5t-15.5 -25t-4.5 -27.5q0 -16 4.5 -29t15.5 -23.5t24.5 -17t33.5 -6.5z" />
<glyph unicode="&#xf70a;" d="M-450 1475v490h233v-490h-233z" />
<glyph unicode="&#xf70b;" d="M-773 1657q-3 0 -7.5 -1.5t-7.5 -1.5q-25 0 -56.5 12.5t-58.5 36t-45 61.5t-18 89q0 49 16.5 88t46.5 67t71 43q44 16 93 16q52 0 93.5 -15.5t72.5 -43.5t46.5 -68t15.5 -87q0 -31 -8 -64t-21 -63t-32 -55.5t-41 -44.5q65 19 123.5 57.5t102.5 90.5t69 114t28 122h241 q-19 -114 -63.5 -200.5t-106 -148.5t-137 -102.5t-155.5 -63.5t-162 -33t-156 -10q-61 0 -113 5v115q32 3 57.5 10t45.5 18t36 26.5t30 30.5zM-739.5 1759q21.5 0 38 7.5t28 20t16 29.5t4.5 32t-4.5 32t-16 29.5t-28 21t-38 8.5t-39 -8.5t-29 -21t-16.5 -28.5q-5 -18 -5 -33 q0 -17 5 -33t16.5 -28.5t29 -20t39 -7.5z" />
<glyph unicode="&#xf70c;" d="M-80 2014v-12v-12q0 -76 -20 -152t-61.5 -147t-106.5 -132.5t-154 -107.5l-117 101q18 26 31.5 56.5t22 59.5t11.5 52t3 36q0 50 -18.5 80t-61.5 30q-20 0 -38 -7.5t-31.5 -23t-21.5 -40t-8 -58.5h-108v25q-3 49 -37 76.5t-91 27.5q-18 0 -35.5 -4.5t-31.5 -16.5t-23 -32 q-10 -17 -10 -45q7 8 23.5 11t35.5 3q31 0 60 -10t50.5 -31t35.5 -51t14 -67t-10.5 -67.5t-32.5 -53t-53.5 -35.5t-71.5 -13q-48 0 -89.5 19t-70.5 56t-47 91q-18 52 -18 123q0 62 19.5 113t52.5 87t78.5 55t100.5 19q42 0 73.5 -9t56 -24.5t43 -38.5t32.5 -51 q13 28 29.5 49.5t40 38.5t53.5 24.5t73 7.5t77 -18.5t58.5 -49t38.5 -72t14 -88.5q0 -46 -16 -92q40 62 57 124t17 133q0 16 -1.5 32t-4.5 31h188zM-938 1552q17 0 30 6.5t21.5 15.5t13 21.5t4.5 26.5q0 26 -16.5 47.5t-52.5 21.5q-18 0 -31.5 -6t-21 -16t-12.5 -23 q-4 -14 -4 -26t4.5 -24.5t12 -22.5t21 -15.5t31.5 -5.5z" />
<glyph unicode="&#xf70d;" d="M-219 1669v-209h-232v209h-247v205h247v211h232v-211h231v-205h-231z" />
<glyph unicode="&#xf70e;" d="M-11 2139q3 -66 -16 -118.5t-60.5 -94t-101.5 -71.5q-57 -30 -134 -53q15 -9 29 -24.5t24.5 -35t16.5 -40.5q7 -20 7 -42q0 -40 -12.5 -75.5t-38.5 -61.5t-66 -41.5t-91 -15.5q-50 0 -88.5 15.5t-66 41.5t-42 63t-14.5 80q0 37 12 70t35.5 60t53.5 47q31 20 65 30 q149 43 224.5 106t65.5 160h198zM-454 1586q18 0 32.5 7t24.5 17t15.5 24t5.5 29q0 16 -5.5 29t-15.5 23.5t-23.5 17.5t-33.5 7t-34 -7t-25 -18.5t-15.5 -25t-4.5 -27.5q0 -16 4.5 -29t15.5 -23.5t25 -17t34 -6.5z" />
<glyph unicode="&#xf70f;" horiz-adv-x="1840" d="M659 1255q89 0 160 -16t125 -46t92.5 -70t63 -88t37 -101t12.5 -109v-677h242v1092h235v-1240h-720v870q0 37 -11 78t-38 74.5t-74.5 56t-123.5 22.5q-48 0 -91 -12.5t-77.5 -34t-61 -50t-38.5 -58.5l250 -8v-86q-62 -19 -100.5 -43.5t-60 -54t-29 -64t-7.5 -74.5v-95 v-17v-20t-1 -19q-3 -9 -3 -17q7 2 13 2.5t11 0.5q55 0 99.5 -16t75.5 -47t47 -73t16 -95q0 -51 -16 -94t-47.5 -74.5t-75.5 -49t-99 -17.5q-71 0 -120.5 21.5t-81 58.5t-46 83t-14.5 94v348q0 34 7 65.5t17.5 60.5t26.5 53q15 23 30 41l-160 6q6 102 52.5 184.5t120.5 138.5 t167.5 86t195.5 30zM460 120q25 0 43 8t30 20t18 29t6 35.5t-6 35.5t-18 31t-30.5 21.5t-42 7.5t-40.5 -7.5t-29 -21.5t-18 -32q-5 -16 -5 -34.5t5.5 -35.5t17.5 -29t29 -20t40 -8z" />
<glyph unicode="&#xf710;" d="M-459 1876q-1 -74 -21 -137t-55 -114t-82.5 -89.5t-104.5 -65.5t-122 -40t-134 -13q-199 0 -303.5 70.5t-104.5 200.5q0 41 14 79t42.5 66.5t69 45.5t94.5 17q56 0 96.5 -18.5t67 -48t38.5 -65.5t12 -70q0 -42 -9 -70.5t-25 -49.5h13h12q45 0 95 18.5t90.5 56t67.5 94.5 q27 56 27 133h222zM-1168.5 1592q21.5 0 37.5 8t26 19.5t15 26.5q6 17 6 33q0 15 -5.5 30.5t-15.5 27.5t-27 19t-37 7q-21 0 -37.5 -7t-27 -19t-15.5 -27.5t-5 -30.5q0 -16 5 -32t15.5 -27.5t27 -19.5t38 -8z" />
<glyph unicode="&#xf711;" d="M-522 1640q0 -52 -17 -94.5t-48.5 -73.5t-75.5 -48q-42 -16 -98 -16q-52 0 -98.5 16.5t-78.5 47.5t-50.5 73.5t-18.5 94.5q0 51 18.5 94t50.5 75.5t77 49.5t100 17q53 0 97.5 -17t75.5 -49.5t48.5 -75.5t17.5 -94zM-764 1545q22 0 40.5 8.5t29 20.5t17 29t6.5 36 q0 17 -6.5 33.5t-17 30t-28.5 20.5q-19 8 -41 8q-23 0 -40.5 -7.5t-29 -21t-17 -30t-5.5 -33.5q0 -19 5.5 -36t17 -29t29 -20.5t40.5 -8.5z" />
<glyph unicode="&#xf712;" d="M-511 2085q-5 -68 -31 -112.5t-67.5 -72t-96.5 -38.5t-119 -11q-51 0 -102.5 2.5t-104.5 2.5q-31 0 -51.5 -13t-33.5 -33.5t-20 -45.5q-6 -24 -6 -48q0 -62 16.5 -88t40.5 -26q23 0 40 28.5t17 83.5v11.5v11.5h123q0 -6 -0.5 -12t-0.5 -14q0 -15 2.5 -33t7.5 -32 t13.5 -24.5t21.5 -16.5q-7 17 -7 38q0 26 10 52.5t30.5 48t52 35.5t71.5 14q43 0 74.5 -15t53 -38.5t32.5 -54.5t11 -65q0 -40 -15.5 -73t-42 -55.5t-61 -34.5t-72.5 -12q-80 0 -144 27.5t-95 79.5q-9 -21 -22 -41t-31.5 -35t-42 -23t-50.5 -8q-56 0 -100.5 22t-75.5 60 t-47 87t-16 105q0 64 21 116.5t60 88t97 55.5q56 20 130 20q52 0 110 -4.5t109 -4.5q40 0 65 5t41.5 17.5t24 30.5t10.5 42h170zM-705 1558q15 0 27.5 6.5t20 14t10.5 18.5t3 23q0 23 -15.5 42.5t-46 19.5t-46 -19.5t-15.5 -42.5q0 -12 4.5 -23t12.5 -18.5t18.5 -14 t26.5 -6.5z" />
<glyph unicode="&#xf713;" d="M-767 2101v337h203v-337h-203z" />
<glyph unicode="&#xf714;" d="M-853 2264q-8 -2 -14 -2q-23 0 -51 10t-51.5 31.5t-40 55.5t-16.5 80q0 43 15 78.5t42 60.5t63.5 37t80.5 12q46 0 84.5 -12t65.5 -37t41.5 -60.5t14.5 -78.5q0 -32 -6 -61.5t-20 -55.5q-16 -27 -33.5 -50.5t-32.5 -35.5q67 14 120.5 48.5t90 82.5t56.5 102q22 54 22 109 h216q-17 -102 -57 -178t-95 -131.5t-122.5 -91.5t-139 -58t-145 -29.5t-137.5 -7.5q-27 0 -52 1l-50 2v103q58 6 92 26.5t59 49.5zM-825 2353q20 0 34.5 6t25 18t15.5 26.5t5 30t-5 29t-15.5 25t-24.5 18.5t-35 7q-20 0 -35 -7t-24 -18.5t-15 -25.5q-5 -13 -5 -28.5t5.5 -30 t14.5 -26.5t24 -18t35 -6z" />
<glyph unicode="&#xf715;" d="M-243 2626q0 -6 0.5 -11.5t0.5 -11.5q0 -70 -18.5 -140t-56 -134t-97 -120t-140.5 -99l-108 92q17 25 29 52.5t19 54t11 48t4 30.5q0 46 -17.5 74.5t-54.5 28.5q-19 0 -36 -7t-29 -21.5t-20 -37t-8 -52.5h-97l-1 21q-3 46 -34 71.5t-83 25.5q-16 0 -32 -5.5t-29 -16 t-21 -27.5t-8 -42q6 6 21.5 9.5t31.5 3.5q27 0 54 -9.5t47 -28t32.5 -45.5t12.5 -62q0 -34 -10 -61.5t-30 -47.5t-48 -32.5t-65 -12.5q-43 0 -81.5 17.5t-66 51t-43 82.5t-15.5 114q0 55 17 102t48 80t72.5 51t92.5 18q37 0 67 -8.5t51.5 -24t38.5 -36.5q17 -22 29 -47 q12 25 27.5 46.5t36.5 35.5t49.5 22.5t65.5 8.5q38 0 69.5 -17t54.5 -45.5t35.5 -67t12.5 -80.5q0 -43 -12 -84q35 55 49.5 112.5t14.5 122.5v29.5t-3 29.5h170zM-1026 2202q16 0 27.5 5.5t20 14.5t11.5 21t3 24q0 25 -15.5 43t-46 18t-47.5 -20t-17 -43q0 -24 17 -43.5 t47 -19.5z" />
<glyph unicode="&#xf716;" d="M-564 2288v-180h-206v180h-203v185h203v183h206v-183h201v-185h-201z" />
<glyph unicode="&#xf717;" d="M-391 2624q3 -58 -14 -104.5t-54 -83.5t-90 -64q-52 -28 -119 -47q14 -9 26 -23t21.5 -30.5t14.5 -36.5t5 -39q0 -35 -11.5 -66t-34.5 -54t-57.5 -36t-80.5 -13q-44 0 -79 13t-60 37t-37 56t-12 69q0 34 10.5 63.5t30.5 53t48 41.5t59 27q132 39 200 95t57 142h177z M-785 2133q33 0 50 20.5t17 45.5q0 12 -3.5 25.5t-12 23.5t-22.5 16t-29 6q-19 0 -32 -6t-21.5 -16t-13 -23.5t-4.5 -25.5q0 -25 18.5 -45.5t52.5 -20.5z" />
<glyph unicode="&#xf718;" d="M-439 -1073v161q-6 0 -10 -0.5t-10 -0.5q-49 0 -84 16t-58.5 42t-34.5 61q-11 33 -11 70q0 36 12.5 72t39.5 63.5t66 46t93 18.5q57 0 99.5 -16t70 -44.5t40.5 -67t13 -84.5v-337h-226zM-354 -727q0 14 -4.5 28.5t-14 24.5t-25 17t-35.5 7q-18 0 -32.5 -7t-25.5 -17 t-15.5 -23.5t-4.5 -29t4.5 -29.5t15.5 -25t24.5 -17.5t33.5 -6.5t35.5 6.5t25 17.5t14 25t4.5 29z" />
<glyph unicode="&#xf719;" d="M-815 -1072v157h-10h-10q-47 0 -82 15.5t-58 42.5t-33.5 61.5t-10.5 70t13 71t38.5 64t64.5 46t91 17.5q54 0 95.5 -15t71 -43.5t43.5 -68t14 -85.5v-191h135v376h240v-518h-602zM-730 -728q0 13 -4.5 27t-14 25t-24.5 17t-33.5 6t-34 -6t-25.5 -17t-15.5 -25t-5.5 -27 q0 -16 5.5 -30.5t15.5 -25.5t24 -17q17 -6 35 -6q20 0 34.5 6t24 17t14 25.5t4.5 30.5z" />
<glyph unicode="&#xf71a;" d="M-209 -668q0 -25 -8 -47.5t-24 -40t-41.5 -28.5t-60.5 -11q-34 0 -59.5 11t-41 28.5t-24 40t-8.5 47.5q0 24 7 47t24 41.5t41.5 29.5t60.5 11q35 0 60.5 -11t41.5 -29.5t24 -41.5t8 -47z" />
<glyph unicode="&#xf71d;" horiz-adv-x="1538" d="M1488 1398q0 -50 -21 -95t-54 -79.5t-76 -59t-87 -38.5q37 -19 59 -56.5t22 -94.5v-975h-210l-299 524l-291 -524h-208v790q-4 0 -9 -1q-3 -1 -9 -1q-52 0 -97.5 17t-77 46.5t-50 71t-18.5 93.5q0 56 16.5 100.5t47.5 77t75.5 50t103.5 17.5q71 0 118.5 -21.5t79 -57 t46.5 -81t15 -91.5v-459q0 -12 -1.5 -33t-2.5 -44.5t-3.5 -45t-5.5 -34.5l230 388h88l234 -394q-7 28 -10 71t-3 92v427q0 18 -6 36t-20 32.5t-34 23t-47 8.5h-161v171h182q52 0 92.5 7.5t68 25.5t44.5 46q17 30 23 70h256zM306 927q24 0 40.5 7.5t29 21.5t18 31t5.5 35.5 t-5.5 35.5t-18 31t-29 22.5t-40.5 8.5t-42 -8.5t-30 -22.5t-18.5 -31t-6.5 -35.5t6.5 -35.5t18.5 -31t30 -21.5t42 -7.5z" />
<glyph unicode="&#xf881;" horiz-adv-x="2405" d="M678 1255q135 0 232 -36t160 -93t92.5 -128.5t29.5 -142.5v-1317h-239v1332q0 37 -15.5 78t-48.5 74.5t-85 56t-126 22.5q-59 0 -105 -12.5t-81.5 -34t-59.5 -49.5q-25 -29 -38 -59l250 -8v-86q-62 -19 -100.5 -43.5t-60 -54t-28.5 -64t-7 -74.5v-95v-17t-0.5 -20 t-0.5 -19t-2 -17q6 2 11.5 2.5t11.5 0.5q56 0 100.5 -16t75.5 -47t47 -73t16 -95q0 -51 -16 -94t-48 -74.5t-75.5 -49t-99.5 -17.5q-71 0 -120 21.5t-81.5 58.5t-46.5 83t-14 94v348q0 34 6.5 65.5t17 60.5t26.5 53q15 23 30 41l-160 6q6 102 52.5 184.5t121 138.5t171.5 86 t207 30zM465 120q25 0 42.5 8t29 20t18 29t6.5 35.5t-6.5 35.5t-18 31t-29.5 21q-17 8 -42 8q-23 0 -40.5 -7.5t-29.5 -21.5t-17 -32q-5 -16 -5 -34.5t5 -35.5t17 -29t29.5 -20t40.5 -8zM1940 -460v1359q0 43 -12 78.5t-38.5 62.5t-65 41.5t-90.5 14.5q-85 0 -142.5 -50.5 t-76.5 -158.5h-252q20 105 67 175.5t111 114t141.5 61t157.5 17.5q114 0 199 -32.5t142 -85.5t84.5 -124t27.5 -146v-1327h-253z" />
<glyph unicode="&#xf882;" horiz-adv-x="2430" d="M1220 -456h-241v1326q0 36 -12 76t-43 75t-81.5 57.5t-127.5 22.5q-47 0 -90.5 -13t-80 -34.5t-62.5 -49.5t-38 -58l246 -8v-88q-34 -15 -58 -36t-38.5 -47t-22 -59t-7.5 -74v-394q0 -49 -15 -95t-46.5 -81.5t-81.5 -57t-119 -21.5q-56 0 -100.5 16.5t-75.5 49t-47 76.5 q-17 45 -17 98q0 46 16.5 87t47.5 72.5t75.5 49t100.5 17.5h9.5t8.5 -1v181q0 27 6.5 53.5t17 51.5t26 46.5t33.5 35.5l-231 7q13 99 59 179t118.5 135.5t165 85.5t200.5 30q135 0 230.5 -36t156.5 -96t89.5 -138.5t28.5 -162.5v-1278zM305 120q25 0 41.5 8t29 21.5 t18.5 30.5t6 35.5t-6 35.5t-18.5 31t-29 22.5t-41.5 8.5t-43.5 -8.5t-30 -22.5t-17.5 -31t-6 -35.5t6 -35.5t17.5 -30.5t30 -21.5t43.5 -8zM1967 -460v1359q0 43 -13.5 78.5t-39.5 62.5t-64.5 41.5t-89.5 14.5q-84 0 -143 -50.5t-77 -158.5h-253q20 105 67 175.5t112 114 t142 61t158 17.5q114 0 199 -32.5t141 -85.5t84.5 -124t28.5 -146v-1327h-252z" />
<glyph d="M-773 1586q-28 0 -50 -9t-38.5 -27.5t-25.5 -45t-9 -59.5h-216q0 92 26 152t67 94.5t91 48t99 13.5q0 46 15.5 78t42 52t60 29.5t70.5 9.5h90v-194h-31q-22 0 -45 -8t-42 -24.5t-32.5 -43.5t-13.5 -66h-58z" />
<glyph horiz-adv-x="1175" d="M724 0v899q0 43 -11.5 78.5t-36.5 62.5t-62.5 41.5t-86.5 14.5q-43 0 -80 -12t-67 -38.5t-51 -66.5t-30 -92h-253q20 105 67 175.5t111 114t142 61t158 17.5q114 0 198.5 -28.5t141.5 -79.5t84.5 -121.5t27.5 -158.5v-867h-252zM-522 1640q0 -52 -17 -94.5t-48.5 -73.5 t-75.5 -48q-42 -16 -98 -16q-52 0 -98.5 16.5t-78.5 47.5t-50.5 73.5t-18.5 94.5q0 51 18.5 94t50.5 75.5t77 49.5t100 17q53 0 97.5 -17t75.5 -49.5t48.5 -75.5t17.5 -94zM-764 1545q22 0 40.5 8.5t29 20.5t17 29t6.5 36q0 17 -6.5 33.5t-17 30t-28.5 20.5q-19 8 -41 8 q-23 0 -40.5 -7.5t-29 -21t-17 -30t-5.5 -33.5q0 -19 5.5 -36t17 -29t29 -20.5t40.5 -8.5z" />
<glyph horiz-adv-x="1175" d="M724 0v899q0 43 -11.5 78.5t-36.5 62.5t-62.5 41.5t-86.5 14.5q-43 0 -80 -12t-67 -38.5t-51 -66.5t-30 -92h-253q20 105 67 175.5t111 114t142 61t158 17.5q114 0 198.5 -28.5t141.5 -79.5t84.5 -121.5t27.5 -158.5v-867h-252zM-522 1640q0 -52 -17 -94.5t-48.5 -73.5 t-75.5 -48q-42 -16 -98 -16q-52 0 -98.5 16.5t-78.5 47.5t-50.5 73.5t-18.5 94.5q0 51 18.5 94t50.5 75.5t77 49.5t100 17q53 0 97.5 -17t75.5 -49.5t48.5 -75.5t17.5 -94zM-764 1545q22 0 40.5 8.5t29 20.5t17 29t6.5 36q0 17 -6.5 33.5t-17 30t-28.5 20.5q-19 8 -41 8 q-23 0 -40.5 -7.5t-29 -21t-17 -30t-5.5 -33.5q0 -19 5.5 -36t17 -29t29 -20.5t40.5 -8.5z" />
<glyph d="M-1169 1445q6 83 39.5 153.5t91 124t140 83.5t187 30t183 -32.5t138.5 -85.5t103 -124q41 -71 71 -149h-953zM-462 1568q-40 60 -106 93t-147 33q-37 0 -74.5 -10t-69 -27t-56 -40t-37.5 -49h490z" />
<glyph d="M-462 1568q-40 60 -106 93t-147 33q-37 0 -74.5 -10t-69 -27t-56 -40t-37.5 -49h490zM-1169 1445q6 83 39.5 153.5t91 124t140 83.5t187.5 30q81 0 146.5 -21.5t119.5 -55.5v203h229v-517h-953z" />
<glyph d="M-403 1709q18 0 32 6.5t23 17t13.5 23t4.5 26.5t-4.5 26t-13.5 23t-23 17t-32 6q-19 0 -33 -6t-23 -17t-13.5 -23t-4.5 -26t4.5 -26.5t13.5 -23t23 -17t33 -6.5zM-462 1568q-40 60 -106 93t-147 33q-37 0 -74.5 -10t-69 -27t-56 -40t-37.5 -49h490zM-1169 1445 q6 83 39.5 153.5t91 124t140 83.5t187.5 30q33 0 67 -5t56 -11q1 31 14 58t38 48.5t58.5 34.5t74.5 13q46 0 83 -15.5t60.5 -40.5t36 -60.5t12.5 -75.5q0 -23 -7 -46.5t-18.5 -45t-29 -40t-39.5 -30.5q28 -40 50 -85q21 -44 39 -90h-953z" />
<glyph d="M-462 1568q-40 60 -106 93t-147 33q-37 0 -74.5 -10t-69 -27t-56 -40t-37.5 -49h490zM-1169 1445q6 80 37 148.5t84 120t128.5 84t172.5 38.5v126h205v-156q31 -10 59.5 -27t52.5 -34v217h214v-517h-953z" />
</font>
</defs>
</svg>
