<?xml version="1.0" standalone="no"?>
<!DOCTYPE svg PUBLIC "-//W3C//DTD SVG 1.1//EN" "http://www.w3.org/Graphics/SVG/1.1/DTD/svg11.dtd" >
<svg xmlns="http://www.w3.org/2000/svg">
<metadata></metadata>
<defs>
<font id="db_chuanpim_xrugular" horiz-adv-x="0" >
<font-face units-per-em="2048" ascent="1638" descent="-410" />
<missing-glyph horiz-adv-x="788" />
<glyph unicode="&#x2b;&#x2d;" horiz-adv-x="1253" d="M562 1189h148v-360h417v-153h-417v-359h-148v359h-416v153h416v360zM146 168h981v-143h-981v143z" />
<glyph unicode="&#x2e;&#x2e;&#x2e;" horiz-adv-x="2072" d="M249 237h225v-237h-225v237zM939 237h225v-237h-225v237zM1628 237h226v-237h-226v237z" />
<glyph unicode="&#x3c;&#x3d;" horiz-adv-x="1162" d="M160 671v111l864 419v-95l-768 -378l768 -383v-92zM151 71v83h881v-83h-881z" />
<glyph unicode="&#x3e;&#x3d;" horiz-adv-x="1162" d="M159 253v92l768 383l-768 378v95l864 -419v-111zM151 71v83h881v-83h-881z" />
<glyph unicode="&#xe4f;&#x22;" horiz-adv-x="1612" d="M533 1438l-20 410h192l-18 -410h-154zM912 1438l-19 410h193l-19 -410h-155zM1424 593q0 74 -17.5 147t-53.5 139.5t-89.5 123.5t-122 98.5t-152 64.5t-184.5 23q-98 0 -183 -23t-155 -64t-123 -97t-90 -121t-56 -138t-19 -147q0 -75 19 -149t55.5 -140.5t90 -123.5 t123 -98.5t154 -64.5t184.5 -23q99 0 183.5 23t153 64.5t122 98t89.5 122t53.5 138.5t17.5 147zM1300 593q0 -60 -14 -118.5t-41.5 -112.5t-70 -100t-97 -80t-122.5 -52.5t-150 -18.5q-120 0 -214 41.5t-157.5 109.5t-97 155.5t-33.5 178.5q0 89 34 174.5t98 153.5t158 108 t212 40q121 0 212.5 -41t154.5 -108.5t95.5 -154t32.5 -175.5zM1096 588.5q0 -52.5 -18 -103.5t-55 -90t-92.5 -63t-129.5 -24q-76 0 -131.5 24t-91.5 63t-53.5 90t-17.5 103.5t17.5 103t53.5 90t91.5 63.5t131.5 24q74 0 129.5 -24t92.5 -63.5t55 -90t18 -103z" />
<glyph unicode="&#xe0e;&#xe3a;" horiz-adv-x="1404" d="M1096 -775q-27 0 -49.5 10t-37 25.5t-20.5 37t-6 43.5q0 21 6 41t20.5 37t36.5 27q23 9 50 9q28 0 49.5 -9.5t35.5 -26.5t21 -37t7 -41q0 -22 -7 -43.5t-21 -37t-35.5 -25.5t-49.5 -10zM1198 -216q0 -52 -15.5 -93t-43 -68.5t-66 -42t-84.5 -14.5q-37 0 -66.5 9t-51 21.5 t-36 26.5t-22.5 23q-21 -28 -49 -49q-25 -19 -59 -33t-78 -14q-40 0 -76.5 14t-64 40t-44.5 60t-17 73q0 37 14 71.5t39.5 59t60.5 40t79 15.5q33 0 61.5 -7.5t51 -20t40 -29.5t33.5 -35q4 21 8 49t7 46h111q-4 -43 -14 -78.5t-20 -60.5q-10 -27 -23 -50q13 -11 23.5 -19 t20.5 -14t21.5 -9t25.5 -3q39 0 61 25q22 27 22 67v32.5v78v112.5v136.5t-0.5 149.5t-0.5 150.5v140.5v120.5v87v43.5q0 30 -7 63.5t-23.5 65.5t-40 61.5t-58.5 52t-79.5 35.5t-99.5 13q-77 0 -136.5 -21t-101 -50t-63 -62.5t-21.5 -59.5l255 -6v-78q-40 -19 -65 -43 t-40 -51.5t-19 -56.5q-5 -27 -5 -57v-425q0 -47 -12.5 -88.5t-38.5 -73.5t-67.5 -50.5t-100.5 -18.5q-49 0 -90.5 15t-71 43.5t-45.5 68t-16 87.5q0 46 16 86t45.5 68.5t71 44t90.5 15.5q11 0 22.5 -1.5t21.5 -1.5q12 -3 21 -5v223q0 42 4.5 72t14.5 53t24 41q13 18 31 31 l-209 4q0 6 -2 14q-2 7 -2 16q0 77 37 148t102 126.5t154 88.5t199 33q83 0 150 -19t118 -51.5t86 -74t58.5 -88.5t34 -95.5t10.5 -91.5v-1051zM317 105q23 0 41 7.5t28.5 21.5t17 31t6.5 35.5t-6.5 35.5t-17 30.5t-27.5 21.5t-41.5 8t-42.5 -8t-29.5 -21.5t-17.5 -30.5 t-6 -35.5t6 -35.5t17.5 -31t29.5 -21.5t42 -7.5zM747 -266q-5 12 -15.5 26.5t-26 28.5t-36.5 23t-45 9q-20 0 -37 -7.5t-29.5 -19t-18.5 -26t-6 -28.5t6 -29.5t18.5 -28t30 -20t39.5 -7.5q24 0 43.5 7t34 18.5t25.5 26t17 27.5z" />
<glyph unicode="&#xe0f;&#xe3a;" horiz-adv-x="1406" d="M1096 -775q-27 0 -49.5 10t-37 25.5t-20.5 37t-6 43.5q0 21 6 41t20.5 37t36.5 27q23 9 50 9q28 0 49.5 -9.5t35.5 -26.5t21 -37t7 -41q0 -22 -7 -43.5t-21 -37t-35.5 -25.5t-49.5 -10zM1046 835q0 30 -7 63.5t-23.5 65.5t-40 61.5t-58.5 52t-79.5 35.5t-99.5 13 q-77 0 -136.5 -21t-101 -50t-63 -62.5t-21.5 -59.5l255 -6v-78q-40 -19 -65 -43t-40 -51.5t-19 -56.5q-5 -27 -5 -57v-425q0 -47 -12.5 -88.5t-38.5 -73.5t-67.5 -50.5t-100.5 -18.5q-49 0 -90.5 15t-71 43.5t-45.5 68t-16 87.5q0 46 16 86t45.5 68.5t71 44t90.5 15.5 q11 0 22.5 -1.5t21.5 -1.5q12 -3 21 -5v223q0 42 4.5 72t14.5 53t24 41q13 18 31 31l-209 4q0 6 -2 14q-2 7 -2 16q0 77 37 148t102 126.5t154 88.5t199 33q83 0 150 -19t118 -51.5t86 -74t58.5 -88.5t34 -95.5t10.5 -91.5v-1092q0 -42 -10.5 -76t-34 -58.5t-57 -38.5 t-81.5 -14q-19 0 -38 6.5t-35 15.5t-29.5 21.5t-19.5 26.5l-68 98l-101 -164h-106l-73 92q-21 -28 -52 -52q-25 -19 -62 -34.5t-81 -15.5q-40 0 -75 14t-61 38.5t-42 57.5q-15 32 -15 72q0 37 13 71.5t37 60t58.5 40t77.5 14.5q36 0 63.5 -6.5t50.5 -18.5t40 -28t33 -34 q12 24 16.5 50.5t6.5 44.5h106q-3 -43 -13 -78q-12 -34 -21 -57q-12 -28 -24 -48l64 -76l108 179h109l76 -117q11 -19 22.5 -25.5t25.5 -6.5q15 0 27.5 11.5t12.5 37.5v1089zM479 -271q-12 15 -25.5 32t-28.5 29.5t-33.5 20t-41.5 7.5q-20 0 -36.5 -7.5t-27 -20t-16 -26 t-5.5 -29.5q0 -14 4.5 -28.5t15.5 -26t27 -18.5t37.5 -7t41 7t36.5 18.5t30 24t22 24.5zM317 105q23 0 41 7.5t28.5 21.5t17 31t6.5 35.5t-6.5 35.5t-17 30.5t-27.5 21.5t-41.5 8t-42.5 -8t-29.5 -21.5t-17.5 -30.5t-6 -35.5t6 -35.5t17.5 -31t29.5 -21.5t42 -7.5z" />
<glyph unicode="&#xe0e;&#xe38;" horiz-adv-x="1406" d="M1047 -1069v193q-15 -5 -41 -5q-44 0 -77.5 14.5t-56 39.5t-35 58t-12.5 67t12.5 67t35.5 58.5t58 41.5t81 16q43 0 77.5 -14t59 -38.5t37 -57.5t12.5 -73v-367h-151zM1087 -705q0 14 -4.5 27.5t-13.5 23.5t-24 17t-33 7q-20 0 -35.5 -7t-25 -17t-14 -23.5t-4.5 -27.5 q0 -16 4.5 -29.5t14 -24.5t25 -18t35.5 -7q18 0 33 7t24 18t13.5 24.5t4.5 29.5zM1198 -216q0 -52 -15.5 -93t-43 -68.5t-66 -42t-84.5 -14.5q-37 0 -66.5 9t-51 21.5t-36 26.5t-22.5 23q-21 -28 -49 -49q-25 -19 -59 -33t-78 -14q-40 0 -76.5 14t-64 40t-44.5 60t-17 73 q0 37 14 71.5t39.5 59t60.5 40t79 15.5q33 0 61.5 -7.5t51 -20t40 -29.5t33.5 -35q4 21 8 49t7 46h111q-4 -43 -14 -78.5t-20 -60.5q-10 -27 -23 -50q13 -11 23.5 -19t20.5 -14t21.5 -9t25.5 -3q39 0 61 25q22 27 22 67v32.5v78v112.5v136.5t-0.5 149.5t-0.5 150.5v140.5 v120.5v87v43.5q0 30 -7 63.5t-23.5 65.5t-40 61.5t-58.5 52t-79.5 35.5t-99.5 13q-77 0 -136.5 -21t-101 -50t-63 -62.5t-21.5 -59.5l255 -6v-78q-40 -19 -65 -43t-40 -51.5t-19 -56.5q-5 -27 -5 -57v-425q0 -47 -12.5 -88.5t-38.5 -73.5t-67.5 -50.5t-100.5 -18.5 q-49 0 -90.5 15t-71 43.5t-45.5 68t-16 87.5q0 46 16 86t45.5 68.5t71 44t90.5 15.5q11 0 22.5 -1.5t21.5 -1.5q12 -3 21 -5v223q0 42 4.5 72t14.5 53t24 41q13 18 31 31l-209 4q0 6 -2 14q-2 7 -2 16q0 77 37 148t102 126.5t154 88.5t199 33q83 0 150 -19t118 -51.5t86 -74 t58.5 -88.5t34 -95.5t10.5 -91.5v-1051zM317 105q23 0 41 7.5t28.5 21.5t17 31t6.5 35.5t-6.5 35.5t-17 30.5t-27.5 21.5t-41.5 8t-42.5 -8t-29.5 -21.5t-17.5 -30.5t-6 -35.5t6 -35.5t17.5 -31t29.5 -21.5t42 -7.5zM747 -266q-5 12 -15.5 26.5t-26 28.5t-36.5 23t-45 9 q-20 0 -37 -7.5t-29.5 -19t-18.5 -26t-6 -28.5t6 -29.5t18.5 -28t30 -20t39.5 -7.5q24 0 43.5 7t34 18.5t25.5 26t17 27.5z" />
<glyph unicode="&#xe0f;&#xe38;" horiz-adv-x="1406" d="M1047 -1069v193q-15 -5 -41 -5q-44 0 -77.5 14.5t-56 39.5t-35 58t-12.5 67t12.5 67t35.5 58.5t58 41.5t81 16q43 0 77.5 -14t59 -38.5t37 -57.5t12.5 -73v-367h-151zM1087 -705q0 14 -4.5 27.5t-13.5 23.5t-24 17t-33 7q-20 0 -35.5 -7t-25 -17t-14 -23.5t-4.5 -27.5 q0 -16 4.5 -29.5t14 -24.5t25 -18t35.5 -7q18 0 33 7t24 18t13.5 24.5t4.5 29.5zM1046 835q0 30 -7 63.5t-23.5 65.5t-40 61.5t-58.5 52t-79.5 35.5t-99.5 13q-77 0 -136.5 -21t-101 -50t-63 -62.5t-21.5 -59.5l255 -6v-78q-40 -19 -65 -43t-40 -51.5t-19 -56.5 q-5 -27 -5 -57v-425q0 -47 -12.5 -88.5t-38.5 -73.5t-67.5 -50.5t-100.5 -18.5q-49 0 -90.5 15t-71 43.5t-45.5 68t-16 87.5q0 46 16 86t45.5 68.5t71 44t90.5 15.5q11 0 22.5 -1.5t21.5 -1.5q12 -3 21 -5v223q0 42 4.5 72t14.5 53t24 41q13 18 31 31l-209 4q0 6 -2 14 q-2 7 -2 16q0 77 37 148t102 126.5t154 88.5t199 33q83 0 150 -19t118 -51.5t86 -74t58.5 -88.5t34 -95.5t10.5 -91.5v-1092q0 -42 -10.5 -76t-34 -58.5t-57 -38.5t-81.5 -14q-19 0 -38 6.5t-35 15.5t-29.5 21.5t-19.5 26.5l-68 98l-101 -164h-106l-73 92q-21 -28 -52 -52 q-25 -19 -62 -34.5t-81 -15.5q-40 0 -75 14t-61 38.5t-42 57.5q-15 32 -15 72q0 37 13 71.5t37 60t58.5 40t77.5 14.5q36 0 63.5 -6.5t50.5 -18.5t40 -28t33 -34q12 24 16.5 50.5t6.5 44.5h106q-3 -43 -13 -78q-12 -34 -21 -57q-12 -28 -24 -48l64 -76l108 179h109l76 -117 q11 -19 22.5 -25.5t25.5 -6.5q15 0 27.5 11.5t12.5 37.5v1089zM479 -271q-12 15 -25.5 32t-28.5 29.5t-33.5 20t-41.5 7.5q-20 0 -36.5 -7.5t-27 -20t-16 -26t-5.5 -29.5q0 -14 4.5 -28.5t15.5 -26t27 -18.5t37.5 -7t41 7t36.5 18.5t30 24t22 24.5zM317 105q23 0 41 7.5 t28.5 21.5t17 31t6.5 35.5t-6.5 35.5t-17 30.5t-27.5 21.5t-41.5 8t-42.5 -8t-29.5 -21.5t-17.5 -30.5t-6 -35.5t6 -35.5t17.5 -31t29.5 -21.5t42 -7.5z" />
<glyph unicode="&#xe0e;&#xe39;" horiz-adv-x="1406" d="M1198 -216q0 -52 -15.5 -93t-43 -68.5t-66 -42t-84.5 -14.5q-37 0 -66.5 9t-51 21.5t-36 26.5t-22.5 23q-21 -25 -49 -45q-25 -15 -59 -29t-78 -14q-43 0 -79.5 13t-64 37t-43 57t-15.5 72q0 37 12.5 71.5t37 59t60.5 40t83 15.5q33 0 61.5 -7.5t51 -20t40 -29.5 t33.5 -35q4 21 8 49t7 46h111q-4 -43 -14 -78.5t-20 -60.5q-10 -27 -23 -50q13 -11 23.5 -19t20.5 -14t21.5 -9t25.5 -3q39 0 61 25q22 27 22 67v32.5v78v112.5v136.5t-0.5 149.5t-0.5 150.5v140.5v120.5v87v43.5q0 30 -7 63.5t-23.5 65.5t-40 61.5t-58.5 52t-79.5 35.5 t-99.5 13q-77 0 -136.5 -21t-101 -50t-63 -62.5t-21.5 -59.5l255 -6v-78q-40 -19 -65 -43t-40 -51.5t-19 -56.5q-5 -27 -5 -57v-425q0 -47 -12.5 -88.5t-38.5 -73.5t-67.5 -50.5t-100.5 -18.5q-49 0 -90.5 15t-71 43.5t-45.5 68t-16 87.5q0 46 16 86t45.5 68.5t71 44 t90.5 15.5q11 0 22.5 -1.5t21.5 -1.5q12 -3 21 -5v223q0 42 4.5 72t14.5 53t24 41q13 18 31 31l-209 4q0 6 -2 14q-2 7 -2 16q0 77 37 148t102 126.5t154 88.5t199 33q83 0 150 -19t118 -51.5t86 -74t58.5 -88.5t34 -95.5t10.5 -91.5v-1051zM317 105q23 0 41 7.5t28.5 21.5 t17 31t6.5 35.5t-6.5 35.5t-17 30.5t-27.5 21.5t-41.5 8t-42.5 -8t-29.5 -21.5t-17.5 -30.5t-6 -35.5t6 -35.5t17.5 -31t29.5 -21.5t42 -7.5zM747 -266q-5 12 -15.5 26.5t-26 28.5t-36.5 23t-45 9q-40 0 -65.5 -23t-25.5 -58q0 -37 25.5 -61t68.5 -24q24 0 43.5 7t34 18.5 t25.5 26t17 27.5zM758 -1066v191q-6 -3 -14 -3h-17q-46 0 -81.5 14.5t-58.5 39.5t-34.5 56.5t-11.5 65.5t11.5 67t34.5 58.5t58.5 41.5t81.5 16q43 0 77 -13t57 -37.5t35.5 -57t12.5 -72.5v-253h137v410h152v-524h-440zM802 -705q0 15 -5 29t-15 25.5t-25 18.5t-33.5 7 t-33.5 -7t-24.5 -18.5t-15.5 -25.5t-6 -29q0 -14 4.5 -28.5t15.5 -25.5t24.5 -18t35.5 -7q20 0 34.5 7t24 18t14.5 25.5t5 28.5z" />
<glyph unicode="&#xe0f;&#xe39;" horiz-adv-x="1406" d="M758 -1066v191q-6 -3 -14 -3h-17q-46 0 -81.5 14.5t-58.5 39.5t-34.5 56.5t-11.5 65.5t11.5 67t34.5 58.5t58.5 41.5t81.5 16q43 0 77 -13t57 -37.5t35.5 -57t12.5 -72.5v-253h137v410h152v-524h-440zM802 -705q0 15 -5 29t-15 25.5t-25 18.5t-33.5 7t-33.5 -7 t-24.5 -18.5t-15.5 -25.5t-6 -29q0 -14 4.5 -28.5t15.5 -25.5t24.5 -18t35.5 -7q20 0 34.5 7t24 18t14.5 25.5t5 28.5zM1046 835q0 30 -7 63.5t-23.5 65.5t-40 61.5t-58.5 52t-79.5 35.5t-99.5 13q-77 0 -136.5 -21t-101 -50t-63 -62.5t-21.5 -59.5l255 -6v-78 q-40 -19 -65 -43t-40 -51.5t-19 -56.5q-5 -27 -5 -57v-425q0 -47 -12.5 -88.5t-38.5 -73.5t-67.5 -50.5t-100.5 -18.5q-49 0 -90.5 15t-71 43.5t-45.5 68t-16 87.5q0 46 16 86t45.5 68.5t71 44t90.5 15.5q11 0 22.5 -1.5t21.5 -1.5q12 -3 21 -5v223q0 42 4.5 72t14.5 53 t24 41q13 18 31 31l-209 4q0 6 -2 14q-2 7 -2 16q0 77 37 148t102 126.5t154 88.5t199 33q83 0 150 -19t118 -51.5t86 -74t58.5 -88.5t34 -95.5t10.5 -91.5v-1092q0 -42 -10.5 -76t-34 -58.5t-57 -38.5t-81.5 -14q-19 0 -38 6.5t-35 15.5t-29.5 21.5t-19.5 26.5l-68 98 l-101 -164h-106l-73 92q-15 -28 -43 -48q-23 -18 -61 -32t-91 -14q-40 0 -75 13t-61 35.5t-42 54.5q-15 31 -15 71q0 37 13 71.5t37 60t58.5 40t77.5 14.5q36 0 63.5 -6.5t50.5 -18.5t40 -28t33 -34q12 24 16.5 50.5t6.5 44.5h106q-3 -43 -13 -78q-12 -34 -21 -57 q-12 -28 -24 -48l64 -76l108 179h109l76 -117q11 -19 22.5 -25.5t25.5 -6.5q15 0 27.5 11.5t12.5 37.5v1089zM479 -271q-12 15 -25.5 32t-28.5 29.5t-33.5 20t-41.5 7.5q-20 0 -36.5 -7.5t-27 -20t-16 -26t-5.5 -29.5q0 -14 4.5 -28.5t15.5 -26t27 -18.5t37.5 -7t41 7 t36.5 18.5t30 24t22 24.5zM317 105q23 0 41 7.5t28.5 21.5t17 31t6.5 35.5t-6.5 35.5t-17 30.5t-27.5 21.5t-41.5 8t-42.5 -8t-29.5 -21.5t-17.5 -30.5t-6 -35.5t6 -35.5t17.5 -31t29.5 -21.5t42 -7.5z" />
<glyph unicode="&#xd;" horiz-adv-x="891" />
<glyph unicode=" "  horiz-adv-x="788" />
<glyph unicode="&#x09;" horiz-adv-x="788" />
<glyph unicode="&#xa0;" horiz-adv-x="788" />
<glyph unicode="!" horiz-adv-x="592" d="M203 1460h197v-408l-67 -632h-62q-17 156 -34 316q-18 160 -34 316v408zM194 216h214v-216h-214v216z" />
<glyph unicode="&#x22;" horiz-adv-x="933" d="M217 1460h150v-548h-150v548zM582 1460h148v-548h-148v548z" />
<glyph unicode="#" horiz-adv-x="1162" d="M1007 444h-192l-63 -444h-102l61 444h-292l-63 -444h-100l60 444h-199v110h216l41 322h-197v113h214l59 442h103l-62 -442h294l59 442h105l-62 -442h182v-113h-197l-43 -322h178v-110zM476 876l-43 -322h294l43 322h-294z" />
<glyph unicode="$" horiz-adv-x="1162" d="M545 -35q-101 6 -186 37.5t-147.5 87t-98.5 135.5t-39 186h172q7 -134 79 -208t220 -89v562q-54 15 -107 34.5t-100.5 44t-89.5 56t-72 74t-47 97t-17 124.5q0 89 35 160t95 120t138.5 77t164.5 31v165h99v-164q83 -4 157 -29t130 -70t90.5 -110.5t38.5 -153.5h-173 q-11 95 -68.5 150t-174.5 64v-496q58 -17 115 -37.5t108 -47.5t93.5 -62t73 -78.5t48.5 -99t18 -125.5q0 -107 -35.5 -185.5t-97 -131t-145 -82t-178.5 -38.5v-159h-99v161zM927 390q0 60 -24 103t-63 74t-90 51t-106 35v-539q61 9 113.5 28.5t89.5 52.5t58.5 81.5 t21.5 113.5zM286 1115q0 -52 22 -90t57 -66.5t82 -47.5q47 -18 98 -33v468q-126 -9 -192.5 -70.5t-66.5 -160.5z" />
<glyph unicode="%" horiz-adv-x="2072" d="M1571 -29q-86 0 -144.5 31.5t-96.5 85.5t-55 126t-17 152.5t18 152.5t56.5 126t97.5 87q58 32 141 32t142.5 -32.5t98 -86.5t55.5 -125q18 -73 18 -153q0 -82 -17 -153.5t-54 -125.5t-97 -85.5t-146 -31.5zM1381 367q0 -65 10 -120.5t32.5 -97t58.5 -65.5t88.5 -24t88 24 t58.5 65.5t34 97t11 120.5q0 58 -8 113.5t-30 98.5t-59 69q-36 27 -94 27q-59 0 -96 -26.5t-57.5 -69.5t-28.5 -98.5t-8 -113.5zM533 667q-86 0 -145.5 31.5t-97 85.5t-54.5 126.5t-17 152.5t18.5 153t57 127.5t97 85.5t141.5 31t141.5 -31t97 -85.5t57.5 -126.5 q18 -74 18 -154q0 -82 -17 -153.5t-55.5 -125.5t-97 -85.5t-144.5 -31.5zM342 1063q0 -65 9 -120.5t32.5 -97t58.5 -64.5t88 -23q52 0 89 23t60 64.5t34 97t11 120.5q0 58 -9.5 113.5t-31 98.5t-58.5 69.5t-95 26.5q-59 0 -95 -26.5t-57 -69.5t-28.5 -98.5t-7.5 -113.5z M1360 1481h112l-776 -1532h-117z" />
<glyph unicode="&#x26;" horiz-adv-x="1350" d="M159 354q0 71 27 132.5t72 117t103 105t118 95.5l-29 38q-30 37 -56 75t-46 78t-31.5 81.5t-11.5 84.5q0 77 25.5 138.5t71 105t105.5 68t127 24.5q65 0 125 -18.5t105 -58.5t72.5 -100t27.5 -147q0 -61 -23 -113.5t-61.5 -101t-89.5 -92.5t-105 -87l301 -394 q33 68 53.5 140.5t23.5 147.5h144q-4 -108 -36.5 -214t-90.5 -199l198 -260h-185l-107 142q-77 -77 -177.5 -124t-223.5 -47q-95 0 -173 26t-134 75.5t-87.5 121t-31.5 160.5zM588 112q93 0 170 40q77 39 138 105l-329 433q-50 -39 -96 -78t-80 -80.5t-54 -86.5t-20 -94 q0 -55 20 -100t57 -75.5t86.5 -47t107.5 -16.5zM453 1173q0 -27 10 -58t28.5 -64t44 -69t52.5 -75l10 -14q44 34 85 69.5t70 71t46 72.5t17 77q0 86 -46 133.5t-129 47.5q-40 0 -74 -13.5t-59.5 -38.5t-40 -60t-14.5 -79z" />
<glyph unicode="'" horiz-adv-x="592" d="M228 1460h148v-548h-148v548z" />
<glyph unicode="(" horiz-adv-x="592" d="M434 -339q-60 99 -113 203.5t-91.5 221t-60 246.5t-21.5 278q0 123 19 247t56 244t90.5 235t120.5 222h125q-115 -221 -177 -457.5t-62 -490.5q0 -259 58 -494q56 -236 179 -455h-123z" />
<glyph unicode=")" horiz-adv-x="592" d="M169 1558q60 -98 112 -203t91 -222t61.5 -247.5t22.5 -278.5q0 -123 -20 -246.5t-57 -243.5t-89 -235q-53 -113 -121 -221h-126q117 220 178.5 455t61.5 490.5t-58 493.5q-59 237 -180 458h124z" />
<glyph unicode="*" horiz-adv-x="780" d="M91 1198l29 89l237 -97v270h77v-270l237 97q7 -13 10.5 -25t7.5 -22.5t7 -20t8 -21.5l-242 -83l151 -205l-65 -48l-154 219l-148 -220l-69 49l149 205z" />
<glyph unicode="+" horiz-adv-x="1253" d="M562 1021h148v-427h417v-167h-417v-427h-148v427h-416v167h416v427z" />
<glyph unicode="," horiz-adv-x="592" d="M188 237h225v-262q0 -55 -15.5 -103t-45 -86.5t-69.5 -66t-87 -42.5v80q30 14 55.5 39t42.5 57.5t26.5 70.5t9.5 76h-142v237z" />
<glyph unicode="-" horiz-adv-x="819" d="M148 641h537v-181h-537v181z" />
<glyph unicode="." horiz-adv-x="592" d="M188 237h225v-237h-225v237z" />
<glyph unicode="/" horiz-adv-x="743" d="M585 1497h160q-74 -196 -144.5 -387t-142 -381t-143.5 -380q-72 -192 -146 -386h-160z" />
<glyph unicode="0" horiz-adv-x="1162" d="M590 123q58 0 102 21.5t78 61t55.5 94t35.5 120t20 140t6 155.5q0 80 -6 155.5t-20 141.5t-35.5 120t-55.5 93t-78.5 60.5t-101.5 21.5q-59 0 -102.5 -21.5t-77 -60.5t-55.5 -93t-36 -120t-20 -141.5t-6 -155.5q0 -81 6 -155.5t20 -140t36 -120t55.5 -94t77 -61 t102.5 -21.5zM590 1460q97 0 169.5 -32.5t124.5 -88t86 -129t54 -157t28 -169.5t8 -169q0 -82 -8 -168.5t-28 -168.5t-54 -156t-86 -129.5t-124.5 -88.5t-169.5 -33t-169.5 33t-125 88.5t-86 129.5t-53 156t-27 169t-7.5 168t7.5 168t27 170.5t53 157t86 129t125 88 t169.5 32.5z" />
<glyph unicode="1" horiz-adv-x="1162" d="M156 1186q70 3 138.5 18.5t125 44.5t96.5 74q41 45 57 108h134v-1431h-196v1044h-355v142z" />
<glyph unicode="2" horiz-adv-x="1162" d="M1053 0h-933q3 83 27.5 158t65 139.5t95.5 120t123 103.5q25 16 48 31.5t48 32.5q67 45 132 92t116.5 99.5t83.5 112.5q31 63 31 134q0 27 -4.5 60t-17 65.5t-34 62.5t-53 53t-74.5 37t-100 14q-76 0 -133 -30.5t-94.5 -81t-56.5 -116.5q-18 -68 -18 -138h-176 q0 107 32.5 201t95.5 162.5t154 108t208 39.5q83 0 148 -18.5t112.5 -52.5t81.5 -77t54.5 -91t30 -97t9.5 -94q0 -84 -26 -153.5t-69.5 -128t-99.5 -107.5q-56 -47 -115 -90q-27 -20 -56.5 -39t-57.5 -38q-49 -32 -96.5 -67.5t-87.5 -74.5t-69.5 -84t-44.5 -96h720v-152z " />
<glyph unicode="3" horiz-adv-x="1162" d="M519 810q62 3 120.5 18.5t102 46.5t70.5 80t27 120q0 52 -19 96t-53 75.5t-81.5 50t-103.5 18.5q-66 0 -117 -24.5t-85.5 -67.5t-53.5 -100q-20 -57 -23 -119h-174q3 100 38.5 184t95 145t142 94t180.5 33q93 0 170.5 -24.5t134.5 -72.5t88.5 -117t31.5 -157 q0 -53 -12 -103t-37 -93.5t-63.5 -78.5t-90.5 -53q62 -13 110.5 -45t82 -80.5t51.5 -109.5t18 -129q0 -98 -35.5 -176.5t-99.5 -134t-152 -85.5q-86 -30 -191 -30q-114 0 -203 31.5t-150 90t-95 141.5q-32 83 -38 188h181q4 -68 23 -125t56.5 -97t93 -61.5t129.5 -21.5 q65 0 122 20t98.5 58t64.5 92.5t23 125.5q0 55 -13.5 95t-40 69.5t-62.5 48.5t-78.5 30.5t-88.5 16.5t-94 5v132z" />
<glyph unicode="4" horiz-adv-x="1162" d="M1072 336h-188v-336h-159v336h-660v209l656 886h163v-954h188v-141zM203 477h522v721z" />
<glyph unicode="5" horiz-adv-x="1162" d="M259 1431h730v-150h-604l-54 -431l8 2q49 43 118.5 69t153.5 26q100 0 183.5 -36t143.5 -98.5t94 -148.5q34 -85 34 -187q0 -104 -28 -196.5t-86.5 -162t-149.5 -108.5t-214 -39q-95 0 -178.5 27.5t-146.5 80.5t-103 132t-48 177h181q9 -60 33.5 -110t62.5 -85.5 t88.5 -55.5t112.5 -20q80 0 137.5 27.5t94 77t54 114t17.5 137.5q0 64 -18.5 125t-57 107.5t-97 73t-136.5 26.5q-40 0 -78.5 -10t-72.5 -28.5t-62.5 -43t-47.5 -55.5h-172z" />
<glyph unicode="6" horiz-adv-x="1162" d="M605 117q71 0 125 29.5t90 76.5t53 107.5t17 125.5t-17 123.5t-53 103t-89 72t-125.5 27.5t-127 -26t-91.5 -71.5t-56.5 -104.5t-19.5 -124t23 -126.5t61.5 -109.5t92.5 -75.5t117 -27.5zM862 1104q-6 46 -26 84.5t-50.5 67t-72.5 44t-91 15.5q-63 0 -112.5 -24.5 t-86 -66t-62 -97t-42 -115.5t-23 -121t-6.5 -115v-21q27 46 65 78t83.5 52.5t96 29.5t103.5 9q100 0 179 -34t134 -95.5t83.5 -148.5t28.5 -195q0 -111 -32 -199.5t-91 -151.5t-141.5 -96t-184.5 -33q-135 0 -229.5 53t-154 151.5t-86.5 236.5t-27 307q0 99 11 192t35.5 176 t64.5 151t97.5 118t134 77t171.5 27q79 0 148.5 -26t122.5 -72.5t88.5 -112.5t44.5 -145h-173z" />
<glyph unicode="7" horiz-adv-x="1162" d="M120 1431h927v-171q-111 -130 -204 -270t-162.5 -294t-113 -326.5t-59.5 -369.5h-194q14 169 62.5 341.5t125.5 336t178 316.5t216 286h-776v151z" />
<glyph unicode="8" horiz-adv-x="1162" d="M590 105q64 0 121 20t98 57t64 92.5t23 125.5q0 67 -23 121.5t-64 93t-97 59.5t-122 21q-65 0 -121 -21t-97.5 -59.5t-65 -93t-23.5 -121.5q0 -69 23.5 -123.5t65 -93t97.5 -58.5t121 -20zM590 -29q-103 0 -191 28.5t-152 84t-100 134.5t-36 182q0 59 20 116.5t55.5 106 t84.5 87t105 57.5q-50 18 -88.5 53t-64.5 77t-39 90t-13 94q0 80 27.5 149.5t81 120t132 80t178.5 29.5t178.5 -28t132.5 -78.5t81.5 -120t27.5 -152.5q0 -46 -13.5 -94t-40 -91t-65 -77t-86.5 -54q56 -18 104.5 -56t84 -87t55.5 -106t20 -116q0 -103 -35.5 -182 t-100 -134.5t-152.5 -84t-191 -28.5zM590 1324q-54 0 -101 -16t-81.5 -47.5t-55.5 -78.5t-21 -107q0 -59 19.5 -105t54.5 -78.5t82 -49.5t102.5 -17t103.5 17t82.5 49.5t54.5 78.5t20 105q0 60 -20 107t-55.5 78.5t-83 47.5t-101.5 16z" />
<glyph unicode="9" horiz-adv-x="1162" d="M573 1315q-73 0 -126 -27.5t-88.5 -74t-52 -106.5t-16.5 -126q0 -65 16.5 -125t52 -106t89.5 -74.5t125 -28.5q74 0 129.5 27.5t92.5 74t55.5 106.5t18.5 126q0 55 -18.5 114.5t-55.5 108t-92.5 80t-129.5 31.5zM317 326q6 -46 27 -84.5t52 -66t71.5 -43t91.5 -15.5 q71 0 122.5 26t87 69.5t58 99t35.5 116t19 121.5t11 112v29q-53 -97 -140 -141t-201 -44q-95 0 -175 34t-138 95.5t-89.5 149.5t-31.5 195q0 102 30 190.5t88 153.5t144 101t197 36q91 0 162.5 -26t125.5 -74.5t92.5 -117.5t61.5 -152t34 -178.5t11 -200.5q0 -98 -11 -192 t-35.5 -175.5t-64.5 -151t-97 -118.5t-134 -76t-173 -27q-77 0 -145.5 25.5t-122.5 72.5t-90 112t-45 145h172z" />
<glyph unicode=":" horiz-adv-x="592" d="M188 1021h225v-237h-225v237zM188 237h225v-237h-225v237z" />
<glyph unicode=";" horiz-adv-x="592" d="M188 237h225v-259q-5 -53 -22 -101.5t-44.5 -88t-65.5 -68t-85 -43.5v80q30 14 55.5 39t42.5 57.5t26.5 70.5t9.5 76h-142v237zM188 1021h225v-237h-225v237z" />
<glyph unicode="&#x3c;" horiz-adv-x="1253" d="M1130 0l-988 447v127l988 445v-158l-807 -351l807 -350v-160z" />
<glyph unicode="=" horiz-adv-x="1253" d="M1127 641h-981v166h981v-166zM1127 213h-981v167h981v-167z" />
<glyph unicode="&#x3e;" horiz-adv-x="1253" d="M949 510l-807 351v158l988 -445v-127l-988 -447v160z" />
<glyph unicode="?" horiz-adv-x="1162" d="M148 1029q3 106 36 192t92.5 147t142.5 95t186 34q88 0 162 -27t128 -78.5t84 -126.5q31 -76 31 -172q0 -72 -20 -129.5t-49 -104t-63 -83.5t-65 -68q-35 -35 -61.5 -64.5t-44 -61.5t-27.5 -73t-12 -99h-160q3 61 15.5 113.5t33.5 95.5t49 80t64 69q34 31 67 65t59 72.5 t41.5 82.5t15.5 96q0 71 -23 120.5t-60 80t-81.5 43.5t-86.5 13q-68 0 -119.5 -22t-86 -63t-54 -98.5t-22.5 -128.5h-172zM477 216h213v-216h-213v216z" />
<glyph unicode="@" horiz-adv-x="1663" d="M755 413q46 0 87.5 18.5t76 49t63 70.5t48.5 85t31 90q11 47 11 87q0 52 -15.5 91.5t-42.5 65t-63 39.5t-76 14q-48 0 -89.5 -18t-77 -48t-63 -68.5t-47 -83t-30.5 -89.5t-11 -88q0 -58 14 -98t40.5 -66.5t62.5 -38.5t81 -12zM1087 491q-1 -6 -2 -13t-1 -10 q0 -15 4 -30.5t12.5 -26.5t24 -17t38.5 -6q34 0 68.5 15.5t67 46t60 74t49 97.5t34 118.5t12.5 135.5q0 123 -41.5 222.5t-118.5 168t-182.5 105.5t-233.5 37q-93 0 -176 -23.5t-155.5 -66.5t-129.5 -104.5t-97 -135.5t-62 -161.5t-22 -183.5q0 -154 47 -278.5t133 -214 t207.5 -138t272.5 -48.5q70 0 138.5 13t132 38.5t120 63t99.5 87.5h108q-49 -71 -115.5 -125t-146 -91t-169.5 -57t-182 -20q-163 0 -298.5 54t-233.5 152.5t-152.5 240t-54.5 317.5q0 123 27.5 228t76 190t116.5 150.5t150 110.5t174.5 68t191.5 23q105 0 194 -21.5 t163 -61.5t131 -95.5t95.5 -125t57.5 -149.5t19 -166q0 -93 -16 -173t-44.5 -143t-67 -112.5t-84 -81.5t-93.5 -49q-47 -17 -96 -17q-25 0 -49.5 9t-43 26t-29.5 41q-11 22 -11 50h-6q-20 -29 -51.5 -53t-70 -41t-78.5 -26t-74 -9q-59 0 -107.5 21.5t-84.5 60.5t-57 96 q-21 59 -21 130q0 64 13 127.5t39.5 121t63.5 107.5t84 87t103 58t118 21q31 0 69.5 -7t73 -27t64.5 -54.5t45 -90.5l43 146h80z" />
<glyph unicode="A" horiz-adv-x="1390" d="M434 548h530l-262 776zM591 1463h225l547 -1463h-211l-136 396h-634l-139 -396h-197z" />
<glyph unicode="B" horiz-adv-x="1466" d="M400 166h486q132 0 204.5 68t72.5 194q0 60 -19.5 108.5t-55 81.5t-86 51t-116.5 18h-486v-521zM206 1463h681q91 0 165.5 -21.5t128 -64.5t82 -108t28.5 -153q0 -52 -14 -106t-42 -100t-66.5 -80.5t-87.5 -53.5q68 -15 118.5 -49t86 -85t52.5 -114t17 -134 q0 -83 -29 -155.5t-91 -124.5t-157 -83t-229 -31h-643v1463zM400 829h450q52 0 97.5 16.5t79 47.5t51.5 75.5t18 100.5q0 63 -15 106t-46.5 70t-78 39.5t-106.5 12.5h-450v-468z" />
<glyph unicode="C" horiz-adv-x="1503" d="M1189 1035q-19 65 -49.5 119.5t-79 93.5t-114 61.5t-148.5 22.5t-151 -24t-121 -65.5t-91.5 -98.5t-63.5 -124t-36.5 -140t-11.5 -148q0 -74 11.5 -148t36.5 -141t63.5 -124t91.5 -98.5t121 -65.5t151 -24q91 0 161 30t120.5 82.5t81.5 124.5t40 154h188 q-9 -126 -55.5 -229.5t-123.5 -176.5t-181.5 -113t-230.5 -40q-105 0 -196 28.5t-165 79.5t-131.5 121.5t-97 156t-60 182.5t-20.5 201t20.5 200.5t60 182t97 156t131.5 120.5t165 78.5t196 28.5q114 0 214 -33t177.5 -94.5t128.5 -146.5q53 -84 68 -189h-197z" />
<glyph unicode="D" horiz-adv-x="1503" d="M400 166h284q108 0 188 20t137 57t95.5 88.5t60 114t30.5 135t9 151.5q0 76 -9 149.5t-30.5 136.5t-60 114t-95.5 88t-137 57t-188 20h-284v-1131zM206 1463h576q108 0 195 -26t155.5 -74t118.5 -115.5t82.5 -149.5t48.5 -174t16 -192q0 -99 -16 -192t-48.5 -175 t-82.5 -149t-118.5 -115.5t-155.5 -74.5t-195 -26h-576v1463z" />
<glyph unicode="E" horiz-adv-x="1313" d="M206 1463h992v-179h-799v-439h739v-166h-739v-500h811v-179h-1004v1463z" />
<glyph unicode="F" horiz-adv-x="1238" d="M205 1463h950v-179h-756v-439h664v-166h-664v-679h-194v1463z" />
<glyph unicode="G" horiz-adv-x="1578" d="M1423 0h-108l-49 225q-49 -71 -103 -121t-112.5 -81.5t-118.5 -45.5t-124 -14q-104 0 -194 28.5t-165 79.5t-132.5 121.5t-97.5 156t-60 182.5t-20 201t20 200.5t60 182t97.5 156t132.5 120.5t165 78.5t194 28.5q111 0 211.5 -29t179.5 -87t132 -145q52 -88 70 -202h-186 q-12 74 -50.5 129.5t-93.5 92.5t-122.5 56t-140.5 19q-83 0 -151.5 -24t-120.5 -65.5t-90.5 -98.5t-63.5 -124t-37 -140t-12 -148q0 -74 12 -148t37 -141t63.5 -124t90.5 -98.5t120 -65.5t152 -24q107 0 188.5 31.5t137 91t85.5 143.5q28 85 31 191h-388v151h561v-739z" />
<glyph unicode="H" horiz-adv-x="1503" d="M200 1463h194v-594h729v594h195v-1463h-195v690h-729v-690h-194v1463z" />
<glyph unicode="I" horiz-adv-x="620" d="M217 1463h194v-1463h-194v1463z" />
<glyph unicode="J" horiz-adv-x="1124" d="M930 457q0 -61 -6 -122t-23 -115.5t-48 -101.5t-81.5 -81t-121.5 -54t-170 -20q-107 0 -184 35.5t-126.5 96.5t-72.5 144.5t-23 179.5v58h194v-55q0 -69 11 -123t37.5 -92t72 -57t113.5 -19q66 0 111 20.5t72.5 61t39 97.5t11.5 134v1019h194v-1006z" />
<glyph unicode="K" horiz-adv-x="1427" d="M206 1463h194v-745l700 745h240l-561 -585l610 -878h-248l-494 735l-247 -248v-487h-194v1463z" />
<glyph unicode="L" horiz-adv-x="1199" d="M206 1463h193v-1284h744v-179h-937v1463z" />
<glyph unicode="M" horiz-adv-x="1844" d="M203 1463h284l449 -1250l456 1250h270v-1463h-181v1269l-468 -1269h-161l-467 1269v-1269h-182v1463z" />
<glyph unicode="N" horiz-adv-x="1503" d="M1140 1463h181v-1463h-218l-726 1186v-1186h-181v1463h218l726 -1201v1201z" />
<glyph unicode="O" horiz-adv-x="1580" d="M798 1491q104 0 195 -28t166 -78.5t132.5 -121.5t97.5 -155.5t60 -181.5t20 -202q0 -103 -20 -199.5t-60 -181t-97.5 -154.5t-132.5 -120.5t-166 -78t-195 -27.5q-105 0 -195 27.5t-165 78t-132 120.5t-97 154.5t-60 180t-20 200.5t20 202t60 181.5t97 155.5t132 121.5 t165 78.5t195 28zM798 1324q-83 0 -151 -23.5t-121 -65t-91 -99.5t-63.5 -124t-37 -140t-11.5 -148t11.5 -147t37 -138.5t63.5 -122.5t91 -98t121 -64t151 -23t152 23t121.5 64t91 98t63 122.5t37 138.5t12.5 147t-12.5 148t-37 140t-63 124t-91 99.5t-121.5 65t-152 23.5z " />
<glyph unicode="P" horiz-adv-x="1390" d="M400 739h407q49 0 99 14t92.5 45t69.5 83t27 129q0 80 -23 135.5t-62.5 89.5t-90 48t-109.5 14h-410v-558zM206 1463h615q98 0 170.5 -21.5t124 -57t85.5 -81.5t53.5 -97t26 -102t6.5 -97q0 -43 -6.5 -92.5t-26 -97t-53.5 -92t-85.5 -78.5t-124.5 -54t-170 -20h-421v-573 h-194v1463z" />
<glyph unicode="Q" horiz-adv-x="1580" d="M853 323q25 30 46 55q22 25 43 50l179 -160q42 52 71 107.5t47.5 114t27 117t8.5 117.5q0 74 -12.5 148t-37 140t-63 124t-91 99.5t-120.5 65.5q-70 23 -153 23t-151 -23.5t-121 -65t-91 -99.5t-63.5 -124t-37 -140t-11.5 -148t11.5 -147t37 -138.5t63.5 -122.5t91 -98 t121 -64t151 -23q46 0 100 13t112 41zM1443 -18l-89 -102l-205 183q-89 -52 -178.5 -76t-172.5 -24q-105 0 -195 27.5t-165 78t-132 120.5t-97 154.5t-60 180t-20 200.5t20 202t60 181.5t97 155.5t132 121.5t165 78.5t195 28q104 0 195 -28t166 -78.5t132.5 -121.5 t97.5 -155.5t60 -181.5t20 -202q0 -76 -12 -153.5t-38.5 -153t-67.5 -144.5q-42 -68 -97 -124z" />
<glyph unicode="R" horiz-adv-x="1466" d="M400 767h453q139 0 209.5 69.5t70.5 201.5q0 78 -23 128.5t-62 79.5t-90.5 40t-107.5 11h-450v-530zM206 1463h676q113 0 197 -29.5t139.5 -83t82 -127.5t26.5 -163q0 -68 -12 -121t-33.5 -93.5t-48.5 -69t-54 -47t-51.5 -29t-41.5 -13.5q54 -12 94.5 -44.5t67.5 -77 t41 -98.5t14 -113q0 -55 4 -106.5t10.5 -97t19 -84t27.5 -66.5h-201q-6 18 -11.5 42t-10 49.5t-7 52.5t-2.5 52q0 109 -14 188.5t-50 131t-99 75.5q-60 25 -159 25h-410v-616h-194v1463z" />
<glyph unicode="S" horiz-adv-x="1350" d="M311 451q5 -86 38 -147t87.5 -99.5t125.5 -55.5q72 -18 153 -18q92 0 156.5 21.5t105.5 56t59.5 79.5t18.5 92q0 68 -31.5 113.5t-84.5 75t-123 49.5q-71 20 -145 38q-58 15 -118 32t-115.5 38.5t-103.5 51.5t-84 72t-57 97.5t-21 128.5q0 107 44 184t115.5 127t161 74 t185.5 24q104 0 198 -28t166.5 -82t116.5 -134t48 -186h-195q-6 72 -34.5 123t-75 82t-106.5 44.5t-131 13.5q-49 0 -101.5 -12t-97 -39t-72 -68t-27.5 -99q0 -70 32 -115.5t87.5 -76t126.5 -50t148 -37.5q58 -14 116.5 -29.5t113.5 -37t102 -50.5t81.5 -70t54.5 -95.5 t20 -128.5q0 -80 -21.5 -144t-60 -113.5t-91 -85.5t-113.5 -59t-128.5 -34t-136.5 -11q-77 0 -149.5 13t-135.5 38.5t-115.5 65.5t-91 94t-61.5 123q-25 70 -28 154h194z" />
<glyph unicode="T" horiz-adv-x="1238" d="M65 1463h1124v-179h-467v-1284h-192v1284h-465v179z" />
<glyph unicode="U" horiz-adv-x="1503" d="M191 1463h192v-862q0 -53 2.5 -107.5t15 -105.5t35.5 -95.5t64.5 -77.5t104.5 -52.5t154 -19.5q90 0 153.5 19.5t105.5 52.5t65.5 77.5t35 95.5t15 105.5t3.5 107.5v862h192v-941q0 -139 -41 -241t-115.5 -171.5t-180 -103.5t-233.5 -34q-129 0 -233 34t-179.5 103.5 t-115.5 172.5t-40 240v941z" />
<glyph unicode="V" horiz-adv-x="1275" d="M40 1463h202l399 -1294l412 1294h194l-489 -1463h-241z" />
<glyph unicode="W" horiz-adv-x="1958" d="M1093 1463l327 -1254l296 1254h189l-374 -1463h-213l-329 1250l-330 -1250h-212l-375 1463h190l295 -1254l327 1254h209z" />
<glyph unicode="X" horiz-adv-x="1350" d="M89 1463h237l358 -573l374 573h217l-474 -711l502 -752h-240l-385 602l-392 -602h-223l504 752z" />
<glyph unicode="Y" horiz-adv-x="1350" d="M587 567l-533 896h229l408 -721l402 721h219l-531 -896v-567h-194v567z" />
<glyph unicode="Z" horiz-adv-x="1313" d="M162 1463h1052v-169l-878 -1115h898v-179h-1137v185l878 1099h-813v179z" />
<glyph unicode="[" horiz-adv-x="629" d="M194 1497h397v-142h-237v-1617h237v-141h-397v1900z" />
<glyph unicode="\" horiz-adv-x="743" d="M745 -37h-160l-576 1534h160z" />
<glyph unicode="]" horiz-adv-x="629" d="M445 -403h-399v141h239v1617h-239v142h399v-1900z" />
<glyph unicode="^" horiz-adv-x="1253" d="M234 708l350 723h103l351 -723h-145l-257 570l-260 -570h-142z" />
<glyph unicode="_" horiz-adv-x="1047" d="M46 -265v59h972v-59h-972z" />
<glyph unicode="`" horiz-adv-x="517" d="M209 1497l161 -256h-130l-225 256h194z" />
<glyph unicode="a" horiz-adv-x="1162" d="M832 561q-19 -16 -48 -28t-63 -21.5t-68 -15.5t-62 -9q-49 -7 -102 -20t-98.5 -36.5t-74.5 -61.5q-30 -36 -30 -92q0 -40 15.5 -71.5t43.5 -52.5t68 -31t91 -10q27 0 63.5 5.5t72.5 17t70.5 30t61 44t43.5 59.5t17 75v218zM1004 219q0 -59 18.5 -83t67.5 -24h28v-121 q-8 -3 -23 -4.5t-33 -3t-35 -3.5t-26 -2q-25 0 -52 9.5t-49 29.5t-39 51t-23 71q-45 -45 -95 -75t-101 -49.5t-101 -28t-94 -8.5q-65 0 -126 17t-107 52.5t-73 89.5t-27 128q0 57 17 101.5t47 78.5t70 58t85.5 41.5t93.5 27.5q50 10 97 16q30 3 65.5 8t72.5 11t69.5 16.5 t58.5 28.5t42 44q15 28 15 65t-11.5 63t-31 46t-44.5 33t-53.5 21.5t-58 11.5t-55.5 3q-52 0 -97.5 -12t-80.5 -35t-57 -57t-30 -77h-174q6 61 27.5 107.5t55 82t75 60t90 39t100.5 21.5t105 7q72 0 143.5 -16t127 -51t91.5 -91q35 -55 35 -135v-563z" />
<glyph unicode="b" horiz-adv-x="1275" d="M1001 521q0 78 -20 152.5t-59.5 131.5t-99.5 91q-61 34 -141 34q-83 0 -145.5 -29t-105.5 -83t-65.5 -129.5t-22.5 -167.5q0 -88 23 -163t67.5 -128.5t108 -85.5t140.5 -32q89 0 150.5 35.5t98.5 93.5t54 130.5t17 149.5zM179 1460h172v-542h8q24 40 65 69t90.5 48.5 t98.5 29.5t92 10q119 0 206.5 -44.5t145.5 -120t87 -177.5t29 -216q0 -112 -31.5 -211.5t-91.5 -174t-147 -117.5t-198 -43q-49 0 -100 8.5t-98 28.5t-87.5 50.5t-71.5 75.5l-11 17v-151h-158v1460z" />
<glyph unicode="c" horiz-adv-x="1162" d="M881 727q-9 49 -34 89t-62 67t-82 41.5t-98 14.5q-68 0 -125.5 -30.5t-99 -87.5t-65.5 -138.5t-24 -180.5q0 -72 17.5 -142t54.5 -125t97.5 -89t146.5 -34q55 0 102 17t83.5 49.5t60.5 78.5q25 48 37 106h170q-37 -189 -152.5 -290.5t-300.5 -101.5q-117 0 -209 39 t-154 110t-93.5 169t-31.5 213q0 126 30 233t91.5 184t154 119.5t215.5 42.5q91 0 166.5 -23t131.5 -68.5t93 -111t54 -151.5h-174z" />
<glyph unicode="d" horiz-adv-x="1275" d="M293 521q0 -77 16 -149.5t53.5 -130.5t98.5 -93.5t150 -35.5q79 0 142 32t107 85.5t68 129t24 162.5q0 92 -23 167.5t-66.5 129.5t-106.5 83t-145 29q-80 0 -140.5 -34t-99 -91t-58.5 -131.5t-20 -152.5zM1115 0h-160v151l-9 -17q-31 -46 -72.5 -76t-88 -50t-97 -28.5 t-100.5 -8.5q-111 0 -198.5 43t-147.5 117.5t-91 174t-31 211.5q0 114 28.5 216t86.5 177.5t146.5 120t206.5 44.5q42 0 92 -10t98.5 -29.5t89.5 -48.5t65 -69h9v542h173v-1460z" />
<glyph unicode="e" horiz-adv-x="1162" d="M291 499q0 -74 19.5 -143.5t59.5 -123t100 -87t141 -33.5q111 0 180.5 45.5t104.5 138.5h160q-21 -79 -64 -140t-101.5 -102.5t-129.5 -62t-150 -20.5q-118 0 -209.5 43t-154 119t-95.5 179.5t-33 223.5q0 111 33.5 211t97 174t153.5 117t202 43q73 0 136.5 -18.5 t117 -54t95 -84.5t70.5 -107.5t44.5 -125t15.5 -137.5q0 -12 -0.5 -27.5t-2.5 -27.5h-790zM907 610q-3 66 -25.5 125.5t-61.5 105t-94 72t-121 26.5q-68 0 -124 -24.5t-97.5 -69t-66 -104.5t-27.5 -131h617z" />
<glyph unicode="f" horiz-adv-x="668" d="M65 1060h175v98q0 86 21.5 144t58.5 93.5t85 50t100 14.5h27.5t33.5 -1.5t37 -3t35 -4.5v-139q-27 3 -51 5q-23 1 -42 1q-65 0 -98 -33q-34 -35 -34 -105v-120h200v-133h-200v-927h-173v927h-175v133z" />
<glyph unicode="g" horiz-adv-x="1238" d="M296 542q0 -77 18.5 -149.5t57 -130t97 -92t138.5 -34.5t141.5 29t103 83t64 129.5t22.5 164.5q0 86 -23 159.5t-65.5 126.5t-104 83.5t-138.5 30.5q-88 0 -148 -35t-96.5 -90.5t-51.5 -128t-15 -146.5zM939 1053h157v-1019q0 -117 -36 -205t-101.5 -146.5t-156.5 -87 t-198 -28.5q-70 0 -143 15t-136 48.5t-108 90t-57 139.5h174q16 -52 45 -84t67.5 -49t82.5 -23t89 -6q67 0 123.5 20t98 58.5t63 95.5t21.5 130v146h-3q-25 -40 -62 -68t-80.5 -47t-92 -28.5t-95.5 -9.5q-115 0 -203 44t-146.5 119.5t-87.5 175.5t-29 211t32 208t92.5 169.5 t146.5 115.5t194 43q61 0 111.5 -9t92 -27.5t75.5 -48.5q33 -32 63 -75z" />
<glyph unicode="h" horiz-adv-x="1199" d="M171 1460h172v-551h8q19 33 54 62.5t80 52.5t97 37t111 14q80 0 144.5 -23t111 -66.5t72.5 -108.5q26 -64 26 -150v-727h-172v687q0 129 -54 186t-163 57q-62 0 -120 -24.5t-101 -68.5t-68.5 -101.5t-25.5 -122.5v-613h-172v1460z" />
<glyph unicode="i" horiz-adv-x="517" d="M176 1060h172v-1060h-172v1060zM176 1460h172v-180h-172v180z" />
<glyph unicode="j" horiz-adv-x="517" d="M176 1060h172v-1192q0 -71 -15.5 -122t-47.5 -86.5t-84.5 -52.5t-126.5 -17q-22 0 -48 3q-26 0 -43 4v140q12 -2 31.5 -4.5t33.5 -2.5q37 0 61.5 7t39 22.5t21 42.5t6.5 69v1189zM176 1460h172v-180h-172v180z" />
<glyph unicode="k" horiz-adv-x="1124" d="M179 1460h171v-906l475 490h208l-382 -376l436 -668h-218l-339 551l-180 -177v-374h-171v1460z" />
<glyph unicode="l" horiz-adv-x="582" d="M209 1460h173v-1460h-173v1460z" />
<glyph unicode="m" horiz-adv-x="1806" d="M172 1060h154l7 -167l6 -1q18 34 52 66t77 57.5t94.5 42.5t108.5 17q59 0 108.5 -14.5t89.5 -41.5t69 -64t45 -86l13 23q22 37 55 70t76 57.5t94 40t110 15.5q73 0 134 -23t105 -66.5t67 -103.5t23 -134v-748h-171v708q0 50 -10.5 90.5t-34.5 70.5t-61 45.5t-88 15.5 q-61 0 -115 -24.5t-93.5 -68.5t-61.5 -101.5t-22 -122.5v-613h-171v708q0 50 -11 90.5t-35 70.5t-61 46q-35 15 -87 15q-62 0 -116 -24.5t-94 -68.5t-61.5 -101.5t-21.5 -122.5v-613h-173v1060z" />
<glyph unicode="n" horiz-adv-x="1199" d="M718 1075q77 0 138.5 -23t104 -66.5t64.5 -103.5t22 -134v-748h-172v708q0 110 -55.5 166t-160.5 56q-61 0 -118 -24.5t-101 -68.5t-69.5 -101.5t-25.5 -122.5v-613h-173v1060h153l8 -167l6 -1q28 40 65.5 73.5t84.5 57.5t104 38t125 14z" />
<glyph unicode="o" horiz-adv-x="1238" d="M630 112q88 0 151 37t104.5 96.5t61 135t19.5 150.5q0 74 -19.5 149t-61 133.5t-104.5 95.5t-151 37t-151 -37t-104.5 -95.5t-61.5 -132.5t-20 -150q0 -77 20 -151.5t61.5 -134t104.5 -96.5t151 -37zM630 -29q-122 0 -216 42t-159.5 117t-99 177.5t-33.5 223.5 q0 120 33.5 222.5t99 176.5t159.5 117t216 43q120 0 214.5 -43t160 -117t100.5 -176.5t35 -222.5t-35 -223t-100.5 -178t-160 -117t-214.5 -42z" />
<glyph unicode="p" horiz-adv-x="1275" d="M1001 524q0 77 -17 149t-54 130.5t-98.5 94t-150.5 35.5q-79 0 -141.5 -31.5t-107 -86t-67.5 -129.5t-23 -162q0 -93 22.5 -168.5t65.5 -129.5t106 -83q62 -29 145 -29q80 0 140.5 34t100 91.5t59.5 131.5t20 153zM179 1060h151l7 -167l11 19q31 44 71.5 75t87.5 50 t98 28.5t100 9.5q111 0 198 -43t147 -118.5t91.5 -174t31.5 -212.5t-29 -216t-87 -177t-146.5 -119t-205.5 -44q-41 0 -91 10t-99.5 28.5t-91 47.5t-64.5 69h-8v-526h-172v1460z" />
<glyph unicode="q" horiz-adv-x="1275" d="M293 524q0 -79 20 -153t59 -131.5t99 -91.5q62 -34 142 -34q83 0 145.5 29t105.5 83t65.5 129.5t22.5 168.5q0 87 -23 162t-68 129.5t-108 86t-140 31.5q-89 0 -151 -35.5t-99 -94t-53.5 -130.5t-16.5 -149zM1115 -400h-173v526h-7q-25 -40 -62.5 -69t-84 -47.5 t-97 -28.5t-103.5 -10q-118 0 -206 44t-145.5 119t-87 177t-29.5 216q0 112 31.5 211.5t91.5 175t147 118.5t198 43q65 0 118 -9.5t95.5 -28.5t78 -50.5t66.5 -74.5l10 -19l8 167h151v-1460z" />
<glyph unicode="r" horiz-adv-x="743" d="M761 881q-11 3 -24 6t-27 4t-28 1.5t-23 0.5q-68 0 -126.5 -29t-100 -77t-65.5 -113q-25 -64 -25 -138v-536h-173v1060h154l10 -213l3 -2q23 47 57 87.5t77.5 73t99 51t123.5 18.5q15 0 35 -2q20 -4 33 -7v-185z" />
<glyph unicode="s" horiz-adv-x="1087" d="M290 303q9 -52 32 -89.5t59 -61.5t81.5 -35.5t96.5 -11.5q48 0 95.5 7t86 26t63.5 53t25 89q0 46 -24 78.5t-65 52.5t-93.5 34t-109.5 26q-47 9 -95 21.5t-92.5 29.5t-84 40t-68 54.5t-45 74t-16.5 97.5q0 77 32 134t87.5 94t132 55.5t163.5 18.5q74 0 142 -17t123.5 -53 t94 -92t51.5 -133h-183q-12 41 -36.5 71t-57 50t-71 29.5t-80.5 9.5q-40 0 -80 -9.5t-72 -28t-53 -49t-21 -73.5q0 -34 14 -59.5t40 -45t60 -33t74 -24.5t84.5 -21t89.5 -21q63 -15 123 -36.5t106.5 -56t74 -85.5t27.5 -123q0 -91 -36 -152t-97 -98t-142.5 -53t-171.5 -16 q-92 0 -169 20t-136.5 60.5t-94.5 104.5q-34 63 -40 147h176z" />
<glyph unicode="t" horiz-adv-x="705" d="M62 1060h178v311h173v-311h212v-133h-212v-653q0 -37 7.5 -64t24.5 -44.5t44.5 -25.5t67.5 -8q17 0 35 1t33 3v-138q-27 -3 -59.5 -5t-60.5 -2q-83 0 -135.5 21.5t-81 60.5t-38.5 92q-10 54 -10 112v650h-178v133z" />
<glyph unicode="u" horiz-adv-x="1199" d="M502 -14q-77 0 -138.5 24t-104.5 68.5t-65 105.5t-22 135v741h171v-709q0 -109 56.5 -165.5t159.5 -56.5q62 0 119.5 25.5t100.5 69.5t69.5 101t26.5 123v612h172v-1060h-154l-7 166l-5 3q-29 -40 -67 -73.5t-85 -58.5t-103 -38t-124 -13z" />
<glyph unicode="v" horiz-adv-x="1087" d="M66 1060h193l300 -934l300 934h179l-376 -1060h-215z" />
<glyph unicode="w" horiz-adv-x="1618" d="M573 0h-197l-308 1060h177l231 -894l243 894h179l243 -894l231 894h177l-308 -1060h-197l-236 873z" />
<glyph unicode="x" horiz-adv-x="1124" d="M462 557l-354 503h215l241 -373l255 373h200l-354 -496l401 -564h-213l-291 440l-282 -440h-205z" />
<glyph unicode="y" horiz-adv-x="1087" d="M55 1060h191l313 -878l306 878h182l-449 -1220q-22 -59 -46.5 -107.5t-61.5 -83t-86.5 -54.5t-117.5 -20q-33 0 -67 2q-33 4 -65 7v153q20 -3 40 -6.5t40 -3.5q43 0 73 10t52.5 32t40 53.5t34.5 74.5l34 98z" />
<glyph unicode="z" horiz-adv-x="1047" d="M132 1060h807v-139l-639 -779h670v-142h-878v139l640 779h-600v142z" />
<glyph unicode="{" horiz-adv-x="629" d="M37 619q28 3 61.5 14t63 31.5t49.5 52t20 78.5v435q0 47 12.5 84t31.5 67t43.5 51.5t51 35t51 21.5t44.5 8h157v-119h-83q-51 0 -80 -21.5t-44 -53t-19.5 -67t-4.5 -63.5v-308q0 -77 -17 -133.5t-47 -95t-69 -60.5t-82 -28v-3q43 -6 82 -27t69 -61t47 -99t17 -142v-298 q0 -18 1.5 -40.5t7 -44.5t15.5 -43t25.5 -38t40 -27t58.5 -10h83v-118h-157q-18 0 -43.5 7.5t-52 21.5t-51 35.5t-43.5 50.5t-32 67q-12 36 -12 82v419q0 51 -20 85.5t-49.5 58t-63 34t-61.5 15.5v146z" />
<glyph unicode="|" horiz-adv-x="477" d="M169 1611h148v-2064h-148v2064z" />
<glyph unicode="}" horiz-adv-x="629" d="M604 473q-28 -3 -62.5 -14.5t-64.5 -35t-49.5 -58t-19.5 -85.5v-419q0 -46 -11.5 -83t-31.5 -66t-44.5 -50.5t-51 -35.5t-51 -21.5t-42.5 -7.5h-158v118h84q34 0 57.5 10t40 27t25.5 38t14.5 43t7 45t1.5 40v298q0 83 17.5 142t47 99t68.5 61t83 27v3q-44 6 -83 28 t-68.5 60.5t-47 95t-17.5 133.5v308q0 28 -4 63.5t-19.5 67t-44.5 53t-78 21.5h-84v119h158q18 0 42.5 -8t51 -21.5t51 -35t44.5 -51.5t31.5 -68t11.5 -83v-435q0 -47 19.5 -78.5t49.5 -52t64 -31.5q35 -11 63 -14v-146z" />
<glyph unicode="~" horiz-adv-x="1253" d="M1112 514q-22 -30 -49.5 -56.5t-60 -45.5t-69.5 -30.5t-77 -11.5q-46 0 -84.5 9t-71 23.5t-64 31.5t-66 31.5t-74.5 24t-89 9.5q-31 0 -58 -7.5t-50 -22.5t-43 -33q-19 -17 -34 -39l-77 111q15 31 44.5 55.5t65 44.5t77 31t85.5 11q43 0 82.5 -9.5t75 -23t70 -30.5 t69 -31t70 -23t74.5 -9q29 0 55 8.5t50 23t45 34.5t39 41z" />
<glyph unicode="&#xa2;" horiz-adv-x="1162" d="M568 -29q-103 4 -186 47.5t-141.5 115.5t-90 166t-31.5 202q0 74 11.5 145t36 132.5t61.5 114t87 91t113 61.5t140 26v172h97v-172q77 -3 143.5 -29.5t117 -71t83.5 -106.5q32 -63 44 -138h-172q-8 37 -25.5 72.5t-45.5 63t-64 46.5q-38 18 -81 21v-819q46 5 88 28.5 t71 59t46 78.5t20 86h170q-10 -83 -40.5 -152t-81.5 -121.5t-120.5 -82.5t-152.5 -35v-168h-97v167zM291 502q0 -65 16 -132t51 -123t87 -93t123 -43v822q-52 -4 -101.5 -34t-88.5 -84t-63 -132.5t-24 -180.5z" />
<glyph unicode="&#xa3;" horiz-adv-x="1162" d="M246 772q-101 163 -101 304q0 93 34.5 170.5t95.5 133t144 86.5t179 31q110 0 199 -26t151 -81.5t97.5 -143.5t38.5 -208h-174q-6 68 -24.5 125t-54.5 97t-93 61.5t-137 21.5q-53 0 -101.5 -18.5t-84 -52.5t-56 -84.5t-20.5 -115.5q0 -37 9 -75.5t24 -77t32.5 -77 t35.5 -72.5h312v-108h-270q17 -49 26 -87.5t9 -66.5q0 -111 -43 -200t-132 -157v-3q49 18 89 26t77 8q49 0 91 -11t82.5 -22.5t83 -21.5t91.5 -10q56 0 103 15.5t88 46.5l77 -117q-34 -28 -67.5 -46.5t-69 -31t-74 -17t-83.5 -4.5q-52 0 -105.5 12.5t-105 26t-104.5 24.5 t-107 11q-25 0 -50 -3t-51.5 -11t-51.5 -18q-24 -11 -46 -23l-80 126q37 29 75.5 68.5t69.5 85.5t51 95.5t20 98.5q0 52 -12.5 103.5t-33.5 102.5h-205v110h152z" />
<glyph unicode="&#xa5;" horiz-adv-x="1162" d="M504 308h-307v106h307v170l-11 23h-296v112h240l-388 741h196l345 -739l352 739h188l-389 -741h242v-112h-296l-9 -23v-170h305v-106h-305v-308h-174v308z" />
<glyph unicode="&#xa9;" horiz-adv-x="1663" d="M1568 730q0 -114 -26.5 -216.5t-74 -188t-114.5 -153t-147 -114t-172 -71.5t-189 -25q-106 0 -201.5 26.5t-177 75t-146 118t-109.5 155t-69.5 185t-24.5 208.5q0 115 26 217t75.5 187.5t115.5 153t148 114t173.5 71.5t189.5 25q97 0 189 -25t172 -71.5t147 -114 t114.5 -153t74 -187.5t26.5 -217zM1469 730q0 99 -21.5 188t-61.5 164.5t-97 135.5t-126.5 101.5t-149.5 65t-167.5 23.5t-168.5 -23.5t-151 -65t-126.5 -101.5t-97 -135.5t-62 -164.5t-21.5 -188q0 -92 20 -178.5t57 -162t90.5 -137t123 -106t154 -68.5t181.5 -24 q87 0 167.5 22.5t150 64t126.5 101.5t97 135.5t61.5 164t21.5 188.5zM1218 548q-15 -68 -46.5 -124.5t-78 -98.5t-106.5 -64t-134 -22q-98 0 -174.5 37.5t-129.5 104t-81 154.5q-28 90 -28 192q0 95 28 180t81 147t131 98.5t176 36.5q65 0 124.5 -20t107 -57t80.5 -92.5 t49 -124.5h-99q-12 43 -35 79t-57 63t-75.5 41.5t-94.5 14.5q-77 0 -135.5 -29t-97 -80t-57.5 -117t-19 -140q0 -77 20 -148.5t59 -126.5t96 -86.5t131 -31.5q53 0 97.5 17t78.5 45.5t57 68.5t32 83h100z" />
<glyph unicode="&#xab;" horiz-adv-x="971" d="M111 480v142l334 247v-151l-206 -167l206 -169v-149zM525 480v142l334 247v-151l-206 -167l206 -169v-149z" />
<glyph unicode="&#xad;" horiz-adv-x="819" d="M148 641h537v-181h-537v181z" />
<glyph unicode="&#xae;" horiz-adv-x="1663" d="M616 222h-94v956h337q77 0 137 -19t99.5 -54.5t60.5 -83.5t21 -106q0 -120 -71 -183.5t-197 -69.5l266 -440h-111l-257 432h-191v-432zM859 744q37 0 75.5 7.5t69.5 27t49.5 51.5t18.5 83q0 43 -15.5 76.5t-44.5 55t-67.5 33t-85.5 11.5h-243v-345h243zM1580 730 q0 -114 -27.5 -215.5t-78.5 -187t-119.5 -152.5t-151 -115t-175.5 -72.5t-190 -24.5q-111 0 -209 27t-182 75.5t-150 118t-113.5 154t-72.5 184t-25 208.5q0 115 27 217t75.5 187.5t118 152.5t152.5 114t178.5 71.5t200.5 24.5q97 0 190 -24.5t175.5 -71.5t151 -114 t119.5 -152.5t78.5 -187.5t27.5 -217zM1497 730q0 102 -24 192.5t-68 167t-104 137t-134 104t-157 66.5t-172.5 23t-174 -23t-158.5 -66.5t-135.5 -104t-106 -137t-69.5 -167t-25 -192.5q0 -96 22 -183.5t63.5 -163t101.5 -138.5t134 -108t161.5 -69.5t186.5 -24.5 q89 0 172 22.5t157 64.5t134 103t104 137.5t68 167t24 192.5z" />
<glyph unicode="&#xbb;" horiz-adv-x="971" d="M525 233v149l207 169l-207 167v151l334 -247v-142zM111 233v149l206 169l-206 167v151l334 -247v-142z" />
<glyph unicode="&#xbc;" horiz-adv-x="1732" d="M1472 0h-115v172h-405v121l369 563h151v-573h99v-111h-99v-172zM1357 744l-299 -461h299v461zM125 1294q49 3 93 12t81 27.5t64.5 44.5t39.5 63h90v-865h-117v642h-251v76zM1173 1481h116l-838 -1532h-118z" />
<glyph unicode="&#xbd;" horiz-adv-x="1732" d="M123 1294q49 3 93 13t81 27.5t64 43.5t41 63h88v-865h-117v642h-250v76zM1615 0h-586q4 77 31 134t67 101.5t89.5 80t97.5 66.5q40 26 77.5 53t65.5 55.5t45 62.5q16 32 16 75q0 40 -12 71t-35 52.5t-55.5 32.5t-72.5 11q-46 0 -82.5 -16.5t-62 -43.5t-38.5 -60 q-14 -34 -14 -71h-114q3 61 26 115t63 92.5t97 61t126 22.5q62 0 113.5 -18t90 -51.5t60 -81.5t21.5 -111q0 -59 -20 -104t-51.5 -80.5t-72 -65t-84.5 -55.5q-38 -25 -76 -49.5t-70 -51.5t-55 -58q-23 -30 -33 -67h448v-102zM1173 1481h116l-838 -1532h-118z" />
<glyph unicode="&#xbe;" horiz-adv-x="1732" d="M351 1076q40 4 77 12t66.5 26.5t48 46.5t18.5 69q0 34 -14 59.5t-37 41t-55.5 23t-69.5 7.5t-68 -12t-55.5 -33.5t-39 -51t-19.5 -63.5h-101q6 62 27.5 109.5t58.5 81.5t86 51t111 17q52 0 101.5 -12.5t88 -40t62.5 -71.5q24 -42 24 -104q0 -31 -7 -60t-22.5 -54 t-40 -43.5t-61.5 -27.5v-3q40 -6 70.5 -27.5t52.5 -51.5t33.5 -66.5t11.5 -76.5q0 -64 -24 -113.5t-66.5 -83.5t-98.5 -51t-121 -17q-74 0 -128.5 19.5t-92.5 55.5t-58 88q-21 53 -26 118h102q3 -40 16 -72.5t38.5 -57t63.5 -37.5q36 -13 85 -13q43 0 81.5 11.5t66.5 34.5 t44 55.5t16 72.5q0 52 -21 84.5t-55.5 51t-78.5 25t-90 8.5v75zM1549 0h-115v172h-405v121l369 563h151v-573h99v-111h-99v-172zM1434 744l-299 -461h299v461zM1327 1481h116l-838 -1532h-118z" />
<glyph unicode="&#xd7;" horiz-adv-x="1253" d="M199 841l109 114l325 -333l331 333l108 -113l-330 -332l336 -334l-111 -111l-333 338l-326 -337l-105 110l325 334z" />
<glyph unicode="&#xf7;" horiz-adv-x="1253" d="M146 450v129h981v-129h-981zM638 755q-25 0 -46.5 7.5t-37 23t-25.5 36t-10 47.5t10 48t25.5 35.5t37 22.5t44.5 8q25 0 45.5 -8t37.5 -23.5t26.5 -36t9.5 -46.5q0 -25 -9.5 -45t-26.5 -35.5t-37.5 -24.5t-43.5 -9zM638 40q-25 0 -46.5 7.5t-37 22.5t-25.5 35.5t-10 46.5 q0 27 10 48.5t25.5 35t37 21.5t44.5 8q25 0 45.5 -8t37.5 -21.5t26.5 -35t9.5 -48.5q0 -24 -9.5 -45t-26.5 -35.5t-37.5 -23t-43.5 -8.5z" />
<glyph unicode="&#xe00;" />
<glyph unicode="&#xe01;" horiz-adv-x="1304" d="M946 0v842q0 45 -17 95t-55 92.5t-98.5 69.5t-147.5 27q-72 0 -130 -21t-98 -51t-60 -63t-20 -58h231v-66q-58 -20 -96.5 -48.5t-61.5 -64.5t-31.5 -79.5t-8.5 -90.5v-584h-154v554q0 62 8.5 106t22 75.5t31.5 52.5q16 22 35 41h-148q-5 58 9 112t44 101.5t73 86t98.5 67 t120 44t135.5 15.5q127 0 215.5 -35.5t146 -93t84 -133t26.5 -154.5v-839h-154z" />
<glyph unicode="&#xe02;" horiz-adv-x="1162" d="M956 0h-670v454q0 59 22 102t52.5 80t67.5 71t68 71t51.5 80.5t20.5 102.5q0 37 -14.5 68t-37.5 52.5t-54 35t-65 15.5q22 -12 37.5 -28.5t23 -35t10.5 -39t3 -42.5q0 -43 -13 -80.5t-38.5 -65.5t-62.5 -45t-86 -17q-55 0 -95 18.5t-68 49.5t-41 72.5t-13 87.5 q0 43 17.5 86.5t56 78.5t98.5 57.5t144 22.5q72 0 131.5 -21.5t101.5 -60t65 -91.5t23 -118t-18.5 -115.5t-46 -94t-60 -80.5t-60 -72t-46 -70.5t-18.5 -74.5v-322h359v1108h155v-1240zM354 980.5q0 18.5 -7 36.5t-18.5 30.5t-28.5 20t-35 7.5q-20 0 -36 -7.5t-28 -20 t-18 -30.5t-6 -36q0 -39 24 -65t64 -26q18 0 35 7t28.5 19.5t18.5 29t7 35z" />
<glyph unicode="&#xe03;" horiz-adv-x="1276" d="M1066 0h-696v467q0 63 24.5 111.5t61.5 89t80 77.5t79 77t61 86q25 47 25 105q0 16 -2.5 31.5t-3.5 24.5q-4 12 -7 24l-114 -160h-41q-3 6 -11 21t-18.5 29.5t-23 28.5t-18.5 20q6 -40 -6 -77t-40 -66.5t-68 -46.5t-89 -17q-43 0 -81 17t-65 46.5t-43 68t-16 81.5 q0 46 14.5 86t42.5 68t66.5 44t84.5 16q43 0 82 -8.5t75.5 -27.5t70.5 -52q34 -34 66 -80l112 156h111q13 -19 22 -48t14.5 -60.5t8.5 -63.5q3 -30 3 -55q0 -64 -22.5 -117.5t-56 -98t-72 -83.5t-72.5 -77.5t-57 -80.5t-23 -89v-335h388v1108h154v-1240zM262 942 q31 0 52.5 14t32 35.5t10.5 46.5t-10.5 45.5t-31.5 34.5q-22 14 -53 14t-52.5 -14t-31.5 -34.5t-10 -45.5t10 -46.5t31.5 -35.5t52.5 -14z" />
<glyph unicode="&#xe04;" horiz-adv-x="1396" d="M1027 0v822q0 65 -22 120.5t-65.5 95.5t-105 64t-138.5 24q-71 0 -132.5 -23t-106 -64t-71 -96.5t-26.5 -120.5v-200q27 54 60 102.5t73.5 85.5t89 58.5t104.5 21.5q49 0 87 -15.5t64.5 -43t40.5 -63t14 -78.5t-14 -79.5t-38.5 -63t-61.5 -42t-83 -15.5q-31 0 -61.5 9 t-57 27.5t-45 46.5t-24.5 61q-28 -36 -52.5 -81.5t-43.5 -98t-31 -111.5q-11 -57 -11 -121v-222h-154v822q0 93 37 173t101.5 137.5t152 90t186.5 32.5q108 0 197 -32.5t154 -90t101 -136.5q36 -81 36 -174v-822h-154zM699 593q23 0 40 8.5t28.5 20.5t17.5 30q7 16 7 35 q0 18 -6.5 35t-18 31t-29 21.5t-39.5 7.5q-24 0 -42.5 -7.5t-31 -21.5t-18.5 -31t-6 -35q0 -19 6 -36t18.5 -29t31 -20.5t42.5 -8.5z" />
<glyph unicode="&#xe05;" horiz-adv-x="1430" d="M1061 0v996q0 36 -8.5 60.5t-24.5 38.5t-37.5 21t-48.5 7q-24 0 -47 -13.5t-44 -35t-38.5 -49t-30.5 -58.5h-107q-13 28 -30 56.5t-37 50.5t-44.5 35.5t-49.5 13.5q-27 0 -55 -8t-48 -24t-33 -39q-15 -23 -15 -56v-391q27 56 65.5 104.5t83.5 85.5t96 58.5t103 21.5 q50 0 86 -15.5t61.5 -41.5t38 -63t12.5 -80.5t-13.5 -80.5t-38.5 -63t-62 -42t-84 -16q-29 0 -59 10t-56 28.5t-45 45.5q-18 28 -26 62q-28 -37 -56.5 -82.5t-50 -97.5t-35 -111.5t-13.5 -122.5v-205h-154v996q0 65 26 113.5t67.5 81t91.5 48.5t96 16q45 0 83.5 -15.5 t68 -39t51 -51.5t30.5 -56q11 25 31.5 54.5t51.5 52.5t68.5 39t82.5 16q51 0 96.5 -15.5t80 -47t54.5 -80.5t20 -116v-996h-154zM711 573q25 0 43 8.5t29.5 21.5t17.5 30.5t6 36t-6 35.5t-17.5 30t-30.5 23q-17 9 -42 9q-23 0 -40.5 -9.5t-28.5 -22.5t-17 -30.5t-6 -34.5 q0 -19 6 -36.5t17 -30.5t28.5 -21.5t40.5 -8.5z" />
<glyph unicode="&#xe06;" horiz-adv-x="1384" d="M1026 0q-30 46 -77 90t-104 83.5t-122 70t-132 52.5q0 -13 2 -25q0 -11 0.5 -25.5t0.5 -29.5q0 -53 -15 -96t-43.5 -72.5t-68 -46t-87.5 -16.5q-57 0 -100 19t-73 50.5t-44.5 73t-14.5 88.5q0 49 17 90.5t47.5 72.5t70.5 48.5t87 17.5q15 0 31 1q18 1 33 -1v148 q0 48 20 82.5t50 63t65 56t65.5 58.5t50.5 69.5t20 93.5q0 10 -1.5 23t-1.5 25q0 14 -3 29l-111 -160h-40q-3 6 -12 20t-21.5 28t-24.5 26q-13 12 -19 19q6 -40 -6 -76.5t-40 -65t-68.5 -45.5t-90.5 -17q-43 0 -80.5 17t-65.5 46.5t-43 66.5q-15 40 -15 83q0 46 15 85.5 t43 69.5t65.5 46t84.5 16q43 0 82 -8.5t77 -27.5t72 -52q35 -34 69 -80l114 156h100q12 -19 21.5 -46t16.5 -56t10 -58q3 -27 3 -51q0 -68 -18.5 -116.5t-46.5 -84.5t-58.5 -64t-58.5 -54t-46.5 -55.5t-18.5 -67.5v-159q48 -9 92 -23t84 -31t74 -34.5t61 -34.5 q68 -40 120 -83v1018h156v-1240h-149zM273 939q23 0 40 8.5t29 22t17.5 30t5.5 35.5q0 18 -5.5 34.5t-17.5 29.5t-29 21.5t-40 8.5q-25 0 -42.5 -8.5t-30 -21.5t-18.5 -30q-6 -16 -6 -34q0 -19 6 -35.5t18.5 -30t30 -22t42.5 -8.5zM377 117q22 0 39 8.5t28.5 21.5t17 31.5 t5.5 37.5q0 18 -5.5 35t-17 31t-28 22.5t-39.5 8.5q-24 0 -43.5 -8.5t-31.5 -22.5t-18.5 -31t-6.5 -35q0 -19 6.5 -37.5t18.5 -31.5t31.5 -21.5t43.5 -8.5z" />
<glyph unicode="&#xe07;" horiz-adv-x="1121" d="M206 972q36 -86 72 -190t70.5 -215t65 -223.5t51.5 -214.5l294 3v710q-7 -4 -20 -7q-9 -3 -20.5 -5.5t-22.5 -2.5q-49 0 -90.5 16t-72.5 44t-48 67t-17 87q0 46 17 86t48 68t72.5 44t90.5 16q59 0 100.5 -20t67.5 -53t38.5 -76t12.5 -90v-1016h-569q-24 120 -58.5 250 t-75 259t-82 247.5t-81.5 215.5h157zM690 942q25 0 41.5 8.5t29 22t18.5 31t6 36t-6 35.5t-18.5 30t-29 22.5t-41.5 9.5t-43.5 -9.5t-30 -22.5t-17.5 -31t-6 -34q0 -19 6 -36.5t17.5 -31t30 -22t43.5 -8.5z" />
<glyph unicode="&#xe08;" horiz-adv-x="1195" d="M1010 835q-1 -25 -5 -74.5t-8.5 -113t-11 -137t-12.5 -143.5q-14 -170 -29 -367h-419q0 15 -1.5 46t-4.5 71t-7 84.5t-7 88t-8 80.5q-4 37 -7 64q-25 -14 -51 -20.5t-54 -6.5q-46 0 -83 15t-63 43t-40 65t-14 80q0 40 15.5 75.5t43 63t65 43t81.5 15.5q55 0 96 -18.5 t68.5 -49.5t41.5 -71t20 -81q3 -34 7.5 -75.5t9.5 -85.5t9.5 -88.5t8 -84.5t6 -73.5t4.5 -53.5h144q2 28 5 72.5t7.5 97t8.5 112t8 117t8.5 111.5t7.5 98t4.5 73t1.5 38q0 62 -24.5 113.5t-67.5 88.5t-98.5 56.5t-118.5 19.5q-65 0 -119.5 -17t-94.5 -48.5t-65 -75 t-31 -95.5h-160q6 74 37 140t87 117t141 81t202 30q104 0 189.5 -28.5t147 -79.5t96.5 -121.5t35 -156.5q0 -10 -1 -17.5t-1 -16.5zM392.5 508q24.5 0 42.5 8t29.5 21.5t17 30.5t5.5 35.5t-5.5 35.5t-17 31t-30 21.5t-41.5 7.5q-25 0 -42.5 -7.5t-30 -21.5t-18.5 -31 t-6 -35.5t6 -35.5t18.5 -30.5t30 -21.5t42 -8z" />
<glyph unicode="&#xe09;" horiz-adv-x="1282" d="M1164 176q0 -37 -13 -72t-38.5 -62t-65.5 -43.5t-92 -16.5q-53 0 -91.5 16t-63 43t-36.5 60q-12 31 -12 65q0 37 9 65q0 5 0.5 7t1.5 3.5t1 3t3 4.5q-26 -12 -62.5 -36.5t-71.5 -58.5t-64.5 -73t-41.5 -81h-154v400q-16 -6 -36 -7.5t-31 -1.5q-47 0 -84 15.5t-62.5 43 t-38.5 64.5t-13 79q0 40 15.5 76t43 63t63.5 43.5t80 16.5q55 0 96.5 -18t68.5 -48t39 -69q13 -41 13 -84v-257q0 -25 -1 -46t-2 -36q-2 -18 -3 -32q24 35 64 66t86.5 54t92.5 40t85 26q33 6 57 21.5t39.5 38.5t22.5 54t7 65v288q0 49 -22.5 96t-65.5 85.5t-105.5 62.5 t-143.5 24q-67 0 -126 -17t-104.5 -48.5t-74 -75t-33.5 -95.5h-164q6 74 41.5 140t97.5 117t152 81t207 30q81 0 148.5 -15.5t122 -42.5t97 -63t70.5 -78.5t43 -87.5q15 -44 15 -90v-333q0 -65 -23 -108t-60 -70q33 -13 55 -34.5t36 -47t20 -54t6 -55.5zM1050 176 q0 21 -7.5 39.5t-20 32.5t-29.5 21.5t-38.5 7.5t-38.5 -7.5t-29 -21.5t-18.5 -32.5t-6.5 -39.5q0 -20 6.5 -38t18.5 -31t30 -21q16 -7 38 -7q20 0 37.5 7.5t30 20.5t20 31t7.5 38zM313 493q23 0 40 7.5t29 21.5t17.5 31t5.5 35.5t-5.5 35.5t-17.5 30.5t-29 21.5t-40 8 q-25 0 -42.5 -8t-30 -21.5t-18.5 -30.5t-6 -35.5t6 -35.5t18.5 -31t30 -21.5t42.5 -7.5z" />
<glyph unicode="&#xe0a;" horiz-adv-x="1185" d="M1104 1394q-6 -77 -38.5 -138.5t-74.5 -105.5t-88.5 -69t-81.5 -31q43 -12 77 -43q15 -12 28 -31.5t24 -44.5t18 -56t7 -71v-804h-689v454q0 59 22 102t52.5 80t67.5 71t68 71t51.5 80.5t20.5 102.5q0 37 -14.5 68t-37.5 52.5t-54 35t-65 15.5q22 -12 37.5 -28.5t23 -35 t10.5 -39t3 -42.5q0 -43 -13 -80.5t-38.5 -65.5t-62.5 -45t-86 -17q-55 0 -95 18.5t-68 49.5t-41 72.5t-13 87.5q0 43 17.5 86.5t56 78.5t98.5 57.5t144 22.5q100 0 174.5 -40t114.5 -111q54 9 102.5 34.5t84 63.5t58.5 88t29 107h171zM354 980.5q0 18.5 -7 36.5t-18.5 30.5 t-28.5 20t-35 7.5q-20 0 -36 -7.5t-28 -20t-18 -30.5t-6 -36q0 -39 24 -65t64 -26q18 0 35 7t28.5 19.5t18.5 29t7 35zM824 849q0 30 -11 54t-29.5 40t-42 24.5t-50.5 13.5v-20q0 -65 -18.5 -115.5t-46 -94t-60 -80.5t-60 -72t-46 -70.5t-18.5 -74.5v-322h382v717z" />
<glyph unicode="&#xe0b;" horiz-adv-x="1276" d="M1195 1394q-6 -77 -38.5 -138.5t-74.5 -105.5t-88.5 -69t-81.5 -31q43 -12 77 -43q15 -12 29 -31.5t24.5 -44.5t17 -56t6.5 -71v-804h-696v467q0 63 24.5 111.5t61.5 89t80 77.5t79 77t61 86q25 47 25 105q0 16 -2.5 31.5t-3.5 24.5q-4 12 -7 24l-114 -160h-41 q-3 6 -11 21t-18.5 29.5t-23 28.5t-18.5 20q6 -40 -6 -77t-40 -66.5t-68 -46.5t-89 -17q-43 0 -81 17t-65 46.5t-43 68t-16 81.5q0 46 14.5 86t42.5 68t66.5 44t84.5 16q43 0 82 -8.5t75.5 -27.5t70.5 -52q34 -34 66 -80l112 156h111q13 -19 22 -51t17 -66q43 17 79 43 t62.5 60.5t44 77t22.5 90.5h169zM262 942q31 0 52.5 14t32 35.5t10.5 46.5t-10.5 45.5t-31.5 34.5q-22 14 -53 14t-52.5 -14t-31.5 -34.5t-10 -45.5t10 -46.5t31.5 -35.5t52.5 -14zM912 847q0 18 -6.5 38.5t-18.5 37t-28.5 30.5t-34.5 22q-6 -59 -31.5 -106t-59.5 -88.5 t-70 -78.5t-67.5 -74t-51.5 -77t-20 -84v-335h388v715z" />
<glyph unicode="&#xe0c;" horiz-adv-x="1814" d="M1441 0q-55 52 -99.5 87.5t-82.5 62t-72 42.5q-35 17 -71 30q4 -50 -8 -93.5t-38 -75t-67 -50t-94 -18.5q-48 0 -86 15t-64 43t-40.5 65.5t-14.5 84t16 84t44.5 64t65.5 40t79 13.5q10 0 18.5 -1.5t14.5 -2.5q7 -3 13 -5q-3 15 -3 29l-4 26t-2 20v369q0 27 -5 60 t-18.5 66.5t-36 64t-57 53.5t-81.5 38t-110 15q-56 0 -102 -10t-81 -26.5t-60 -37t-42 -42t-25 -41.5t-6 -36h229v-69q-58 -20 -96.5 -48.5t-61 -64.5t-31 -79.5t-8.5 -90.5v-199q9 5 20 8q9 3 21 5t21 2q44 0 82 -13.5t65.5 -40.5t43 -65t15.5 -86q0 -46 -14.5 -83.5 t-41.5 -65.5t-65 -43q-39 -15 -85 -15q-59 0 -99.5 19t-67 50.5t-38.5 74.5t-12 90v329q0 65 8.5 109.5t22 75.5t31.5 52q16 22 35 40h-148q-9 82 21.5 160t95.5 138t158.5 96t214.5 36q90 0 160.5 -19t121 -53t86 -77t56.5 -91t30 -97t9 -93v-380q0 -34 1.5 -58t1.5 -33 q25 -6 63.5 -21.5t85.5 -40t97.5 -57t97.5 -72.5v1077h157v-1240h-164zM912 99q30 0 50.5 13.5t31 34.5t10.5 45.5t-10.5 45.5t-31 34.5t-50.5 13.5q-33 0 -54.5 -13.5t-32 -34.5t-10.5 -45.5t10.5 -45.5t32 -34.5t54.5 -13.5zM416 99q31 0 52.5 13.5t32 34.5t10.5 45.5 t-10.5 45.5t-31.5 35q-22 13 -53 13t-52.5 -13.5t-31.5 -34.5t-10 -45.5t10 -45.5t31.5 -34.5t52.5 -13.5z" />
<glyph unicode="&#xe0d;" horiz-adv-x="1746" d="M902 0v852q0 24 -6 54t-20 61t-37 59.5t-55 51t-77 35.5t-102 13q-71 0 -124 -19.5t-88.5 -48.5t-53.5 -61q-19 -33 -19 -58v-3h231v-66q-58 -20 -96.5 -48.5t-61.5 -64.5t-31.5 -79.5t-8.5 -90.5v-190q7 3 20 6q9 4 20.5 6t22.5 2q49 0 90.5 -15.5t71 -44t46.5 -67 t17 -86t-17 -87t-46.5 -68t-71 -43.5t-90.5 -15q-59 0 -99.5 20t-67 53.5t-38.5 77t-12 89.5v323q0 65 8.5 109.5t22 77.5t31.5 56q16 22 35 41h-148q0 6 -1 13.5t-1 15.5q0 74 34 145.5t95 127t145.5 88.5t184.5 33q83 0 149.5 -18.5t116.5 -50t85.5 -73t57 -88t32 -93 t10.5 -90.5v-710h332v1108h150v-1240h-636zM1526 -139q0 -33 -9 -71.5t-30 -77t-53.5 -74t-81.5 -62.5q-41 -21 -96 -32.5t-112 -11.5q-46 0 -96 10.5t-91 34t-67 62t-26 93.5q0 34 11.5 63t31.5 50t49.5 32.5t66.5 11.5t64.5 -12.5t46 -34t29 -46.5t10.5 -52 q0 -47 -16.5 -75.5t-44.5 -41.5h15.5h21.5q15 0 31.5 1t34 4t34.5 8.5t32 14.5q51 32 78 87t27 118v11h140v-10zM1023 -328q15 0 27.5 5.5t21 14.5t12 21.5t3.5 24.5q0 13 -3.5 25t-12 21.5t-21 14.5t-27.5 5q-16 0 -28 -5t-20.5 -14.5t-12.5 -21.5t-4 -25q0 -12 4 -24.5 t12.5 -21.5t20.5 -14.5t28 -5.5zM422 102q25 0 43.5 7.5t30 21.5t17.5 31t6 35.5t-6 35t-17.5 30.5t-30 22.5t-43.5 8.5q-23 0 -41 -8.5t-28.5 -22.5t-16.5 -30.5t-6 -35t6 -35.5t16.5 -31t28.5 -21.5t41 -7.5z" />
<glyph unicode="&#xe0e;" horiz-adv-x="1382" d="M1175 -216q0 -52 -16 -93t-44 -68.5t-66.5 -42t-81.5 -14.5q-37 0 -67 9t-51.5 21.5t-36 26.5t-22.5 23q-20 -28 -48 -49q-24 -19 -58 -33t-80 -14q-40 0 -75.5 14t-64 40t-45.5 60t-17 73q0 37 14 71.5t39 59t60.5 40t78.5 15.5q34 0 62 -7.5t51 -20t41.5 -29.5 t32.5 -35q4 21 9 49t6 46h110q-5 -43 -14.5 -78.5t-18.5 -60.5q-11 -27 -23 -50q12 -11 23 -19t22 -14t21.5 -9t24.5 -3q38 0 60 25q22 27 22 67v32.5v78v112.5v136.5v149.5v150.5v140.5v120.5v87v43.5q0 30 -8 63.5t-23.5 65.5t-40 61.5t-58.5 52t-78.5 35.5t-99.5 13 q-77 0 -137.5 -21t-100.5 -50t-61.5 -62.5t-22.5 -59.5l254 -6v-78q-40 -19 -65 -43t-38.5 -51.5t-19.5 -56.5q-5 -27 -5 -57v-416q0 -46 -12.5 -89.5t-38.5 -77t-68 -53.5q-40 -20 -98 -20q-49 0 -91 15t-71 43.5t-46 68t-17 87.5q0 46 17 86t46 68.5t70 43.5q43 16 92 16 q11 0 21.5 -2.5t19.5 -5.5q11 -3 20 -8v231q0 42 5.5 72t15.5 53t24 41t32 31l-212 4v14v16q0 77 35.5 148t100 126.5t155.5 88.5t199 33q83 0 149 -19t117 -51.5t88 -74t59 -88.5t33 -95.5t11 -91.5v-1051zM296 105q23 0 39 7.5t28.5 21.5t18 31t5.5 35.5t-5.5 35.5 t-18 30.5t-29.5 21.5t-38 8q-25 0 -43.5 -8t-31 -21.5t-18.5 -30.5t-6 -35.5t6 -35.5t18.5 -31t31 -21.5t43.5 -7.5zM724 -266q-5 12 -15.5 26.5t-26 28.5t-36.5 23t-45 9q-20 0 -37 -7.5t-29.5 -19t-19.5 -26t-7 -28.5t8 -29.5t20 -28t29 -20t39 -7.5q24 0 42.5 7t34 18.5 t26.5 26t17 27.5z" />
<glyph unicode="&#xe0f;" horiz-adv-x="1382" d="M1023 835q0 30 -8 63.5t-23.5 65.5t-40 61.5t-58.5 52t-78.5 35.5t-99.5 13q-77 0 -137.5 -21t-100.5 -50t-61.5 -62.5t-22.5 -59.5l254 -6v-78q-40 -19 -65 -43t-38.5 -51.5t-19.5 -56.5q-5 -27 -5 -57v-416q0 -46 -12.5 -89.5t-38.5 -77t-68 -53.5q-40 -20 -98 -20 q-49 0 -91 15t-71 43.5t-46 68t-17 87.5q0 46 17 86t46 68.5t70 43.5q43 16 92 16q11 0 21.5 -2.5t19.5 -5.5q11 -3 20 -8v231q0 42 5.5 72t15.5 53t24 41t32 31l-212 4v14v16q0 77 35.5 148t100 126.5t155.5 88.5t199 33q83 0 149 -19t117 -51.5t88 -74t59 -88.5t33 -95.5 t11 -91.5v-1092q0 -42 -11 -76t-33 -58.5t-57.5 -38.5t-81.5 -14q-19 0 -38 6.5t-35.5 15.5t-29.5 22q-14 12 -20 26l-68 98l-99 -164h-108l-72 92q-23 -28 -54 -52q-24 -19 -60.5 -34.5t-81.5 -15.5q-40 0 -73.5 14t-60.5 38.5t-43 57.5q-15 32 -15 72q0 37 13 71.5 t37.5 60t58.5 40t77 14.5q36 0 64.5 -6.5t50 -18.5t40 -28t30.5 -34q12 24 17 50.5t8 44.5h104q-3 -43 -12 -77.5t-18 -57.5q-13 -28 -25 -48l62 -76l107 179h111l74 -117q11 -19 24 -25.5t26 -6.5q15 0 27.5 11.5t12.5 37.5v1089zM456 -271q-12 15 -25.5 32t-28.5 29.5 t-34.5 20t-41.5 7.5q-20 0 -36 -7.5t-26.5 -20t-17 -26t-6.5 -29.5q0 -14 6.5 -28.5t17 -26t26 -18.5t37 -7t41.5 7t36 18.5t29.5 24t22.5 24.5zM296 105q23 0 39 7.5t28.5 21.5t18 31t5.5 35.5t-5.5 35.5t-18 30.5t-29.5 21.5t-38 8q-25 0 -43.5 -8t-31 -21.5t-18.5 -30.5 t-6 -35.5t6 -35.5t18.5 -31t31 -21.5t43.5 -7.5z" />
<glyph unicode="&#xe10;" horiz-adv-x="1202" d="M1038 -308q0 -51 -15.5 -98.5t-48 -84t-80 -58t-112.5 -21.5q-26 0 -49 4.5t-42.5 14t-34.5 19.5t-25 21l-55 66l-68 -97h-84q-17 18 -30 37q-11 15 -21.5 30.5t-15.5 23.5q-12 -14 -27.5 -30t-37 -30t-46 -22.5t-55.5 -8.5q-43 0 -74.5 15.5t-52.5 40t-31 57t-10 63 t10 61.5t30 55.5t51 41t74 16.5q55 0 92 -24t62 -58q12 18 15 39.5t3 35.5h105q-1 -29 -10 -59q-8 -28 -18 -53q-10 -28 -23 -56l48 -64l91 135h35q28 -30 50 -55q18 -22 36.5 -40.5l24.5 -24.5q16 -15 39 -30q23 -14 57 -14q15 0 32 5t30 16t23 25.5t13 34.5q-12 -6 -26 -9 t-29 -3q-31 0 -60.5 10.5t-51.5 30.5t-36 50q-14 29 -14 69q0 37 13 68t36 52.5t52.5 33t63.5 11.5q98 0 147.5 -61t49.5 -181zM353 437q24 0 42 8.5t29.5 21.5t17 31t5.5 36.5t-5.5 35.5t-17 30t-30 22t-41.5 9q-25 0 -42.5 -9t-29 -22t-17 -31t-5.5 -35q0 -18 5.5 -36 t17 -31t29 -21.5t42.5 -8.5zM844 -299q17 0 29.5 5.5t20.5 15.5t13 22.5t5 24.5t-5 25.5t-13 23.5t-21.5 16t-28.5 6q-19 0 -31 -6t-21.5 -16t-13.5 -23q-3 -14 -3 -26t3.5 -24.5t13 -22.5t21.5 -15.5t31 -5.5zM294 -373q-21 34 -45 56q-21 21 -55 21q-18 0 -31.5 -6 t-22 -16t-11.5 -22q-6 -14 -6 -26.5t4.5 -24.5t12.5 -23t22 -17t32 -6q15 0 30.5 6t28 15t22.5 21t19 22zM865 1053q-49 0 -95 11.5t-94 25.5t-96.5 25.5t-99.5 11.5q-26 0 -54.5 -7.5t-53 -25.5t-43.5 -44.5t-29 -65.5q42 -5 87 -8q38 -3 85 -8q47 -7 93 -13 q60 -9 125 -22.5t126 -36.5q40 -15 74 -36.5t58.5 -51.5t38.5 -69.5t14 -88.5q0 -19 -3 -37l-63 -613h-461q-9 86 -15 160l-6 62t-5.5 57.5t-3 47.5t-0.5 30q-13 -6 -28 -9q-13 -3 -29.5 -5.5t-33.5 -2.5q-51 0 -89 18t-63 47t-37.5 66t-12.5 74t12.5 72.5t38.5 63t63 44.5 t88 17q40 0 75.5 -12t64 -35.5t46.5 -55.5t23 -75l45 -438h192l45 493v11v11q0 52 -26 84.5t-70 53.5q-46 23 -98 33t-103 18q-68 11 -142 18q-74 5 -139 11q-75 6 -149 11v12q0 79 27.5 146.5t77 118.5t117.5 79.5t151 28.5q46 0 97 -8.5t101.5 -19t100 -20t92.5 -9.5 q31 0 57 6t48 19l18 -145q-38 -12 -73 -18.5t-66 -6.5z" />
<glyph unicode="&#xe11;" horiz-adv-x="1442" d="M1072 0v1019q0 34 -9 37q-10 4 -28 -40q-3 -6 -15.5 -29t-31 -60.5t-43 -86t-54 -105.5t-60 -119t-63.5 -123q-110 -219 -251 -493h-160v533q0 54 21.5 98.5t55.5 84t72.5 78t71.5 78.5t55.5 83.5t22.5 97.5q0 10 -1.5 17.5t-3.5 13.5q-3 6 -4 9l-102 -151h-40 q-3 7 -10 20l-14 26t-16 23q-9 12 -17 15q3 -43 -13 -77t-43 -57t-62.5 -35t-70.5 -12q-43 0 -81 15t-65.5 41t-43 61.5t-15.5 78.5q0 46 14.5 85.5t42.5 67t68 43t89 15.5q46 0 86 -14.5t72.5 -38.5t56.5 -54t41 -64l107 159h107q24 -39 35.5 -83t11.5 -91q0 -59 -20 -109 t-50.5 -94.5t-66 -84.5t-66.5 -80t-51 -81t-20 -87v-139q0 -20 -3 -48.5t-6 -56.5q-3 -30 -6 -61q12 31 25 61q10 28 23 59t26 58q29 59 67.5 133t79.5 152.5t79.5 154.5t70.5 138t52 102l23 46q13 24 28.5 46.5t35.5 39.5t43.5 27t54.5 10q34 0 56.5 -12.5t38 -34.5 t21.5 -51.5t6 -66.5v-1087h-154zM262 949q31 0 52.5 13.5t32 35t10.5 46.5t-10.5 46.5t-32 35.5t-52.5 14q-33 0 -54.5 -14t-32 -35.5t-10.5 -46.5t10.5 -46.5t32 -35t54.5 -13.5z" />
<glyph unicode="&#xe12;" horiz-adv-x="1863" d="M1485 0q-57 52 -101 87.5t-81 62t-69 42.5q-33 17 -70 30q3 -50 -7.5 -93.5t-37 -75t-68 -50t-93.5 -18.5q-48 0 -85.5 15t-65.5 43t-41.5 65.5t-13.5 84t16.5 84t44.5 64t65 40t80 13.5h52v596q0 40 -6 66.5t-18.5 42.5t-31 23t-42.5 7q-25 0 -49 -14t-45.5 -36.5 t-39 -51.5t-30.5 -60h-107q-13 28 -30 57t-38.5 52.5t-45 38t-50.5 14.5q-57 0 -80.5 -32.5t-23.5 -106.5v-807l258 307q-30 0 -58 17t-50.5 44t-35.5 61.5t-13 68.5q0 43 16.5 81.5t45 67.5t65.5 46t81 17q43 0 81 -16t65.5 -43t43.5 -65q15 -39 15 -82t-15.5 -80 t-39.5 -68l-447 -539h-169v987q0 73 20.5 123.5t54.5 83t78 47t90 14.5q52 0 90.5 -18.5t67 -44t48 -51.5t31.5 -45q11 17 28.5 44t45.5 52.5t68.5 44t96.5 18.5q49 0 91.5 -16t73 -50t47.5 -83.5t17 -115.5v-642q25 -6 64 -24.5t84.5 -43t92.5 -55.5q49 -31 86 -62v1077 h157v-1240h-163zM682 587q31 0 52 13.5t31 34.5t10 45.5t-10 46t-31 35.5t-52 14q-32 0 -53.5 -14t-32.5 -35.5t-11 -46t11 -45.5t32.5 -34.5t53.5 -13.5zM961 99q31 0 51 13.5t30.5 34.5t10.5 45.5t-10.5 45.5t-30.5 34.5t-51 13.5q-32 0 -54.5 -13.5t-33.5 -34.5 t-11 -45.5t11 -45.5t33.5 -34.5t54.5 -13.5z" />
<glyph unicode="&#xe13;" horiz-adv-x="1797" d="M1617 176q0 -37 -14.5 -72t-41.5 -62t-65.5 -43.5t-87.5 -16.5q-53 0 -91.5 16t-63 43t-36.5 60q-13 31 -13 65q0 17 3 33.5t10 31.5v7t0.5 3.5t1.5 3t4 4.5q-26 -12 -56 -38t-58.5 -60t-52.5 -72.5t-40 -78.5h-138v845q0 25 -4.5 55t-17 61t-32.5 61t-52.5 53t-75.5 37 t-102 14q-72 0 -124.5 -20t-85.5 -48.5t-49 -61t-15 -57.5l231 -3v-66q-58 -20 -97.5 -48.5t-61.5 -64.5t-31.5 -79.5t-9.5 -90.5q0 -13 1 -33.5t1.5 -45t0.5 -54v-57.5q9 5 22 8q9 3 20 5.5t23 2.5q49 0 90.5 -15.5t71 -44t45.5 -68t16 -87t-16 -87t-45.5 -68t-71 -43.5 t-90.5 -15q-59 0 -100.5 20t-69 53.5t-40 77t-12.5 89.5v323q0 65 9.5 111t23 78.5t30.5 54t36 40.5h-148q-3 86 26 163t87.5 135.5t142.5 91.5t190 33q84 0 148.5 -18.5t114 -50t83 -73t53.5 -88t29.5 -93t9.5 -90.5v-517v-45.5t-3 -36.5q-3 -18 -3 -32q24 34 55.5 62.5 t68 51.5t75 38.5t76.5 24.5q34 6 57 21.5t38.5 38.5t22.5 54t7 65v673h156v-695q0 -65 -23.5 -108t-58.5 -70q31 -13 52.5 -34.5t36 -47t21.5 -54t7 -55.5zM1503 176q0 21 -7.5 39.5t-20 32.5t-29.5 21.5t-38.5 7.5t-38.5 -7.5t-29.5 -21.5t-19 -32.5t-6.5 -39.5 q0 -20 6.5 -38t19 -31t29.5 -20.5t39 -7.5q20 0 37.5 7.5t30 20.5t20 31t7.5 38zM422 105q32 0 53 13.5t31.5 35.5t10.5 46.5t-10.5 46t-32 35.5t-52.5 14t-51.5 -14t-30.5 -35.5t-10 -46t10 -46.5t30.5 -35.5t51.5 -13.5z" />
<glyph unicode="&#xe14;" horiz-adv-x="1392" d="M1173 0h-155q-2 120 -2 256v123v137v147.5t2 152.5q0 62 -21.5 119t-62.5 98.5t-101 66t-137 26.5q-69 0 -127 -24t-99.5 -65.5t-64.5 -98.5t-23 -122v-611l271 306q-31 0 -60 16.5t-52.5 43.5t-36.5 60.5t-13 67.5q0 43 16.5 82.5t45.5 68t67.5 45.5t81.5 17t81.5 -15.5 t65.5 -43.5t43.5 -64.5t16.5 -81.5q0 -43 -17 -84t-45 -72l-456 -551h-171q0 120 1 205t1 146.5v101.5t0.5 72t0.5 58.5v59.5v76v106q0 93 36.5 173t101 137t151 88.5t184.5 31.5q108 0 195.5 -30t150 -85.5t97 -134t34.5 -176.5v-829zM699 605q31 0 52.5 14t32.5 35 t11 45.5t-11 46t-32.5 35.5t-52.5 14t-52.5 -14t-31.5 -35.5t-10 -46t10 -45.5t31.5 -35t52.5 -14z" />
<glyph unicode="&#xe15;" horiz-adv-x="1427" d="M1050 0v1010q0 26 -9 48t-24.5 38t-35.5 24.5t-42 8.5q-47 0 -91 -39.5t-86 -125.5h-97q-21 43 -42.5 74t-42.5 51t-43.5 30t-48.5 10q-24 0 -43.5 -9.5t-35 -25.5t-23 -37.5t-7.5 -46.5v-827l283 297q-31 0 -60 16.5t-52 43.5t-36.5 60.5t-13.5 67.5q0 47 16.5 85.5 t45.5 66t67.5 43t81.5 15.5q44 0 81.5 -15.5t64.5 -41.5t42 -63q16 -37 16 -80q0 -47 -15 -88q-16 -42 -44 -73l-459 -517h-177v987q0 68 21 119t56.5 84t81.5 49t97 16t89.5 -15.5t66 -39t47.5 -53t32 -57.5q16 28 37.5 58t50 54t66 38.5t87 14.5t95.5 -16t81.5 -50 t57 -83.5t21.5 -115.5v-990h-157zM708 573q31 0 52.5 14.5t32.5 36t11 46.5t-11 46.5t-31 35.5q-23 15 -54 15q-30 0 -52 -14.5t-32 -36t-10 -46.5t10 -46.5t32 -36t52 -14.5z" />
<glyph unicode="&#xe16;" horiz-adv-x="1307" d="M946 0v842q0 45 -17 95t-55 92.5t-98.5 69.5t-147.5 27q-72 0 -130 -21t-98 -51t-60 -63t-20 -58h231v-66q-58 -20 -96.5 -48.5t-60 -64.5t-31 -79.5t-10.5 -90.5v-187q7 5 20 8q9 3 20.5 5.5t22.5 2.5q49 0 90.5 -15.5t71 -44t46.5 -68t17 -87t-17 -87t-46.5 -68 t-71 -43.5t-90.5 -15q-59 0 -99.5 20t-67 53.5t-38.5 77t-12 89.5v329q0 62 8.5 106t22 75.5t31.5 52.5q16 22 35 41h-148q-5 58 9 112t44 101.5t73 86t98.5 67t120 44t135.5 15.5q127 0 215.5 -35.5t146 -93t84 -133t26.5 -154.5v-839h-154zM422 105q32 0 53.5 13.5 t32.5 35.5t11 46.5t-11 46t-32.5 35.5t-53.5 14q-31 0 -51 -14t-30.5 -35.5t-10.5 -46t10.5 -46.5t30.5 -35.5t51 -13.5z" />
<glyph unicode="&#xe17;" horiz-adv-x="1393" d="M1026 0v1004q0 46 -21.5 76t-63.5 30q-35 0 -73.5 -30t-82 -102t-92.5 -191t-108 -294q-4 -16 -12.5 -43.5t-16.5 -60.5t-17 -71t-17 -71.5t-12.5 -63t-4.5 -47.5v-136h-154v845q-9 -4 -21 -7q-10 -3 -20.5 -6t-21.5 -3q-49 0 -90 15t-71 43t-46 67t-16 87q0 49 16 88.5 t46 67t70 43t91 15.5q58 0 99 -20t67 -53t38.5 -76t12.5 -90v-212l-12 -208q41 142 91 262.5t109 209.5t125 139.5t143 50.5q52 0 93.5 -16t69.5 -45.5t42.5 -72.5t14.5 -95v-1029h-155zM281.5 942q24.5 0 42.5 8.5t29.5 22t17 31t5.5 36t-5.5 35.5t-17 30t-30 22.5 t-41.5 9.5q-25 0 -42.5 -9.5t-30 -22.5t-18.5 -31t-6 -34q0 -19 6 -36.5t18.5 -31t30 -22t42 -8.5z" />
<glyph unicode="&#xe18;" horiz-adv-x="1168" d="M995 1078q-31 -11 -57 -15.5t-54 -4.5q-43 0 -81.5 10t-80 22.5t-88 23t-101.5 15.5h-9q-28 0 -57.5 -8t-55.5 -24t-47.5 -42t-33.5 -65l98 -6q22 -1 43.5 -3t43 -5t42.5 -5q19 -1 37 -4q107 -17 177 -44.5t111.5 -67t58.5 -91t17 -117.5v-647h-745v735h155v-609h436v524 q0 49 -17 78.5t-48 48t-72.5 29t-90.5 19.5q-31 7 -66.5 11.5t-71.5 9t-71 6.5q-36 1 -68 4q-77 5 -151 8q0 6 -1 11.5t-1 11.5q0 79 28 146t77 116t117.5 77.5t150.5 30.5h8q46 0 93.5 -10t94 -21.5t89.5 -21.5t80 -10q25 0 48 6q23 4 41 20l22 -142v0z" />
<glyph unicode="&#xe19;" horiz-adv-x="1399" d="M1229 202q0 -46 -14.5 -85.5t-43 -70.5t-71 -47.5t-99.5 -16.5q-60 0 -104 19t-71.5 49t-40.5 68q-13 39 -13 73q-2 25 4 43q3 5 4 7t1.5 5t2 8t6.5 11q-35 -14 -77 -43.5t-83.5 -65.5t-78.5 -77.5t-61 -78.5h-139v839q-9 -4 -21 -7q-10 -3 -20.5 -6.5t-21.5 -3.5 q-49 0 -90 16.5t-71 45t-46 67.5t-16 87q0 46 16 86t46 68t70 44t91 16q58 0 99 -20t67 -53t38.5 -76t12.5 -90v-676v-45t-3 -38q-3 -20 -3 -35q46 51 103 87t109.5 60.5t98 37t71.5 15.5q37 5 63 21t44.5 39t28 52.5t9.5 64.5v644h155v-647q0 -25 -4 -52.5t-11.5 -54.5 t-20 -51t-30.5 -38q26 -12 47 -32t35.5 -46t23 -56t8.5 -61zM281.5 939q24.5 0 42.5 8.5t29.5 22t16.5 30.5q6 16 6 35q0 18 -5.5 35t-17 31t-30 22.5t-41.5 8.5q-25 0 -42.5 -8.5t-30 -22.5t-18.5 -31t-6 -35q0 -19 6 -35.5t18.5 -30t30 -22t42 -8.5zM1103 199 q0 20 -8.5 38.5t-22.5 32t-32.5 21.5t-38.5 8t-38.5 -8t-32.5 -21.5t-22.5 -32t-8.5 -38.5q0 -22 8.5 -40.5t22.5 -31.5t32.5 -20.5t38.5 -7.5t38.5 7.5t32.5 20.5t22.5 31.5t8.5 40.5z" />
<glyph unicode="&#xe1a;" horiz-adv-x="1399" d="M351 0v839q-9 -4 -21 -7q-10 -3 -20.5 -6.5t-21.5 -3.5q-49 0 -90 16.5t-71 45t-46 67.5t-16 87q0 46 16 86t46 68t70 44t91 16q58 0 99 -20t67 -53t38.5 -76t12.5 -90v-887h518v1114h158v-1240h-830zM281.5 939q24.5 0 42.5 8.5t29.5 22t16.5 30.5q6 16 6 35 q0 18 -5.5 35t-17 31t-30 22.5t-41.5 8.5q-25 0 -42.5 -8.5t-30 -22.5t-18.5 -31t-6 -35q0 -19 6 -35.5t18.5 -30t30 -22t42 -8.5z" />
<glyph unicode="&#xe1b;" horiz-adv-x="1406" d="M351 0v839q-9 -4 -21 -7q-10 -3 -20.5 -6.5t-21.5 -3.5q-49 0 -90 16.5t-71 45t-46 67.5t-16 87q0 46 16 86t46 68t70 44t91 16q58 0 99 -20t67 -53t38.5 -76t12.5 -90v-887h527v1611h155v-1737h-836zM281.5 939q24.5 0 42.5 8.5t29.5 22t16.5 30.5q6 16 6 35 q0 18 -5.5 35t-17 31t-30 22.5t-41.5 8.5q-25 0 -42.5 -8.5t-30 -22.5t-18.5 -31t-6 -35q0 -19 6 -35.5t18.5 -30t30 -22t42 -8.5z" />
<glyph unicode="&#xe1c;" horiz-adv-x="1373" d="M976 0l-283 480l-297 -480h-180v1013q0 47 12 90t38.5 76t68 53t99.5 20q50 0 91.5 -16t70.5 -44t45.5 -68t16.5 -86q0 -48 -16.5 -87t-45.5 -67.5t-70.5 -45t-91.5 -16.5q-12 0 -24 3q-10 4 -19 7l-21 7v-643l281 445h88l259 -436v1035h157v-1240h-179zM437 939 q33 0 53.5 15t31.5 35.5t11 46t-11 46.5t-32.5 35.5t-52 14.5t-51.5 -14.5t-31 -35.5t-10 -46.5t10 -46t31 -35.5t51 -15z" />
<glyph unicode="&#xe1d;" horiz-adv-x="1373" d="M976 0l-283 480l-297 -480h-180v1013q0 47 12 90t38.5 76t68 53t99.5 20q50 0 91.5 -16t70.5 -44t45.5 -68t16.5 -86q0 -48 -16.5 -87t-45.5 -67.5t-70.5 -45t-91.5 -16.5q-12 0 -24 3q-10 4 -19 7l-21 7v-643l281 445h88l259 -436v1532h157v-1737h-179zM437 939 q33 0 53.5 15t31.5 35.5t11 46t-11 46.5t-32.5 35.5t-52 14.5t-51.5 -14.5t-31 -35.5t-10 -46.5t10 -46t31 -35.5t51 -15z" />
<glyph unicode="&#xe1e;" horiz-adv-x="1490" d="M1127 0l-322 924l-312 -924h-142v839q-9 -4 -20 -7q-9 -3 -20.5 -6.5t-20.5 -3.5q-50 0 -91.5 16.5t-70.5 45t-46 67.5t-17 87q0 46 17 86t46 68t70 44q42 16 92 16q58 0 98 -20t66 -53t38.5 -76t12.5 -90v-23v-50v-67v-75q0 -90 -3 -199q0 -32 -1.5 -73.5t-4.5 -78.5 q-3 -44 -9 -87l277 817h89l280 -823q-4 46 -7 90q-3 38 -5.5 80.5t-2.5 74.5v641h154v-1240h-145zM282 939q31 0 51.5 15t30.5 35.5t10 46t-10 46.5t-30.5 35.5t-51.5 14.5q-33 0 -54.5 -14.5t-32 -35.5t-10.5 -46.5t10.5 -46t32 -35.5t54.5 -15z" />
<glyph unicode="&#xe1f;" horiz-adv-x="1490" d="M1127 0l-322 924l-312 -924h-142v839q-9 -4 -20 -7q-9 -3 -20.5 -6.5t-20.5 -3.5q-50 0 -91.5 16.5t-70.5 45t-46 67.5t-17 87q0 46 17 86t46 68t70 44q42 16 92 16q58 0 98 -20t66 -53t38.5 -76t12.5 -90v-23v-50v-67v-75q0 -90 -3 -199q0 -32 -1.5 -73.5t-4.5 -78.5 q-3 -44 -9 -87l277 817h89l280 -823q-4 46 -7 90q-3 38 -5.5 80.5t-2.5 74.5v1138h154v-1737h-145zM282 939q31 0 51.5 15t30.5 35.5t10 46t-10 46.5t-30.5 35.5t-51.5 14.5q-33 0 -54.5 -14.5t-32 -35.5t-10.5 -46.5t10.5 -46t32 -35.5t54.5 -15z" />
<glyph unicode="&#xe20;" horiz-adv-x="1390" d="M1019 0v829q0 30 -6.5 64t-21.5 66.5t-39.5 63t-58.5 54t-78.5 36.5t-99.5 13q-77 0 -137.5 -21t-100.5 -50t-61.5 -62.5t-22.5 -59.5l254 -3v-81q-40 -19 -65 -43t-38.5 -51.5t-19.5 -56.5q-5 -27 -5 -57v-416q0 -46 -12.5 -89.5t-38.5 -77t-68 -53.5q-40 -20 -98 -20 q-49 0 -91 15t-71 43.5t-46 68t-17 87.5q0 46 17 86t46 68.5t70 43.5q43 16 92 16q11 0 21.5 -2.5t19.5 -5.5q11 -3 20 -8v231q0 42 5.5 72t15.5 54t24 41.5t32 29.5h-212q-6 54 7.5 107.5t43 101t72.5 87.5t100 70t123.5 47t143.5 17q83 0 149 -19t117 -53t88 -77t59 -91 t33 -97t11 -93v-825h-156zM296 105q30 0 50.5 13.5t30.5 35.5t10 46.5t-10 46t-30.5 35.5t-50.5 14q-33 0 -55 -14t-33 -35.5t-11 -46t11 -46.5t33 -35.5t55 -13.5z" />
<glyph unicode="&#xe21;" horiz-adv-x="1406" d="M1038 0q-40 52 -94 97t-115.5 82t-128.5 66t-133 51q0 -13 1 -25q0 -11 1 -25.5t1 -29.5q0 -53 -14 -96t-41.5 -72.5t-67.5 -46t-94 -16.5q-57 0 -100.5 19t-73.5 50.5t-44.5 73t-14.5 88.5q0 49 17 90.5t48 72.5t71.5 48.5t86.5 17.5q14 0 31 -0.5t36 -4.5v405 q-10 -4 -22 -7q-9 -3 -20 -6t-22 -3q-49 0 -90.5 15t-70.5 43t-45.5 67t-16.5 87q0 49 16.5 88.5t45.5 67t70 43t91 15.5q59 0 100 -20t67 -53t38.5 -76t12.5 -90v-588q47 -9 92.5 -23t88 -31t80 -34.5t70.5 -34.5q75 -40 140 -83v1018h154v-1240h-151zM340 942q31 0 52 15 t30 36.5t9 46t-9 46t-30 36.5t-52 15q-32 0 -53.5 -15t-32.5 -36.5t-11 -46t11 -46t32.5 -36.5t53.5 -15zM350 117q30 0 49.5 14.5t29.5 36t10 47t-10 47t-30 36.5t-49 15q-34 0 -55.5 -15t-33.5 -36.5t-12 -47t12 -47t33.5 -36t55.5 -14.5z" />
<glyph unicode="&#xe22;" horiz-adv-x="1284" d="M231 0v394q0 40 8.5 73t23 60t35.5 49q22 22 44 37q-40 15 -77 43t-65 67t-44.5 88.5t-16.5 106.5q0 74 19 135.5t55 106t90 68.5t122 24q46 0 86 -16t69.5 -43t45.5 -65t18 -81q3 -46 -11.5 -85.5t-43 -68.5t-70.5 -46q-42 -18 -94 -18q-22 0 -43.5 6t-38.5 12 q-20 8 -37 17q7 -49 27.5 -79t51.5 -47t68.5 -22.5t79.5 -5.5h101v-123q-10 -2 -21.5 -2.5t-22.5 -0.5h-23q-43 -3 -77 -20t-57 -42.5t-35.5 -58t-12.5 -66.5v-271h527v1114h154v-1240h-835zM428 949q31 0 52.5 14.5t32.5 36t11 46t-11 46t-32 36.5q-22 15 -53 15 q-34 0 -57 -15t-34 -36.5t-11 -46t12 -46t34 -36t56 -14.5z" />
<glyph unicode="&#xe23;" horiz-adv-x="1022" d="M906 1078q-53 -18 -94.5 -21.5t-77.5 0.5t-69.5 14t-68.5 22.5t-75.5 21.5t-86.5 11q-27 3 -58 -4t-58 -24t-48 -44.5t-30 -69.5q50 -3 99 -6q21 -2 42.5 -3.5t43.5 -3.5t42 -5q20 -2 38 -5q80 -14 138.5 -43t95.5 -70t55 -92t18 -109v-431q0 -53 -16.5 -96t-45.5 -72.5 t-70.5 -46t-94.5 -16.5q-57 0 -101 19t-74.5 50.5t-46 73t-15.5 88.5q0 49 18.5 90.5t49.5 72.5t71 48.5t86 17.5q15 0 35 -0.5t50 -10.5v216q0 74 -45 118q-46 45 -126 61q-31 6 -66.5 11t-71.5 9t-72.5 7t-68.5 6q-76 7 -153 8q-3 80 23.5 150t76.5 122.5t120 82.5t156 30 q40 0 83 -8.5t85 -18.5t83.5 -20t78.5 -14t67.5 1.5t55.5 24.5zM585 117q33 0 53.5 14.5t31.5 36t11 47t-11 47t-31.5 36.5t-53.5 15q-34 0 -55.5 -15t-33 -36.5t-11.5 -47t11.5 -47t33 -36t55.5 -14.5z" />
<glyph unicode="&#xe24;" horiz-adv-x="1315" d="M946 -460v1302q0 45 -17 95t-55 92.5t-98.5 69.5t-147.5 27q-72 0 -130 -21t-98 -51t-60 -63t-20 -58h231v-66q-58 -20 -96.5 -48.5t-61.5 -64.5t-31.5 -79.5t-8.5 -90.5v-187q7 5 20 8q9 3 20.5 5.5t22.5 2.5q49 0 90.5 -15.5t71 -44t46.5 -68t17 -87t-17 -87t-46.5 -68 t-71 -43.5t-90.5 -15q-59 0 -99.5 20t-67 53.5t-38.5 77t-12 89.5v329q0 62 8.5 106t22 75.5t31.5 52.5q16 22 35 41h-148q-5 58 9 112t44 101.5t73 86t98.5 67t120 44t135.5 15.5q127 0 215.5 -35.5t146 -93t84 -133t26.5 -154.5v-1299h-154zM422 105q25 0 43.5 7.5 t30 21.5t17.5 31t6 35.5t-6 35.5t-17.5 30.5t-30 21.5t-43.5 8q-23 0 -41 -8t-28.5 -21.5t-16.5 -30.5t-6 -35.5t6 -35.5t16.5 -31t28.5 -21.5t41 -7.5z" />
<glyph unicode="&#xe25;" horiz-adv-x="1292" d="M921 0v262q0 46 -9.5 95.5t-28 95.5t-46 87.5t-64.5 73t-81.5 49.5t-97.5 18q-46 0 -89 -13.5t-77 -40t-54 -66t-20 -91.5v-76q9 6 22 9q9 4 20 7t21 3q50 0 91.5 -15.5t70.5 -44t45.5 -68t16.5 -87t-16.5 -87t-45.5 -68t-70.5 -43.5t-91.5 -15q-58 0 -99 20t-67 53.5 t-38.5 77t-12.5 89.5v223q0 76 24 142t71.5 114t119.5 75.5t167 27.5q57 0 110 -14.5t99.5 -40t80.5 -59.5t49 -71v248q0 34 -15.5 78t-50 82.5t-92.5 65.5t-141 27q-58 0 -110.5 -16.5t-92 -47t-62.5 -73.5q-24 -40 -27 -93h-162q12 100 54.5 168.5t104 112t139.5 62.5 t162 19q99 0 182 -28.5t141.5 -81t91.5 -128t33 -168.5v-849h-155zM424 105q32 0 53.5 13.5t32.5 35.5t11 46.5t-11 46t-32.5 35.5t-53.5 14q-31 0 -52.5 -14t-31.5 -35.5t-10 -46t10 -46.5t31.5 -35.5t52.5 -13.5z" />
<glyph unicode="&#xe26;" horiz-adv-x="1390" d="M1175 -457h-152v620q0 79 -1 156t-1 148.5t-1 134t-1 111v79v37.5q0 30 -6.5 64t-21.5 66.5t-39.5 63t-58.5 54t-78.5 36.5t-99.5 13q-77 0 -137.5 -21t-100.5 -50t-61.5 -62.5t-22.5 -59.5l254 -3v-81q-40 -19 -65 -43t-38.5 -51.5t-19.5 -56.5q-5 -27 -5 -57v-416 q0 -46 -12.5 -89.5t-38.5 -77t-68 -53.5q-40 -20 -98 -20q-49 0 -91 15t-71 43.5t-46 68t-17 87.5q0 46 17 86t46 68.5t70 43.5q43 16 92 16q11 0 21.5 -2.5t19.5 -5.5q11 -3 20 -8v231q0 42 5.5 72t15.5 54t24 41.5t32 29.5h-212q-6 54 7.5 107.5t43 101t72.5 87.5t100 70 t123.5 47t143.5 17q83 0 149 -19t117 -53t88 -77t59 -91t33 -97t11 -93v-1282zM296 105q23 0 39 7.5t28.5 21.5t18 31t5.5 35.5t-5.5 35.5t-18 30.5t-29.5 21.5t-38 8q-25 0 -43.5 -8t-31 -21.5t-18.5 -30.5t-6 -35.5t6 -35.5t18.5 -31t31 -21.5t43.5 -7.5z" />
<glyph unicode="&#xe27;" horiz-adv-x="1116" d="M902 216q0 -53 -16.5 -96t-47 -72.5t-72.5 -46t-95 -16.5q-57 0 -100.5 18.5t-74.5 50.5t-46.5 72t-15.5 85q0 51 16.5 94t46.5 74t70 48q43 18 92 18q16 0 36 -0.5t49 -10.5v436q0 63 -22.5 111t-61 78.5t-91 47t-113.5 16.5q-56 0 -102 -15.5t-80 -45.5t-55.5 -73 t-27.5 -99h-163q12 96 53.5 165t100 114t130.5 65q70 21 144 21q91 0 171.5 -24t142.5 -73t97 -124t35 -176v-642zM671.5 117q24.5 0 43 8.5t30 21.5t17.5 31.5t6 37.5q0 18 -6 35t-17.5 31t-30 22.5t-43 8.5t-43 -8.5t-31 -22.5t-18.5 -31t-6 -35q0 -19 6 -37.5t18.5 -31.5 t31 -21.5t43 -8.5z" />
<glyph unicode="&#xe28;" horiz-adv-x="1372" d="M1315 1398q-12 -63 -36.5 -111.5t-58.5 -84t-71 -60t-73 -38.5q44 -52 66 -117.5t22 -147.5v-839h-154v822q0 65 -21.5 120.5t-63 95.5t-102.5 64t-138 24q-71 0 -130 -23t-102 -64t-68 -96.5t-25 -120.5v-200q27 54 60 102.5t73 85.5t88.5 58.5t103.5 21.5 q50 0 87.5 -15.5t65 -43t41.5 -63t14 -78.5t-14 -79.5t-39 -63t-62 -42t-83 -15.5q-31 0 -61 9t-56.5 27.5t-45 46.5t-24.5 61q-28 -36 -53 -81.5t-44.5 -98t-30.5 -111.5q-10 -57 -10 -121v-222h-154v822q0 93 33.5 173t96 137.5t149.5 90t193 32.5q150 -1 253 -48 q35 7 67 23.5t57 41.5t43.5 57t28.5 69h178zM699 593q31 0 51 14t30 34.5t10 45t-10 46.5t-30 35.5t-51 13.5q-32 0 -54.5 -13.5t-33 -35.5t-10.5 -46.5t10.5 -45t33 -34.5t54.5 -14z" />
<glyph unicode="&#xe29;" horiz-adv-x="1455" d="M1435 829q5 -50 -6.5 -100.5t-39.5 -95.5t-71 -82t-101 -55v-496h-866v845q-9 -4 -18.5 -7t-20.5 -6q-10 -3 -22 -3q-50 0 -91.5 15t-70.5 43t-46 67t-17 87q0 49 17 88.5t46 67t70 43.5q42 15 92 15q58 0 98 -20t66 -53t38.5 -76t12.5 -90v-890h556v331q-43 -9 -94 -9 t-101 8.5t-95.5 27t-81 46t-56 66t-20.5 88.5q0 37 11.5 70.5t34.5 58.5t56 39.5t78 14.5q37 0 68.5 -11.5t54.5 -34.5t37 -55.5t14 -75.5q0 -46 -14 -72.5t-31 -36.5q11 -3 29.5 -5.5t39.5 -3.5t39.5 1.5t27.5 7.5v659h159v-596q13 12 26.5 28t23.5 38.5t17 52t7 66.5h144z M790 616q25 0 42 11t25 27t8 35t-8 36t-24.5 28t-42.5 11q-25 0 -41.5 -11t-25 -28t-8.5 -36t8.5 -35t25 -27t41.5 -11zM285 942q31 0 51.5 15t30.5 36.5t10 46t-10 46t-30.5 36.5t-51.5 15q-32 0 -54 -15t-32.5 -36.5t-10.5 -46t10.5 -46t32.5 -36.5t54 -15z" />
<glyph unicode="&#xe2a;" horiz-adv-x="1284" d="M1229 1398q-12 -61 -37.5 -109t-58 -83.5t-68.5 -60t-70 -38.5q40 -49 60.5 -113t20.5 -145v-849h-155v262q0 46 -9.5 95.5t-28 95.5t-46 87.5t-64.5 73t-81.5 49.5t-97.5 18q-46 0 -89 -13.5t-77 -40t-54 -66t-20 -91.5v-76q9 6 22 9q9 4 20 7t21 3q50 0 91.5 -15.5 t70.5 -44t45.5 -68t16.5 -87t-16.5 -87t-45.5 -68t-70.5 -43.5t-91.5 -15q-58 0 -99 20t-67 53.5t-38.5 77t-12.5 89.5v223q0 76 24 142t71.5 114t119.5 75.5t167 27.5q57 0 110 -14.5t99.5 -40t80.5 -59.5t49 -71v248q0 46 -17 91.5t-53 82t-92.5 58t-136.5 21.5 q-58 0 -110.5 -16.5t-92 -47t-62.5 -73.5q-24 -40 -27 -93h-162q12 100 54.5 168.5t104 112t139.5 62.5t162 19q68 0 126.5 -11.5t107.5 -36.5q34 8 63.5 25.5t54 42.5t41.5 55.5t26 67.5h182zM424 105q32 0 53.5 13.5t32.5 35.5t11 46.5t-11 46t-32.5 35.5t-53.5 14 q-31 0 -52.5 -14t-31.5 -35.5t-10 -46t10 -46.5t31.5 -35.5t52.5 -13.5z" />
<glyph unicode="&#xe2b;" horiz-adv-x="1401" d="M1207 1053q0 -20 -5 -46t-17 -51.5t-32 -47.5q-20 -21 -47 -33q21 -11 38 -29.5t28 -41t17 -47t6 -47.5v-710h-155v707q0 23 -8.5 44.5t-22.5 37t-32.5 24.5t-37.5 9q-35 0 -79 -18.5t-91 -59t-95.5 -104.5t-94.5 -153q-11 -22 -24 -51t-23.5 -64.5t-17.5 -74t-7 -78.5 v-219h-156v845q-9 -4 -18.5 -7t-20.5 -6q-10 -3 -22 -3q-50 0 -91.5 15t-70.5 43t-46 67t-17 87q0 49 17 88.5t46 67t70 43.5q42 15 92 15q58 0 99.5 -20t68 -53t38.5 -76t11 -90v-268l-7 -184q16 58 50.5 116t79.5 105t94 82t92 51q-11 9 -21 23t-16 31.5t-10 37.5t-4 40 q0 46 16.5 86.5t45.5 68t70.5 43.5t91.5 16q52 0 93.5 -19t69.5 -50t41.5 -68t13.5 -74zM983 952q30 0 51.5 13.5t32.5 35.5t11 46.5t-11 46t-32.5 35.5t-51.5 14q-31 0 -52.5 -14t-32.5 -35.5t-11 -46t11 -46.5t32.5 -35.5t52.5 -13.5zM286 942q31 0 51 15t31 36.5t11 46 t-11 46t-31 36.5t-51 15q-32 0 -54.5 -15t-33 -36.5t-10.5 -46t10.5 -46t33 -36.5t54.5 -15z" />
<glyph unicode="&#xe2c;" horiz-adv-x="1479" d="M1420 1398q-6 -38 -24.5 -79t-49.5 -76.5t-74 -61.5t-94 -32q25 -12 42.5 -30.5t29 -38.5t17 -42t5.5 -42v-996h-142l-325 625l-315 -625h-139v845q-9 -4 -20 -7q-9 -3 -20.5 -6t-20.5 -3q-50 0 -91.5 15t-70.5 43t-46 67t-17 87q0 49 17 88.5t46 67t70 43.5q42 15 92 15 q58 0 98 -20t66 -53t38.5 -76t12.5 -90v-483q0 -31 -1.5 -72.5t-3.5 -78.5q-1 -43 -4 -89l277 523h71l283 -526q-3 46 -4 89q-2 37 -3.5 79t-1.5 75v451q0 25 -9 47t-25.5 40.5t-40.5 30t-54 11.5h-170v127h245q34 0 64 10t54.5 30t41 49t20.5 69h176zM282 942q23 0 40 8.5 t29 22t18.5 31t6.5 36t-6.5 35.5t-18.5 30t-29 22.5t-40 9.5q-25 0 -42.5 -9.5t-30 -22.5t-18.5 -31t-6 -34q0 -19 6 -36.5t18.5 -31t30 -22t42.5 -8.5z" />
<glyph unicode="&#xe2d;" horiz-adv-x="1265" d="M209 0v593q0 46 12.5 89t38.5 76.5t68 53.5t99 20q49 0 90.5 -15.5t71 -43.5t45.5 -68t16 -86q0 -48 -16 -87t-45.5 -68.5t-71 -45t-90.5 -15.5q-13 0 -24.5 2.5t-19.5 5.5q-9 2 -20 8v-293h533v735q0 65 -23 114t-62 82t-92.5 49.5t-114.5 16.5q-65 0 -116.5 -19.5 t-87 -52t-54.5 -71.5q-20 -38 -20 -78h-158q3 71 35.5 134.5t90 112.5t137.5 77.5t176 28.5q98 0 180 -27t140.5 -78.5t90.5 -124.5t32 -164v-861h-841zM430 521q32 0 53.5 13.5t32.5 35t11 46.5t-11 46.5t-32.5 36t-53.5 14.5q-31 0 -52 -14.5t-31 -36t-10 -46.5t10 -46.5 t31 -35t52 -13.5z" />
<glyph unicode="&#xe2e;" horiz-adv-x="1262" d="M1178 1334q-8 -50 -30 -103.5t-59 -107.5t-88.5 -103.5t-117 -89.5t-145.5 -66q-79 -26 -174 -32q-194 -14 -294 37q-98 52 -101 160q-3 43 25.5 83t82 72.5t130.5 51.5t172 19q105 0 192 -27t150 -77.5t98.5 -124.5t35.5 -168v-858h-842v508q0 46 12 88.5t38.5 75.5 t68 53t99.5 20q49 0 91 -15t71 -43t45 -66.5t16 -87.5q0 -48 -16 -87t-45 -67t-69 -44t-90 -16q-10 0 -22 2t-22 7q-14 3 -23 9v-211h532v735q0 68 -24.5 118t-67.5 83.5t-101.5 50t-126.5 16.5q-46 0 -93 -8.5t-83 -22.5t-59.5 -32.5t-23.5 -39.5q0 -25 20 -39.5 t52.5 -21.5t75.5 -8.5t89 1.5q68 3 126 23t105.5 49.5t85.5 66t64 77t45 80.5q18 40 24 77zM434 434q33 0 53.5 15t31.5 36.5t11 46t-11 46t-32.5 36t-52.5 14.5t-51.5 -14.5t-30.5 -36t-10 -46t10 -46t30.5 -36.5t51.5 -15z" />
<glyph unicode="&#xe2f;" horiz-adv-x="1171" d="M984 357q0 -83 -23 -150t-63 -115.5t-94 -79.5q-56 -30 -117 -41v145q31 10 57 30t45 51t29.5 71t10.5 89v585q-67 -58 -148 -93q-80 -36 -185 -36q-77 0 -138.5 20t-105.5 55.5t-68 84.5q-24 46 -24 105q0 46 15.5 81t41.5 57t60 33.5t73 11.5q43 0 76.5 -16t57.5 -40.5 t36.5 -55.5t12.5 -62q0 -27 -6 -50.5t-17 -43.5t-25 -32t-32 -19q72 -9 139 8t121 55t89.5 97t44.5 138h137v-883zM350 1007q24 0 40.5 11t24 26.5t7.5 33.5t-7.5 35t-24 28t-40.5 11q-25 0 -41 -11t-24 -28t-8 -35t8 -33.5t24 -26.5t41 -11z" />
<glyph unicode="&#xe30;" horiz-adv-x="1030" d="M921 1180q0 -43 -10 -98t-37 -109.5t-71 -104.5t-108 -86q-50 -24 -110 -37t-120 -15t-116 8t-100 32q-32 15 -60.5 37t-50 49.5t-34 63t-12.5 80t15 83t42 64.5t64.5 41.5t83.5 15.5q49 -1 85.5 -17.5t62.5 -43.5t38.5 -61.5t12.5 -68.5q0 -60 -24.5 -102t-64.5 -59 h36.5t55.5 3.5t65 13t64 30.5q70 43 105 116.5t31 164.5h157zM921 480q0 -43 -10 -98.5t-37 -110t-71 -104.5t-108 -85q-50 -25 -110 -38t-120 -14.5t-116 8.5t-100 31q-32 16 -60.5 37.5t-50 50t-34 64t-12.5 78.5q0 44 15 82t42 65.5t64.5 43t83.5 15.5q49 -1 85.5 -18 t62.5 -44t38.5 -61t12.5 -69q0 -60 -25 -103q-24 -44 -64 -59h36.5t55.5 4t65 14t64 30q70 43 105 116t31 165h157zM297 921q28 0 47 12.5t28.5 31.5t9.5 41.5t-9.5 41t-28 30.5t-47.5 12q-27 0 -46.5 -12t-28.5 -30.5t-9 -41t9 -41.5t28.5 -31.5t46.5 -12.5zM297 222 q28 0 47 12t28.5 30.5t9.5 41t-9.5 42t-28 31.5t-47.5 12q-27 0 -46.5 -12t-28.5 -31.5t-9 -42t9 -41t28.5 -30.5t46.5 -12z" />
<glyph unicode="&#xe31;" d="M154 1905q-12 -105 -57.5 -189t-118 -142.5t-170.5 -90.5t-215 -32q-61 0 -126 17t-117 51.5t-86 86t-34 119.5q0 44 15.5 82t42.5 64t64.5 41.5t82.5 15.5q49 0 87 -17t62.5 -44.5t38.5 -61.5t14 -71q0 -65 -26 -106q-27 -42 -67 -54q16 -2 31 -2.5t31 -0.5 q74 0 141.5 20.5t121.5 63t89.5 105.5t47.5 145h148zM-568.5 1640q21.5 0 38 7t26.5 19.5t15 27.5t5 31q0 15 -5 30.5t-15 28t-27 20t-37 7.5q-22 0 -38 -7.5t-27 -20t-15.5 -28t-4.5 -30.5q0 -16 4.5 -31t15.5 -27.5t27 -19.5t37.5 -7z" />
<glyph unicode="&#xe32;" horiz-adv-x="1054" d="M682 0v887q0 49 -13 91.5t-40.5 74t-74 51t-114.5 19.5q-49 0 -95 -13.5t-81.5 -41t-59.5 -72.5q-22 -44 -28 -109h-168q14 100 55.5 170t101.5 114t132.5 64t149.5 20q104 0 179.5 -30t124 -83t72.5 -123t24 -152v-867h-165z" />
<glyph unicode="&#xe33;" horiz-adv-x="1053" d="M-77 1646q0 -46 -15.5 -83t-42.5 -64t-64.5 -42.5t-83.5 -15.5q-45 0 -82.5 15.5t-64 42.5t-42 65t-15.5 82.5t15.5 83t42 66t65 43t81.5 15.5t81.5 -15.5t66 -43t43 -66t15.5 -83.5zM682 0v887q0 49 -13 91.5t-40.5 74t-74 51t-114.5 19.5q-49 0 -95 -13.5t-81.5 -41 t-59.5 -72.5q-22 -44 -28 -109h-168q14 100 55.5 170t101.5 114t132.5 64t149.5 20q104 0 179.5 -30t124 -83t72.5 -123t24 -152v-867h-165zM-283 1552q23 0 40.5 8t29 21.5t17 30.5t5.5 35.5t-5.5 35.5t-17 31t-28.5 21.5t-41.5 7.5t-42 -7.5t-29.5 -21.5t-18 -31t-6 -35.5 t6 -35.5t18 -30.5t29.5 -21.5t42.5 -8z" />
<glyph unicode="&#xe34;" d="M-1204 1445q10 83 43.5 157t90.5 129t138.5 87.5t189.5 32.5q104 0 192 -34.5t156 -91.5t115.5 -130t70.5 -150h-996zM-407 1558q-17 22 -45 51.5t-71.5 57t-97.5 45.5q-57 19 -124 19q-53 0 -99 -11.5t-84 -34t-64.5 -54.5t-39.5 -73h625z" />
<glyph unicode="&#xe35;" d="M-1204 1445q10 83 43.5 157t90.5 129t138.5 87.5t189.5 32.5q58 0 113 -12.5t102.5 -33t89.5 -49.5q43 -30 77 -64v273h151v-520h-995zM-407 1558q-17 22 -45 51.5t-71.5 57t-97.5 45.5q-57 19 -124 19q-53 0 -99 -11.5t-84 -34t-64.5 -54.5t-39.5 -73h625z" />
<glyph unicode="&#xe36;" d="M-145 1769q0 -33 -9 -63t-27.5 -53.5t-45.5 -37.5q-26 -13 -59 -20q21 -37 43.5 -74.5t34.5 -75.5h-996q10 83 43.5 157t90.5 129t138.5 87.5t189.5 32.5q64 0 125 -17t106 -46v5q0 37 15.5 67.5t40 52t58.5 34t69 12.5q42 0 75.5 -14t57.5 -39.5t37 -60t13 -76.5z M-328 1688q22 0 36.5 7t25 18.5t15.5 27t5 30.5t-5 30t-15.5 26.5t-26 19t-35.5 7.5q-22 0 -38 -7.5t-26 -19t-15.5 -26.5t-5.5 -30t5.5 -30.5t15.5 -27t26 -18.5t38 -7zM-407 1558q-17 22 -45 51.5t-71.5 57t-97.5 45.5q-57 19 -124 19q-53 0 -99 -11.5t-84 -34 t-64.5 -54.5t-39.5 -73h625z" />
<glyph unicode="&#xe37;" d="M-407 1558q-17 22 -45 51.5t-71.5 57t-97.5 45.5q-57 19 -124 19q-53 0 -99 -11.5t-84 -34t-64.5 -54.5t-39.5 -73h625zM-1204 1445q10 83 43.5 157t90.5 129t138.5 87.5t189.5 32.5q24 0 49 -2q25 -4 48 -7v123h141v-169q40 -20 76.5 -48.5t67.5 -58.5v276h151v-520 h-995z" />
<glyph unicode="&#xe38;" d="M-357 -656v189q-13 -1 -19.5 -2t-16.5 -1q-44 0 -79 15t-58.5 39.5t-36.5 55.5q-12 34 -12 67q0 34 12.5 66.5t35.5 58.5t57.5 41.5t80.5 15.5q43 0 78 -13t59.5 -37t36.5 -57q13 -31 13 -72v-366h-151zM-317 -296q0 16 -4.5 29.5t-14 24.5t-24 17t-33.5 6 q-20 0 -35.5 -6t-24.5 -17t-13.5 -24.5t-4.5 -29.5q0 -14 4.5 -28.5t13.5 -25t24.5 -18.5t35.5 -8q19 0 33.5 8t24 18.5t14 25t4.5 28.5z" />
<glyph unicode="&#xe39;" d="M-690 -656v189q-6 -1 -15.5 -2t-18.5 -1q-48 0 -83 15t-58.5 39.5t-34.5 55.5q-12 34 -12 67q0 34 12.5 66.5t35.5 58.5t58.5 41.5t81.5 15.5q86 0 134 -47.5t48 -131.5v-252h177v410h159v-524h-484zM-650 -296q0 16 -4.5 29.5t-14 24.5t-24.5 17t-33.5 6t-34 -6t-25 -17 t-14 -24.5t-4.5 -29.5q0 -14 4.5 -28.5t14 -25t23.5 -18.5q17 -8 35 -8q20 0 34.5 8t24 18.5t14 25t4.5 28.5z" />
<glyph unicode="&#xe3a;" d="M-308 -367q-28 0 -50 10.5t-37 26.5t-21 36.5t-6 42.5t6 42.5t21 36.5t36 26q23 10 51 10t49.5 -10t35.5 -26t20.5 -36.5t6.5 -42.5t-6.5 -42.5t-20.5 -36.5t-35.5 -26.5t-49.5 -10.5z" />
<glyph unicode="&#xe3e;" />
<glyph unicode="&#xe3f;" horiz-adv-x="1329" d="M1195 360q0 -64 -18.5 -116.5t-49.5 -92.5t-68.5 -69.5t-76 -47t-73.5 -26.5q-37 -8 -62 -8h-169v-277h-164v277h-351v1261h351v279h164v-279h95q28 0 65 -7t77 -21.5t79 -38.5t70.5 -60t51.5 -84q19 -49 19 -111q0 -43 -11.5 -84.5t-33 -77t-54 -63t-75.5 -46.5 q9 -4 29 -12.5t46.5 -22.5t54 -36.5t50.5 -55.5t38.5 -77t15.5 -104zM961 912q0 18 -1.5 40.5t-7.5 45.5t-21.5 45.5t-43.5 39.5t-71 27t-108 10h-30v-401h46q77 0 124 19.5t72.5 48t33 61.5t7.5 64zM514 1120h-175v-401h175v401zM1021 373q0 67 -25.5 109t-68.5 63.5 t-99 28.5q-58 7 -120 7h-30v-442h114q64 0 108 23t71 57t38.5 75.5t11.5 78.5zM514 581h-175v-442h175v442z" />
<glyph unicode="&#xe40;" horiz-adv-x="771" d="M681 191q0 -48 -15.5 -85.5t-44 -64.5t-69.5 -41.5t-90 -14.5q-59 0 -100.5 18.5t-69 50.5t-40.5 73.5t-13 88.5v1027h155v-852q9 3 20 6q10 3 21.5 6.5t20.5 3.5q55 0 97.5 -16.5t71 -45t42.5 -68.5t14 -86zM462 95q25 0 43.5 8.5t30.5 22t18.5 31t6.5 36t-6.5 35.5 t-18.5 30t-30.5 22.5t-43.5 9.5t-42 -9.5t-29 -22.5t-17.5 -31t-5.5 -35q0 -18 5.5 -35.5t17.5 -31t29 -22t42 -8.5z" />
<glyph unicode="&#xe41;" horiz-adv-x="1282" d="M681 191q0 -48 -15.5 -85.5t-44 -64.5t-69.5 -41.5t-90 -14.5q-59 0 -100.5 18.5t-69 50.5t-40.5 73.5t-13 88.5v1027h155v-852q9 3 20 6q10 3 21.5 6.5t20.5 3.5q55 0 97.5 -16.5t71 -45t42.5 -68.5t14 -86zM462 95q25 0 43.5 8.5t30.5 22t18.5 31t6.5 36t-6.5 35.5 t-18.5 30t-30.5 22.5t-43.5 9.5t-42 -9.5t-29 -22.5t-17.5 -31t-5.5 -35q0 -18 5.5 -35.5t17.5 -31t29 -22t42 -8.5zM1198 191q0 -48 -15.5 -85.5t-44.5 -64.5t-69 -41.5t-90 -14.5q-58 0 -99.5 18.5t-69.5 50.5t-41.5 73.5t-13.5 88.5v1027h155v-852q8 3 20 6q9 3 20.5 6.5 t22.5 3.5q56 0 97.5 -16.5t70 -45t43 -68.5t14.5 -86zM979 95q25 0 43.5 8.5t30 22t17.5 31t6 36t-6 35.5t-17.5 30t-30 22.5t-43.5 9.5q-24 0 -41 -9.5t-29.5 -22.5t-18.5 -31t-6 -35q0 -18 6 -35.5t18.5 -31t29.5 -22t41 -8.5z" />
<glyph unicode="&#xe42;" horiz-adv-x="862" d="M795 199q0 -48 -15.5 -87.5t-44 -68t-68.5 -43.5t-89 -15q-59 0 -101.5 17.5t-70 49t-40.5 76t-13 97.5v1213q0 87 -52 133t-150 51q-42 3 -79 6q-30 3 -60 4.5t-44 1.5q0 37 3.5 64t8.5 45q8 22 14 36q12 35 39 67.5t64 57t82.5 38.5t98 14t94 -9.5t77.5 -21.5 t67.5 -27.5t61.5 -28t60 -21.5t64 -9q13 0 23.5 1.5t21.5 4.5v-122q-12 -3 -24 -5t-24 -2q-34 0 -67 9t-64.5 23t-64 31t-65.5 30.5t-68.5 23t-73.5 9.5q-34 0 -63.5 -4.5t-52.5 -17t-38 -33.5q-16 -22 -25 -53q42 -3 84 -7.5t85 -12.5q50 -9 90 -29t69 -51.5t45.5 -73.5 t16.5 -91v-1072q9 5 20 8q9 3 19.5 5.5t23.5 2.5q49 0 90.5 -15.5t71 -44t46.5 -68.5t17 -86zM576 105q23 0 40.5 7.5t30 21.5t18.5 31t6 35.5t-6 35.5t-18.5 30.5t-29 21.5t-41.5 8t-42 -8t-29 -21.5t-17.5 -30.5t-5.5 -35.5t5.5 -35.5t17.5 -31t29 -21.5t42 -7.5z" />
<glyph unicode="&#xe43;" horiz-adv-x="862" d="M795 199q0 -48 -15.5 -87.5t-44 -68t-68.5 -43.5t-89 -15q-59 0 -101.5 16.5t-70 49t-40.5 76.5q-13 45 -13 98v1460q0 46 -18 76t-44 47.5t-57 25.5t-55 8q-27 0 -53 -8t-48.5 -21.5t-36 -30.5t-16.5 -36q23 7 44 8q36 0 63.5 -12.5t46 -34t28.5 -50t10 -58.5 q0 -34 -11.5 -62t-32.5 -48.5t-51 -32t-67 -11.5q-46 0 -78 15t-55.5 43.5t-34 67t-10.5 85.5q0 58 23 112.5t64.5 96.5t98.5 66.5t125 24.5q69 0 128.5 -21.5t101 -58.5t65.5 -88t24 -109v-1282q9 5 20 8q9 3 19.5 5.5t23.5 2.5q49 0 90.5 -15.5t71 -44t46.5 -68.5t17 -86z M126 1599q0 33 -21.5 51.5t-55.5 18.5q-31 0 -47.5 -20t-16.5 -50q0 -17 5 -29.5t15 -21t22.5 -13t24.5 -4.5q34 0 54 18.5t20 49.5zM576 105q23 0 40.5 7.5t30 21.5t18.5 31t6 35.5t-6 35.5t-18.5 30.5t-29 21.5t-41.5 8t-42 -8t-29 -21.5t-17.5 -30.5t-5.5 -35.5 t5.5 -35.5t17.5 -31t29 -21.5t42 -7.5z" />
<glyph unicode="&#xe44;" horiz-adv-x="862" d="M576 105q23 0 40.5 7.5t30 21.5t18.5 31t6 35.5t-6 35.5t-18.5 30.5t-29 21.5t-41.5 8t-42 -8t-29 -21.5t-17.5 -30.5t-5.5 -35.5t5.5 -35.5t17.5 -31t29 -21.5t42 -7.5zM290 1866q52 0 101 8.5t93 22t82 32t70 36.5l88 -117q-16 -15 -37.5 -40t-46 -55.5t-48.5 -67.5 t-43 -80t-30.5 -92.5t-11.5 -101.5v-1014q9 5 20 8q9 3 19.5 5.5t23.5 2.5q49 0 90.5 -15.5t71 -44t46.5 -68t17 -87t-15.5 -87t-44 -68t-68.5 -43.5t-89 -15q-59 0 -101.5 16.5t-70 49t-40.5 76.5q-13 45 -13 98v1176q0 53 11.5 108.5t33 106t54.5 96.5q35 47 78 84 q-28 -16 -65 -28q-31 -11 -75 -19.5t-97 -8.5q-76 0 -143 17t-141 49v141q31 -16 64 -30t68 -25.5t71.5 -18.5t77.5 -7z" />
<glyph unicode="&#xe45;" horiz-adv-x="1053" d="M682 -460v1347q0 49 -13 91.5t-40.5 74t-74 51t-114.5 19.5q-49 0 -95 -13.5t-81.5 -41t-59.5 -72.5q-22 -44 -28 -109h-168q14 100 55.5 170t101.5 114t132.5 64t149.5 20q104 0 179.5 -30t124 -83t72.5 -123t24 -152v-1327h-165z" />
<glyph unicode="&#xe46;" horiz-adv-x="1670" d="M1295 -460v1470q0 22 -5.5 41t-17 33t-30 21.5t-44.5 7.5q-25 0 -46.5 -12t-40.5 -30.5t-32 -41t-19 -42.5h-102q-5 20 -18 42.5t-32 41t-44.5 30.5t-56.5 12q-62 0 -94 -42t-32 -113v-8.5v-10.5q9 13 23 22q12 8 30 14t45 6q40 0 71 -14t51 -36t30.5 -51.5t10.5 -60.5 q0 -37 -12 -67.5t-34.5 -53.5t-52.5 -35.5t-67 -12.5q-46 0 -89 18.5t-76 55.5t-53 95q-19 56 -19 136q0 74 20 129.5t56 92.5t83 56t100 19q31 0 57 -5.5t46 -14.5t37 -20.5t29 -24.5q29 -27 45 -64q17 37 46 64q12 13 28.5 24.5t36.5 20.5t44.5 14.5t55.5 5.5 q44 0 85 -14.5t73.5 -45.5t50.5 -78q19 -45 19 -110v-1464h-156zM776 752q16 0 28 5t20 15t12.5 21.5t4.5 24.5q0 12 -4.5 23.5t-12.5 21t-20 15.5t-28 6q-17 0 -30 -6t-20.5 -15.5t-12.5 -21.5t-5 -25q0 -12 5 -23.5t12.5 -21t20.5 -14.5t30 -5z" />
<glyph unicode="&#xe47;" d="M-730 1879q-46 0 -75.5 -16.5t-44.5 -41.5t-20 -56t-5 -59q0 -26 5 -50.5t15.5 -44t27.5 -31.5t39 -12q26 0 43.5 12t27 30.5t13 40t3.5 40.5q0 8 -0.5 14.5t-0.5 13.5h89q0 -42 12.5 -70.5t29.5 -45.5q17 -20 41 -32q-4 12 -5.5 23t-1.5 23q0 29 10.5 54.5t30 44 t47 29.5t59.5 11q34 0 62.5 -9.5t48.5 -28.5t32 -47q11 -29 11 -63q0 -77 -45 -120t-135 -43q-46 0 -81.5 8t-64.5 23t-49 35t-34 41q-6 -21 -18.5 -40.5t-32 -34t-45.5 -23.5t-57 -9q-47 0 -88 20t-71 56.5t-47 87t-17 110.5q0 58 17.5 107.5t53 86.5t88.5 57q55 20 123 20 q60 0 118 -5q57 -5 110 -5q34 0 67.5 5t60 17t43.5 35.5t23 59.5h135q-4 -60 -29.5 -102t-68.5 -70t-103.5 -40t-130.5 -12q-50 0 -102 3t-114 3zM-387 1543q34 0 51 19q16 18 16 43q0 24 -17 44t-50 20q-30 0 -45.5 -20t-15.5 -44q0 -25 15.5 -43.5t45.5 -18.5z" />
<glyph unicode="&#xe48;" d="M-354 2073v331h138v-331h-138z" />
<glyph unicode="&#xe49;" d="M176 2486q-19 -87 -53 -151.5t-81 -112.5t-101.5 -78.5t-113 -49t-117 -26t-112.5 -7.5h-38.5t-36.5 3v70q40 4 64.5 15.5t39.5 23.5q17 14 25 32q-6 0 -15 -1q-7 -2 -13 -2q-27 0 -52.5 11.5t-44 31.5t-29.5 48.5t-11 65.5q0 31 11.5 59t33 48.5t52.5 32t68 11.5 t68 -10.5t52.5 -31.5t33.5 -49.5t12 -62.5q0 -43 -12 -77.5t-28 -57.5q-18 -28 -40 -48q70 12 123 42t90 71.5t58.5 92.5t27.5 107h139zM-348 2279q18 0 30.5 6.5t22 17t14 23t4.5 24.5t-4.5 26t-14 24t-22 16t-30.5 6q-19 0 -31 -6t-21.5 -16t-13.5 -23q-5 -15 -5 -27 t4.5 -24.5t14 -23t21.5 -17t31 -6.5z" />
<glyph unicode="&#xe4a;" d="M206 2510q0 -4 1 -9t1 -9q0 -60 -16 -123.5t-50 -122.5t-85 -109t-122 -84l-87 69q15 25 25 50.5t16 47.5t9 40.5t3 29.5q0 22 -4.5 39.5t-12 31.5t-21.5 21.5t-31 7.5q-24 0 -40.5 -7.5t-27 -21.5t-18.5 -30t-11 -32h-80q-3 16 -12.5 32t-23 30t-32 21.5t-43.5 7.5 q-21 0 -41 -7.5t-34 -22.5t-22.5 -35.5t-8.5 -45.5q8 9 20 16q9 6 23.5 11.5t34.5 5.5q31 0 56 -11t41.5 -28.5t26 -41t9.5 -44.5q0 -31 -11 -55.5t-29.5 -43t-43 -28.5t-52.5 -10q-35 0 -68 14.5t-59.5 44t-41.5 74.5t-15 107q0 52 16.5 93t46 70t68 44.5t78.5 15.5 q43 0 72.5 -17t47.5 -38q22 -25 36 -56q12 31 32 56q18 21 47.5 38t74.5 17q33 0 63 -14.5t52 -40.5t34 -62.5t12 -76.5q0 -68 -29 -123q18 19 36.5 45.5t32 60t21 73.5t7.5 83v26t-3 26h132zM-487 2131q25 0 38 17t13 35.5t-13 34t-38 15.5q-26 0 -39 -15.5t-13 -35.5 q0 -18 13 -34.5t39 -16.5z" />
<glyph unicode="&#xe4b;" d="M-216 2211v-161h-135v168h-186v126h186v163h135v-166h185v-130h-185z" />
<glyph unicode="&#xe4c;" d="M-345 2119q15 0 29 6t22 15.5t12.5 20t4.5 23t-4.5 24t-12.5 21t-21 14.5q-15 5 -30 5q-17 0 -29.5 -5t-20.5 -14.5t-12 -21t-4 -24t4 -23t12 -20t20.5 -15.5t29.5 -6zM14 2570q3 -49 -14.5 -93t-51.5 -81t-85 -65.5t-112 -45.5q27 -12 43 -40q15 -30 15 -64 q0 -30 -9 -55t-29 -43.5t-49.5 -29.5t-66.5 -11q-35 0 -63.5 11t-48.5 30t-31 46t-11 58q0 28 9.5 51t26 42t39.5 33q24 15 51 22q63 15 110 40.5t79 57t46.5 67t9.5 70.5h142z" />
<glyph unicode="&#xe4d;" d="M-77 1646q0 -46 -15.5 -83t-42.5 -64t-64.5 -42.5t-83.5 -15.5q-45 0 -82.5 15.5t-64 42.5t-42 65t-15.5 82.5t15.5 83t42 66t65 43t81.5 15.5t81.5 -15.5t66 -43t43 -66t15.5 -83.5zM-283 1552q23 0 40.5 8t29 21.5t17 30.5t5.5 35.5t-5.5 35.5t-17 31t-28.5 21.5 t-41.5 7.5t-42 -7.5t-29.5 -21.5t-18 -31t-6 -35.5t6 -35.5t18 -30.5t29.5 -21.5t42.5 -8z" />
<glyph unicode="&#xe4e;" d="M-129 1656q-50 0 -77.5 -28.5t-27.5 -84.5h-151q0 54 14.5 95.5t38.5 70t56.5 42.5t67.5 14h11h9q0 37 17 63t41.5 43t54 25.5t57.5 8.5h97v-136h-57q-20 0 -41 -5t-38 -18.5t-27.5 -35.5t-10.5 -54h-34z" />
<glyph unicode="&#xe4f;" horiz-adv-x="1370" d="M1317 593q0 -74 -18 -147t-54 -138.5t-89 -122t-121.5 -98t-152.5 -64.5t-184 -23q-99 0 -184.5 23t-154.5 64.5t-123 98.5t-90.5 123.5t-55.5 140.5t-19 149q0 74 19 147t56 138t90.5 121t123.5 97t154.5 64t183 23t183.5 -23t153.5 -64.5t121.5 -98.5t89 -123.5 t54 -139.5t18 -147zM1192 593q0 89 -32.5 175.5t-95.5 154t-155.5 108.5t-210.5 41q-120 0 -213.5 -40t-157.5 -108t-97.5 -152.5t-33.5 -175.5q0 -92 33 -179t97 -155t157 -109.5t215 -41.5q80 0 148.5 18.5t123 52.5t97 80t70 100t41.5 112.5t14 118.5zM989 588.5 q0 -52.5 -18.5 -103.5t-55.5 -90t-92.5 -63t-129.5 -24q-75 0 -130.5 24t-92 63t-54 90t-17.5 103.5t17.5 103t54 90t92 63.5t130.5 24q74 0 129.5 -24t92.5 -63.5t55.5 -90t18.5 -103z" />
<glyph unicode="&#xe50;" horiz-adv-x="1601" d="M801 -25q-145 0 -256 41t-186.5 112.5t-114.5 167t-39 206.5t39 206.5t114.5 165.5t186.5 111t256 41t255.5 -41t186 -111t115.5 -166q39 -95 39 -206t-39.5 -206.5t-115 -167t-186 -112.5t-255.5 -41zM801 887q-113 0 -195 -32.5t-137.5 -84.5t-82 -122t-26.5 -146 q0 -86 27 -158.5t82 -123.5t138 -78.5t194 -27.5t194 27.5t137.5 78.5t81.5 123.5t27 158.5q0 76 -26 146t-81.5 122t-138 84.5t-194.5 32.5z" />
<glyph unicode="&#xe51;" horiz-adv-x="1601" d="M873 -66q89 28 160 78.5t119.5 117.5t73 148t24.5 172q0 89 -27.5 167.5t-84.5 137t-144 92.5q-88 34 -206 34q-106 0 -186.5 -32.5t-135.5 -88t-83.5 -129.5t-28.5 -155q0 -65 17 -127.5t51 -113t88 -81.5t126 -31q68 0 111 17t69 52q-28 -6 -52 -6q-37 0 -71.5 11.5 t-61.5 36.5t-44 64t-17 93q0 46 17 85.5t45.5 67t66.5 43.5q40 15 83 15q45 0 86 -14.5t71.5 -42.5t50 -69.5t19.5 -93.5q0 -80 -28 -151t-78 -123.5t-119 -83t-154 -30.5q-96 0 -175 37.5t-137 102.5t-89.5 150.5t-31.5 179.5q0 129 42.5 231.5t120 174t187.5 109.5 q109 37 245 37q150 0 265.5 -44.5t192.5 -121.5t115.5 -180t38.5 -223q0 -84 -20 -161t-56.5 -143t-86 -121.5t-109 -98.5t-125 -74t-134.5 -45v130zM876 385q0 22 -7.5 38.5t-20 27.5t-28.5 17t-32 8q-15 0 -32 -5.5t-31 -16t-21.5 -27.5t-7.5 -42q0 -22 7.5 -39.5t20 -29 t28.5 -17.5q18 -6 33 -6q16 0 33 6t29 16.5t20.5 27.5t8.5 42z" />
<glyph unicode="&#xe52;" horiz-adv-x="1601" d="M782 440q0 17 -5 32.5t-15 27t-25 18t-35 6.5q-21 0 -36.5 -6.5t-25.5 -17t-15.5 -25.5t-6.5 -30q0 -15 5 -30t16 -27t26.5 -18.5t36.5 -6.5q19 0 34.5 6.5t24.5 17t15 24.5t6 29zM268 379q0 -49 8.5 -94t32.5 -77t64.5 -50.5t105.5 -18.5h694q53 0 87 14.5t54 41.5 t27 66q8 41 8 90v371q0 22 -5.5 46.5t-18.5 44t-35.5 32.5t-54.5 13q-25 0 -48 -13t-41.5 -38.5t-32 -60.5t-17.5 -78l-12 -144h-117l-15 147q-5 44 -24 80.5t-45.5 61.5t-60.5 39.5t-66 14.5q-52 0 -88.5 -18.5t-58 -50t-30.5 -74t-9 -88.5q0 -26 3 -52q21 26 56 40t70 14 q43 0 79.5 -15.5t63.5 -41t41.5 -60t14.5 -73.5q0 -40 -13 -77.5t-39.5 -65.5t-63.5 -45t-83 -17q-52 0 -93.5 17t-72.5 45.5t-52 68t-34 84t-19 92.5t-6 94q0 80 24.5 146t67 114t102 74t128.5 26q28 0 65.5 -6t74.5 -24t72.5 -52.5t58.5 -92.5l6 -4q22 57 52.5 92t63.5 55 t64 26t49 6q70 0 118.5 -23t79 -62.5t44 -90t13.5 -106.5v-362q0 -52 -5 -99.5t-18 -88t-37.5 -72.5t-64 -53.5t-95.5 -34t-133 -12.5h-682q-82 0 -140.5 17.5t-97 47.5t-61.5 68.5t-35.5 82t-15.5 86.5t-3 83v431q0 46 -7.5 98t-21.5 102t-32.5 95.5t-43.5 83.5h170 q15 -28 31 -64t28 -83t19.5 -104t7.5 -129v-436z" />
<glyph unicode="&#xe53;" horiz-adv-x="1601" d="M1491 511q0 -141 -26.5 -267.5t-69.5 -243.5h-154q19 52 35 112t29 126.5t21 136.5t8 142q0 90 -20 154.5t-52.5 107.5t-72.5 64t-80 21q-46 0 -83 -24.5t-65 -62.5t-45 -82.5t-23 -84.5l-12 -96h-142l-12 96q-6 40 -23 83t-45 81t-65 62q-40 25 -86 25q-58 0 -104.5 -27 t-78.5 -76.5t-49 -115.5t-17 -143q0 -29 0.5 -54.5t4.5 -48.5t8.5 -48t13.5 -55q10 27 27 49.5t40 38.5t53 25q28 8 62 8q46 0 88 -16t71 -45.5t46 -68t17 -81.5q0 -46 -15.5 -84.5t-44 -67.5t-69.5 -46q-44 -17 -96 -17q-62 0 -112 20t-90 57t-70 84.5t-48.5 104.5 t-28.5 118.5t-10 123.5q0 123 30 217t84 159.5t128 100t163 34.5q50 0 100 -18.5t90.5 -54t70 -86t38.5 -113.5h3q12 64 41.5 114t68 84t86 52.5t95.5 18.5q99 0 172 -40t121 -106t71 -156.5t23 -190.5zM561 194q0 42 -22 68t-68 26q-21 0 -38 -7.5t-29.5 -20t-18 -28.5 t-5.5 -31.5t5.5 -32.5t16.5 -30t28 -22q17 -8 41 -8q22 0 39 7.5t28.5 20t17 28t5.5 30.5z" />
<glyph unicode="&#xe54;" horiz-adv-x="1601" d="M633 993q26 0 68.5 -0.5t92.5 -0.5h106h110q74 0 139.5 12t115.5 38.5t82 63.5q30 38 36 89h171q-5 -72 -43.5 -136t-102.5 -110.5t-151 -74t-191 -27.5h-114.5h-120t-104.5 1t-68 1q-83 0 -155.5 -21t-125 -64t-81.5 -112.5t-29 -164.5q0 -82 30 -149t86 -115.5 t138 -77.5t183 -36q14 0 36.5 -0.5t50.5 -0.5q37 0 73 1q37 2 59 5q-55 22 -100 57t-77 81.5t-50.5 100.5t-18.5 111q0 52 18.5 93.5t50 70t72 42.5t87.5 14q43 0 81.5 -17t67 -46.5t44.5 -69.5t16 -87q0 -36 -12.5 -71.5t-35.5 -63t-55.5 -44.5t-69.5 -17q-15 0 -27 3 q15 -15 47.5 -38.5t80 -44t109.5 -36.5t135 -20q42 -3 63.5 -3t34.5 -1.5t22.5 -1.5t27.5 -3l-31 -132q-24 3 -54 6t-61 6t-60 5q-28 1 -52 1q-44 0 -106 -3t-130.5 -6t-136.5 -6t-120 -3h-16q-120 0 -221 34t-174 98.5t-114.5 155.5t-41.5 208q0 127 38.5 222t108 158 t164 94.5t205.5 31.5zM989 467q0 21 -8 38t-21 28.5t-29 16t-33 4.5q-16 0 -32 -5t-28.5 -16.5t-20 -28t-7.5 -37.5q0 -25 7.5 -42.5t21 -29.5t29.5 -17t33 -5t32.5 5t27.5 17t20 29.5t8 42.5z" />
<glyph unicode="&#xe55;" horiz-adv-x="1601" d="M870 1035q0 17 -5.5 31.5t-16 27t-26 19.5t-37.5 7q-20 0 -36 -8t-26 -20t-15.5 -28.5t-5.5 -32t5.5 -30t15.5 -25t25.5 -17.5t37 -7t37 7.5t26 18.5t16 26t5.5 31zM989 467q0 21 -8 38t-21 28.5t-29 16t-33 4.5q-16 0 -32 -5t-28.5 -16.5t-20 -28t-7.5 -37.5 q0 -25 7.5 -42.5t21 -29.5t29.5 -17t33 -5t32.5 5t27.5 17t20 29.5t8 42.5zM1404 -9q-24 3 -53.5 6t-61 6t-60.5 5q-28 1 -52 1q-44 0 -106 -3t-130.5 -6t-136.5 -6t-120 -3h-16q-120 0 -221.5 34t-174 98.5t-114 155.5t-41.5 208q0 120 40 207t108 144.5t155.5 87 t183.5 35.5q-6 17 -12.5 39.5t-6.5 46.5q0 37 12.5 69.5t37 57t61.5 38.5t89.5 14t89.5 -12.5t61.5 -35.5t37.5 -55q12 -33 15 -73q0 -17 -3 -39t-8 -38q74 0 139.5 15.5t118.5 45t90.5 70t56.5 91.5h171q-8 -55 -38 -106t-76 -93.5t-107 -75.5t-129 -53q-32 -9 -76.5 -16 t-94.5 -11.5t-102.5 -7.5t-99.5 -5t-86.5 -2h-63.5q-83 0 -158.5 -16.5t-132 -55t-89.5 -105t-33 -161.5q0 -82 30 -149t86 -115.5t138 -77.5t183 -36q14 0 36.5 -0.5t50.5 -0.5q37 0 73 1q37 2 59 5q-55 22 -100 57t-77 81.5t-50.5 100.5t-18.5 111q0 52 18.5 93.5t50 70 t72 42.5t87.5 14q43 0 81.5 -17t67 -46.5t44.5 -69.5t16 -87q0 -36 -12.5 -71.5t-35.5 -63t-55.5 -44.5t-69.5 -17q-15 0 -27 3q15 -15 47.5 -38.5t80 -44t109.5 -36.5t135 -20q42 -3 63.5 -3t34.5 -1.5t22.5 -1.5t27.5 -3z" />
<glyph unicode="&#xe56;" horiz-adv-x="1601" d="M316 690q-19 68 -56 142t-79 143t-86 126t-78 94h186q14 -15 32 -40.5t36.5 -56.5t38.5 -65.5t37.5 -68.5t32 -65.5t23.5 -57.5q41 35 87 67.5t104.5 57t126 39t149.5 14.5q133 0 240.5 -38.5t183 -105.5t116.5 -158.5t41 -199.5q0 -98 -25 -175t-68 -136.5t-102 -101.5 t-127.5 -68.5t-144 -38.5t-152.5 -12q-53 0 -105 7.5t-101.5 24.5t-92.5 41.5t-75.5 59t-51 78.5t-18.5 100q0 52 18 92t48 66t70 40t84 14q51 0 92.5 -15.5t71 -44t45 -67.5t15.5 -85q0 -34 -8 -60.5t-21 -46.5t-32 -35t-44 -28q15 -4 33.5 -6.5t35 -4t31 -1.5h23.5 q52 0 107 10t104 31t91.5 53t73.5 77t49.5 102t18.5 126q0 74 -29.5 141t-84 117t-132.5 80t-175 30q-135 0 -245.5 -46.5t-203.5 -144.5h-108zM699 299q0 21 -8.5 38t-21.5 28t-29 16.5t-33 5.5t-33.5 -5.5t-28.5 -16.5t-20 -28t-8 -38q0 -25 8.5 -42t22 -27.5t30 -17 t32.5 -6.5q15 0 32 6.5t29.5 18t20 29t7.5 39.5z" />
<glyph unicode="&#xe57;" horiz-adv-x="1601" d="M1580 1195q3 -66 3 -140q0 -88 -7.5 -183.5t-26 -192.5t-49.5 -192.5t-77 -184.5t-107.5 -170t-140.5 -147l-119 90q28 41 47.5 97.5t32.5 117.5t20 121t7 106q0 62 -10 124.5t-31.5 111.5t-57 80t-88.5 31q-27 0 -48.5 -13t-42 -34t-35.5 -48t-26 -54.5t-18 -54.5 q-5 -26 -8 -47l-13 -99h-141l-14 96q-3 23 -11 50t-21 54.5t-30 54t-38.5 47t-48.5 33.5q-28 12 -59 12q-37 0 -67 -15.5t-54 -42.5t-41 -62.5t-28.5 -75.5t-17 -83t-5.5 -83q0 -29 2.5 -60.5t7 -61t10.5 -53.5q5 -22 11 -38q8 30 25.5 53t42.5 39t55 25q28 10 62 10 q46 0 87.5 -17t71 -45.5t45.5 -66.5t16 -81q0 -46 -15.5 -84.5t-44 -67.5t-70.5 -46q-44 -17 -96 -17q-62 0 -112.5 21.5t-90.5 58.5t-69.5 87t-49.5 106t-30 116t-10 119q0 68 11 131.5t32.5 120t53 104t72 82.5t91 54t108.5 19q51 0 99.5 -18.5t87 -54t64.5 -86t35 -113.5 l7 3q9 63 35 112t63 83t80 52.5t87 18.5q55 0 101 -17t83 -44.5t64 -64.5t45 -80t27 -89.5t9 -89.5q0 -58 -3 -107.5t-9 -92.5t-17 -83t-26 -80q46 81 76.5 169.5t49 187t27 209t8.5 236.5q0 34 -1.5 68t-2.5 69h166zM517 194q0 19 -5 35t-16.5 29t-28.5 21.5t-42 8.5 q-22 0 -38.5 -7.5t-28.5 -20t-17 -28.5t-5 -31.5t4.5 -32.5t16 -30t29 -21.5t39.5 -8.5t39.5 7.5t29 20t17 28t6.5 30.5z" />
<glyph unicode="&#xe58;" horiz-adv-x="1601" d="M1318 385q0 22 -7.5 38.5t-20 27.5t-28 17t-33.5 8q-15 0 -32 -5.5t-29.5 -16t-21 -27.5t-8.5 -42q0 -22 7.5 -39.5t20 -29t28.5 -17.5t32 -6q15 0 32 6t31 16.5t21.5 27.5t7.5 42zM1109 858q-36 0 -82 0.5t-96 0.5h-101h-95t-77 1t-48 1q-83 0 -151 -24t-117 -71.5 t-75.5 -117t-26.5 -161.5q0 -84 17 -151.5t46.5 -113.5t68 -71t81.5 -25q37 0 67.5 17t54 46.5t40 65t27.5 72t15.5 70.5t4.5 62v6v8h139q0 -28 9 -65.5t26 -77.5t41.5 -78.5t57 -69.5t72.5 -49.5t89 -18.5q33 0 57 4.5t40.5 14t30.5 23t25 33.5q-11 -3 -21.5 -3.5 t-20.5 -0.5q-37 0 -72 13t-62 38.5t-43.5 64t-16.5 90.5q0 46 16.5 85.5t45 67t67 43t81.5 15.5q44 0 86 -16t73.5 -45.5t50 -72.5t18.5 -95q0 -80 -21.5 -151t-65.5 -123.5t-112.5 -83t-164.5 -30.5q-55 0 -109 17.5t-101 49t-83 73t-56 91.5q-16 -47 -41.5 -88.5 t-61.5 -72t-81.5 -49t-100.5 -18.5q-90 0 -159 37t-117 103t-72 158q-25 93 -25 201q0 127 40 223.5t108.5 160.5t160 96t196.5 32q19 0 52.5 -0.5t77 -1.5t94 -1.5t100 -2t95.5 -1.5h83q74 0 127 12t89.5 38.5t55.5 63.5q18 38 24 89h171q-5 -72 -36.5 -134.5t-87.5 -107 t-137 -70t-184 -25.5z" />
<glyph unicode="&#xe59;" horiz-adv-x="1601" d="M1087 996q74 0 127 11.5t89.5 36.5t55.5 62q18 38 24 89h171q-5 -72 -36.5 -133t-87.5 -104t-136 -68t-185 -25q-74 0 -115.5 -44.5t-41.5 -133.5q0 -22 4.5 -45t12 -44.5t17 -41.5t18.5 -35l317 -521h-158l-430 684q-25 40 -52.5 73t-60 57.5t-71 38.5t-84.5 14 q-55 0 -97 -21t-71 -59.5t-44.5 -89t-15.5 -112.5q0 -52 4.5 -100t14.5 -89.5t25 -74.5t33 -56q3 35 18.5 64.5t43 51t63 33t77.5 11.5q46 0 87 -16t70 -44.5t46 -67t17 -81.5q0 -47 -12.5 -87.5t-39 -72t-69 -50t-99.5 -18.5q-65 0 -122.5 23t-105.5 63t-86.5 95.5 t-64.5 121.5t-39 139.5t-13 148.5q0 89 25.5 166t74.5 135.5t120 92.5t163 34q56 0 103.5 -14t86 -35.5t68 -47.5t51.5 -52t37 -48t24 -35l4 -10q0 3 -0.5 8.5t-0.5 8.5q0 40 15.5 78.5t46 69.5t77 48.5t107.5 17.5zM610 202q0 18 -6 34.5t-18.5 30t-29.5 21.5t-39 8 q-24 0 -41 -7t-28 -18.5t-16 -28.5t-5 -34q0 -16 5 -32.5t17.5 -30t30.5 -20.5q16 -8 41 -8q21 0 38 7.5t28 20t17 27t6 30.5z" />
<glyph unicode="&#xe5a;" horiz-adv-x="1800" d="M1403 0v1244h151v-1244h-151zM533 1007q18 0 31.5 6t22.5 16.5t13.5 23.5t4.5 25q0 14 -4.5 27t-13.5 24t-22.5 17t-31.5 6q-19 0 -32.5 -6t-23 -17t-14 -23.5t-4.5 -27.5q0 -14 4.5 -26t14 -22.5t23 -16.5t32.5 -6zM1170 357q0 -83 -23 -150t-63 -115.5t-94 -79 t-115 -41.5v145q31 10 57 30t44.5 51t29 71t10.5 89v585q-66 -58 -148.5 -93.5t-185.5 -35.5q-77 0 -137.5 20t-105.5 55.5t-68 84.5q-23 46 -23 105q0 46 15.5 81t41.5 57t60 33.5t71 11.5q43 0 77 -16t58 -40.5t37 -55.5t13 -62q0 -27 -6.5 -50.5t-17 -43.5t-25 -32 t-31.5 -19q72 -9 139 8t121 55t89.5 97t44.5 138h135v-883z" />
<glyph unicode="&#xe5b;" horiz-adv-x="2850" d="M813 88q-120 0 -226.5 33t-184 96t-123 157t-45.5 216q0 117 37 204.5t101 146t149 88.5q83 31 178 31q88 0 162.5 -24t127 -69t83.5 -109q31 -63 31 -147q0 -60 -20 -105t-54 -74.5t-77 -45t-93 -15.5q-51 0 -93 17t-73 48t-48 71t-17 86q0 43 15.5 81t41.5 64.5 t58.5 42t63.5 15.5q-17 11 -45 18q-26 7 -60 7q-58 0 -111.5 -20t-94 -61.5t-64.5 -103t-24 -146.5q0 -91 33 -160.5t90 -115.5t131 -70.5t157 -24.5q116 0 213.5 41.5t169.5 117.5t112.5 183t40.5 238q0 33 -4.5 65t-10.5 66l101 68q50 -52 98.5 -113t94 -125t87 -130 t75.5 -130q27 44 55 90t52.5 93t46 92.5t38.5 86.5q6 3 17 5t22.5 5t22.5 5q11 1 17 4l148 -199h445v-91h-504l-103 142q-62 -135 -127.5 -250.5t-132.5 -223.5q-31 52 -69 114.5t-78.5 126.5t-80.5 125.5t-76 110.5l-1 -58q-14 -133 -72 -242.5t-147 -186.5t-205.5 -119 t-250.5 -42zM770 688q0 -18 7.5 -35t20 -29.5t30.5 -19.5q19 -6 37 -6q19 0 36 6.5t29 19t19 28.5t7 36q0 19 -7 36t-19 29t-29 19t-36 7q-18 0 -36.5 -7t-31 -19t-20 -29t-7.5 -36z" />
<glyph unicode="&#x2000;" horiz-adv-x="1288" />
<glyph unicode="&#x2001;" horiz-adv-x="2576" />
<glyph unicode="&#x2002;" horiz-adv-x="1288" />
<glyph unicode="&#x2003;" horiz-adv-x="2576" />
<glyph unicode="&#x2004;" horiz-adv-x="858" />
<glyph unicode="&#x2005;" horiz-adv-x="644" />
<glyph unicode="&#x2006;" horiz-adv-x="429" />
<glyph unicode="&#x2007;" horiz-adv-x="429" />
<glyph unicode="&#x2008;" horiz-adv-x="322" />
<glyph unicode="&#x2009;" horiz-adv-x="515" />
<glyph unicode="&#x200a;" horiz-adv-x="143" />
<glyph unicode="&#x200b;" />
<glyph unicode="&#x2010;" horiz-adv-x="819" d="M148 641h537v-181h-537v181z" />
<glyph unicode="&#x2011;" horiz-adv-x="819" d="M148 641h537v-181h-537v181z" />
<glyph unicode="&#x2012;" horiz-adv-x="819" d="M148 641h537v-181h-537v181z" />
<glyph unicode="&#x2013;" horiz-adv-x="1047" d="M38 450v129h981v-129h-981z" />
<glyph unicode="&#x2014;" horiz-adv-x="2072" d="M270 450v129h1566v-129h-1566z" />
<glyph unicode="&#x2018;" horiz-adv-x="592" d="M400 1368q-32 -14 -52 -32t-31.5 -42.5t-15.5 -56.5q-4 -33 -4 -73h103v-237h-197v246q0 114 51.5 186.5t145.5 103.5v-95z" />
<glyph unicode="&#x2019;" horiz-adv-x="592" d="M203 1023q33 13 53.5 31t31.5 42.5t15 56.5q5 33 5 73h-105v237h197v-246q0 -114 -50.5 -186.5t-146.5 -103.5v96z" />
<glyph unicode="&#x201c;" horiz-adv-x="933" d="M377 1368q-32 -14 -52 -32t-31 -42.5t-15 -56.5q-5 -33 -5 -73h103v-237h-195v246q0 114 50.5 186.5t144.5 103.5v-95zM782 1368q-32 -14 -53 -32t-31.5 -42.5t-15.5 -56.5q-4 -33 -4 -73h104v-237h-197v246q0 114 51 186.5t146 103.5v-95z" />
<glyph unicode="&#x201d;" horiz-adv-x="933" d="M585 1023q33 13 53 31t31.5 42.5t15.5 56.5q3 33 3 73h-103v237h197v-246q0 -114 -51.5 -186.5t-145.5 -103.5v96zM182 1023q32 13 51.5 31t31 42.5t15.5 56.5q3 33 3 73h-101v237h195v-246q0 -114 -51.5 -186.5t-143.5 -103.5v96z" />
<glyph unicode="&#x2022;" horiz-adv-x="1047" d="M194 730q0 74 26 138t72.5 111.5t108 74.5t132.5 27t131.5 -27t106 -74.5t72.5 -111.5t27 -138t-27 -138.5t-72.5 -112.5t-106.5 -76q-60 -27 -131 -27t-132.5 27.5t-108 75.5t-72.5 112.5t-26 138.5z" />
<glyph unicode="&#x202f;" horiz-adv-x="515" />
<glyph unicode="&#x205f;" horiz-adv-x="644" />
<glyph unicode="&#x20ac;" horiz-adv-x="1162" d="M160 921q22 122 68 223.5t116 175.5t165 114.5t215 40.5t214 -37t171 -118l-63 -142q-59 68 -136.5 106.5t-167.5 38.5q-77 0 -143 -28.5t-117.5 -81.5t-89.5 -127q-38 -76 -56 -165h613l-47 -119h-583q-2 -37 -2 -74q0 -26 1 -50.5t2 -49.5h527l-46 -118h-462 q18 -86 50.5 -158t82 -123.5t114 -80t146.5 -28.5q46 0 86.5 4.5t79 18.5t77 37t81.5 60v-157q-61 -55 -142.5 -83.5t-186.5 -28.5q-114 0 -208 37.5t-166.5 107t-121.5 169.5t-71 225h-152l44 118h96q-2 22 -2.5 43.5t-0.5 43.5v42.5t3 44.5h-140l44 119h108z" />
<glyph unicode="&#x2122;" horiz-adv-x="2052" d="M872 1374h-262v-736h-102v736h-260v89h624v-89zM1441 778l255 685h154v-825h-101v683h-6l-268 -683h-67l-270 683h-5v-683h-101v825h154z" />
<glyph unicode="&#x25cc;" horiz-adv-x="2135" d="M829 564l-151 -47l52 148q22 -31 46.5 -55.5t52.5 -45.5zM995 1303l74 142l68 -139q-16 3 -33 3h-32q-19 0 -39 -1.5t-38 -4.5zM1130 493l-61 -133l-68 133q17 -3 35 -5q20 -1 36 -1q17 0 30.5 1.5t27.5 4.5zM1478 967l133 -68l-133 -60q3 14 5 29q2 16 2 31q0 17 -2 35 t-5 33zM668 832l-141 74l141 69q-3 -19 -4.5 -38t-1.5 -38q0 -15 1.5 -32.5t4.5 -34.5zM739 1146l-40 145l142 -51q-31 -19 -55.5 -43t-46.5 -51zM1398 647l39 -130l-130 40q28 19 50.5 41.5t40.5 48.5zM1304 1240l156 51l-56 -148q-21 27 -45 51t-55 46z" />
<glyph unicode="&#x25fc;" horiz-adv-x="1057" d="M0 1060h1060v-1060h-1060v1060z" />
<glyph unicode="&#xf700;" horiz-adv-x="1228" d="M1044 1078q-38 -12 -73 -18.5t-65 -6.5q-50 0 -93 11t-86 23.5t-90 24.5q-46 12 -101 15h-15q-27 0 -55.5 -7.5t-53 -25.5t-44.5 -44.5t-29 -65.5q40 -5 86 -8q39 -3 86 -8q46 -7 93 -13q60 -9 125.5 -22.5t125.5 -36.5q40 -15 73.5 -36.5t58.5 -51.5t39 -69.5t14 -88.5 q1 -19 -2 -37l-65 -613h-459q-9 86 -17 160q-3 31 -5 62t-5 57.5t-4 47.5t-1 30q-11 -6 -26 -9q-12 -3 -29 -5.5t-36 -2.5q-51 0 -88.5 18t-62 47t-37 66t-12.5 74t12.5 72.5t37.5 63t63 44.5t87 17q40 0 75.5 -12t65 -35.5t48 -55.5t21.5 -75l46 -438h191l44 493q0 3 1 7 q1 5 1 8q0 53 -27 85q-25 33 -69 54q-46 23 -99 36q-55 13 -104 21q-68 11 -141 18q-74 5 -139 11q-76 6 -148 11v12q0 79 28 146.5t76.5 118.5t117 79.5t151.5 28.5q46 0 96 -8.5t101.5 -19t101 -20t92.5 -9.5q31 0 57 6t46 19zM391 437q25 0 42.5 8.5t29 21.5t18 31 t6.5 36.5t-6.5 35.5t-18 30t-29 22t-42.5 9q-24 0 -41 -9t-29.5 -22t-18 -31t-5.5 -35q0 -18 5.5 -36t18 -31t29.5 -21.5t41 -8.5z" />
<glyph unicode="&#xf701;" d="M-1414 1445q6 77 35.5 147.5t83.5 124.5t134 86.5t188 32.5q104 0 186.5 -32.5t145 -86.5t104.5 -125q41 -70 66 -147h-943zM-664 1549q-12 25 -40 54t-68 54.5t-91.5 42t-112.5 16.5q-105 0 -175 -45q-72 -45 -99 -122h586z" />
<glyph unicode="&#xf702;" d="M-664 1549q-12 25 -40 54t-68 54.5t-91.5 42t-112.5 16.5q-105 0 -175 -45q-72 -45 -99 -122h586zM-1414 1445q6 77 35.5 147.5t83.5 124.5t134 86.5t188 32.5q112 0 199 -37t150 -99v265h153v-520h-943z" />
<glyph unicode="&#xf703;" d="M-589.5 1688q21.5 0 36 7t25.5 18.5t15.5 27t4.5 30.5t-4.5 30t-15.5 26.5t-26.5 19t-35.5 7.5q-21 0 -37.5 -7.5t-26.5 -19t-15.5 -26.5t-5.5 -30t5.5 -30.5t15.5 -27t26.5 -18.5t38 -7zM-664 1549q-12 25 -40 54t-68 54.5t-91.5 42t-112.5 16.5q-105 0 -175 -45 q-72 -45 -99 -122h586zM-1414 1445q6 77 35.5 147.5t83.5 124.5t134 86.5t188 32.5q57 0 105.5 -9.5t91.5 -27.5q0 37 15.5 66t41.5 50t60 32.5t69 11.5q42 0 76 -14t58.5 -39.5t38.5 -60t14 -76.5q0 -33 -10.5 -61.5t-28 -50.5t-43 -37t-56.5 -21q24 -37 40.5 -75.5 t29.5 -78.5h-943z" />
<glyph unicode="&#xf704;" d="M-664 1549q-12 25 -40 54t-68 54.5t-91.5 42t-112.5 16.5q-105 0 -175 -45q-72 -45 -99 -122h586zM-1414 1445q6 77 35.5 147.5t83.5 124.5t134 86.5t188 32.5q18 0 32.5 -1.5t30.5 -1.5v132h149v-171q48 -20 82.5 -47t54.5 -51v269h153v-520h-943z" />
<glyph unicode="&#xf705;" d="M-665 1491v474h148v-474h-148z" />
<glyph unicode="&#xf706;" d="M-373 1968q-9 -86 -35 -155.5t-66 -121.5t-94 -90.5t-116.5 -62t-132 -34t-141.5 -10.5q-25 0 -51 1.5t-51 2.5v79q44 5 72 18q30 13 46 27q18 13 27 35q-12 -3 -24 -1q-31 0 -59 11.5t-48.5 34.5t-32 53.5t-11.5 70.5q0 36 13 66.5t37 54t56 36.5t69 13q40 0 73.5 -12.5 t57 -35.5t36.5 -55.5t13 -69.5q0 -49 -13 -87.5t-30 -66.5q-17 -30 -41 -52q66 6 118.5 37t90 77t59 107.5t24.5 129.5h154zM-913 1743q18 0 33 6.5t25 17t15 25.5q5 13 5 28q0 16 -5 29.5t-15 25t-24 18.5t-34 7t-34 -7t-25 -18.5t-15.5 -25t-4.5 -29.5q0 -15 4.5 -29 t15.5 -24.5t25 -17t34 -6.5z" />
<glyph unicode="&#xf707;" d="M-407 1925q0 -60 -15 -123t-49 -122.5t-84 -109.5q-52 -52 -120 -85l-90 70q13 25 24 49t17 46t9.5 40.5t3.5 31.5q0 43 -17 72t-53 29q-24 0 -40.5 -9t-27 -22t-18.5 -30q-8 -19 -11 -34h-78q-3 15 -12.5 32t-24 31t-33 23t-43.5 9q-21 0 -39.5 -7.5t-32.5 -21.5 t-22.5 -32.5t-8.5 -42.5v-7q5 10 17 16q9 6 24 10t35 4q30 0 55 -11.5t42.5 -30t27 -42.5t9.5 -49q0 -27 -10.5 -51t-28.5 -41t-43 -26.5t-56 -9.5q-35 0 -68 15t-58.5 45t-41 74.5t-15.5 106.5q0 52 14.5 93.5t42.5 69.5t66.5 43t84.5 15q43 0 72.5 -16.5t47.5 -38.5 q22 -25 34 -52q12 27 34 52q18 20 47.5 37.5t74.5 17.5q33 0 63.5 -13t52.5 -36.5t35 -60.5t13 -84q0 -32 -9 -62t-23 -59q20 18 38.5 45t32.5 62.5t21.5 77t7.5 86.5q0 23 -3 44h129v-18zM-1100 1558q27 0 40 16.5t13 36.5t-13 36t-40 16q-26 0 -39 -16t-13 -36t13 -36.5 t39 -16.5z" />
<glyph unicode="&#xf708;" d="M-659 1709v-224h-148v224h-231v148h231v222h148v-222h228v-148h-228z" />
<glyph unicode="&#xf709;" d="M-770 1586q18 0 33.5 6.5t25 17t14 24.5t4.5 29q0 16 -4.5 29t-14 23.5t-25 17.5t-33.5 7q-20 0 -34.5 -7t-24 -17.5t-13.5 -24.5q-5 -12 -5 -28q0 -15 4.5 -29t14 -24.5t24 -17t34.5 -6.5zM-354 2122q3 -57 -17 -110t-61 -97t-98.5 -78t-130.5 -54q14 -9 26.5 -22 t21.5 -29t15.5 -34.5t6.5 -37.5q0 -34 -12.5 -64.5t-35 -54t-57 -35.5t-77.5 -12q-42 0 -75.5 12t-57.5 35.5t-36.5 55t-12.5 68.5q0 32 11.5 60.5t31.5 51t47 39.5t58 24q74 19 129.5 49.5t92.5 68.5t53 79.5t11 84.5h167z" />
<glyph unicode="&#xf70a;" d="M-360 1488v477h151v-477h-151z" />
<glyph unicode="&#xf70b;" d="M-46 1959q-20 -96 -59.5 -168t-91 -125.5t-112.5 -88t-126 -55t-130.5 -29t-125.5 -8.5q-22 0 -43.5 1.5t-41.5 1.5v83q40 3 67.5 15.5t46.5 25.5q18 16 31 34q-13 -1 -25 -1q-31 0 -58.5 12t-47.5 34.5t-32.5 54t-12.5 71.5q0 36 13 66.5t37 53.5t56.5 36.5t69.5 13.5 q47 0 82 -14t56.5 -38.5t32 -58.5t10.5 -71q0 -40 -13.5 -75.5t-29.5 -61.5q-18 -33 -43 -57q66 6 124 40t102 81.5t71.5 107t33.5 119.5h159zM-631 1731q18 0 33.5 7t24.5 17.5t15 24.5q5 13 5 28t-5.5 29t-14.5 25t-24 17q-16 6 -34 6q-20 0 -34 -6t-24 -17t-14.5 -25 t-4.5 -29t4.5 -28.5t14.5 -24t24 -17.5t34 -7z" />
<glyph unicode="&#xf70c;" d="M-18 1996q0 -69 -18 -142.5t-55.5 -142t-97.5 -127.5t-145 -103l-97 84q37 58 50.5 109t13.5 86q0 28 -4.5 52t-15 42.5t-27.5 28.5t-40 10q-28 0 -49 -12.5t-34.5 -31t-23 -40t-12.5 -40.5h-83q-2 20 -12 42t-28.5 40.5t-44.5 30t-57 11.5q-26 0 -46.5 -10t-36 -27 t-23.5 -40t-8 -48v-6v-9q10 9 22 15q11 6 27 11.5t41 5.5q35 0 63.5 -11.5t48.5 -31.5t31 -48t11 -57q0 -34 -11 -62.5t-31 -49t-49 -32.5t-66 -12q-42 0 -81.5 17t-68.5 51t-47.5 86.5t-18.5 124.5q0 60 20 108t54 80t78 49t91 17q50 0 83.5 -18.5t55.5 -42.5 q25 -28 40 -60q12 32 38 60q22 23 56.5 42t87.5 19q40 0 73.5 -17t60 -47t40.5 -70.5t14 -86.5q0 -16 -2 -36t-5.5 -40t-9 -40t-14.5 -38q21 18 41 50.5t37 75.5t27 95.5t10 110.5q2 22 -1 43h148v-18zM-829 1574q16 0 28.5 4.5t20 14t10.5 20t3 21.5q0 12 -3 22t-10.5 19.5 t-20 14t-28.5 4.5q-30 0 -45.5 -18.5t-15.5 -41.5q0 -22 15.5 -41t45.5 -19z" />
<glyph unicode="&#xf70d;" d="M-211 1712v-221h-149v221h-230v148h230v225h149v-225h226v-148h-226z" />
<glyph unicode="&#xf70e;" d="M-490 1586q19 0 34.5 6.5t24.5 17t14.5 24.5t5.5 29q0 16 -5.5 29t-14.5 23.5t-24 17.5q-16 7 -35 7q-20 0 -33.5 -7t-23.5 -17.5t-15 -24.5q-5 -12 -5 -28q0 -15 5 -29t15 -24.5t23.5 -17t33.5 -6.5zM-74 2122q3 -57 -17 -110t-60 -97t-98.5 -78t-129.5 -54 q14 -9 25.5 -22t21.5 -29t15.5 -34.5t5.5 -37.5q0 -34 -11.5 -64.5t-34 -54t-57 -35.5t-79.5 -12q-41 0 -74.5 12t-57 35.5t-37 55t-13.5 68.5q0 32 12.5 60.5t32.5 51t46.5 39.5t56.5 24q74 19 129.5 49.5t92.5 68.5t54 79.5t11 84.5h166z" />
<glyph unicode="&#xf70f;" horiz-adv-x="1794" d="M949 0v852q0 24 -6.5 54t-20 61t-37 59.5t-55.5 51t-77 35.5t-100 13q-71 0 -124 -19.5t-89.5 -48.5t-53.5 -61q-18 -33 -18 -58v-3h230v-66q-59 -20 -97.5 -48.5t-61 -64.5t-31 -79.5t-8.5 -90.5v-190l20 6q10 4 21.5 6t20.5 2q49 0 90.5 -15.5t71 -44t46.5 -67t17 -86 t-17 -87t-46.5 -68t-71 -43.5t-90.5 -15q-59 0 -99 20t-66 53.5t-38.5 77t-12.5 89.5v323q0 65 8 109.5t22 77.5t32 55.5t35 41.5h-149v13.5v15.5q0 74 34 145.5t94.5 127t144.5 88.5t186 33q83 0 149.5 -18.5t115.5 -50t84.5 -73t58 -88t32.5 -93t10 -90.5v-710h332v1108 h151v-1240h-637zM468 102q25 0 43.5 7.5t30.5 21.5t18.5 31t6.5 35.5t-6.5 35t-18.5 30.5t-30.5 22.5t-43.5 8.5q-23 0 -40 -8.5t-28.5 -22.5t-17 -30.5t-5.5 -35t5.5 -35.5t17 -31t28.5 -21.5t40 -7.5z" />
<glyph unicode="&#xf710;" d="M-350 1876q-12 -97 -51 -175t-104 -134t-156 -86t-208 -30q-67 0 -129.5 17t-109.5 49t-75.5 80t-28.5 112q0 42 14 76.5t39.5 59.5t60.5 39.5t79 14.5t79.5 -16.5t59.5 -42.5t37 -58.5t13 -64.5q0 -31 -7 -56.5t-19.5 -43.5t-27.5 -30.5t-31 -18.5q8 0 17 -1.5t19 -1.5 h20h18q65 0 125 20t106 58.5t78 97t41 135.5h141zM-1021 1628q20 0 35.5 7t25.5 17.5t15.5 25t5.5 30t-5.5 30.5t-15.5 25.5t-25.5 17.5t-35.5 7t-35.5 -7t-24.5 -17.5t-14.5 -26t-5.5 -29.5q0 -16 5.5 -30.5t14.5 -25t24.5 -17.5t35.5 -7z" />
<glyph unicode="&#xf711;" d="M-448 1646q0 -46 -14.5 -83t-42.5 -64t-65.5 -42.5t-82.5 -15.5q-46 0 -83 15.5t-65 42.5t-42.5 65t-14.5 82.5t14.5 83t42.5 66t65 43t83 15.5q43 0 81 -15.5t65.5 -43t43 -66t15.5 -83.5zM-653 1552q23 0 41 8t28.5 21.5t16.5 30.5t6 35.5t-6 35.5t-16.5 31t-28.5 21.5 t-41 7.5q-25 0 -43.5 -7.5t-30 -21.5t-17.5 -31t-6 -35.5t6 -35.5t17.5 -30.5t30 -21.5t43.5 -8z" />
<glyph unicode="&#xf712;" d="M-909 1854q-43 0 -70 -15.5t-41.5 -39t-19 -52t-4.5 -55.5q0 -24 4.5 -47t15.5 -41.5t26 -30t37 -11.5q25 0 40 12t23.5 29t12.5 38q4 19 4 38q0 6 -1 13q-2 5 -2 11h83q0 -40 13 -65q12 -27 27 -43q19 -18 40 -30q-6 21 -7 43q0 27 10 52t28.5 42t43 27.5t55 10.5 t57.5 -9t46.5 -27.5t29.5 -44t10 -57.5q0 -71 -41.5 -112.5t-124.5 -41.5q-42 0 -76.5 8.5t-61.5 22t-46 31.5q-18 18 -31 38q-6 -19 -18 -36.5t-30 -31.5t-41.5 -23t-54.5 -9q-43 0 -81.5 19t-66.5 53t-43.5 81t-15.5 102q0 54 17 101t49.5 81t81.5 54t114 20 q56 0 111 -4.5t103 -4.5q31 0 62 3t55.5 15t40.5 33t22 56h127q-3 -55 -28 -95t-65 -64.5t-95.5 -37t-122.5 -12.5q-47 0 -94.5 3t-106.5 3zM-588 1540q31 0 46 18.5t15 40.5q0 21 -15 39.5t-46 18.5q-30 0 -44.5 -18.5t-14.5 -39.5q0 -22 14.5 -40.5t44.5 -18.5z" />
<glyph unicode="&#xf713;" d="M-613 2079v325h139v-325h-139z" />
<glyph unicode="&#xf714;" d="M-132 2515q-19 -86 -53.5 -151.5t-81.5 -113.5t-102.5 -78.5t-114 -49t-117 -26.5t-110.5 -8q-19 0 -37.5 1.5t-36.5 1.5v74q40 5 64.5 16.5t39.5 23.5q17 14 25 30q-6 0 -10.5 -1t-11.5 -1q-27 0 -52 11t-43.5 30t-28.5 47q-11 29 -11 63q0 32 11.5 59t32.5 47t50 31 t63 11q37 0 66 -12.5t51 -32.5t32.5 -47.5t10.5 -58.5q0 -43 -11 -77q-10 -34 -26 -59q-17 -27 -38 -47q58 6 110.5 36t92.5 74.5t65.5 98.5t31.5 108h139zM-656 2307q18 0 30.5 5.5t22 15.5t14 22t4.5 25q0 27 -18 47t-53 20q-37 0 -54 -20t-17 -47q0 -13 4.5 -25t13 -22 t21.5 -15.5t32 -5.5z" />
<glyph unicode="&#xf715;" d="M-179 2526q0 -60 -15 -124t-49 -122.5t-84 -109.5q-52 -51 -120 -85l-90 69q27 48 40 91t13 77q0 50 -19 75t-54 25q-25 0 -40.5 -9t-26 -23t-17 -30t-12.5 -32h-72q-3 14 -13 30.5t-24 30t-34 23.5t-45 10q-21 0 -39.5 -7.5t-32.5 -21.5t-22.5 -33t-8.5 -41v-12 q5 9 17 15q9 6 23.5 11.5t34.5 5.5q31 0 56 -10.5t43 -28.5t27.5 -41t9.5 -48q0 -27 -10 -52t-27.5 -41.5t-44 -26t-57.5 -9.5q-35 0 -68 14t-58.5 44t-41 75.5t-15.5 106.5q0 53 17 93t45.5 69t67 44t78.5 15q43 0 72.5 -17t47.5 -37q22 -25 34 -54q12 31 34 54 q18 20 47.5 37t74.5 17q75 0 118 -52t43 -141q0 -28 -7.5 -61.5t-21.5 -61.5q18 18 36.5 44.5t32 61t21 75.5t7.5 84v24.5t-3 26.5h132v-17zM-872 2158q27 0 40 16t13 34q0 20 -13 36.5t-40 16.5q-26 0 -39 -15.5t-13 -37.5q0 -20 13 -35t39 -15z" />
<glyph unicode="&#xf716;" d="M-480 2264v-176h-133v182h-185v126h185v180h133v-183h187v-129h-187z" />
<glyph unicode="&#xf717;" d="M-625 2111q15 0 29 5.5t21.5 15t12.5 21.5t5 23q0 12 -5 23.5t-12.5 21t-20.5 15.5q-15 6 -30 6q-17 0 -29.5 -6t-21 -15.5t-12 -21t-3.5 -23.5t3.5 -23.5t12 -21t21 -15t29.5 -5.5zM-266 2563q3 -50 -15 -93.5t-52 -80.5t-84.5 -65.5t-112.5 -45.5q28 -13 43.5 -41.5 t15.5 -62.5q0 -29 -9.5 -54.5t-29.5 -44.5t-49 -30.5t-66 -11.5q-36 0 -64.5 11.5t-48.5 30.5t-30.5 45.5t-10.5 57.5q0 27 9 51t26 43.5t40 33t51 19.5q63 16 110 42t78.5 57.5t46.5 67t10 71.5h142z" />
<glyph unicode="&#xf718;" d="M-360 -1146v191q-7 -3 -16 -3h-18q-45 0 -79.5 14t-58.5 39.5t-36.5 57.5t-12.5 68q0 34 12 67t35 58.5t58.5 41.5t81.5 16q43 0 78.5 -14t58.5 -38.5t36 -57.5t13 -73v-367h-152zM-319 -782q0 14 -4.5 27.5t-14.5 23.5t-24 17t-32 7q-20 0 -35 -7t-25 -17t-14.5 -23.5 t-4.5 -27.5q0 -16 4.5 -29.5t14.5 -24.5t25 -18t35 -7q18 0 32 7t24 18t14.5 24.5t4.5 29.5z" />
<glyph unicode="&#xf719;" d="M-647 -1143v191q-6 -3 -13.5 -3h-17.5q-46 0 -80.5 14.5t-58.5 40t-35.5 56.5t-11.5 65t11.5 67t34.5 58.5t58.5 41.5t81.5 16q44 0 77.5 -13t56.5 -37.5t35.5 -57t12.5 -72.5v-253h129v410h159v-524h-439zM-602 -782q0 15 -5.5 29t-15.5 25.5t-24.5 18.5t-33 7t-34 -7 t-24.5 -18.5t-15.5 -25.5t-6.5 -29q0 -14 4.5 -28.5t15.5 -25.5t25 -18t35 -7q20 0 35 7t24 18t14.5 25.5t5.5 28.5z" />
<glyph unicode="&#xf71a;" d="M-308 -852q-28 0 -49.5 10t-36 25.5t-21.5 37t-7 43.5q0 21 7 41t21.5 37t36 26.5t49.5 9.5t49.5 -9.5t35.5 -26.5t21.5 -37t7.5 -41q0 -22 -7.5 -43.5t-21.5 -37t-35.5 -25.5t-49.5 -10z" />
<glyph unicode="&#xf71d;" horiz-adv-x="1475" d="M1415 1398q-6 -38 -25 -79t-50 -76.5t-73 -61.5q-41 -26 -94 -32q25 -12 42 -30.5t29.5 -38.5t17.5 -42t5 -42v-996h-143l-323 625l-316 -625h-139v845q-7 -4 -20 -7q-9 -3 -20.5 -6t-22.5 -3q-49 0 -90.5 15t-71 43t-46 67t-16.5 87q0 49 16.5 88.5t46 67t71 43 t90.5 15.5q59 0 100 -20t67 -53t38 -76t12 -90v-483q0 -31 -2 -72.5t-2 -78.5q-3 -43 -6 -89l278 523h70l283 -526q-3 46 -3 89q-2 37 -4 79t-2 75v451q0 25 -8.5 47t-24.5 40.5t-41 30t-55 11.5h-170v127h247q33 0 62.5 10t54 30t41.5 49t20 69h177zM277 942q23 0 40 8.5 t28.5 22t18 31t6.5 36t-6.5 35.5t-18 30t-29 22.5t-39.5 9.5q-24 0 -42.5 -9.5t-31 -22.5t-18 -31t-5.5 -34q0 -19 5.5 -36.5t18 -31t31 -22t42.5 -8.5z" />
<glyph unicode="&#xf881;" horiz-adv-x="2222" d="M1848 -460v1347q0 49 -12.5 91.5t-41 74t-74.5 51t-114 19.5q-49 0 -94.5 -13.5t-81.5 -41t-60 -72.5q-24 -44 -29 -109h-168q14 100 56.5 170t102.5 114t132.5 64t147.5 20q105 0 180.5 -30t124 -83t72.5 -123t24 -152v-1327h-165zM992 -460v1302q0 45 -17 95t-54 92.5 t-98 69.5t-148 27q-73 0 -130.5 -21t-97 -51t-60 -63t-19.5 -58h230v-66q-59 -20 -97.5 -48.5t-61 -64.5t-31 -79.5t-8.5 -90.5v-187q10 5 20 8t21.5 5.5t20.5 2.5q49 0 90.5 -15.5t71 -44t46.5 -68t17 -87t-17 -87t-46.5 -68t-71 -43.5t-90.5 -15q-59 0 -99 20t-66 53.5 t-38.5 77t-12.5 89.5v329q0 62 8 106t22 75.5t32 53t35 40.5h-149q-5 58 10 112t44 101.5t73 86t98.5 67t119.5 44t136 15.5q126 0 215 -35.5t146 -93t84 -133t27 -154.5v-1299h-155zM468 105q25 0 43.5 7.5t30.5 21.5t18.5 31t6.5 35.5t-6.5 35.5t-18.5 30.5t-30.5 21.5 t-43.5 8q-23 0 -40 -8t-28.5 -21.5t-17 -30.5t-5.5 -35.5t5.5 -35.5t17 -31t28.5 -21.5t40 -7.5z" />
<glyph unicode="&#xf882;" horiz-adv-x="2268" d="M1894 -460v1347q0 49 -12 91.5t-40.5 74t-75 51t-114.5 19.5q-49 0 -94.5 -13.5t-81.5 -41t-60 -72.5q-24 -44 -28 -109h-168q14 100 56 170t102 114t132.5 64t148.5 20q104 0 179.5 -30t124 -83t72.5 -123t24 -152v-1327h-165zM1198 -457h-151q0 343 -3 620v156v148.5 v134v111v79v37.5q0 30 -7.5 64t-23 66.5t-39.5 63t-58 54t-78.5 36.5t-99.5 13q-77 0 -136.5 -21t-101 -50t-63 -62.5t-21.5 -59.5l255 -3v-81q-40 -19 -65 -43t-40 -51.5t-19 -56.5q-5 -27 -5 -57v-416q0 -46 -12.5 -89.5t-38.5 -77t-67.5 -53.5t-100.5 -20q-49 0 -90.5 15 t-71 43.5t-45.5 68t-16 87.5q0 46 16 86t45.5 68.5t71 44t90.5 15.5q11 0 22.5 -2.5t21.5 -5.5q12 -3 21 -8v231q0 42 4.5 72t14.5 54t24 41q13 18 31 30h-209q-7 54 5.5 107.5t42 101t74 87.5t100 70t123 47t143.5 17q83 0 150 -19t118 -53t86 -77t58.5 -91t34 -97 t10.5 -93v-1282zM317 105q23 0 41 7.5t28.5 21.5t17 31t6.5 35.5t-6.5 35.5t-17 30.5t-27.5 21.5t-41.5 8t-42.5 -8t-29.5 -21.5t-17.5 -30.5t-6 -35.5t6 -35.5t17.5 -31t29.5 -21.5t42 -7.5z" />
<glyph d="M-715 1656q-43 0 -69 -27t-26 -86h-151q0 68 18.5 111t48 67.5t63 34.5t64.5 10q0 37 17 63.5t42.5 42.5t55.5 24.5t56 8.5h97v-136h-71q-20 0 -38.5 -5t-32 -18.5t-22 -35.5t-8.5 -54h-44z" />
<glyph horiz-adv-x="1053" d="M682 0v887q0 49 -13 91.5t-40.5 74t-74 51t-114.5 19.5q-49 0 -95 -13.5t-81.5 -41t-59.5 -72.5q-22 -44 -28 -109h-168q14 100 55.5 170t101.5 114t132.5 64t149.5 20q104 0 179.5 -30t124 -83t72.5 -123t24 -152v-867h-165zM-448 1646q0 -46 -14.5 -83t-42.5 -64 t-65.5 -42.5t-82.5 -15.5q-46 0 -83 15.5t-65 42.5t-42.5 65t-14.5 82.5t14.5 83t42.5 66t65 43t83 15.5q43 0 81 -15.5t65.5 -43t43 -66t15.5 -83.5zM-653 1552q23 0 41 8t28.5 21.5t16.5 30.5t6 35.5t-6 35.5t-16.5 31t-28.5 21.5t-41 7.5q-25 0 -43.5 -7.5t-30 -21.5 t-17.5 -31t-6 -35.5t6 -35.5t17.5 -30.5t30 -21.5t43.5 -8z" />
<glyph horiz-adv-x="1053" d="M682 0v887q0 49 -13 91.5t-40.5 74t-74 51t-114.5 19.5q-49 0 -95 -13.5t-81.5 -41t-59.5 -72.5q-22 -44 -28 -109h-168q14 100 55.5 170t101.5 114t132.5 64t149.5 20q104 0 179.5 -30t124 -83t72.5 -123t24 -152v-867h-165zM-448 1646q0 -46 -14.5 -83t-42.5 -64 t-65.5 -42.5t-82.5 -15.5q-46 0 -83 15.5t-65 42.5t-42.5 65t-14.5 82.5t14.5 83t42.5 66t65 43t83 15.5q43 0 81 -15.5t65.5 -43t43 -66t15.5 -83.5zM-653 1552q23 0 41 8t28.5 21.5t16.5 30.5t6 35.5t-6 35.5t-16.5 31t-28.5 21.5t-41 7.5q-25 0 -43.5 -7.5t-30 -21.5 t-17.5 -31t-6 -35.5t6 -35.5t17.5 -30.5t30 -21.5t43.5 -8z" />
<glyph d="M-1152 1445q6 77 35.5 147.5t83.5 124.5t134 86.5t188 32.5q104 0 187.5 -32.5t145 -86.5t104.5 -124.5t66 -147.5h-944zM-400 1549q-13 25 -40.5 54t-67.5 54.5t-92.5 42t-114.5 16.5q-104 0 -173.5 -45t-98.5 -122h587z" />
<glyph d="M-400 1549q-13 25 -40.5 54t-67.5 54.5t-92.5 42t-114.5 16.5q-104 0 -173.5 -45t-98.5 -122h587zM-1152 1445q6 77 35.5 147.5t83.5 124.5t134 86.5t188 32.5q112 0 199 -37t152 -99v265h151v-520h-943z" />
<glyph d="M-326.5 1688q21.5 0 36 7t24.5 18.5t15.5 27t5.5 30.5t-5.5 30t-15.5 26.5t-25 18.5q-14 8 -35.5 8t-37.5 -7.5t-26 -19t-16.5 -26.5t-6.5 -30t6.5 -30.5t16.5 -27t26 -18.5t37.5 -7zM-400 1549q-13 25 -40.5 54t-67.5 54.5t-92.5 42t-114.5 16.5q-104 0 -173.5 -45 t-98.5 -122h587zM-1152 1445q6 77 35.5 147.5t83.5 124.5t134 86.5t188 32.5q57 0 105.5 -9.5t91.5 -27.5q0 37 16 66t42 50t59.5 32.5t70.5 11.5q41 0 75 -14t58.5 -39.5t37.5 -60t13 -76.5q0 -33 -9 -61.5t-27.5 -50.5t-43 -37t-55.5 -21q23 -37 40 -75.5t29 -78.5h-944z " />
<glyph d="M-400 1549q-13 25 -40.5 54t-67.5 54.5t-92.5 42t-114.5 16.5q-104 0 -173.5 -45t-98.5 -122h587zM-1152 1445q6 77 35.5 147.5t83.5 124.5t134 86.5t188 32.5q18 0 33.5 -1.5t30.5 -1.5v132h148v-171q48 -20 82.5 -46t56.5 -51v268h151v-520h-943z" />
</font>
</defs>
</svg>
